/* XPM */
static char *_112_7a23c0737edbaa28f79f0e917a0fc71922d7c72cb0619749ee63a0c3dc39d663[] = {
/* columns rows colors chars-per-pixel */
"29 43 211 2 ",
"   c #302A2A",
".  c #2A312A",
"X  c #313234",
"o  c #BF0E16",
"O  c #A91C1C",
"+  c #B91919",
"@  c #9D241B",
"#  c #AA2319",
"$  c #B4201E",
"%  c #AB1F20",
"&  c #B21F21",
"*  c #BA1D21",
"=  c #9C2A24",
"-  c #AA2422",
";  c #A52B27",
":  c #AF222A",
">  c #B42426",
",  c #B22329",
"<  c #B12B36",
"1  c #B43639",
"2  c #DB0D0B",
"3  c #D40E0A",
"4  c #C7120F",
"5  c #C9140D",
"6  c #D2120D",
"7  c #DA150C",
"8  c #CA0F13",
"9  c #DD0C12",
"0  c #D30E15",
"q  c #C21515",
"w  c #CB1514",
"e  c #C41A15",
"r  c #C6131A",
"t  c #CD131A",
"y  c #C21B1A",
"u  c #CC1A14",
"i  c #D21313",
"p  c #DB1312",
"a  c #D51319",
"s  c #DD1418",
"d  c #DA191E",
"f  c #E30D0D",
"g  c #EC0B0C",
"h  c #E70B07",
"j  c #F3090C",
"k  c #F20C05",
"l  c #E6100C",
"z  c #EB130C",
"x  c #EF0D11",
"c  c #E80E15",
"v  c #EB1312",
"b  c #EA1819",
"n  c #F2121C",
"m  c #CB1D21",
"M  c #C01D20",
"N  c #C32421",
"B  c #CA292C",
"V  c #CE302F",
"C  c #CF2C31",
"Z  c #D22B33",
"A  c #C43737",
"S  c #D53D3C",
"D  c #D33738",
"F  c #B3423B",
"G  c #C5413D",
"H  c #A84345",
"J  c #B64A4D",
"K  c #BC494C",
"L  c #B6514F",
"P  c #BD4753",
"I  c #AD5B5A",
"U  c #B05155",
"Y  c #B46159",
"T  c #AA6869",
"R  c #C34C49",
"E  c #CA4747",
"W  c #D24245",
"Q  c #D74749",
"!  c #CB5854",
"~  c #D35453",
"^  c #DC5A55",
"/  c #D4585B",
"(  c #DD5D5C",
")  c #E5454D",
"_  c #EF514E",
"`  c #E34D56",
"'  c #E4545D",
"]  c #C56255",
"[  c #C36A5C",
"{  c #D0685F",
"}  c #CF5E60",
"|  c #D55D64",
" . c #EF5D67",
".. c #CA6867",
"X. c #D56A69",
"o. c #DA716E",
"O. c #D46D70",
"+. c #C8787B",
"@. c #D57A7B",
"#. c #D97D7F",
"$. c #EA676F",
"%. c #FC6D6F",
"&. c #E97474",
"*. c #E97779",
"=. c #F67C7B",
"-. c #FB7776",
";. c #D67C84",
":. c #DB7B89",
">. c #E37A84",
",. c #F07E88",
"<. c #96958E",
"1. c #9A948F",
"2. c #98998B",
"3. c #928E9F",
"4. c #8D9391",
"5. c #959693",
"6. c #9B9592",
"7. c #939996",
"8. c #999996",
"9. c #95969A",
"0. c #959A9B",
"q. c #9D9C9D",
"w. c #9C959C",
"e. c #A69A95",
"r. c #A69D9B",
"t. c #A99C99",
"y. c #A79B95",
"u. c #B99A98",
"i. c #9FA397",
"p. c #9CA49E",
"a. c #A3A29C",
"s. c #AAA19E",
"d. c #9F9EA1",
"f. c #9895A0",
"g. c #A39EA4",
"h. c #AB9EA4",
"j. c #A897A3",
"k. c #B39CA2",
"l. c #9EA3A1",
"z. c #A2A2A3",
"x. c #A7A7A9",
"c. c #B5A6A8",
"v. c #BBA7B0",
"b. c #C58686",
"n. c #DD878D",
"m. c #C1948E",
"M. c #DA958F",
"N. c #C99393",
"B. c #D99894",
"V. c #EF8885",
"C. c #F58582",
"Z. c #FF8C8C",
"A. c #F58C89",
"S. c #E29585",
"D. c #FF938B",
"F. c #FF9C8E",
"G. c #E88B91",
"H. c #FF8E95",
"J. c #E99698",
"K. c #FF9390",
"L. c #FF9C9D",
"P. c #FB9895",
"I. c #FFA29E",
"U. c #DE9DA3",
"Y. c #EFA9AB",
"T. c #FFA4A5",
"R. c #FEA4AC",
"E. c #FFADAB",
"W. c #EBAFB1",
"Q. c #FEA9B2",
"!. c #ECB0B0",
"~. c #FFB4B4",
"^. c #FEBDB6",
"/. c #FFB6BD",
"(. c #FFBCBC",
"). c #F3BCB7",
"_. c #FFC3BE",
"`. c #FBC5BA",
"'. c #F7C3C3",
"]. c #FEC4C3",
"[. c #FFC5CA",
"{. c #FFCBCA",
"}. c #FED1CC",
"|. c #FFC7D0",
" X c #FBCFD0",
".X c #FFD4D4",
"XX c #FFDBDB",
"oX c #FFD9D5",
"OX c #FFE3DD",
"+X c #FFE0D6",
"@X c #FFDFE2",
"#X c #FFD5E0",
"$X c #FFE5E4",
"%X c #FFEAE5",
"&X c #FFE6EB",
"*X c #FFECEC",
"=X c #FFF3ED",
"-X c #FDFAEE",
";X c #FFF5E7",
":X c #FFEDF3",
">X c #FFEDF9",
",X c #FFE7F1",
"<X c #EFF6F6",
"1X c #F4F4F2",
"2X c #FEF4F3",
"3X c #F5FAF5",
"4X c #FDFBF5",
"5X c #FEF5FA",
"6X c #F5FCFC",
"7X c #FDFDFC",
"8X c #F6F5FB",
/* pixels */
". z.6.t.6.6.w.9.0.7.5.<.7.0.7.7.7.4.r.<.8.0.3.f.5.2.2.5.X ",
"s.%X*X{.&X4X>X7X6X6X7X7X7X7X6X7X6X7X5X7X7X7X5X7X7X4X4X7Xz.",
"m.b...H I *X5X7X4X5X6X7X5X5X7X-X4X6X4X5X4X7X6X6X7X4X3X7Xp.",
"M.@.~ P...$X5X5X2X2X8X7X7X5X7X7X7X7X5X=X4X5X7X6X7X7X4X6Xa.",
"G.>.! D.X.XX5X=X^.}.7X<X7X7X4X6X7X4X=XOX`.-X5X6X5X7X6X7Xa.",
"n.@.! I...oX*X_.# ( *X7X7X4X7X7X4X2X&X] = ^.2X7X7X7X6X7Xa.",
"N.b.O.H T %X.XA 7 5 V.,X4X4X6X6X5X:X-.u 7 V $X5X7X7X6X5Xt.",
"u.XX.X/.XX*X&.e z 2 < {.=X4X6X7X7X{.N h j a ;.5X7X6X6X7Xs.",
"y.;XZ.Z.*X*XT.+ c p K @X=X4X7X4X7XOXS c x t R.5X5X7X7X7Xz.",
"x.}.- O W.:X&X/ w y T.=X=X&X!.*X2X=XL.y r ` *X5X4X7X5X7Xa.",
"c.'.O > U.5X*X&XJ A.*X%X%XV., =.=X=X=XB.I &X=X2X4X7X4X7Xp.",
"d.5X*.X.=X5X5X2XoX$X=X-XE.+ s m ~.2X2X=XXX*X4X7X4X7X6X6Xz.",
"x.4X%X=X4X7X-X-X2X4X5X$XW 2 j 0 P @X5X4X2X2X-X6X6X7X6X7Xz.",
"l.6X4X4X7X4X-X-X)..X8X:X%.i v 5 *.:X:X X(.*X4X6X4X6X6X6Xz.",
"z.7X4X7X7X4X=X^.+  .,X>X XG e D XX2XOX! & ~.*X7X7X7X6X7Xz.",
"l.7X5X7X6X4XXXA 9 a :.>X:X].F _.2X=X=.e p C &X7X5X7X6X6Xl.",
"z.7X4X7X6X:X&.t g c & [.2X=X*X=X5X[.N l k 6 @.5X5X5X7X7Xl.",
"p.7X7X7X4X:XR.q l s E XX4X4X5X5X5XXXG 2 z 5 E.5X5X7X7X7Xl.",
"d.7X5X6X7X4XOXo.q + E.=X4X4X7X7X1X2XT.$ y ' =X7X7X7X5X6Xl.",
"z.7X6X7X7X4X4X+XR D.=X4X3X7X7X6X6X4X&XP.J $X-X6X7X7X6X7Xp.",
"p.7X4X7X7X7X4X4X*X*X2X7X4X6X6X6X6X5X5X5X$X4X4X6X4X7X5X7Xz.",
"a.4X5X7X7X6X7X4X=X2X7X4X4X7X3X6X4X7X5X5X5X2X7X3X4X7X7X7Xs.",
"i.4X3X7X7X6X7X2X$X=X2X5X2X7X7X5X7X5X=X5X$X2X3X6X7X7X5X7Xs.",
"i.7X5X7X5X7X2X*XL A.2X5X7X7X5X7X5X2X=XJ.U $X5X4X4X4X6X6Xl.",
"z.7X7X6X6X4X$X( e y T.2X4X6X6X7X7X=XR.+ r  .&X5X7X7X6X6Xz.",
"x.7X6X7X3X5XR.+ l l R $X5X7X7X5X4X$XS 9 n r E.5X4X6X6X7Xp.",
"g.7X7X7X6X=X&.e z 3 - ].2X2X&X2X4X}.$ z g t ;.5X7X4X3X7Xx.",
"z.7X1X6X<X4XoXA u u C.%X=X[.H ].=X%X-.u 6 V oX5X4X7X6X7Xd.",
"p.6X7X4X4X4X;X_.- ~ OX*X[.Q y D oX=X+X] @ ^.=X2X4X5X7X7Xq.",
"p.7X4X4X4X4X4X2X~..X4X2X-.8 g w ;.=X;XoX^.*X=X7X-X4X5X5Xq.",
"l.7X1X7X3X4X7X*X2X5X6X,XW 0 k 6 J ,X4X5X7X4X4X7X4X*X*X5Xz.",
"z.7X7X4X7X7X2X5X%X&X5X:XR.q 7 e ~.:X:X:X&X5X5X2X%X+.m.:Xh.",
"y.7X4X6X6X4X5X@XE Z.=X%X*Xn.- C.*X*X*XG.L $X2X2XD.# = (.c.",
"s.4X6X6X6X7X%X/ 4 e T.:X5X5XY.$X4X*XT.* q ^ :X:XF.# ; [.v.",
"z.7X6X7X3X=XL.m b 3 E XX:X5X2X=X4XXXD f x 4 R.,X%XS.M.2Xj.",
"x.8X7X6X3X=X*.q 2 p - ].5X7X7X-X5X[.B c j d :.>X{._.OX$Xj.",
"j.7X5X6X-X;X$X1 a w V.=X2X1X7X4X4X=X=.4 s Z #X>X} A $.@.c.",
"h.7X6X3X4X-X:X[.# ^ %X=X4X7X7X7X4X4X*X.., /.5X&X| H.) *.u.",
"g.7X7X4X3X7X5X5X].XX=X4X5X4X6X6X7X5X5X$X).,X7X%X..Z._ &.u.",
"z.7X7X7X7X6X7X5X5X2X7X7X7X7X6X6X5X7X6X4X7X7X6X=X[ F.Q *.m.",
"z.7X1X4X6X6X6X5X5X5X6X6X6X7X6X6X7X5X7X5X5X3X4X=XY F O.+.u.",
"l.7X4X7X6X6X7X7X7X7X7X7X7X7X7X6X7X7X7X7X7X4X7X4XXX].XX$Xk.",
"  8.5.5.6.<.9.9.8.6.8.9.5.5.9.9.7.7.5.5.1.6.8.6.t.e.e.c.  "
};
