/* XPM */
static char *_0142_5789619dc61b0f664ef22757fb226b59023b27b51e515a58dff7866f38691967[] = {
/* columns rows colors chars-per-pixel */
"29 43 217 2 ",
"   c #342E32",
".  c #302B32",
"X  c #BC100C",
"o  c #BD1212",
"O  c #BD1B14",
"+  c #B61B1A",
"@  c #BC1B1C",
"#  c #B31A16",
"$  c #A51B1B",
"%  c #A92518",
"&  c #B62018",
"*  c #B71A24",
"=  c #9C282B",
"-  c #A52523",
";  c #B72628",
":  c #AC2E32",
">  c #A63838",
",  c #B83737",
"<  c #AA3129",
"1  c #CE0E09",
"2  c #D50C0C",
"3  c #DD0E0C",
"4  c #D90606",
"5  c #CD130D",
"6  c #C5140E",
"7  c #D6110D",
"8  c #DB100C",
"9  c #C70F11",
"0  c #D30C18",
"q  c #D70D15",
"w  c #C31415",
"e  c #CB1415",
"r  c #C51914",
"t  c #CD131A",
"y  c #CA1B1C",
"u  c #C61817",
"i  c #D31313",
"p  c #DB1413",
"a  c #D3151A",
"s  c #D71A1A",
"d  c #EC0904",
"f  c #E30B0B",
"g  c #EB0B0B",
"h  c #E70706",
"j  c #F40203",
"k  c #F4060A",
"l  c #F30B0A",
"z  c #FB0A0A",
"x  c #F80806",
"c  c #E8120D",
"v  c #FE1004",
"b  c #ED0D12",
"n  c #E40C14",
"m  c #F90A13",
"M  c #F50C11",
"N  c #E51314",
"B  c #EC1213",
"V  c #ED1719",
"C  c #F51415",
"Z  c #F4251F",
"A  c #C91820",
"S  c #F71C20",
"D  c #E21D24",
"F  c #C52321",
"G  c #C5272A",
"H  c #D6292B",
"J  c #C4322C",
"K  c #D3312F",
"L  c #CB3834",
"P  c #D53435",
"I  c #D53A3A",
"U  c #E72B28",
"Y  c #FB2024",
"T  c #FE3E3B",
"R  c #E33737",
"E  c #B7433E",
"W  c #A63D46",
"Q  c #B53F43",
"!  c #DA3B40",
"~  c #C53C43",
"^  c #BB4444",
"/  c #B94948",
"(  c #AF5650",
")  c #B05150",
"_  c #B75E62",
"`  c #BC6865",
"'  c #AC676C",
"]  c #C74A46",
"[  c #D44B4C",
"{  c #DE4E4D",
"}  c #C4534F",
"|  c #DF534F",
" . c #D84B52",
".. c #C65A56",
"X. c #D9595B",
"o. c #E34849",
"O. c #F84B4C",
"+. c #EF4B52",
"@. c #E45E5C",
"#. c #E95955",
"$. c #F85857",
"%. c #C9635F",
"&. c #D95E61",
"*. c #C96865",
"=. c #D8656D",
"-. c #D77777",
";. c #C87172",
":. c #E76D6B",
">. c #FF6A65",
",. c #F86A6A",
"<. c #FF716C",
"1. c #FF6D76",
"2. c #F16E73",
"3. c #E77774",
"4. c #E8777A",
"5. c #FF7575",
"6. c #CC857E",
"7. c #D5827C",
"8. c #FF837A",
"9. c #F08075",
"0. c #BC7F84",
"q. c #EF7A80",
"w. c #FF7F82",
"e. c #97978C",
"r. c #8E9596",
"t. c #959594",
"y. c #999594",
"u. c #949993",
"i. c #9B9A97",
"p. c #959598",
"a. c #9C9499",
"s. c #9B9C9A",
"d. c #919B9B",
"f. c #A7988E",
"g. c #A79A99",
"h. c #B99A99",
"j. c #9BA39D",
"k. c #97A49D",
"l. c #A3A29D",
"z. c #A8A19A",
"x. c #BDA29B",
"c. c #918EA1",
"v. c #9B97A8",
"b. c #A39EA2",
"n. c #A89AA2",
"m. c #96A2A0",
"M. c #9DA4A4",
"N. c #9DA8A4",
"B. c #A3A2A3",
"V. c #AAA1A4",
"C. c #B5A6AC",
"Z. c #D88181",
"A. c #C5968E",
"S. c #DE958F",
"D. c #CA9494",
"F. c #C49896",
"G. c #D59D96",
"H. c #CB8587",
"J. c #FF8381",
"K. c #FF8B8D",
"L. c #FA8B89",
"P. c #FF928A",
"I. c #F3958D",
"U. c #F98C95",
"Y. c #FF9493",
"T. c #FF9C96",
"R. c #FF9A9D",
"E. c #F69498",
"W. c #EA918C",
"Q. c #FFA69F",
"!. c #FF98A1",
"~. c #FFA3A2",
"^. c #FFAAA5",
"/. c #FFADAB",
"(. c #FEB2AB",
"). c #F9B7AF",
"_. c #FFAFB7",
"`. c #FFB4B3",
"'. c #FFBAB5",
"]. c #FFB5BA",
"[. c #FFBDBB",
"{. c #F5BBB0",
"}. c #E8B2B1",
"|. c #FFC1BE",
" X c #F9C4BB",
".X c #FFBEC0",
"XX c #FFC6C4",
"oX c #FECAC4",
"OX c #FFC2C9",
"+X c #FECDCC",
"@X c #FFD2CE",
"#X c #FFCCD4",
"$X c #FFD4D4",
"%X c #FFDCD5",
"&X c #FFD4DA",
"*X c #FFDDDB",
"=X c #FFE2D5",
"-X c #FFE3DD",
";X c #FFDCE2",
":X c #FFE3E4",
">X c #FFEBE5",
",X c #FFE5EB",
"<X c #FFEDEC",
"1X c #FEF5E7",
"2X c #FFF3ED",
"3X c #FEFAEC",
"4X c #FFECF2",
"5X c #FFEFF9",
"6X c #F4F5F4",
"7X c #FFF4F3",
"8X c #F5FCF4",
"9X c #FDFAF5",
"0X c #F6F5FA",
"qX c #FEF5FB",
"wX c #F5FCFD",
"eX c #FDFDFC",
"rX c #EEF9F3",
/* pixels */
"  g.g.g.e.e.u.t.c.v.t.e.i.i.d.u.a.i.r.d.d.a.t.y.e.i.u.u.  ",
"g.4X<X#X-X3XeXwXeXwXeXeXqXeXwXwXqXeXwXwXeXeXeXeX9XeXeXeXl.",
"D.H.=.> ` <X2X6X0X0X8X9X9XeXeXwXeX0XwXwX0X0XqX8XeX9X9XeXb.",
"D.-.[ R.*.-X2X7X7X2X2X7XqX8XeX9X7X9X7X7X4X7X9XeXeX9XeXeXV.",
"A.7.X.K.*.*X$X-.Q.@X3.`.2X9XeX9X>X'.3.|.^.-.=X9X9XeXwXeXg.",
"A.H...!.*.*X@.O P +.e ; $XqX9X9XoX< r O.U & *.2XqXwXeXeXl.",
"F.0.-.W ' :XR 4 g g b w ].7XwXqX].+ p d g s Q 4XqXwXqXeXl.",
"h.,X#XOX*X,XO.f z j g y +X5X4X7XOXG n x x 7 &.,XeXeXwXwXl.",
"D.#XP.T._.;X^.O g d 1 >.&X#X<X$X*X,.i V n w `.7XeXwXwXwXB.",
"G.` % J W ,X-XQ.X s $.|.L G Y., > .X$.o * ~.>X9XwXwXwXwXj.",
"G.;.y w _ 4X<X2XL./ -X3.6 f Y 7 t 1.$X( S.>X1X9XeXeXeXeXB.",
"h.1XL ; $X7XeX2X,X-X4XZ.5 v j M 0 1.-X-X1X9X9X9X9X9X9XeXB.",
"j.3XXXXXeXqXeXeX7X2X7X.Xw l m f * ].2X9X7XeX9X9X9XeXqXeXB.",
"N.8X9XeXqXeX2X@X-X,X+X*X8.5 N a w.:X@X*X;X&X2X9X9XeXeXeXB.",
"i.eXqXeXeX7XP.& o.5.y o.*XW.$ 1.%X[ + 5.+.* E.2X9XeXeXeXB.",
"V.eXqXeXeX<XL 8 N Z h t ].<XW.*X^.& p V m 7 / <X9XeXwXeXB.",
"B.eX8XeXqX<XP 3 g k m t '.9X2X2X'.+ b j x 3 E >X9XeXqXwXM.",
"B.eXqX9X9X2XK.9 V M 4 o.<X9X9X7X<X] p l d s I.1XqXeXeXeXB.",
"M.eXwXeXeX9X:X:.2 N F |.2XeXqXeX7XXXF p s | <X3X9X9X9XeXB.",
"M.qX9XeXeX9XeX*X{ # '.>X9XeXwXeX9X1X`.- ] -X2XeXeXeX9X9Xl.",
"B.eXqXeXwXwXeXqX@X{.1X3X8XeXwXeX9XqX2X}.*X9XeXeXwXeX8XeXB.",
"B.eX9XeXwXwXwXqX<X2X3X3XeXeXeXeXeXeX7X<X2X7XeXwXwXeXwXeXB.",
"B.eX3X9X8XwXwXqX#X/.3X8XeXqXeXeXeX4X7X).$X7XeX0XeXeXeXeXM.",
"b.eX9X8X8XwXqX4X[ & '.<XqXeXeXqXqXqX`.- } -X7XeXeXeXwXeXl.",
"B.eX9XeX8XqX<XX.a f F .XqXwXeXqX7XoXH 8 5 #.>XqXeXqXqXeXB.",
"B.eX6XeXeX<XK.u g k b ! 2XwX6XqX<X^ 4 z l 6 I.2X4XqXeXeXj.",
"m.eXqXeXeX4XI f m k M t [.3X9X2X(.F N x v 2 ^ >XqXqXqXeXj.",
"M.wXeXeXqX<X! i s D q A `.1XG.-X/.+ i V B e Q <XeXqXeXwXk.",
"N.wX0XeX9X2XI.= ..J.;  .%X9.& <.*X..% 8.| = }.4X7X7X9X8XM.",
"j.eXeXeX3X3X<X+X*X>XOX;XJ.w c i J.-X X=X*X#X4XqX9X9X3X8XM.",
"l.eXwXwXeX9X7X9XqX4X4X].y g z g w `.-X3XqXqX4X9X<XoXoX7Xi.",
"l.eXqXeXeX9XqX7X4X;X4X4.0 m k b t 2.>X:X5XqXqX7X@X> ) <Xz.",
"z.9XeXqXeX9X2X2XK.~ :X4.0 b S q r >.$X/ U.,X7X<X[ t e :.x.",
"z.eX0XwXeX3X2X^.9 a #.oXP H Y.G J |.$.w + T.<X>X, H r X.h.",
"B.wXwXwXrX1X(.r c d 1 >.%X%X,X&X*X,.q b n @ ).2X'.Q.I.@XC.",
"B.wXwXwXwX1X#.4 h x d r  X3XeXqXXX; n j z i %.>X=XoX=X-Xn.",
"M.wXeXwXeX7XK c M j k e '.eX6XqX_.* B z x 2 E :XX., :.-.h.",
"j.eXqXqXeX4X@.r K O.s G &XeXeXqX#X: O T U G ..,XX.Y.o.2.h.",
"z.9X9XeXqXeX%X6.(.+X-.`.7XeXeXqX7X X6.@X~.Z.;X,X=.w.+.q.D.",
"j.9X9XeXwXeXeX9X7X7X7XqXeXeX9XeXeX9X7X2X2X7XeX<X;.!. .q.F.",
"k.wXwXqXeXqXeX7X7XqXqXqXqXwX8X8X9X8X2X3X2X2X9X2X_ Q -.;.h.",
"m.wXwXwXeXeXwXeXeXeXqXeXwXwXeX9XeXeXeX9XeXeXeX9X*XOX:X,XB.",
"  s.p.p.i.y.t.u.t.p.a.a.u.u.u.u.y.a.y.p.y.y.p.y.f.f.f.V.. "
};
