/* XPM */
static char *_973_5b3834ccd926929b321112edf473df106c2092b25ec1a497ee9cfc7cc3d66c06[] = {
/* columns rows colors chars-per-pixel */
"29 43 209 2 ",
"   c black",
".  c #010101",
"X  c #020202",
"o  c gray1",
"O  c #040404",
"+  c gray2",
"@  c #060606",
"#  c #070707",
"$  c gray3",
"%  c #090909",
"&  c gray4",
"*  c #0B0B0B",
"=  c gray5",
"-  c #0E0E0E",
";  c gray6",
":  c #101010",
">  c #111111",
",  c gray8",
"<  c #161616",
"1  c gray9",
"2  c #181818",
"3  c #191919",
"4  c gray10",
"5  c #1B1B1B",
"6  c #1D1D1D",
"7  c gray12",
"8  c #232323",
"9  c gray14",
"0  c #252525",
"q  c gray15",
"w  c #282828",
"e  c gray16",
"r  c #2A2A2A",
"t  c gray17",
"y  c #2C2C2C",
"u  c #2D2D2D",
"i  c #2F2F2F",
"p  c gray19",
"a  c #313131",
"s  c #323232",
"d  c gray20",
"f  c #343434",
"g  c #353535",
"h  c gray21",
"j  c #373737",
"k  c gray22",
"l  c #3A3A3A",
"z  c gray23",
"x  c gray24",
"c  c #3E3E3E",
"v  c #3F3F3F",
"b  c gray25",
"n  c #414141",
"m  c gray26",
"M  c #434343",
"N  c #444444",
"B  c gray27",
"V  c #464646",
"C  c gray28",
"Z  c #484848",
"A  c #494949",
"S  c gray29",
"D  c #4B4B4B",
"F  c #4C4C4C",
"G  c gray30",
"H  c #4E4E4E",
"J  c gray31",
"K  c #505050",
"L  c gray32",
"P  c #535353",
"I  c #555555",
"U  c #565656",
"Y  c gray34",
"T  c #585858",
"R  c gray35",
"E  c #5A5A5A",
"W  c #5D5D5D",
"Q  c #5F5F5F",
"!  c #606060",
"~  c gray38",
"^  c #626262",
"/  c gray39",
"(  c #646464",
")  c #656565",
"_  c #676767",
"`  c #686868",
"'  c DimGray",
"]  c #6A6A6A",
"[  c gray42",
"{  c #6C6C6C",
"}  c #6D6D6D",
"|  c gray43",
" . c gray44",
".. c #717171",
"X. c #727272",
"o. c gray45",
"O. c #747474",
"+. c #777777",
"@. c gray47",
"#. c gray48",
"$. c gray49",
"%. c #7E7E7E",
"&. c gray50",
"*. c gray51",
"=. c gray52",
"-. c gray53",
";. c #888888",
":. c #898989",
">. c gray55",
",. c #8E8E8E",
"<. c gray56",
"1. c gray57",
"2. c #929292",
"3. c #939393",
"4. c gray58",
"5. c #959595",
"6. c gray59",
"7. c #979797",
"8. c #989898",
"9. c gray60",
"0. c #9A9A9A",
"q. c #9B9B9B",
"w. c gray61",
"e. c #9D9D9D",
"r. c gray62",
"t. c #9F9F9F",
"y. c #A0A0A0",
"u. c gray63",
"i. c #A2A2A2",
"p. c gray64",
"a. c #A4A4A4",
"s. c #A5A5A5",
"d. c gray65",
"f. c #A7A7A7",
"g. c gray66",
"h. c #A9A9A9",
"j. c gray67",
"k. c #AEAEAE",
"l. c #AFAFAF",
"z. c gray69",
"x. c #B2B2B2",
"c. c gray70",
"v. c #B4B4B4",
"b. c #B6B6B6",
"n. c gray72",
"m. c #B9B9B9",
"M. c gray73",
"N. c #BCBCBC",
"B. c gray74",
"V. c gray",
"C. c gray75",
"Z. c #C0C0C0",
"A. c #C1C1C1",
"S. c gray76",
"D. c #C3C3C3",
"F. c gray77",
"G. c #C5C5C5",
"H. c #C6C6C6",
"J. c gray78",
"K. c #C8C8C8",
"L. c gray79",
"P. c #CACACA",
"I. c #CBCBCB",
"U. c gray80",
"Y. c #CECECE",
"T. c gray81",
"R. c LightGray",
"E. c gray83",
"W. c #D5D5D5",
"Q. c gray84",
"!. c #D7D7D7",
"~. c #D8D8D8",
"^. c #DADADA",
"/. c gray86",
"(. c gainsboro",
"). c #DDDDDD",
"_. c gray87",
"`. c #DFDFDF",
"'. c gray88",
"]. c #E1E1E1",
"[. c #E2E2E2",
"{. c gray89",
"}. c gray90",
"|. c #E6E6E6",
" X c #E7E7E7",
".X c gray91",
"XX c #E9E9E9",
"oX c #EAEAEA",
"OX c gray92",
"+X c #ECECEC",
"@X c gray93",
"#X c #EEEEEE",
"$X c #EFEFEF",
"%X c gray94",
"&X c #F1F1F1",
"*X c gray95",
"=X c #F3F3F3",
"-X c #F4F4F4",
";X c gray96",
":X c #F6F6F6",
">X c gray97",
",X c #F8F8F8",
"<X c #F9F9F9",
"1X c gray98",
"2X c #FBFBFB",
"3X c gray99",
"4X c #FDFDFD",
"5X c #FEFEFE",
"6X c white",
/* pixels */
"p i.7.f.q.1.q.6.5.6.7.5.6.0.5.5.3.e.1.5.9.7.7.2.6.8.4.5.d ",
"r.:X=XP.OX6X4X2X6X3X4X6X5X4X6X6X6X,X6X6X2X5X6X6X6X6X5X6Xi.",
"d.( W 3 C >X1X6X2X>X<X,X3X1X2X>X,X,X2X>X2X1X;X3X,X1X>X3Xy.",
"s.} D g.S :X<X1X2X6X<X6X6X1X<X6X4X6X-X6X:X1X6X2X4X5X1X6Xa.",
"g.( m i.L :X5X6X].F.6X;X:X6X,X5X2X3X5XA.|.6X5X2X4X4X<X5Xi.",
"d.{ M j.L .X6X6XA   E.6X,X2X6X<X3X5XY.+ Z 3X1X6X4X5X1X6Xp.",
"a._ ] < C 6X>X~ o X , Q.6X>X3X4X3X).5 .   ^ 6X;X3X4X1X6Xi.",
"a..X=XG.[.6X9.  & $ + k 5X5X:X3X6Xl   * $ . 7.6X1X3X<X5Xu.",
"p.2X^.).6X6Xy   O   =   C.6X@X6XV.O + X . . u 5X3X5X1X5Xi.",
"u.5Xs 2 ].6Xa . H _ - . T.}.p }.U.  2 ] J X f 6X3X5X1X5Xi.",
"x.[   O j 5X~.n.$.C m.G.oXp + i &XD.B.n $.B.Q.6X3X5X1X5Xi.",
"l.! 1 7 b 5X4X5XY.x.$X4Xz   *   l 6X+XB.K.2X6X4X3X5X1X5Xi.",
"i.6Xo.U 6X3X6X>X<X6X4Xy.  ;   %   d.6X>X6X4X2X3X3X5X1X5Xi.",
"r.6X+X*X1X5X3X3X-X@X4X..X & q $   { <X&X>X<X6X6X3X5X1X5Xi.",
"u.5X2X2X6X,X1X6X5.v 5XV.r ..*.O.y N.6Xm <.6X1X1X3X5X1X5Xi.",
"p.5X3X1X6X3X2Xz.. . W 6X3XH.z S.4X6XW   O v.3X3X3X5X1X5Xi.",
"u.5X2X6X,X<XY.o o $ X O.6X4X<X4X5XO.. $ o # D.6X3X4X1X6Xi.",
"i.6X3X1X1X6XJ O % O o # ].6X<X5X`.-   o & . T 6X3X4X1X6Xi.",
"a.3X1X5X6X1X9   4 q + @ N.6X*X6XC.  X u 2   0 6X3X4X1X6Xi.",
"w.6X2X1X2X6X4.B -.+._ Y @X5X6X4X#XU [ @.=.S <.4X3X4X1X6Xi.",
"s.6X-X6X<X6X5X4X;.W @X<X6X1X4X3X6X6XoXU :.6X5X5X3X4X1X6Xi.",
"e.5X<X6X6X1X>X:X6X6X;X1X<X6X2X3X>X>X,X6X6X&X4X1X3X4X1X6Xi.",
"a.4X1X<X2X6X5X4X>.Y @X4X5X6X2X6X5X6X#XI :.6X2X6X3X4X1X6Xi.",
"u.6X2X4X2X6X<.V =.#.) U *X<X4X5X*XL _ @.:.V ,.6X3X4X1X6Xi.",
"y.6X1X6X1X6X8   4 e X   C.6X,X6XC.  @ 8 6   w 5X6X>X3X6Xe.",
"p.6X3X<X5X6XP @ &   $ > ).3X*X6X!.: o + $   Y 3X1X6X>X6Xy.",
"y.6X%X6X1X3XH.. X # X  .3X6X4X:X6Xo.. % # * V.6X1X3X<X3Xs.",
"r.6X3X4X,X<X6Xc.X @ Q 1X6XS.k K.4X6XE   X k.6X,X1X5X1X6Xq.",
"s.2X1X,X6X6X$X6X<.b 6XA.0 X.&. .t V.6Xn 1.4X1X1X1X6X;X3Xd.",
"t.6X,X6X<X4X6X4X6XXX6X] O - 0 :   | 6X.X;X6X3X6X6XoX*X5Xu.",
"t.6X<X6X4X6X1X>X1X6X2Xh.  =   @ o p.6X4X6X*X-X6X6XR O.6Xe.",
"i.5X2X1X4X5X5X6XL.b.=X2Xx   - . z 4X&Xn.H.6X6X4Xx 8 > ` x.",
"t.6X,X6X<X4X_.m.%.C V.V.OXa   p %XZ.M.V *.v./.6Xg   o ~ k.",
"s.1X3X6X4X5Xd   G [ $ . W.[.j  XI.  - { G . h 2X}.< u 6Xu.",
"e.6X5X:X6X6Xt + X @ *   H.4X@X5XH.  %   o . r 6X6X_.!.2Xs.",
"a.6X5X<X;X4Xq.  = $   c 4X3X4X4X1Xl + = @ o 6.5X^.I.&X+Xa.",
"i.2X,X6X6X6X4X!     4 '.4X:X3X2X6X{.,   + T 6X6XZ 5 ' / s.",
"t.6X,X1X4X:X6X5XH O R.1X2X6X6X2X3X5XT.X K 4X4X=XL a.b  .h.",
"u.6X5X6X4X6X>X6X'.A.5X6X5X4X4X3X1X2X4XP.(.6X4X$XF f.M } i.",
"i.6X:X2X5X<X6X2X5X6X1X1X6X1X6X5X5X6X1X4X1X5X6X&XP u.N } a.",
"y.6X-X<X4X<X1X1X<X<X<X<X1X1X1X1X1X1X<X,X,X<X<X<Xn 6 / ^ s.",
"t.6X2X6X6X5X6X6X6X6X6X6X6X6X6X6X6X6X6X6X5X5X6X6XOXJ.;X=Xy.",
"i 8.4.6.6.4.6.6.6.6.6.6.6.6.6.6.6.6.6.6.6.6.5.5.r.p.8.i.y "
};
