/* XPM */
static char *_2101_492c67e6b61f2fcf49dd5b01b39e8622061b6c6692a520ca72abd30c8a7df27e[] = {
/* columns rows colors chars-per-pixel */
"29 43 216 2 ",
"   c black",
".  c #010101",
"X  c #020202",
"o  c gray1",
"O  c #040404",
"+  c gray2",
"@  c #060606",
"#  c #070707",
"$  c gray3",
"%  c #090909",
"&  c gray4",
"*  c #0B0B0B",
"=  c #0C0C0C",
"-  c gray5",
";  c #0E0E0E",
":  c gray6",
">  c #111111",
",  c gray7",
"<  c #131313",
"1  c gray8",
"2  c #151515",
"3  c #161616",
"4  c gray9",
"5  c #191919",
"6  c gray10",
"7  c #1B1B1B",
"8  c gray11",
"9  c #1D1D1D",
"0  c #1E1E1E",
"q  c #202020",
"w  c gray13",
"e  c #222222",
"r  c #232323",
"t  c gray14",
"y  c #252525",
"u  c gray15",
"i  c #272727",
"p  c #2A2A2A",
"a  c gray17",
"s  c #2C2C2C",
"d  c #2D2D2D",
"f  c #2F2F2F",
"g  c gray19",
"h  c #313131",
"j  c #323232",
"k  c gray20",
"l  c #343434",
"z  c #353535",
"x  c gray21",
"c  c #373737",
"v  c gray22",
"b  c #393939",
"n  c #3A3A3A",
"m  c gray23",
"M  c #3C3C3C",
"N  c gray24",
"B  c #3E3E3E",
"V  c #3F3F3F",
"C  c gray25",
"Z  c #414141",
"A  c #434343",
"S  c #444444",
"D  c gray27",
"F  c #464646",
"G  c gray28",
"H  c #494949",
"J  c gray29",
"K  c #4B4B4B",
"L  c #4C4C4C",
"P  c gray30",
"I  c #4E4E4E",
"U  c #505050",
"Y  c #515151",
"T  c gray32",
"R  c #535353",
"E  c gray33",
"W  c gray34",
"Q  c #5B5B5B",
"!  c #5D5D5D",
"~  c gray37",
"^  c #5F5F5F",
"/  c #606060",
"(  c gray38",
")  c #626262",
"_  c gray39",
"`  c #656565",
"'  c gray40",
"]  c #676767",
"[  c #686868",
"{  c DimGray",
"}  c #6A6A6A",
"|  c gray42",
" . c #6C6C6C",
".. c gray43",
"X. c #6F6F6F",
"o. c #717171",
"O. c #727272",
"+. c gray45",
"@. c #747474",
"#. c gray46",
"$. c #767676",
"%. c gray47",
"&. c #797979",
"*. c gray48",
"=. c #7B7B7B",
"-. c #7C7C7C",
";. c gray49",
":. c #7E7E7E",
">. c gray50",
",. c #808080",
"<. c #818181",
"1. c #848484",
"2. c #868686",
"3. c gray53",
"4. c #898989",
"5. c gray54",
"6. c gray55",
"7. c #8D8D8D",
"8. c gray56",
"9. c #909090",
"0. c #929292",
"q. c #939393",
"w. c gray58",
"e. c #959595",
"r. c gray59",
"t. c #979797",
"y. c #989898",
"u. c #9A9A9A",
"i. c #9B9B9B",
"p. c gray61",
"a. c #9D9D9D",
"s. c gray62",
"d. c #9F9F9F",
"f. c #A0A0A0",
"g. c gray63",
"h. c #A2A2A2",
"j. c gray64",
"k. c #A4A4A4",
"l. c #A5A5A5",
"z. c gray65",
"x. c #A7A7A7",
"c. c gray66",
"v. c #A9A9A9",
"b. c #AEAEAE",
"n. c #AFAFAF",
"m. c gray69",
"M. c #B1B1B1",
"N. c gray70",
"B. c #B4B4B4",
"V. c gray71",
"C. c #B7B7B7",
"Z. c #B9B9B9",
"A. c gray73",
"S. c #BBBBBB",
"D. c #BCBCBC",
"F. c gray74",
"G. c gray",
"H. c gray75",
"J. c #C0C0C0",
"K. c gray76",
"L. c #C3C3C3",
"P. c gray77",
"I. c #C5C5C5",
"U. c #C6C6C6",
"Y. c gray78",
"T. c #C8C8C8",
"R. c gray79",
"E. c #CACACA",
"W. c #CBCBCB",
"Q. c gray80",
"!. c #CDCDCD",
"~. c gray81",
"^. c #D0D0D0",
"/. c gray82",
"(. c #D2D2D2",
"). c gray83",
"_. c #D5D5D5",
"`. c gray84",
"'. c #D7D7D7",
"]. c #D8D8D8",
"[. c gray85",
"{. c #DADADA",
"}. c gray86",
"|. c gainsboro",
" X c #DDDDDD",
".X c gray87",
"XX c #E1E1E1",
"oX c #E2E2E2",
"OX c gray89",
"+X c #E4E4E4",
"@X c #E6E6E6",
"#X c #E7E7E7",
"$X c gray91",
"%X c #E9E9E9",
"&X c #EAEAEA",
"*X c gray92",
"=X c #ECECEC",
"-X c gray93",
";X c #EEEEEE",
":X c #EFEFEF",
">X c gray94",
",X c #F1F1F1",
"<X c gray95",
"1X c #F3F3F3",
"2X c #F4F4F4",
"3X c gray96",
"4X c #F6F6F6",
"5X c gray97",
"6X c #F8F8F8",
"7X c #F9F9F9",
"8X c gray98",
"9X c #FBFBFB",
"0X c gray99",
"qX c #FDFDFD",
"wX c #FEFEFE",
"eX c white",
/* pixels */
"h p.p.z.s.9.r.t.8.s.e.w.r.t.e.t.q.t.y.w.0.u.r.r.e.t.e.r.j ",
"k.1X,XE.@XeXeXqXeX3XeXeXwXeXeX0XeXeX0XeXeX6XeX9XwXwX0XeXf.",
"h.( _ 7 A qX1X9X7X>X9X5X6X0X4X0X8X8X6X,X8X7X9XwX9X8X6XwXg.",
"z.+.V l.R :XeX0X9XeX8XeXqXeX9X0XwX8XeXeX4XqXeX6XwX0X7XeXj.",
"k.' H a.R <X6XeXZ.2.wX0XqX6XeX0X9XwX8X7.Z.8X0XeX0X0X7XwXf.",
"x.| A c.J 5XeX/.= . <.eX6XeX6X0X7XeX>.  % ].9XwXwXwXqXeXh.",
"l.{ ` 5 L 5XeX_.= . %.eX6X9XeXeX0XqX,.. > ^.eX7X9X9X7XeXf.",
"h.*X=XR.#XwXI.z c 0 B -.wX8X4X3XqX=.V 8 z x I.eXqX0X7XeXg.",
"g.eXS N 6X0Xi X . +     J.8XqXwXF..   @ o   i eX0XwX8XwXh.",
"l.#X5 # E.eX@.  T | @ w >XXX/ XX;Xe ; ] U o X.eX0XwX8XwXh.",
"*.t 3 2 * J.0XH.$.L G. XeXz   k wX].Z.G =.A.wX9X0XwX8XwXh.",
">.r 6 i X R.eX8X~.m.>X8XeXB . F qXeX-XD.Q.eX8XeX0XwX8XwXh.",
"s.0X+.Q 1X4XeX0X0XeX9X$Xn C < n x :X4X9XeX8X9X0X0XwX8XwXh.",
"f.wX;X2XeX7XeX8X-X|.wXX.. X   +   | eX{.*X0XeXwX0XwX8XwXh.",
"h.eX7X8X7XeXeX6XD   (.E.  l -.z . U.!.o S 5XeX7X0XwX8XwXh.",
"k.0XqX9XeX7XeXK.  o _ wX(.b.d v.).qX{     K.wX0X0XwX8XwXh.",
"h.eX3XeX7X0X6Xq.v 1 #.E.qXOXU.OXeXR.>.: c 0.1XwX0XqX8XeXh.",
"d.eXeXeX7XeXY   , & = < .XwX3XeX[.3 . * 3   R eX0XqX8XeXh.",
"j.0X3X0X9XeXf + < p     W.0X9XeXK.@ o e 9 O x 7X0XqX8XeXh.",
"k.qXeXqX7XeX}.H 3.;.! q.qX8X5XqXeX6.^ :.=.K ].eX0XqX8XeXh.",
"i.eX7XwX9X0X5XeX6.U 2XeX6XwXeX9X8XeX>XE 0.eX8X9X0XqX8XeXh.",
"k.eXqX8XeXeX7X<XeXeX4X3XeX9XeX8XqX3X3XeX9X8X6XqX0XqX8XeXh.",
"f.wX7X0XqXeX4XeX5.Q -XeX9X8X8XeX8XeX&XW 7.qXeXqX0XqX8XeXh.",
"h.wX9XeX3XeX`.L 1.*.( 8.eXwXeX5XeX4._ -.<.U ).eX0XqX8XeXh.",
"f.eX6XeX5XeXg . 5 a   . P.qX0X9XY.. X u 7 . f eXeX0X9XeXg.",
"s.eX6XeXwXqX~   < # # 2 {.eX9XeX_.< o > -   Q wX9X0X5XeXs.",
"h.eX8X7X8XeX@Xe.x 2 =.I.eXoXL.oXeX!.&.= M y.>X8X0XeX8X7Xk.",
"g.wX9XeXqX5XeXT.    ~ eX'.x.s n._.qX_ @   L.eX9X8X0X7XeXf.",
"j.qX4XqXeX9XwX:XA   (.Q.. z =.h   T.Q.  K 3X8X0X0XeXwX9Xk.",
"a.eX9XqXqXeX6XeX&X{.wX}     + # o O.wX'.;X8X9XeXeX-X*XeXf.",
"g.eX6X9XqXeX4X7XwXeX9X%XM Z = B c +XwXeX8XqXeX6X<X(  .qXj.",
"g.wX7XeXwX7XeXqXE.M.3X0XeXC . A eXqX<XB.Q.7XeXI.X t w 8 >.",
"f.eX0XeX0XqX6XJ.>.D D.{.eXx   k qX.XC.H ;.J.eXJ.* 5 4 u #.",
"h.eX3XqX0XeX#.  L  .% q :X|.! OX1X8 $  .P   ..eXY.O 7 #Xv.",
"s.eXqXqXeXqXw $   + O   J.eX9X0XS.. @ . o X y eX8Xn Z eXs.",
"k.qXqX5X5XeXT.l v 8 m ;.0XeX3X8XqX;.M 5 b v I.eX#XY.>X@Xl.",
"d.eX5XeXeX4XeX/.>   :.eX6X7XwX0X8XeX=.o % (.eX0XF 7 { [ v.",
"h.qX9X9XeX9XeX`.= O ,.wX8X0XeX0X7X9X2.+ - ^.eX:XR j.N O.g.",
"g.eX2XeXwX0X4XeXN.1.eXeX4XeX7XqXeX9X0X2.V.eX9X<XY k.C o.g.",
"g.wXqX6XeX0XeX9XeXeX9X0X0XeXqXqX9XeXqXwXeX5XeX,XI z.S  .z.",
"f.eX2X7XqX7X8X8X5X5X6X7X8X8X9X9X0X8X6X5X5X7X8X8XZ 9 _ ) l.",
"d.eX9XeXeXwXeXeXwXwXeXeXeXeXeXeXeXeXwXwXeXeXeXwX*XY.3X1Xf.",
"f y.w.r.r.w.r.r.r.r.r.r.r.r.e.e.r.e.r.r.t.r.e.w.s.j.y.h.s "
};
