/* XPM */
static char *_818_50e2e6dacf8169f8fe7cb12328624351a6673f84de606587e94470e522ed64e3[] = {
/* columns rows colors chars-per-pixel */
"29 43 157 2 ",
"   c #382D27",
".  c #332F2E",
"X  c #322D33",
"o  c #353132",
"O  c #AC1D1F",
"+  c #B51716",
"@  c #BB1819",
"#  c #9F221C",
"$  c #A61F23",
"%  c #B01824",
"&  c #AF2424",
"*  c #A13D3F",
"=  c #AD3B3C",
"-  c #BA3535",
";  c #CF0906",
":  c #D50E0F",
">  c #D00F10",
",  c #D80D13",
"<  c #C7171A",
"1  c #C71E1C",
"2  c #CB181C",
"3  c #CB1114",
"4  c #D71017",
"5  c #D71418",
"6  c #DF191A",
"7  c #ED0709",
"8  c #F60E0E",
"9  c #F10C11",
"0  c #E11218",
"q  c #F11213",
"w  c #D42B2E",
"e  c #CE3236",
"r  c #C1313B",
"t  c #9B403D",
"y  c #B6433E",
"u  c #BD3F43",
"i  c #9E4C50",
"p  c #AE4740",
"a  c #BC4547",
"s  c #B84C4A",
"d  c #BA454D",
"f  c #AB4E58",
"g  c #B04C56",
"h  c #A55053",
"j  c #AA5052",
"k  c #A3545A",
"l  c #BF5056",
"z  c #B6525A",
"x  c #975C60",
"c  c #B07675",
"v  c #B57E7B",
"b  c #CB4B4E",
"n  c #D54344",
"m  c #C35057",
"M  c #C56163",
"N  c #C2796A",
"B  c #D76C72",
"V  c #DB6971",
"C  c #C1797C",
"Z  c #D77278",
"A  c #D8727D",
"S  c #F06568",
"D  c #EF6D75",
"F  c #EB7978",
"G  c #E57275",
"H  c #E7696A",
"J  c #B3807F",
"K  c #C27D80",
"L  c #90978F",
"P  c #9B8F93",
"I  c #8D9A96",
"U  c #8F9998",
"Y  c #8C9592",
"T  c #959694",
"R  c #9A9494",
"E  c #939A95",
"W  c #969499",
"Q  c #9B949B",
"!  c #909998",
"~  c #9C9B9B",
"^  c #A49796",
"/  c #AF9E97",
"(  c #A59D9E",
")  c #AB9B9C",
"_  c #B19591",
"`  c #BA9794",
"'  c #B09C9E",
"]  c #9FA19E",
"[  c #A2A19D",
"{  c #BDA09A",
"}  c #A49EA1",
"|  c #AB9DA0",
" . c #A09EA9",
".. c #B09DA1",
"X. c #BE9FA5",
"o. c #9CA1A2",
"O. c #A3A2A2",
"+. c #AAA1A2",
"@. c #B5A1A5",
"#. c #BCA3A6",
"$. c #D28885",
"%. c #C29791",
"&. c #C09E9D",
"*. c #C49B95",
"=. c #EE8081",
"-. c #FF8587",
";. c #F68889",
":. c #F7948F",
">. c #FF938F",
",. c #E79299",
"<. c #F1A09C",
"1. c #C6AAA7",
"2. c #C0AAAD",
"3. c #C4A3A6",
"4. c #FFA2A3",
"5. c #FFA6AC",
"6. c #FFB3AE",
"7. c #FFB3B4",
"8. c #FFBBB6",
"9. c #FFB6BA",
"0. c #F0BEBF",
"q. c #FDBEBC",
"w. c #FFC4B4",
"e. c #FFC6BF",
"r. c #FFCDBF",
"t. c #FFBEC1",
"y. c #EEC3CA",
"u. c #FFC0C4",
"i. c #FFCCCA",
"p. c #FFD6C8",
"a. c #FFDBCE",
"s. c #FFCDD3",
"d. c #FFD5D4",
"f. c #FFDBD7",
"g. c #FEDADB",
"h. c #FFE3DC",
"j. c #FFEBDC",
"k. c #FFDDE3",
"l. c #FFE3E2",
"z. c #FFEDE5",
"x. c #FFE4EC",
"c. c #F7EBED",
"v. c #FFECEC",
"b. c #FFF1E5",
"n. c #F4F7EE",
"m. c #FFF3ED",
"M. c #F2FAEF",
"N. c #FDFCED",
"B. c #FFEDF2",
"V. c #F6F7F3",
"C. c #FFF4F4",
"Z. c #F5FCF5",
"A. c #FCFCF6",
"S. c #F5F5FA",
"D. c #FEF6FA",
"F. c #F6FEFC",
"G. c #FCFDFB",
/* pixels */
"  ^ | } W W T T Q } Q L T T P P Q Q ^ W R ~ Y U I U W W o ",
"[ C.y.k.D.G.A.G.G.G.D.F.A.G.D.G.G.G.G.G.G.G.G.G.F.F.G.G.O.",
"*.v g f h.A.M.Z.S.G.F.G.G.S.D.F.F.F.A.G.C.S.G.A.G.F.F.G.O.",
"` z.s.d g.G.A.A.G.V.G.F.G.G.G.D.A.F.G.F.G.G.G.G.G.G.S.G.O.",
"_ v.s =.b.Z.A.G.G.G.G.G.C.C.w.h.C.A.G.G.A.G.S.G.G.G.G.G.( ",
"1.J G 4.l.G.A.G.A.G.G.v.v.<.# >.m.G.C.G.A.G.G.A.G.G.G.G.O.",
"{ c s u k.G.G.G.G.D.G.C.7.@ ; 1 9.D.C.A.Z.F.Z.A.G.G.S.G.] ",
"` g.9.t.B.G.D.D.G.G.G.x.b 5 8 : z B.D.G.F.Z.Z.F.G.G.G.G.o.",
"%.v.H t.B.G.G.S.G.G.G.v.G 2 9 , K B.C.A.F.F.F.A.G.G.G.G.O.",
"*.$.& a z.G.G.G.G.F.G.D.i.- 3 w s.D.A.G.Z.Z.Z.A.G.G.G.G.O.",
"3.C % r l.G.A.G.A.G.S.G.m.e.y 8.B.C.A.G.F.A.G.G.G.G.G.G.O.",
"' v.m 5.C.G.G.Z.A.A.A.G.G.N.a.b.C.A.G.Z.G.G.G.G.G.G.S.G.O.",
"O.C.b.b.A.G.Z.A.A.A.A.A.A.G.A.N.G.F.A.F.G.G.G.G.G.G.G.G.O.",
"o.G.Z.A.G.G.A.A.G.A.A.G.G.F.S.G.A.F.A.G.G.S.G.G.G.G.G.G.O.",
"] A.G.G.G.G.G.A.F.F.G.G.G.G.S.G.G.G.G.G.G.G.G.F.F.F.G.G.O.",
"[ G.G.S.G.G.D.G.F.F.G.G.G.G.G.G.G.G.G.G.G.G.F.F.F.G.G.G.} ",
"[ G.F.G.G.G.G.A.G.F.G.G.G.G.G.F.G.F.G.G.G.G.G.G.G.G.G.G.O.",
"[ G.F.G.G.G.G.G.G.G.G.A.G.G.G.G.F.F.F.G.G.G.G.G.G.G.G.G.O.",
"] G.F.A.G.G.G.G.G.G.G.G.G.G.G.G.F.G.G.G.G.G.G.G.G.G.G.G.O.",
"[ G.A.F.G.G.G.G.G.G.G.G.G.G.A.G.G.F.G.G.G.G.G.G.G.G.A.G.O.",
"] G.A.G.G.G.G.G.G.G.F.G.G.G.G.G.G.G.G.G.G.G.G.G.G.G.G.G.O.",
"] G.F.G.G.A.G.G.G.G.G.G.G.G.G.G.G.G.G.G.G.G.G.G.G.G.G.G.O.",
"[ G.S.G.G.F.G.G.G.G.A.G.G.G.G.G.G.G.G.G.G.G.G.G.G.G.A.G.O.",
"] G.A.G.G.G.G.G.G.G.G.G.G.G.G.G.G.G.G.G.G.A.G.F.G.G.S.G.} ",
"] G.A.G.G.G.G.G.A.G.G.G.G.G.G.G.G.G.G.G.G.F.F.G.G.G.D.G.O.",
"O.G.S.F.G.G.G.G.G.G.G.G.G.G.G.G.G.G.G.A.F.F.A.F.S.G.V.G.~ ",
"] G.A.A.G.G.A.G.G.G.G.G.G.G.G.A.G.G.G.F.F.F.A.A.G.A.A.G.O.",
"] G.G.G.G.G.G.G.G.G.G.G.G.G.G.G.G.G.G.F.A.A.A.G.G.G.G.G.O.",
"O.G.F.A.G.F.G.G.G.G.G.G.G.G.G.G.G.G.A.G.A.G.A.G.D.G.c.G.} ",
"] G.S.G.G.G.G.A.G.G.G.G.G.G.A.G.G.G.G.G.A.A.G.G.G.D.D.G.+.",
"] G.F.G.G.G.G.G.G.G.G.G.G.A.S.A.G.G.G.F.G.G.G.G.D.C.v.G.( ",
"O.G.A.A.G.G.F.G.G.G.G.G.G.C.m.v.G.G.G.G.A.G.A.A.B.0.x v.@.",
"[ G.A.G.G.G.G.F.G.G.G.m.m.e.= 9.C.D.G.G.F.A.S.C.d.= $ B 3.",
"O.G.D.A.G.G.F.G.G.G.A.A.i.- < e s.G.C.G.F.F.G.D.f.a & F X.",
"o.G.G.G.F.F.G.G.F.F.Z.b.S 4 q > V B.C.G.G.G.G.G.m.r.N b.) ",
"o.G.S.G.F.F.G.G.G.F.N.j.n 0 7 , m x.G.A.A.G.F.D.m.p.w.h.) ",
"o.G.G.G.S.A.G.G.G.n.A.m.6.+ 6 1 8.C.G.G.G.F.G.D.p.t b M #.",
"o.G.A.A.G.G.G.G.G.G.A.m.z.:.O -.m.A.G.G.G.F.F.G.g.4.D Z #.",
"o.G.G.A.A.A.G.G.G.G.F.G.G.m.q.B.C.S.G.A.G.F.S.G.x.,.i B.O.",
"O.G.D.G.A.A.A.A.G.G.F.G.G.S.D.G.G.G.G.G.F.A.G.C.s.k l.l.+.",
" .G.S.F.A.Z.A.G.D.D.G.F.D.G.S.F.G.G.D.G.F.S.A.m.d.h j K @.",
" .G.D.G.F.G.G.G.G.G.G.G.G.G.F.F.G.G.G.G.G.G.G.G.C.f.9.B...",
"X Q ! U I I T W Q Q W W T R W R R R T T W W E ! P | ) +.o "
};
