/* XPM */
static char *_6600_1b4027d4b2a604475b92cb145cc41723284c21434d5be75bc8945541fe9388ee[] = {
/* columns rows colors chars-per-pixel */
"29 43 175 2 ",
"   c #2F2B2A",
".  c #2E2D35",
"X  c #2B3034",
"o  c #333132",
"O  c #BE1117",
"+  c #BF1619",
"@  c #BF1A18",
"#  c #95393A",
"$  c #B82820",
"%  c #BE3335",
"&  c #DE0A07",
"*  c #C30C10",
"=  c #C40F18",
"-  c #CE0C14",
";  c #C31612",
":  c #CA1315",
">  c #C4161A",
",  c #CB161A",
"<  c #C4191B",
"1  c #C71919",
"2  c #D1181D",
"3  c #E7060E",
"4  c #ED0408",
"5  c #EC0C0C",
"6  c #E40D0C",
"7  c #F4090A",
"8  c #E60B14",
"9  c #F00B10",
"0  c #FD0F1C",
"q  c #EC1212",
"w  c #CF2725",
"e  c #CA262F",
"r  c #CD282E",
"t  c #D42723",
"y  c #C9362F",
"u  c #C03437",
"i  c #C93239",
"p  c #DE3F3C",
"a  c #E83936",
"s  c #AF3A42",
"d  c #A23643",
"f  c #CD3C43",
"g  c #9D4E47",
"h  c #9C4345",
"j  c #A74F45",
"k  c #A64348",
"l  c #AB4D4E",
"z  c #B04A46",
"x  c #B3454D",
"c  c #BC404A",
"v  c #B54343",
"b  c #AB4753",
"n  c #B35B5A",
"m  c #B66260",
"M  c #D3484B",
"N  c #D5504B",
"B  c #C24A53",
"V  c #CE5051",
"C  c #C65B55",
"Z  c #D15958",
"A  c #E44547",
"S  c #FD494A",
"D  c #DB5E62",
"F  c #D57A77",
"G  c #D67C7C",
"H  c #E96C6A",
"J  c #E2776D",
"K  c #E66E70",
"L  c #E96E71",
"P  c #E27472",
"I  c #E37A76",
"U  c #F3777F",
"Y  c #F87E7D",
"T  c #F57D7E",
"R  c #CE807C",
"E  c #D1807C",
"W  c #DC827A",
"Q  c #8F978C",
"!  c #96968E",
"~  c #998F98",
"^  c #8E9794",
"/  c #8C9C95",
"(  c #969594",
")  c #999495",
"_  c #939992",
"`  c #94969B",
"'  c #9A9499",
"]  c #9D9B9C",
"[  c #969A98",
"{  c #A2988C",
"}  c #A19694",
"|  c #A29399",
" . c #A49C9B",
".. c #AC9C9B",
"X. c #B39E9B",
"o. c #BE9B99",
"O. c #9EA19D",
"+. c #A7A096",
"@. c #A1A09E",
"#. c #B3A19F",
"$. c #B1AE9F",
"%. c #9F93A1",
"&. c #9C9AA3",
"*. c #A49CA5",
"=. c #AA9CA5",
"-. c #9EA2A2",
";. c #A4A1A2",
":. c #A9A4A6",
">. c #ADA5AA",
",. c #A0A3AA",
"<. c #B7A5A5",
"1. c #BCA4A5",
"2. c #B2AEA3",
"3. c #BAB5B1",
"4. c #C9898A",
"5. c #DE8B87",
"6. c #C59A9D",
"7. c #CB9998",
"8. c #DE9090",
"9. c #D59C9D",
"0. c #FE858E",
"q. c #FF9082",
"w. c #F6958E",
"e. c #FF968E",
"r. c #E59C96",
"t. c #FF9D95",
"y. c #FF9C9C",
"u. c #FEA59D",
"i. c #DEBBB5",
"p. c #FFA5A4",
"a. c #FFA8A0",
"s. c #FFB3AE",
"d. c #FEAAB3",
"f. c #E8B7B3",
"g. c #FFB4B5",
"h. c #FEBAB3",
"j. c #FFBEBF",
"k. c #F2BBB8",
"l. c #FEC3BE",
"z. c #FFBBC1",
"x. c #EDC1C0",
"c. c #FFC3C2",
"v. c #FFC9C2",
"b. c #FFCCCB",
"n. c #F3CCC8",
"m. c #FDD2CD",
"M. c #FEC9D5",
"N. c #FFD5D4",
"B. c #FFD8D3",
"V. c #FFD2DA",
"C. c #FFDDDC",
"Z. c #FFE1D4",
"A. c #FFEBD6",
"S. c #FFE7D9",
"D. c #FFE9DE",
"F. c #FFE4E4",
"G. c #FFEAE5",
"H. c #FFE7E8",
"J. c #FFEDEB",
"K. c #FFF3E6",
"L. c #F2F4EC",
"P. c #FFF3ED",
"I. c #FDFBED",
"U. c #FFEBF2",
"Y. c #FFEFF8",
"T. c #EEFAF3",
"R. c #EEFCF8",
"E. c #F3F5F3",
"W. c #FEF4F3",
"Q. c #F6FBF4",
"!. c #FCFCF5",
"~. c #F6F6F9",
"^. c #FEF5FB",
"/. c #F6FEFC",
"(. c #FCFDFB",
/* pixels */
". ] ;.+.Q / [ ' ( ) } } ( ~ ' ) ' *.~ ' / / ( | | | ' ' o ",
":.^.n.n.!.(.(.(.(.(.!.(.(.(.(.(.(.(.(.(././.(.(.(.(.(.(.&.",
"1.l.h l 9.W.E.R.(.~.(.(.~.T.(.L.L.!.^.Q.(.T.Q.(.^./.^.(.-.",
"X.G.V.U 4.W.^.(./.(.^.(.^.W.P.I.P.P.!.(.E.Q.(.Q.(.(.^.(.-.",
"{ P.0.s P.G.!.!.(.(.(.U.c.P l.g.I m.P.Q.!.Q.!.I./././.(.O.",
"2.n.x d.f.!.!.^.(.~.(.C.u : A p < V P.!.Q.!.!.!./.(.(.(.;.",
"2.f.k x 4.W.P.!.(./.(.b.1 9 q 6 8 r F.(.(.(.!.!./././.(.@.",
"+.J.l.z.H.W.!.(.(./.(.C.w 5 7 7 8 M U.(./.(.!.!.(././.(.@.",
"7.b.e.t.g.U.^.(.(.!.(.W.T : 9 5 < p.U./.(.(.!.!./.(./.(.;.",
"9.m $ y # U.^.^.(.(.Q.W.G.H 2 : W B.(.(.(.(.(.!.(.(.^.(.;.",
"7.G > O n !.^.(.(.(.(.(.I.G.C J A.I.(./.(.(.!.(.(.(./.(.@.",
"o.H.f % B.P.^./.^.(.(.(.!.I.D.S.I.I.^.(.(.(.(.(.(.(./.(.;.",
"..U.b.c.I.!.!.(.(./.(.(.Q.I.K.!.!.!.(.(./.(.(.(.(.(.^.(.;.",
"*.(.P.!.I.Q./.(././.(.(.(.(./.(.(.(.(.(.Q.(.(.!./.(.(.(.;.",
"&.(.E.!.(.!.(.(./.(.Q.(.~.(.(./.(.(.(./.(.!.(.Q././.^.(.;.",
",.(./.(.!.(.(.(.(.(.(.(.(.(.(.(.(.(.Q./.(.Q.!.(././.(.(.;.",
"*.(.Q.(.(.(.(.(.(.(.(.(.(.(.(.(.(.(.(.(.!.(.(.(.(.(.(.(.=.",
"@.(.(.(.(.(.(.(.(.(.(.(.(.(.(.(.(.(.(.Q.(.!.(.(.(.(./.(.=.",
";.(.Q.(.(.(.(.(.(.(.(.(.(.(.(.(.(.(.(.Q.Q.(.Q.(.(.(./.(.;.",
"@.(.!.!.(.(.(.Q.(.!.(.(.(.(.(.(.!.Q.(.(./.(.(.(././.Q./.-.",
"@.(.(.(.(.(.(.(.(.(.(.(.(.(.(.(.(.(.Q.(.(.(.(.(.(.(./.(.-.",
"@.(.Q.(.(.(.(.(.(.(.(.(.!.(.(.(.(.(./.(.(.(.(.(.(.(./.(.-.",
";.(.(.(.(.(.(.(.Q.(.(.(.(.(.(.(.(.(.(./.(.(.(.^.(.(.^.(.;.",
"] (.!.^.(.(.(.(.(.(.(.(.(.(.(.(.(.(.(.(.(.(.(.(.(.(.(.(.;.",
"@.(.!.Q.(.(.(.(.(.(.(.(.(.(.(.(.(.(./.(.(.(.(.(.(.(.Q.(.>.",
";.(.^.(.(.(.(.(.(.(.(.(.(.(.(.!.(.(././.(.(.(.(./.(./.(.' ",
"@.(.(.(.(.(.(.(.(.(.(.(.(.(.(.(.(.(./.(.!.(.(.!./.R.T.(.@.",
"@.(.Q.(.(.(.(.(.(.Q.(.(.!.(.(.(.(.(.(.(.!.(.(.Q./.R.Q./.@.",
"*.(.(.Q.(.(.(.(.(.(.(.(.(.(.(.(./.(.(.(.(.(.!.(.Q.W.!.(.O.",
"@.(.!.(.(.(.(.(.(.!.(.(.(.(.(.(.(./.(.(.Q.(.(.!.(.^.^.^.;.",
"@.(.(.(.(.(.(.(.(.(.(.(.(.!.^.E.(.(.(.(.(.Q.(.W.J.M.M.^. .",
";.(.Q.(.Q.(.(.(.(.(.(.(.!.W.J.J.^.(.(.^.(.Q.(.W.V.d b U.X.",
"-.(././.!.(.(.(.(.(.!.!.I.F.D K J.P./.^.~.(.(.P.M 1 < L 6.",
"*.(.Q./.Q.(.(.(.(.(.I.K.K.J * , w.P.Y.(.(.E.(.J.% t @ Z 6.",
" .(.Q.(.(.(.(.(.^.(.!.P.Y , q 6 ; y.U.^.(.(.R.!.h.a.u.m.1.",
"+.(.!.(.(.(./.(././.Q.Z.r 8 7 7 & A U.(./././.(.G.v.j.P.| ",
"@.!.Q././.(././.(.Q.(.b.= 0 4 5 5 w F.W.(.(.E.W.5.v s d.3.",
"O.(.Q.(././././.(.(.(.F.i - S a ; N J.(.Q.(.(.P.p.p.B z.:.",
"@.(.(.(.(.(.(.!./.(./.^.c.F l.h.G N.(./.(.E.(.W.F.z 8.W.&.",
";.(.Q.(.(.(.!.(.(.(.(.(.W.W.W.I.W.(.(././.(.^.^.E W G.F.>.",
"=.^.^.Q.Q.!.^.W.(.Q.(.^.^.^.^.W.W.W.W.(./.~.^.Y.r.j g k.<.",
"=.(./.(.Q.!.(.(.(.(.(.(.(.(.(.(.(.(.(.(.(.(.(.(.K.l.l.J.=.",
". &._ _ ! ! ) ' ) ( ( ( ` ` [ ( ' ' ) [ [ ( ` `  ... . .  "
};
