/* XPM */
static char *_815_d09da2baab8b05a5cae63a6db995c4db3f87a28b839656869bc66b5959403215[] = {
/* columns rows colors chars-per-pixel */
"29 43 182 2 ",
"   c black",
".  c #000100",
"X  c #010101",
"o  c #000200",
"O  c #020202",
"+  c gray1",
"@  c #030502",
"#  c #040603",
"$  c #040404",
"%  c #050704",
"&  c #070707",
"*  c #060805",
"=  c #070906",
"-  c gray3",
";  c #090909",
":  c #0B0B0B",
">  c #0A0C09",
",  c #0B0D0A",
"<  c gray6",
"1  c #131313",
"2  c gray10",
"3  c #1B1B1B",
"4  c #1E1E1E",
"5  c #202020",
"6  c gray13",
"7  c #232323",
"8  c #242623",
"9  c #252525",
"0  c #272727",
"q  c #282828",
"w  c gray16",
"e  c #2A2A2A",
"r  c #2C2C2C",
"t  c #2D2D2D",
"y  c #2D2F2C",
"u  c gray18",
"i  c #2F2F2F",
"p  c #2F312E",
"a  c gray19",
"s  c #313131",
"d  c #323232",
"f  c gray20",
"g  c #323431",
"h  c #353535",
"j  c gray22",
"k  c #3B3D3A",
"l  c #3C3C3C",
"z  c #40423F",
"x  c gray34",
"c  c #585A57",
"v  c #626262",
"b  c gray39",
"n  c #686868",
"m  c gray42",
"M  c gray43",
"N  c #6F716E",
"B  c #717171",
"V  c #727272",
"C  c gray45",
"Z  c #737572",
"A  c #757774",
"S  c #777777",
"D  c #777976",
"F  c #797B78",
"G  c gray49",
"H  c gray50",
"J  c #7F817E",
"K  c #80827F",
"L  c #848683",
"P  c #848484",
"I  c #888888",
"U  c #8B8D8A",
"Y  c #8D8D8D",
"T  c gray56",
"R  c #8F918E",
"E  c #90928F",
"W  c #939393",
"Q  c #929491",
"!  c #939592",
"~  c #949693",
"^  c gray58",
"/  c #959595",
"(  c #959794",
")  c gray59",
"_  c #979797",
"`  c #969895",
"'  c #979996",
"]  c #989898",
"[  c #999B98",
"{  c #9A9A9A",
"}  c #9B9D9A",
"|  c gray61",
" . c #9D9D9D",
".. c gray62",
"X. c #9F9F9F",
"o. c #9FA19E",
"O. c #A0A0A0",
"+. c gray63",
"@. c #A2A2A2",
"#. c gray64",
"$. c #A2A4A1",
"%. c #A3A5A2",
"&. c #A4A4A4",
"*. c #A5A5A5",
"=. c gray65",
"-. c #A7A7A7",
";. c gray66",
":. c #A9A9A9",
">. c #AAAAAA",
",. c #AAACA9",
"<. c #ACACAC",
"1. c #ADAFAC",
"2. c #AEAEAE",
"3. c #AFAFAF",
"4. c gray69",
"5. c #B1B1B1",
"6. c #B2B2B2",
"7. c gray70",
"8. c #B2B4B1",
"9. c #B4B4B4",
"0. c gray71",
"q. c #B6B8B5",
"w. c #B8BAB7",
"e. c #B9B9B9",
"r. c #BBBBBB",
"t. c #BCBCBC",
"y. c gray75",
"u. c gray76",
"i. c #C6C6C6",
"p. c gray78",
"a. c gray79",
"s. c #CACACA",
"d. c #CBCBCB",
"f. c #CDCDCD",
"g. c #D0D0D0",
"h. c LightGray",
"j. c #D8D8D8",
"k. c gray85",
"l. c gray86",
"z. c #DADCD9",
"x. c #DBDDDA",
"c. c #DCDEDB",
"v. c #DDDDDD",
"b. c #DFDFDF",
"n. c #E2E2E2",
"m. c gray89",
"M. c #E4E6E3",
"N. c #E7E9E6",
"B. c #E8EAE7",
"V. c gray92",
"C. c #EBEDEA",
"Z. c #ECEEEB",
"A. c #ECECEC",
"S. c #EEEEEE",
"D. c #EFEFEF",
"F. c #F0F2EF",
"G. c #F1F3F0",
"H. c gray95",
"J. c #F3F5F2",
"K. c #F4F6F3",
"L. c #F4F4F4",
"P. c gray96",
"I. c #F5F7F4",
"U. c #F6F6F6",
"Y. c gray97",
"T. c #F6F8F5",
"R. c #F7F9F6",
"E. c #F8FAF7",
"W. c #F8F8F8",
"Q. c #F9F9F9",
"!. c #F9FBF8",
"~. c gray98",
"^. c #FBFBFB",
"/. c #FAFCF9",
"(. c #FBFDFA",
"). c #FCFEFB",
"_. c gray99",
"`. c #FDFDFD",
"'. c #FDFFFC",
"]. c #FEFFFD",
"[. c #FEFEFE",
"{. c white",
/* pixels */
"s ) &.-.! ( ! ` ' R ~ } / ) ) / Q [ ! ( ` ' W _ ) _ / ) d ",
"| {.a.g.).(.]./.(.].].!.^.{._.{.].'./.].'./.{.{.[.[._.{.O.",
"5.y.4 e U '.G./.!.J./.'.~.^.Y._.(.R.T.!.E.E.[.^.^.~.W.[.+.",
"=.A.~.S F ].E.'.'.].).E._.W.{.Q.!.].]./.'.].^.`.[._.Q.{.@.",
"X.{.P q I.(.!./.(.].I.].{.W.e.^.(.!.'./.).'.Y.{._._.Q.[.X.",
"3.p.a 0.8.].K.].].T.]./.[.T O Y ].'.T.'.'.]._.{.[.{.`.{.@.",
"7.<.2 9 D ].E./.!.(.(.].O.  ; X %.(.(.'.).).^.W._._.~.{.O.",
"#.{.u.d.N.]./.(.).'.'.x.- $ & + % x.].E./.(.{.[.[.`.~.{.@.",
" .{.n.k.].!.T.].].R.].N O -   : o A ].R.'.(.Q.{.`.[.~.[.@.",
"=.`.t 5 M.].).R.R.E.'.K   h m f . J ).'./.].{.^.`.[.~.[.@.",
"3.v X   g (.].].'./.].F.0.&.l &.w.Z.]./.R.'.{._.`.[.~.[.@.",
"2.M < 9 z '.]./.'./.].R.`.l.6.b./.].T.'.].'.^.^.`.[.~.[.@.",
" .`.B x ).'././.).).(.E.~.{.`.[.!.).'./.'.(.`.{.`.[.~.[.@.",
"O.{.S.V.].].'.].].).(.).`.Y.^.Y.'./.].E.].].`._.`.[.~.[.@.",
"*.^.`.{.'.T.).].(./.].(.Q.[.{._.].!.).(.]./.^.[.`.[.~.[.@.",
" .{.W.Q./.].).(.).].E.'.{.~.~.[.(.].(.).(.).{.`.`.[.~.[.@.",
"o.].!.(.).).).).).).).).).).).).).).).).).).).).).'.~.[.@.",
"o.].!.(.).).).).).).).).).).).).).).).).).).).).).'.~.[.@.",
"o.].!.(.).).).).).).).).).).).).).).).).).).).).).'.~.[.@.",
"o.].!.(.).).).).).).).).).).).).).).).).).).).).).'.~.[.@.",
"o.].!.(.).).).).).).).).).).).).).).).).).).).).).'.~.[.@.",
"o.].!.(.).).).).).).).).).).).).).).).).).).).).).'.~.[.@.",
"o.].!.(.).).).).).).).).).).).).).).).).).).).).).'.~.[.@.",
"o.].!.(.).).).).).).).).).).).).).).).).).).).).).'.~.[.@.",
"o.].!.(.).).).).).(.)./.'.]./.).).).).).).).).).].I._.{.| ",
"o.].!.(.).).).).].E.(.]./.(.'.'.).).).).).).).).'.].P.{.+.",
"o.].!.(.).).).).R.).'.'.(.).'.R.).).).).).).).).'.(.Y.^.=.",
"o.].!.(.).).).).!.]./.R.'.'.].].).).).).).).).).!.].^.{.{ ",
"o.].!.(.).).).).].)./.].].E.R.!.).).).).).).).).E.].U._.*.",
"o.].!.(.).).).).'.T.].].!.].].E.).).).).).).).).].B.D._.+.",
"o.].!.(.).).).).'.E.].E.T.).R.].).).).).).).).).].c V {...",
"o.].!.(.).).).).].(.'./.].c.q.x.).).).).).).).).k 8 1 n 5.",
"o.].!.(.).).).)./.].(.C.w.1.p ,.6.Y._.Q.{.[.^.{.j   O b >.",
"o.].!.(.).).).).].K.].L . y Z y   G {.Q.`._.`.{.m.3 u {.=.",
"o.].!.(.).).).).].R.T.D @ * . = + C {.^.Q.{.[.Q.{.j.b._.@.",
"o.].!.(.).).).)./.(.].z.> . , o X v.{.U.{.^._.{.m.s.f.{.#.",
"o.].!.(.).).).).)./.R.).$.o # . =.{.H.{.[.~.^.{.H 7 2 :.9.",
"o.].!.(.).).).).].).].I.].E . E {.Q.{.~.~.{.W.`.5.0.u i.4.",
"O.{.~._.`.`.`.`.^.`.W.{._.Y.t.`.U.{.{._.{.Y.{.{._.w I [.O.",
"O.{.~._.`.`.`.`.`.[.{.~.[._.{.~.{.W.{.[.W.{.U.[.B C {.S.-.",
"O.{.L.Q.`.Q.~.~.Q.Q.Q.Q.Q.Q.Q.Q.~.~.~.~.~.~.~.~.T r 6 r.3.",
"X.{.^.{.{.[.{.{.{.{.{.{.{.{.{.{.{.{.{.{.{.{.{.{.Q.h.i.{.;.",
"i ] ^ ) ) ^ ) ) ) ) ) ) ) ) ) ) ) ) ) ) ) ) ) ) _ #.O. .0 "
};
