/* XPM */
static char *_7998_49bc5cf097c6491bc0e9c6723fcfc5a31e3989b1cf6ba2487bf1a57d14fac950[] = {
/* columns rows colors chars-per-pixel */
"29 43 191 2 ",
"   c black",
".  c #000100",
"X  c #010101",
"o  c #000200",
"O  c #010300",
"+  c #020202",
"@  c gray1",
"#  c #020401",
"$  c #040603",
"%  c #080A07",
"&  c gray3",
"*  c #0B0B0B",
"=  c #0C0E0B",
"-  c gray5",
";  c #0D0F0C",
":  c #111111",
">  c #131313",
",  c gray8",
"<  c #151515",
"1  c gray9",
"2  c gray10",
"3  c #1B1B1B",
"4  c gray11",
"5  c #202020",
"6  c gray13",
"7  c #222222",
"8  c #232323",
"9  c #232522",
"0  c gray14",
"q  c #252525",
"w  c #272727",
"e  c gray16",
"r  c #2A2A2A",
"t  c #2A2C29",
"y  c #2C2C2C",
"u  c #2D2D2D",
"i  c gray18",
"p  c #2F2F2F",
"a  c gray19",
"s  c #323232",
"d  c gray20",
"f  c #353535",
"g  c #363835",
"h  c #393939",
"j  c #3A3A3A",
"k  c #3A3C39",
"l  c #3B3D3A",
"z  c gray24",
"x  c #3F3F3F",
"c  c #3E403D",
"v  c gray25",
"b  c #414340",
"n  c #434343",
"m  c #444444",
"M  c #494949",
"N  c gray29",
"B  c #4B4D4A",
"V  c #4C4E4B",
"C  c #505050",
"Z  c #535353",
"A  c #5B5B5B",
"S  c #616360",
"D  c #6C6E6B",
"F  c #6D6D6D",
"G  c #6F6F6F",
"H  c #6F716E",
"J  c gray44",
"K  c #727272",
"L  c #727471",
"P  c #747673",
"I  c #747474",
"U  c #767676",
"Y  c #777976",
"T  c gray48",
"R  c #7B7B7B",
"E  c #7B7D7A",
"W  c #7C7C7C",
"Q  c gray50",
"!  c #808080",
"~  c #848484",
"^  c gray54",
"/  c gray56",
"(  c #90928F",
")  c #939393",
"_  c #929491",
"`  c #939592",
"'  c #949693",
"]  c gray58",
"[  c #959595",
"{  c #959794",
"}  c gray59",
"|  c #979797",
" . c #969895",
".. c #979996",
"X. c #989A97",
"o. c #989898",
"O. c #999B98",
"+. c #9A9A9A",
"@. c #9B9B9B",
"#. c #9A9C99",
"$. c #9D9D9D",
"%. c #9D9F9C",
"&. c gray62",
"*. c #9F9F9F",
"=. c #9FA19E",
"-. c #A0A29F",
";. c #A0A0A0",
":. c gray63",
">. c #A2A2A2",
",. c gray64",
"<. c #A4A4A4",
"1. c gray65",
"2. c gray66",
"3. c #A9A9A9",
"4. c gray67",
"5. c #ACACAC",
"6. c gray68",
"7. c #AEAEAE",
"8. c #AFAFAF",
"9. c #AEB0AD",
"0. c #AFB1AE",
"q. c #B1B1B1",
"w. c #B2B2B2",
"e. c gray70",
"r. c #B3B5B2",
"t. c #B4B6B3",
"y. c #B4B4B4",
"u. c gray71",
"i. c #B6B8B5",
"p. c #B9B9B9",
"a. c #BBBBBB",
"s. c gray74",
"d. c #C0C2BF",
"f. c gray76",
"g. c #C3C3C3",
"h. c #C4C6C3",
"j. c gray77",
"k. c #C6C6C6",
"l. c gray78",
"z. c #C8CAC7",
"x. c #C8C8C8",
"c. c gray79",
"v. c #C9CBC8",
"b. c #CBCBCB",
"n. c gray80",
"m. c #CDCDCD",
"M. c LightGray",
"N. c gray86",
"B. c #DBDDDA",
"V. c #DCDEDB",
"C. c gainsboro",
"Z. c gray88",
"A. c #E1E1E1",
"S. c #E2E2E2",
"D. c gray90",
"F. c gray92",
"G. c #EBEDEA",
"H. c #ECEEEB",
"J. c #ECECEC",
"K. c gray93",
"L. c #EDEFEC",
"P. c #EEEEEE",
"I. c #EFEFEF",
"U. c gray94",
"Y. c #F1F1F1",
"T. c #F1F3F0",
"R. c #F2F4F1",
"E. c #F3F5F2",
"W. c #F4F6F3",
"Q. c #F4F4F4",
"!. c gray96",
"~. c #F5F7F4",
"^. c #F6F6F6",
"/. c gray97",
"(. c #F6F8F5",
"). c #F7F9F6",
"_. c #F8FAF7",
"`. c #F8F8F8",
"'. c #F9F9F9",
"]. c #F9FBF8",
"[. c gray98",
"{. c #FBFBFB",
"}. c #FAFCF9",
"|. c #FBFDFA",
" X c #FCFEFB",
".X c gray99",
"XX c #FDFDFD",
"oX c #FDFFFC",
"OX c #FEFFFD",
"+X c #FEFEFE",
"@X c white",
/* pixels */
"a o.,.3.{ ' { {  ...' #.) [ [ } ' O.X._  .` +.} } | [ } s ",
"*.+Xm.m.].OXOXOX XOX X).@X@X@X@X X|. XoXOXOX/.+X+X+X.X@X;.",
"6.f.4 i ( }.~.(.].|.). X@XU.U.'.|.|. X].~.}.+X.X{.[.`.+X:.",
"4.F..XK Y OX].OX|.].OXOX'.@X@X[.|.}.(.oXOX}.@X[.+X.X'.@X>.",
"$.XX^ e }.oX_.). XOX|.].{.S.I D. XOXOX(.OX).`.+X.X.X'.+X*.",
"q.b.u q.t.}.|.OXOX(.OX|.@Xv X h OXE.OX].oXOXXXXX+X@XXX@X>.",
"y.1.7 7 E OX(.].].OXW.OX.Xh   z oXOX|.OX]. X.X+X.X.X[.@X;.",
"<.@Xj.x.G.}.OX|.OX_. XW.M n > m V H.OX X|.oXXX.X+XXX[.@X>.",
";..XZ j ].OX].OX}._.oXL + +   & # H OX).}.|.[.+XXX+X[.+X>.",
">.P.< * z.OXW.|.OX).OX9.  f G e . 0.OX|.OXOX@X[.XX+X[.+X>.",
"R w : , = d.OX|.].OX|.oXn.1.d 3.v.OX).]. XoX[.+XXX+X[.+X>.",
"! 3 0 r O h._.|.OX_.}.}.XXN.e.C.OX(. XOX_.|.{.@XXX+X[.+X>.",
"&..XJ A T.}. X X}.OXoX}.'.@X+X+X}.oX X}.|.oX@X'.XX+X[.+X>.",
"$.@XK.I. X|.OX}.|.}.|. X@X'.XX[.}.oX}.OX|.).'.@XXX+X[.+X>.",
">..X`.+XOX X).OXoXoX_.OX!.@X.XXXOX_.|.OX].OX{.@XXX+X[.+X>.",
">..X.X.X X|. XoXOX].OX X@X^.+X@X_.OXOX].oXOX{.XXXX+X[.+X>.",
"=.OX].|. X X X X X X X X X X X X X X X X X X X X XoX[.+X>.",
"=.OX].|. X X X X X X X X X X X X X X X X X X X X XoX[.+X>.",
"=.OX].|. X X X X X X X X X X X X X X X X X X X X XoX[.+X>.",
"=.OX].|. X X X X X X X X X X X X X X X X X X X X XoX[.+X>.",
"=.OX].|. X X X X X X X X X X X X X X X X X X X X XoX[.+X>.",
"=.OX].|. X X X X X X X X X X X X X X X X X X X X XoX[.+X>.",
"=.OX].|. X X X X X X X X X X X X X X X X X X X X XoX[.+X>.",
"=.OX].|. X X X X X X X X X X X X X X X X X X X X XoX[.+X>.",
"=.OX].|. X X X X X|. X].|.oX}.oX XoXoX|.oX X_.OXOX].[.@X>.",
"=.OX].|. X X X XoX_.oXOXoX XoX X}.].|. XoXOXoX].|.|.^.@X&.",
"=.OX].|. X X X X}.OXoX|.].}.OX}.OXOXOXoX_.|.OX]. XOX[.'.<.",
"=.OX].|. X X X X_.OX}._.OXoXoXOX|.oX X X}.|.OXOX].}.`.@X:.",
"=.OX].|. X X X XOX|.].OXOX_.(._.}.OX_.|.OXoX|.|.}.OXXX{.<.",
"=.OX].|. X X X XOX).OXOX).OXOX}.}.OX|.oXOX].oXOXOXL.J.@X*.",
"=.OX].|. X X X X|.).OX}.].OX(. X). X}.oX].|.OXE.R.S F .X>.",
"=.OX].|. X X X XOX|. X_.oXV.i.B.OX}._.OX}.OX].v.o 9 6 3 Q ",
"=.OX].|. X X X X].OX|.oXv.%.l -.l.@X.X.XXX.X@Xs.- 2 1 5 W ",
"=.OX].|. X X X XOX].oXr.. t P t + w.XX@X.X@X{.@Xn.@ , Y.:.",
"=.OX].|. X X X X_.).OXD $ . . % X I +X`.XX'.XX{.^.x C '.2.",
"=.OX].|. X X X XOXOXoXT.B B ; b N Y.XX@XXXXX+X@XJ.c.g..X;.",
"=.OX].|. X X X X}.~. XOX}.k # g @X@X.X'..XXX+X{.U 0 8 5.p.",
"=.OX].|. X X X XOXOXoX].}.k . c +XXX@X.X@X/.^.@Xu.u.u j.7.",
";.@X[..XXXXXXXXX[.`..XXX@XA.T Z.XX+X'.XX+X.X@X{..Xq ~ @X@.",
";.@X[..XXXXXXXXX@X{.+X@X/.@X+XXX@X^.+X@X{.@XQ.@XK I +XY.<.",
";.@XQ.'.XX'.[.[.{.{.[.'.'.`.`./.[.[.[.[.[.[.[.[./ y 6 a.8.",
"*.@X{.@X@X+X@X@X@X@X@X@X@X+X+X+X@X@X@X@X@X@X@X@X'.M.k.@X2.",
"p o.] } } ] } } } } } } } } } } } } } } } } } } | ,.;.$.w "
};
