/* XPM */
static char *_97_33d96a689e7ac28d88dfbccac9b1e5639807b0bf700775bb0c70ce3cbb6101a5[] = {
/* columns rows colors chars-per-pixel */
"29 43 205 2 ",
"   c #302E30",
".  c #99A4A3",
"X  c #95A6A5",
"o  c #96A4A3",
"O  c #969898",
"+  c #969595",
"@  c gray59",
"#  c gray59",
"$  c gray59",
"%  c #959595",
"&  c gray60",
"*  c #302F30",
"=  c #9FA2A2",
"-  c #FFEEED",
";  c #FCC7C6",
":  c #FFD5D4",
">  c #FFF7F7",
",  c white",
"<  c white",
"1  c white",
"2  c gray99",
"3  c #9F9F9F",
"4  c #A0ABAA",
"5  c #FF5352",
"6  c #F52526",
"7  c #F91819",
"8  c #F9E9E7",
"9  c #F9FFFD",
"0  c #F9F9F7",
"q  c #F9FBF9",
"w  c #F9FAF9",
"e  c #F9FBF9",
"r  c #F9FAF8",
"t  c #F9F8F6",
"y  c #F9FBF9",
"u  c #F5F7F5",
"i  c #A0A1A0",
"p  c #A0A2A2",
"a  c #FFF1EF",
"s  c #F95F5F",
"d  c #FCB8B8",
"f  c #FCFFFF",
"g  c #FCFCFA",
"h  c #FCFEFC",
"j  c #FCFEFC",
"k  c #FCFEFC",
"l  c #FCFEFC",
"z  c #FCFEFC",
"x  c #FCFCFA",
"c  c #FCFFFF",
"v  c #F9FBF9",
"b  c #A0A1A0",
"n  c #A0B0AF",
"m  c #FFC7C6",
"M  c #F90001",
"N  c #FC4A4B",
"B  c #FCF3F1",
"V  c #FCFFFF",
"C  c #FCFDFB",
"Z  c #FCFEFC",
"A  c #FCFEFC",
"S  c #FCFEFC",
"D  c #FCFBFA",
"F  c #FCB9B8",
"G  c #F9FBF9",
"H  c #A0A1A0",
"J  c #A0A3A2",
"K  c #FFDEDC",
"L  c #F9FFFF",
"P  c #FC4949",
"I  c #FCD2D0",
"U  c #FCFCFA",
"Y  c #FCFEFC",
"T  c #FCFEFC",
"R  c #FCFBF9",
"E  c #FC9090",
"W  c #FC0000",
"Q  c #A0AEAD",
"!  c #FF6868",
"~  c #F92526",
"^  c #FC3031",
"/  c #FCEBE9",
"(  c #FCFDFB",
")  c #FCFEFC",
"_  c #FCFBF9",
"`  c #FCC0C0",
"'  c #FC0507",
"]  c #A0A4A3",
"[  c #F9C3C2",
"{  c #FCE2E2",
"}  c #FCFDFB",
"|  c #FCFDFB",
" . c #FCFFFE",
".. c #FCF7F6",
"X. c #FC3334",
"o. c #FC0709",
"O. c #A0A2A1",
"+. c #F96566",
"@. c #FCD4D3",
"#. c #FCFCFA",
"$. c #FCFEFC",
"%. c #FCFDFB",
"&. c #FC6363",
"*. c #FC0B0D",
"=. c #A0AFAE",
"-. c #FF7575",
";. c #F90000",
":. c #FC2627",
">. c #FCF1EF",
",. c #FCFDFB",
"<. c #FCFCFA",
"1. c #FCDEDE",
"2. c #FC1A1B",
"3. c #A0AEAE",
"4. c #FF605F",
"5. c #FC1515",
"6. c #FCE9E7",
"7. c #FCFDFB",
"8. c #FCFEFC",
"9. c #FCFEFC",
"0. c #FCFBF9",
"q. c #FCC9C9",
"w. c #FC1A1A",
"e. c #A0A5A5",
"r. c #FFFCFB",
"t. c #F93132",
"y. c #FCB6B6",
"u. c #FCFCFA",
"i. c #FCFEFC",
"p. c #FCFEFC",
"a. c #FCFDFA",
"s. c #FCFDFD",
"d. c #FCEAEA",
"f. c #A0A0A0",
"g. c #F9F0F0",
"h. c #FCFCFB",
"j. c #FCFEFC",
"k. c #FCFEFC",
"l. c #FCFEFC",
"z. c #FCFEFC",
"x. c #FCFEFC",
"c. c #FCFCFA",
"v. c #FCFCFB",
"b. c #A0A1A1",
"n. c #F9F8F7",
"m. c #FCFCFA",
"M. c #FCFEFC",
"N. c #FCFEFC",
"B. c #FCFDFB",
"V. c #A0A1A0",
"C. c #F9FAF8",
"Z. c #FCFEFC",
"A. c #FCFEFC",
"S. c #FCFEFC",
"D. c #FCFEFC",
"F. c #FCFEFC",
"G. c #FCFBF9",
"H. c #FCFEFC",
"J. c #FCFEFC",
"K. c #FCFCFA",
"L. c #FCFFFF",
"P. c #FCFEFC",
"I. c #FCFEFC",
"U. c #FCFFFD",
"Y. c #FCF8F7",
"T. c #FC9F9F",
"R. c #FCFEFC",
"E. c #FCFEFC",
"W. c #FCFBF9",
"Q. c #FC7B7B",
"!. c #FCFBF9",
"~. c #FCB6B6",
"^. c #FC090B",
"/. c #FCFDFB",
"(. c #FCFFFE",
"). c #FCF4F2",
"_. c #FC2728",
"`. c #FC0608",
"'. c #FCFEFC",
"]. c #FCFCFA",
"[. c #FC7675",
"{. c #FC0C0E",
"}. c #FCFDFA",
"|. c #FCE9E9",
" X c #FC2929",
".X c #FCFEFC",
"XX c #FCFEFC",
"oX c #FCFCFA",
"OX c #FCD6D6",
"+X c #FC3031",
"@X c #FCFEFC",
"#X c #FCFDFA",
"$X c #FCFDFC",
"%X c #FCF4F3",
"&X c #FCFEFC",
"*X c #FCFEFC",
"=X c #FCFDFB",
"-X c #FCFCFA",
";X c #FCFDFB",
":X c #FCFCFB",
">X c #F93132",
",X c #F9C3C2",
"<X c #F90001",
"1X c #A0B0AF",
"2X c #302F30",
/* pixels */
"  . X o O + @ # # # # # # # # # # # # # # # # # # $ % & * ",
"= - ; : > , < , , , , , , , , , , , , , , , , , , 1 2 , 3 ",
"4 5 6 7 8 9 0 q q q q w e r t r e w q q q q q q q y u , i ",
"p a s d f g h j j j k l z x c x z l k j j j j j j j v , b ",
"n m M N B V C j j j Z A S D F D S A Z j j j j j j j G , H ",
"J K L P I f U j j Y T R f E W E f R T Y j j j j j j G , H ",
"Q ! ~ ^ / f ( j j ) _ f ` W ' W ` f _ ) j j j j j j G , H ",
"] , [ { f } h j j |  ...X.W o.W X... .| j j j j j j G , H ",
"O., +.@.f #.h j j $.%.f &.W *.W &.f %.$.j j j j j j G , H ",
"=.-.;.:.>.f ,.j j ) <.f 1.2.W 2.1.f <.) j j j j j j G , H ",
"3.4.;.5.6.f 7.j j 8.9.0.f q.w.q.f 0.9.8.j j j j j j G , H ",
"e.r.t.y.f u.h j j j i.p.a.s.d.s.a.p.i.j j j j j j j G , H ",
"f., g.h.j.k.l.j j j j z.x.c.v.c.x.z.j j j j j j j j G , H ",
"b., n.m.M.N.j j j j j j j j B.j j j j j j j j j j j G , H ",
"V., C.Z.A.S.j j j j j j j j j j j j j j j j j j j j G , H ",
"H , G j j j j j j j j j j j j j j j j j j j j j j j G , H ",
"H , G j j j j j j j j l.D.F.G.F.D.l.j j j j j j j j G , H ",
"H , G j j j j j j j 8.H.J.K.L.K.J.H.8.j j j j j j j G , H ",
"H , G j j j j j j j P.I.U.Y.T.Y.U.I.P.j j j j j j j G , H ",
"H , G j j j j j j R.E.W.f Q.W Q.f W.E.R.j j j j j j G , H ",
"H , G j j j j j j ) !.f ~.W ^.W ~.f !.) j j j j j j G , H ",
"H , G j j j j j j /.(.)._.W `.W _.).(./.j j j j j j G , H ",
"H , G j j j j j j '.].f [.W {.W [.f ].'.j j j j j j G , H ",
"H , G j j j j j j ) }.f |. XW  X|.f }.) j j j j j j G , H ",
"H , G j j j j j j .XXXoXf OX+XOXf oXXX.Xj j j j j j G , H ",
"H , G j j j j j j j N.@X#X$X%X$X#X@XN.j j j j j j j G , H ",
"H , G j j j j j j j j &X*X=X-X=X*X&Xj j j j j j j j G , H ",
"H , G j j j j j j j j j j j ;Xj j j j j j j j j j j G , H ",
"H , G j j j j j j j j j j j j j j j j j j j j S.A.Z.C., V.",
"H , G j j j j j j j j j j j B.j j j j j j j j N.M.m.n., b.",
"H , G j j j j j j j j z.x.c.v.c.x.z.j j j j l.k.j.:Xg., f.",
"H , G j j j j j j j i.p.a.s.d.s.a.p.i.j j j h u.f y.>Xr.e.",
"H , G j j j j j j 8.9.0.f q.w.q.f 0.9.8.j j 7.f 6.5.;.4.3.",
"H , G j j j j j j ) <.f 1.2.W 2.1.f <.) j j ,.f >.:.;.-.=.",
"H , G j j j j j j $.%.f &.W *.W &.f %.$.j j h #.f @.+., O.",
"H , G j j j j j j |  ...X.W o.W X... .| j j h } f { ,X, ] ",
"H , G j j j j j j ) _ f ` W ' W ` f _ ) j j ( f / ^ ~ ! Q ",
"H , G j j j j j j Y T R f E W E f R T Y j j U f I P L K J ",
"H , G j j j j j j j Z A S D F D S A Z j j j C V B N <Xm 1X",
"b , v j j j j j j j k l z x c x z l k j j j h g f d s a p ",
"i , u y q q q q q q q w e r t r e w q q q q 0 9 8 7 6 5 4 ",
"3 , 2 1 , , , , , , , , , , , , , , , , , , < , > : ; - = ",
"2X& % $ # # # # # # # # # # # # # # # # # # @ + O o X .   "
};
