/* XPM */
static char *_450_af8b791f7785a19c1b2724c09a7700f4b628e35674f8890e8f19bb36788aea99[] = {
/* columns rows colors chars-per-pixel */
"29 43 149 2 ",
"   c #302E2F",
".  c #302F30",
"X  c #F90000",
"o  c #FC0000",
"O  c #FC0001",
"+  c #FC0102",
"@  c #FC0202",
"#  c #FC0203",
"$  c #FC0205",
"%  c #FC0305",
"&  c #F90606",
"*  c #FC0405",
"=  c #FC0406",
"-  c #FC0506",
";  c #FC0507",
":  c #FC0607",
">  c #FC0508",
",  c #FC0608",
"<  c #FC0709",
"1  c #FC080A",
"2  c #FC090B",
"3  c #F90F10",
"4  c #FC1111",
"5  c #FC1314",
"6  c #FC1517",
"7  c #FC1718",
"8  c #F51E1E",
"9  c #FC1818",
"0  c #FC1819",
"q  c #FC1A1A",
"w  c #FC1B1C",
"e  c #F91C1D",
"r  c #FC1F1F",
"t  c #F92627",
"y  c #FC2425",
"u  c #FC2626",
"i  c #FC2E2E",
"p  c #FC2F2F",
"a  c #F92F30",
"s  c #FC3737",
"d  c #FC3838",
"f  c #FC3B3C",
"g  c #FC4242",
"h  c #FC4444",
"j  c #FC4747",
"k  c #FF4746",
"l  c #FC4A4B",
"z  c #FC5A5A",
"x  c #FC6363",
"c  c #FF6564",
"v  c #FC6868",
"b  c #FC6B6C",
"n  c #FC6C6C",
"m  c #FC6F6E",
"M  c #FC7374",
"N  c #FC7979",
"B  c #FC7B7C",
"V  c #959595",
"C  c #969594",
"Z  c gray59",
"A  c #969E9D",
"S  c gray60",
"D  c #999E9D",
"F  c #9F9F9F",
"G  c #A09F9F",
"H  c #95A5A5",
"J  c #96A5A5",
"K  c #9FA2A2",
"L  c #A0A1A0",
"P  c #A0A1A1",
"I  c #A0A2A1",
"U  c #A0A2A2",
"Y  c #A0A4A4",
"T  c #A0A7A6",
"R  c #A0ABAA",
"E  c #A0AEAD",
"W  c #A0AFAE",
"Q  c #A0B1B0",
"!  c #A0B5B4",
"~  c #FC8080",
"^  c #FC8B8A",
"/  c #FC8F8F",
"(  c #F99190",
")  c #F99292",
"_  c #FC9796",
"`  c #F99C9C",
"'  c #FC9E9E",
"]  c #FCA1A1",
"[  c #FCA5A6",
"{  c #FFA8A7",
"}  c #FCA8A8",
"|  c #FCA9A9",
" . c #FCB4B3",
".. c #FCB5B5",
"X. c #FCB6B6",
"o. c #FCBEBD",
"O. c #FFBFBE",
"+. c #FCC6C5",
"@. c #FCC8C7",
"#. c #FCC9C8",
"$. c #FCC9C9",
"%. c #FFD0CF",
"&. c #F9D2D1",
"*. c #FCD2D1",
"=. c #FFD3D1",
"-. c #F9D6D5",
";. c #FCD7D6",
":. c #FCE0DF",
">. c #FCE0E0",
",. c #FCE3E1",
"<. c #FFE7E7",
"1. c #FCE9E8",
"2. c #FFEEEC",
"3. c #FCF0EE",
"4. c #FCF0EF",
"5. c #F5F7F5",
"6. c #F9F2F1",
"7. c #FCF3F1",
"8. c #F9F5F3",
"9. c #F9F7F5",
"0. c #FCF4F4",
"q. c #FCF6F6",
"w. c #F9F8F6",
"e. c #F9F9F7",
"r. c #FCF9F7",
"t. c #F9FAF8",
"y. c #F9FAF9",
"u. c #F9FBF9",
"i. c #FCF9F8",
"p. c #FCFAF8",
"a. c #FCFAF9",
"s. c #FCFBF9",
"d. c #FCFCFA",
"f. c #FCFCFB",
"g. c #FCFDFB",
"h. c #FCFEFB",
"j. c #F9FFFF",
"k. c gray99",
"l. c #FCFDFC",
"z. c #FCFDFD",
"x. c #FCFEFC",
"c. c #FCFEFD",
"v. c #FCFFFD",
"b. c #FCFEFE",
"n. c #FCFFFE",
"m. c #FCFFFF",
"M. c #FFFEFE",
"N. c #FFFFFE",
"B. c white",
/* pixels */
"  D H J A C Z Z Z Z Z Z Z Z Z Z Z Z Z Z Z Z Z Z Z Z V S . ",
"K B.@.%.<.B.M.B.B.B.B.B.B.B.B.B.B.B.B.B.B.B.B.B.B.B.k.B.F ",
"! { 8 3 ( j.9.u.u.u.t.u.w.8.e.w.8.e.u.y.u.u.u.u.u.u.5.B.L ",
"U B.) M m.g.x.x.x.x.x.g.c.m.c.b.m.l.g.x.x.x.x.x.x.x.u.B.L ",
"I B.a 6 ..m.s.x.x.x.d.m.#.v ;.o.b :.m.g.x.x.x.x.x.x.u.B.L ",
"T 2.6.' m m.r.x.x.g.m.1.w o g i o f v.x.g.x.x.x.x.x.u.B.L ",
"Q O.e y _ m.p.x.x.d.m.*.O 2 # = % 7 7.m.g.x.x.x.x.x.u.B.L ",
"L B.-.*.n.x.x.x.x.g.m.1.9 O = > o d n.x.g.x.x.x.x.x.u.B.L ",
"R =.` }  .m.d.x.x.x.s.m.B o < : o [ m.s.x.x.x.x.x.x.u.B.L ",
"E k & 9 q x.v.x.x.x.x.d.m.x o o ^ m.s.x.x.x.x.x.x.x.u.B.L ",
"W c X o d m.g.x.x.x.x.g.g.m.h n m.a.x.x.x.x.x.x.x.x.u.B.L ",
"Y N.t 5 >.m.d.x.x.x.x.x.g.n.4.0.x.g.x.x.x.x.x.x.x.x.u.B.L ",
"G B.&.$.m.d.x.x.x.x.x.x.x.g.f.d.x.x.x.x.x.x.x.x.x.x.u.B.L ",
"P B.y.c.d.x.x.x.x.x.x.x.x.x.g.g.x.x.x.x.x.x.x.x.x.x.u.B.L ",
"L B.e.d.x.x.x.x.x.x.x.x.x.x.x.x.x.x.x.x.x.x.x.x.x.x.u.B.L ",
"L B.u.x.x.x.x.x.x.x.x.x.x.x.x.x.x.x.x.x.x.x.x.x.x.x.u.B.L ",
"L B.u.x.x.x.x.x.x.x.x.x.d.r.d.s.r.d.x.x.x.x.x.x.x.x.u.B.L ",
"L B.u.x.x.x.x.x.x.x.x.g.c.m.c.b.m.z.h.x.x.x.x.x.x.x.u.B.L ",
"L B.u.x.x.x.x.x.x.x.d.m.X.j +.| l *.m.d.x.x.x.x.x.x.u.B.L ",
"L B.u.x.x.x.x.x.x.d.m.,.4 o s u o p d.v.g.x.x.x.x.x.u.B.L ",
"L B.u.x.x.x.x.x.x.d.m.*.+ 1 % - $ 0 7.m.g.x.x.x.x.x.u.B.L ",
"L B.u.x.x.x.x.x.x.g.m.3.r o ; , o g m.g.x.x.x.x.x.x.u.B.L ",
"L B.u.x.x.x.x.x.x.x.s.m./ o < * @ X.m.s.x.x.x.x.x.x.u.B.L ",
"L B.u.x.x.x.x.x.x.x.x.s.m.N o o ] m.s.x.x.x.x.x.x.x.u.B.L ",
"L B.u.x.x.x.x.x.x.x.x.x.s.m.z ~ m.p.x.x.x.x.x.x.x.x.u.B.L ",
"L B.u.x.x.x.x.x.x.x.x.x.g.l.q.i.g.x.x.x.x.x.x.x.x.x.u.B.L ",
"L B.u.x.x.x.x.x.x.x.x.x.x.g.d.d.x.x.x.x.x.x.x.x.x.x.u.B.L ",
"L B.u.x.x.x.x.x.x.x.x.x.x.x.x.x.x.x.x.x.x.x.x.x.x.x.u.B.L ",
"L B.u.x.x.x.x.x.x.x.x.x.x.x.x.x.x.x.x.x.x.x.x.x.x.d.e.B.L ",
"L B.u.x.x.x.x.x.x.x.x.x.x.x.g.g.x.x.x.x.x.x.x.x.d.c.y.B.P ",
"L B.u.x.x.x.x.x.x.x.x.x.x.g.f.d.x.x.x.x.x.x.x.d.m.$.&.B.G ",
"L B.u.x.x.x.x.x.x.x.x.x.g.n.4.0.x.g.x.x.x.x.d.m.>.5 t N.Y ",
"L B.u.x.x.x.x.x.x.x.x.g.g.m.h n m.a.x.x.x.x.g.m.d o X c W ",
"L B.u.x.x.x.x.x.x.x.x.d.m.x o o ^ m.s.x.x.x.v.x.q 9 & k E ",
"L B.u.x.x.x.x.x.x.x.s.m.B o < : o [ m.s.x.x.d.m. .} ` =.R ",
"L B.u.x.x.x.x.x.x.g.m.1.9 O = > o d n.x.g.x.x.x.n.*.-.B.L ",
"L B.u.x.x.x.x.x.x.d.m.*.O 2 # = % 7 7.m.g.x.p.m._ y e O.Q ",
"L B.u.x.x.x.x.x.x.g.m.1.w o g i o f v.x.g.x.r.m.m ' 6.2.T ",
"L B.u.x.x.x.x.x.x.x.d.m.#.v ;.o.b :.m.g.x.x.s.m...6 a B.I ",
"L B.u.x.x.x.x.x.x.x.x.g.c.m.c.b.m.l.g.x.x.x.x.g.m.M ) B.U ",
"L B.5.u.u.u.u.u.u.u.t.u.w.8.e.w.8.e.u.y.u.u.9.j.( 3 8 { ! ",
"F B.k.B.B.B.B.B.B.B.B.B.B.B.B.B.B.B.B.B.B.B.M.B.<.%.@.B.K ",
". S V Z Z Z Z Z Z Z Z Z Z Z Z Z Z Z Z Z Z Z Z C A J H D   "
};
