/* XPM */
static char *_204_4daf660cd530e3ef0b33a32d7a0819faa2596a3bd730200e8f3448c0f8f74128[] = {
/* columns rows colors chars-per-pixel */
"29 43 234 2 ",
"   c #2F2E2F",
".  c #9D9E9D",
"X  c #A5A5A5",
"o  c #A5A5A5",
"O  c #9D9E9D",
"+  c #949594",
"@  c gray59",
"#  c gray59",
"$  c gray59",
"%  c #959595",
"&  c gray60",
"*  c #302F30",
"=  c #A2A2A2",
"-  c white",
";  c #C7C8C7",
":  c #CFD0CF",
">  c #E7E7E7",
",  c #FEFEFE",
"<  c white",
"1  c gray99",
"2  c #9F9F9F",
"3  c #B4B5B4",
"4  c #A7A8A7",
"5  c #1E1E1E",
"6  c #100F10",
"7  c #909190",
"8  c #F5F7F5",
"9  c #F9FBF9",
"0  c #F9FAF9",
"q  c #F9FBF9",
"w  c #F8FAF8",
"e  c #F6F8F6",
"r  c #F9FBF9",
"t  c #F5F7F5",
"y  c #A0A1A0",
"u  c #A2A2A2",
"i  c #929292",
"p  c #747374",
"a  c #FBFDFB",
"s  c #FCFEFC",
"d  c #FCFEFC",
"f  c #FCFEFC",
"g  c #FCFEFC",
"h  c #FCFEFC",
"j  c #FAFCFA",
"k  c white",
"l  c #F9FBF9",
"z  c #A0A1A0",
"x  c #A1A2A1",
"c  c #302F30",
"v  c #171517",
"b  c gray71",
"n  c #F9FBF9",
"m  c #FCFEFC",
"M  c #FCFEFC",
"N  c #FBFDFB",
"B  c #FAFBFA",
"V  c #B8B9B8",
"C  c #F9FBF9",
"Z  c #A0A1A0",
"A  c #A6A7A6",
"S  c #ECEEEC",
"D  c #F1F2F1",
"F  c gray62",
"G  c #6E6F6E",
"H  c #F7F9F7",
"J  c #FCFEFC",
"K  c #FCFEFC",
"L  c #F9FBF9",
"P  c #909090",
"I  c black",
"U  c #B0B1B0",
"Y  c #C0C1C0",
"T  c #1E1D1E",
"R  c #252425",
"E  c #989998",
"W  c #F8FAF8",
"Q  c #FCFEFC",
"!  c #F9FBF9",
"~  c #A2A2A2",
"^  c #060506",
"/  c gray63",
"(  c #CDCECD",
")  c #CBCCCB",
"_  c #F7F9F7",
"`  c #FDFFFD",
"'  c #FCFEFC",
"]  c #FAFCFA",
"[  c #DBDCDB",
"{  c #080708",
"}  c #050305",
"|  c #0A070A",
" . c #9FA09F",
".. c #E0E1E0",
"X. c #DBDCDB",
"o. c #FAFCFA",
"O. c #FCFEFC",
"+. c #FCFEFC",
"@. c #F8FAF8",
"#. c #747574",
"$. c #090809",
"%. c black",
"&. c gray64",
"*. c #2F2E2F",
"=. c #1B1A1B",
"-. c #E6E7E6",
";. c #FBFDFB",
":. c #FCFEFC",
">. c #F8FAF8",
",. c #7E7F7E",
"<. c #313131",
"1. c gray44",
"2. c #AEAFAE",
"3. c #636463",
"4. c #373737",
"5. c #FBFEFB",
"6. c #FCFEFC",
"7. c #FBFDFB",
"8. c white",
"9. c #F0F1F0",
"0. c #B3B4B3",
"q. c #A8A9A8",
"w. c #353435",
"e. c #AFAFAF",
"r. c #696869",
"t. c #161516",
"y. c #232223",
"u. c #3F3D3F",
"i. c #FBFDFB",
"p. c #FCFEFC",
"a. c #FCFEFC",
"s. c #FCFEFC",
"d. c #FBFDFB",
"f. c #DCDDDC",
"g. c #B3B4B3",
"h. c #9FA09F",
"j. c #6F6F6F",
"k. c #5A595A",
"l. c #FEFFFE",
"z. c #FCFEFC",
"x. c #FBFDFB",
"c. c #FCFEFC",
"v. c #FCFEFC",
"b. c #FBFDFB",
"n. c #F8FAF8",
"m. c #FCFDFC",
"M. c #A0A0A0",
"N. c #EEEFEE",
"B. c #EEEFEE",
"V. c #FEFEFE",
"C. c #FBFDFB",
"Z. c #FCFEFC",
"A. c #FCFEFC",
"S. c #FCFEFC",
"D. c #FBFDFB",
"F. c #F9FBF9",
"G. c gray63",
"H. c #FAFBFA",
"J. c #FEFEFE",
"K. c #FBFDFB",
"L. c #FCFEFC",
"P. c #A0A1A0",
"I. c #F8FAF8",
"U. c #FCFEFC",
"Y. c #FCFEFC",
"T. c #FCFEFC",
"R. c #FCFEFC",
"E. c #F9FBF9",
"W. c #FCFEFC",
"Q. c #FCFEFC",
"!. c #FCFEFC",
"~. c #FAFCFA",
"^. c white",
"/. c #FCFEFC",
"(. c #FBFDFB",
"). c #FCFEFC",
"_. c #F7F8F7",
"`. c #9E9F9E",
"'. c #FCFEFC",
"]. c #FCFEFC",
"[. c #FAFCFA",
"{. c #7B7B7B",
"}. c #FCFEFC",
"|. c #FCFEFC",
" X c #F9FBF9",
".X c gray55",
"XX c #0A080A",
"oX c #FAFCFA",
"OX c #CFD1CF",
"+X c #010101",
"@X c #070607",
"#X c #080608",
"$X c #010101",
"%X c #F8F9F8",
"&X c #6D6E6D",
"*X c #080708",
"=X c #010001",
"-X c #F8FAF8",
";X c #8A8B8A",
":X c #3C3C3C",
">X c #7E7D7E",
",X c #FCFEFC",
"<X c #FEFFFE",
"1X c #F4F5F4",
"2X c #D0D2D0",
"3X c #B0B1B0",
"4X c #282728",
"5X c #FCFEFC",
"6X c #FCFEFC",
"7X c #FAFCFA",
"8X c #E6E6E6",
"9X c #CFD1CF",
"0X c #FCFEFC",
"qX c #FCFEFC",
"wX c #FCFEFC",
"eX c #F9FBF9",
"rX c #FCFDFC",
"tX c #FCFEFC",
"yX c #FBFDFB",
"uX c #FAFCFA",
"iX c #B3B4B3",
"pX c #232223",
"aX c #B3B4B3",
"sX c #A8A9A8",
"dX c #353435",
"fX c #7E7F7E",
"gX c #2F2E2F",
"hX c gray64",
"jX c #989998",
"kX c #6E6F6E",
"lX c #A6A7A6",
"zX c #171517",
"xX c #A7A8A7",
"cX c #302F30",
/* pixels */
"  . X o O + @ # # # # # # # # # # # # # # # # # # $ % & * ",
"= - ; : > - , - - - - - - - - - - - - - - - - - - < 1 - 2 ",
"3 4 5 6 7 - 8 9 9 9 9 0 q w e w q 0 9 9 9 9 9 9 9 r t - y ",
"u - i p - a s d d d f g h j k j h g f d d d d d d d l - z ",
"x - c v b - n d d d m M N B V B N M m d d d d d d d C - Z ",
"A S D F G - H d d J K L - P I P - L K J d d d d d d C - Z ",
"U Y T R E - W d d Q ! - ~ I ^ I ~ - ! Q d d d d d d C - Z ",
"/ - ( ) _ ` ' d d ] - [ { } | } { [ - ] d d d d d d C - Z ",
" .- ..X.- o.O.+.d @.- #.I $.%.$.I #.- @.d d d d d d C - Z ",
"&.- *.=.-.- ;.:.d >.- ,.I <.1.<.I ,.- >.d d d d d d C - Z ",
"2.3.I I 4.- 5.6.d 7.8.9.0.q.w.q.0.9.8.7.d d d d d d C - Z ",
"e.r.t.y.u.- i.p.d a.s.d.- f.g.f.- d.s.a.d d d d d d C - Z ",
"h.- j.k.l.z.x.:.d c.v.b.n.m.- m.n.b.v.c.d d d d d d C - Z ",
"M.- N.B.V.C.Z.+.d d d A.S.D.F.D.S.A.d d d d d d d d C - Z ",
"G.- H.J.K.L.c.d d d d d d d d d d d d d d d d d d d C - Z ",
"P.- I.i.U.J d d d d d d d d d d d d d d d d d d d d C - Z ",
"Z - C d d d d d d d d Y.T.R.E.R.T.Y.d d d d d d d d C - Z ",
"Z - C d d d d d d d W.Q.!.~.^.~.!.Q.W.d d d d d d d C - Z ",
"Z - C d d d d d d +./.(.)._.`._.).(./.+.d d d d d d C - Z ",
"Z - C d d d d d d '.].[.- {.I {.- [.}.'.d d d d d d C - Z ",
"Z - C d d d d d d |. X- .XI XXI .X-  X|.d d d d d d C - Z ",
"Z - C d d d d d d oX- OX+X@X#X@X$XOX- oXd d d d d d C - Z ",
"Z - C d d d d d d %X- &XI *X=X*XI &X- %Xd d d d d d C - Z ",
"Z - C d d d d d d -X- ;XI :X>X:XI ;X- -Xd d d d d d C - Z ",
"Z - C d d d d d d ,X<X1X2X3X4X3X2X1X<X,Xd d d d d d C - Z ",
"Z - C d d d d d d 5X6X7X- 8X9X8X- 7X6X5Xd d d d d d C - Z ",
"Z - C d d d d d d 0XqXwXeXrX- rXeXwXqX0Xd d d d d d C - Z ",
"Z - C d d d d d d d d c.tXyXuXyXtXc.d d d d d J U.i.I.- P.",
"Z - C d d d d d d d d d d d d d d d d d d d c.L.K.J.H.- G.",
"Z - C d d d d d d d d A.S.D.F.D.S.A.d d d +.Z.C.V.B.N.- M.",
"Z - C d d d d d d c.v.b.n.m.- m.n.b.v.c.d :.x.z.l.k.j.- h.",
"Z - C d d d d d d a.s.d.- f.iXf.- d.s.a.d p.i.- u.pXt.r.e.",
"Z - C d d d d d d 7.8.9.aXsXdXsXaX9.8.7.d 6.5.- 4.I I 3.2.",
"Z - C d d d d d d >.- fXI <.1.<.I fX- >.d :.;.- -.=.gX- hX",
"Z - C d d d d d d @.- #.I $.%.$.I #.- @.d +.O.o.- X...-  .",
"Z - C d d d d d d ] - [ { } | } { [ - ] d d ' ` _ ) ( - / ",
"Z - C d d d d d d Q ! - ~ I ^ I ~ - ! Q d d W - jXR T Y U ",
"Z - C d d d d d d J K L - P I P - L K J d d H - kXF D S lX",
"Z - C d d d d d d d m M N B V B N M m d d d n - b zXc - x ",
"z - l d d d d d d d f g h j k j h g f d d d s a - p i - u ",
"y - t r 9 9 9 9 9 9 9 0 q w e w q 0 9 9 9 9 8 - 7 6 5 xX3 ",
"2 - 1 < - - - - - - - - - - - - - - - - - - , - > : ; - = ",
"cX& % $ # # # # # # # # # # # # # # # # # # @ + O o X .   "
};
