/* XPM */
static char *_1043_9f1a662075d5ca9b1d913a94ff69c98773d7a2bbbb1f1e31e3438270f64267c6[] = {
/* columns rows colors chars-per-pixel */
"29 43 236 2 ",
"   c #2F2E2F",
".  c #9D9E9D",
"X  c #A5A5A5",
"o  c #A5A5A5",
"O  c #9D9E9D",
"+  c #949594",
"@  c gray59",
"#  c gray59",
"$  c gray59",
"%  c #959595",
"&  c gray60",
"*  c #302F30",
"=  c #A2A2A2",
"-  c white",
";  c #C7C8C7",
":  c #CFD0CF",
">  c #E7E7E7",
",  c #FEFEFE",
"<  c white",
"1  c gray99",
"2  c #9F9F9F",
"3  c #B4B5B4",
"4  c #A7A8A7",
"5  c #1E1E1E",
"6  c #100F10",
"7  c #909190",
"8  c #F5F7F5",
"9  c #F9FBF9",
"0  c #F9FAF9",
"q  c #F9FBF9",
"w  c #F7F9F7",
"e  c #F4F6F4",
"r  c #F9FBF9",
"t  c #F5F7F5",
"y  c #A0A1A0",
"u  c #A2A2A2",
"i  c #929292",
"p  c #747374",
"a  c #FBFDFB",
"s  c #FCFEFC",
"d  c #FCFEFC",
"f  c #FCFEFC",
"g  c #FCFEFC",
"h  c #FBFDFB",
"j  c #FCFDFC",
"k  c #F9FBF9",
"l  c #A0A1A0",
"z  c #A1A2A1",
"x  c #302F30",
"c  c #171517",
"v  c gray71",
"b  c #F9FBF9",
"n  c #FCFEFC",
"m  c #FBFDFB",
"M  c #E2E3E2",
"N  c #767676",
"B  c #F9FBF9",
"V  c #A0A1A0",
"C  c #A6A7A6",
"Z  c #ECEEEC",
"A  c #F1F2F1",
"S  c gray62",
"D  c #6E6F6E",
"F  c #F7F9F7",
"G  c #FCFEFC",
"H  c #FCFEFC",
"J  c #FBFDFB",
"K  c #FDFFFD",
"L  c #3D3C3D",
"P  c black",
"I  c #B0B1B0",
"U  c #BFC1BF",
"Y  c #212021",
"T  c #282728",
"R  c #989998",
"E  c #F8FAF8",
"W  c #FCFEFC",
"Q  c #FBFDFB",
"!  c #FEFFFE",
"~  c #3B393B",
"^  c #A0A0A0",
"/  c #CBCCCB",
"(  c #C6C7C6",
")  c #FDFFFD",
"_  c #FCFEFC",
"`  c #FCFEFC",
"'  c #FCFEFC",
"]  c #FBFDFB",
"[  c white",
"{  c #F2F3F2",
"}  c #4B4A4B",
"|  c #454445",
" . c #121012",
".. c #9FA09F",
"X. c #525152",
"o. c #3E3D3E",
"O. c #F7F8F7",
"+. c #FDFFFD",
"@. c #FBFDFB",
"#. c #F8FAF8",
"$. c #717171",
"%. c #040404",
"&. c #020102",
"*. c #A4A4A4",
"=. c #EBECEB",
"-. c gray9",
";. c #070607",
":. c #CACBCA",
">. c #FBFDFB",
",. c #FCFEFC",
"<. c #F9FBF9",
"1. c #B4B4B4",
"2. c #2D2D2D",
"3. c #727172",
"4. c #7A797A",
"5. c #252525",
"6. c #161516",
"7. c #1A191A",
"8. c #0C0C0C",
"9. c #BDBEBD",
"0. c #F9FBF9",
"q. c #FCFEFC",
"w. c #FBFDFB",
"e. c #C8C9C8",
"r. c #A3A4A3",
"t. c gray21",
"y. c #808080",
"u. c #1F1D1F",
"i. c #1D1C1D",
"p. c #2A292A",
"a. c #010001",
"s. c #C6C7C6",
"d. c #F9FBF9",
"f. c #FCFEFC",
"g. c #FCFEFC",
"h. c #F9FBF9",
"j. c #DCDDDC",
"k. c #B3B4B3",
"l. c #9F9F9F",
"z. c #717071",
"x. c gray36",
"c. c #F3F5F3",
"v. c #FAFBFA",
"b. c #FCFEFC",
"n. c #FCFEFC",
"m. c #FCFEFC",
"M. c #FCFEFC",
"N. c #F9FBF9",
"B. c #FCFDFC",
"V. c #9F9F9F",
"C. c #EEEFEE",
"Z. c #EEEFEE",
"A. c #FBFCFB",
"S. c #FCFEFC",
"D. c #FCFEFC",
"F. c #FCFEFC",
"G. c #FCFEFC",
"H. c #FBFDFB",
"J. c #F9FBF9",
"K. c gray63",
"L. c #FAFBFA",
"P. c #FEFEFE",
"I. c #FAFCFA",
"U. c #FCFEFC",
"Y. c #FCFEFC",
"T. c #A0A1A0",
"R. c #F8FAF8",
"E. c #FBFDFB",
"W. c #FCFEFC",
"Q. c #FCFEFC",
"!. c #FCFEFC",
"~. c #FCFEFC",
"^. c #FBFDFB",
"/. c #F7F9F7",
"(. c #FCFEFC",
"). c #FCFEFC",
"_. c #FBFEFB",
"`. c #FCFDFC",
"'. c #FCFEFC",
"]. c #FAFCFA",
"[. c gray84",
"{. c #555555",
"}. c #FCFEFC",
"|. c #FCFEFC",
" X c #FBFDFB",
".X c #FDFEFD",
"XX c #313131",
"oX c #FCFEFC",
"OX c #FBFDFB",
"+X c #FEFFFE",
"@X c #FAFBFA",
"#X c #474647",
"$X c #FBFDFB",
"%X c #E5E7E5",
"&X c #313031",
"*X c #393839",
"=X c #131113",
"-X c #F8F9F8",
";X c gray43",
":X c #040404",
">X c #020102",
",X c gray43",
"<X c #FAFCFA",
"1X c #C6C7C6",
"2X c #010001",
"3X c gray22",
"4X c #808080",
"5X c #FCFEFC",
"6X c #FBFDFB",
"7X c #DFDFDF",
"8X c #ADAEAD",
"9X c #292829",
"0X c #FCFEFC",
"qX c #FCFEFC",
"wX c #F9FBF9",
"eX c #E6E6E6",
"rX c #CFD1CF",
"tX c #FCFEFC",
"yX c #FAFCFA",
"uX c #FCFDFC",
"iX c #FCFEFC",
"pX c #FCFEFC",
"aX c #FBFDFB",
"sX c #FAFCFA",
"dX c gray36",
"fX c #C8C9C8",
"gX c #A3A4A3",
"hX c #070607",
"jX c #C6C7C6",
"kX c #CBCCCB",
"lX c #BFC1BF",
"zX c #A6A7A6",
"xX c #767676",
"cX c #171517",
"vX c #A7A8A7",
"bX c #302F30",
/* pixels */
"  . X o O + @ # # # # # # # # # # # # # # # # # # $ % & * ",
"= - ; : > - , - - - - - - - - - - - - - - - - - - < 1 - 2 ",
"3 4 5 6 7 - 8 9 9 9 9 0 q w e w q 0 9 9 9 9 9 9 9 r t - y ",
"u - i p - a s d d d f g h j - j h g f d d d d d d d k - l ",
"z - x c v - b d d d n m - M N M - m n d d d d d d d B - V ",
"C Z A S D - F d d G H J K L P L K J H G d d d d d d B - V ",
"I U Y T R - E d d W Q ! - ~ P ~ - ! Q W d d d d d d B - V ",
"^ - / ( ) _ ` ' d ] [ { } |  .| } { [ ] d d d d d d B - V ",
"..- X.o.O.+.@.G d #.- $.P %.&.%.P $.- #.d d d d d d B - V ",
"*.=.-.;.:.- >.,.d <.- 1.P 2.3.2.P 1.- <.d d d d d d B - V ",
"4.5.6.7.8.9.- 0.d q.w.- e.r.t.r.e.- w.q.d d d d d d B - V ",
"y.u.i.p.a.s.- d.d f.g.h.- j.k.j.- h.g.f.d d d d d d B - V ",
"l.- z.x.c.v.b.n.d ' m.M.N.B.- B.N.M.m.' d d d d d d B - V ",
"V.- C.Z.- A.S.D.d d d F.G.H.J.H.G.F.d d d d d d d d B - V ",
"K.- L.P.I.U.Y.' d d d d d d d d d d d d d d d d d d B - V ",
"T.- R.E.W.Q.d d d d d d d d d d d d d d d d d d d d B - V ",
"V - B d d d d d d d d !.~.^./.^.~.!.d d d d d d d d B - V ",
"V - B d d d d d d d (.)._.`.- `._.).(.d d d d d d d B - V ",
"V - B d d d d d d d '.].- [.{.[.- ].'.d d d d d d d B - V ",
"V - B d d d d d d }.|. X.XXXP XX.X X|.}.d d d d d d B - V ",
"V - B d d d d d d oXOX+X@X#XP #X@X+XOXoXd d d d d d B - V ",
"V - B d d d d d d $X- %X&X*X=X*X&X%X- $Xd d d d d d B - V ",
"V - B d d d d d d -X- ;XP :X>X:XP ,X- -Xd d d d d d B - V ",
"V - B d d d d d d <X- 1X2X3X4X3X2X1X- <Xd d d d d d B - V ",
"V - B d d d d d d 5X6X- 7X8X9X8X7X- 6X5Xd d d d d d B - V ",
"V - B d d d d d d 0XqXwX- eXrXeX- wXqX0Xd d d d d d B - V ",
"V - B d d d d d d d m.tXyXuX- uXyXtXm.d d d d d d d B - V ",
"V - B d d d d d d d d iXpXaXsXaXpXiXd d d d d Q.W.E.R.- T.",
"V - B d d d d d d d d d d d d d d d d d d ' Y.U.I.P.L.- K.",
"V - B d d d d d d d d F.G.H.J.H.G.F.d d d D.S.A.- Z.C.- V.",
"V - B d d d d d d ' m.M.N.B.- B.N.M.m.' d n.b.v.c.dXz.- l.",
"V - B d d d d d d f.g.h.- j.k.j.- h.g.f.d d.- s.a.p.i.u.y.",
"V - B d d d d d d q.w.- fXgXt.gXfX- w.q.d 0.- 9.8.7.6.5.4.",
"V - B d d d d d d <.- 1.P 2.3.2.P 1.- <.d ,.>.- :.hX-.=.*.",
"V - B d d d d d d #.- $.P %.&.%.P $.- #.d G @.+.O.o.X.- ..",
"V - B d d d d d d ] [ { } |  .| } { [ ] d ' ` _ ) jXkX- ^ ",
"V - B d d d d d d W Q ! - ~ P ~ - ! Q W d d E - R T Y lXI ",
"V - B d d d d d d G H J K L P L K J H G d d F - D S A Z zX",
"V - B d d d d d d d n m - M xXM - m n d d d b - v cXx - z ",
"l - k d d d d d d d f g h j - j h g f d d d s a - p i - u ",
"y - t r 9 9 9 9 9 9 9 0 q w e w q 0 9 9 9 9 8 - 7 6 5 vX3 ",
"2 - 1 < - - - - - - - - - - - - - - - - - - , - > : ; - = ",
"bX& % $ # # # # # # # # # # # # # # # # # # @ + O o X .   "
};
