/* XPM */
static char *Free_Converter_com_4_87230142[] = {
/* columns rows colors chars-per-pixel */
"29 43 206 2 ",
"   c #302F30",
".  c #999898",
"X  c #959695",
"o  c #969F9E",
"O  c #969595",
"+  c gray59",
"@  c gray59",
"#  c gray59",
"$  c #959595",
"%  c gray60",
"&  c #302F30",
"*  c #9F9F9F",
"=  c gray100",
"-  c #FCF3F3",
";  c #FFE4E3",
":  c #FFFEFE",
">  c gray100",
",  c gray99",
"<  c #9F9F9F",
"1  c #A09F9F",
"2  c #F54B4C",
"3  c #F94242",
"4  c #F9FFFF",
"5  c #F9F7F5",
"6  c #F9FAF8",
"7  c #F9FBF9",
"8  c #F9F9F7",
"9  c #F9F8F6",
"0  c #F9FBF9",
"q  c #F9FAF9",
"w  c #F9FBF9",
"e  c #F9FAF9",
"r  c #F9FBF9",
"t  c #F5F7F5",
"y  c #A0A1A0",
"u  c #A0ADAD",
"i  c #FF9897",
"p  c #F9181A",
"a  c #FC5D5F",
"s  c #FCFFFF",
"d  c #FCFAF8",
"f  c #FCFEFC",
"g  c #FCFDFB",
"h  c #FCFCFB",
"j  c #FCFEFE",
"k  c #FCFCFA",
"l  c #FCFEFC",
"z  c #FCFEFC",
"x  c #FCFEFC",
"c  c #FCFEFC",
"v  c #FCFEFC",
"b  c #F9FBF9",
"n  c #A0A1A0",
"m  c #A06C6C",
"M  c #FF1212",
"N  c #F94A4B",
"B  c #FC191B",
"V  c #FCB9B8",
"C  c #FCFAF8",
"Z  c #FCE3E3",
"A  c #FCC3C3",
"S  c #FCFCFA",
"D  c #FCFEFC",
"F  c #FCFEFC",
"G  c #FCFDFB",
"H  c #FCFEFC",
"J  c #F9FBF9",
"K  c #A0A1A0",
"L  c #A08B8B",
"P  c #FFB5B4",
"I  c #F97474",
"U  c #FC292B",
"Y  c #FCD2D1",
"T  c #FCFBF9",
"R  c #FCFDFC",
"E  c #FC4949",
"W  c #FC0304",
"Q  c #FCCFCE",
"!  c #FCFCFA",
"~  c #FCFEFC",
"^  c #FCFEFC",
"/  c #FCFDFB",
"(  c #FCFEFC",
")  c #FCFEFC",
"_  c #A09D9D",
"`  c #F98B8B",
"'  c #FC1010",
"]  c #FCF4F3",
"[  c #FCFEFB",
"{  c #FC7676",
"}  c #FC0000",
"|  c #FC0000",
" . c #FC2222",
".. c #FCF6F6",
"X. c #FCFFFE",
"o. c #FCFDFB",
"O. c #FCFEFC",
"+. c #FCF6F6",
"@. c #FCFAF8",
"#. c #FCFEFC",
"$. c #A09F9E",
"%. c #F9DFDE",
"&. c #FCCDCB",
"*. c #FCF1EF",
"=. c #FCC8C7",
"-. c #FC0708",
";. c #FC0305",
":. c #FC0709",
">. c #FC7575",
",. c #FCFBF9",
"<. c #FCFEFC",
"1. c #FCC8C7",
"2. c #FCFCFA",
"3. c #A0A3A2",
"4. c #F95E5E",
"5. c #FCD4D4",
"6. c #FCFFFE",
"7. c #FCE9E7",
"8. c #FC2727",
"9. c #FC0709",
"0. c #FCA7A6",
"q. c #FCFCFA",
"w. c #FCFEFC",
"e. c #FCE9E7",
"r. c #FCFDFB",
"t. c #A0AFAE",
"y. c #FF7575",
"u. c #F90000",
"i. c #FC2526",
"p. c #FCF1EF",
"a. c #FCFFFC",
"s. c #FCA3A3",
"d. c #FC4F50",
"f. c #FCFEFC",
"g. c #FCFDFC",
"h. c #FCFBF9",
"j. c #A0AEAE",
"k. c #FF605F",
"l. c #FC1515",
"z. c #FCE9E7",
"x. c #FCF9F7",
"c. c #FC8383",
"v. c #FC3334",
"b. c #FCF8F8",
"n. c #FCFEFC",
"m. c #FCFDFB",
"M. c #FCFEFC",
"N. c #FCFEFC",
"B. c #FCF8F8",
"V. c #FCFAF8",
"C. c #FCFEFC",
"Z. c #FCFEFC",
"A. c #A0A5A5",
"S. c #FFFCFB",
"D. c #F93132",
"F. c #FCB6B6",
"G. c #FCFCFA",
"H. c #FCFEFC",
"J. c #FCFEFC",
"K. c #FCF7F6",
"L. c #FCEDED",
"P. c #FCFFFE",
"I. c #FCFDFB",
"U. c #FCFEFC",
"Y. c #FCFEFC",
"T. c #FCFEFC",
"R. c #FCFEFC",
"E. c #A0A0A0",
"W. c #F9F0F0",
"Q. c #FCFCFB",
"!. c #FCFEFC",
"~. c #FCFEFC",
"^. c #FCFEFC",
"/. c #FCFEFC",
"(. c #FCFCFA",
"). c #FCFCFB",
"_. c #FCFDFB",
"`. c #FCFEFC",
"'. c #FCFEFC",
"]. c #FCFEFC",
"[. c #A0A1A1",
"{. c #F9F8F7",
"}. c #FCFCFA",
"|. c #FCFEFC",
" X c #FCFEFC",
".X c #FCFEFC",
"XX c #FCFEFC",
"oX c #FCFEFC",
"OX c #FCFDFB",
"+X c #FCFEFC",
"@X c #FCFEFC",
"#X c #A0A1A0",
"$X c #F9FAF8",
"%X c #FCFEFC",
"&X c #FCFEFC",
"*X c #FCFCFB",
"=X c #F93132",
"-X c #FCFEFC",
";X c #FC2526",
":X c #F98B8B",
">X c #FFB5B4",
",X c #FCC3C3",
"<X c #F9181A",
"1X c #FF9897",
"2X c #FFE4E3",
"3X c #302F30",
/* pixels */
"  . X o O + @ @ @ @ @ @ @ @ @ @ @ @ @ @ @ @ @ @ @ # $ % & ",
"* = - ; = : = = = = = = = = = = = = = = = = = = = > , = < ",
"1 = 2 3 4 5 6 7 8 9 0 q w w w w w q 0 9 8 7 e w w r t = y ",
"u i p a s d f g h j k l z x x x z l k j h g c v x x b = n ",
"m M N B V s C s Z A s S D F x F D S s A Z s G H x x J = K ",
"L P I U Y s T R E W Q s ! ~ ^ ~ ! s Q W E R / ( ) x J = K ",
"_ = ` ' ] [ s { } |  ...X.o.O.o.X.+. .| } { s @.#.x J = K ",
"$.= %.&.*.s =.-.;.:.} >.s ,.<.,.s >.} :.;.-.1.s 2.x J = K ",
"3.= 4.5.s 6.7.8.} 9.} 0.s q.w.q.s 0.} 9.} 8.e.s r.x J = K ",
"t.y.u.i.p.a.s s.} } d.s f.g.O.g.f.s d.} } s.s h.#.x J = K ",
"j.k.u.l.z.s x.s c.v.b.n.m.M.N.M.m.n.B.v.c.s V.C.Z.x J = K ",
"A.S.D.F.s G.H.J.K.L.P.I.U.Y.x Y.U.I.P.L.K.J.T.R.x x J = K ",
"E.= W.Q.!.~.^./.(.)._.`.'.x x x '.`._.).(./.].N.x x J = K ",
"[.= {.}.|. X.XXXoXOX+X@Xx x x x x @X+XOXoXXX.Xx x x J = K ",
"#X= $X%X&XN.x x x x x x x x x x x x x x x x x x x x J = K ",
"K = J x x x x x x x x x x x x x x x x x x x x x x x J = K ",
"K = J x x x x x x x x x x x x x x x x x x x x x x x J = K ",
"K = J x x x x x x x x x x x x x x x x x x x x x x x J = K ",
"K = J x x x x x x x x x x x x x x x x x x x x x x x J = K ",
"K = J x x x x x x x x x x x x x x x x x x x x x x x J = K ",
"K = J x x x x x x x x x x x x x x x x x x x x x x x J = K ",
"K = J x x x x x x x x x x x x x x x x x x x x x x x J = K ",
"K = J x x x x x x x x x x x x x x x x x x x x x x x J = K ",
"K = J x x x x x x x x x x x x x x x x x x x x x x x J = K ",
"K = J x x x x x x x x x x x x x x x x x x x x x x x J = K ",
"K = J x x x x x x x x x x x x x x x x x x x x x x x J = K ",
"K = J x x x x x x x x x x x x x x x x x x x x x x x J = K ",
"K = J x x x x x x x x x x x x x x x x x x x x x x x J = K ",
"K = J x x x x x x x x x x x x x x x x x x x x N.&X%X$X= #X",
"K = J x x x .XXXoXOX+X@Xx x x x x @X+XOXoXXX.X X|.}.{.= [.",
"K = J x x N.]./.(.)._.`.'.x x x '.`._.).(./.^.~.!.*XW.= E.",
"K = J x x R.T.J.K.L.P.I.U.Y.x Y.U.I.P.L.K.J.H.G.s F.=XS.A.",
"K = J x Z.C.V.s c.v.B.-Xm.M.N.M.m.-XB.v.c.s x.s z.l.u.k.j.",
"K = J x #.h.s s.} } d.s f.g.O.g.f.s d.} } s.s a.p.;Xu.y.t.",
"K = J x r.s e.8.} 9.} 0.s q.w.q.s 0.} 9.} 8.7.6.s 5.4.= 3.",
"K = J x 2.s 1.-.;.:.} >.s ,.<.,.s >.} :.;.-.=.s *.&.%.= $.",
"K = J x #.@.s { } |  ...X.o.O.o.X.+. .| } { s [ ] ' :X= _ ",
"K = J x ) ( / R E W Q s ! ~ ^ ~ ! s Q W E R T s Y U I >XL ",
"K = J x x H G s Z ,Xs S D F x F D S s ,XZ s C s V B N M m ",
"n = b x x v c g h j k l z x x x z l k j h g f d s a <X1Xu ",
"y = t r w w e 7 8 9 0 q w w w w w q 0 9 8 7 6 5 4 3 2 = 1 ",
"< = , > = = = = = = = = = = = = = = = = = = = : = 2X- = * ",
"3X% $ # @ @ @ @ @ @ @ @ @ @ @ @ @ @ @ @ @ @ @ + O o X .   "
};
