/* XPM */
static char *Free_Converter_com_130_57180143[] = {
/* columns rows colors chars-per-pixel */
"29 43 234 2 ",
"   c #302F30",
".  c #999A99",
"X  c #959292",
"o  c #969E9E",
"O  c #969898",
"+  c #969595",
"@  c gray59",
"#  c gray59",
"$  c gray59",
"%  c #959595",
"&  c gray60",
"*  c #302F30",
"=  c #9F9F9F",
"-  c gray100",
";  c #FCFEFE",
":  c #FFE3E2",
">  c #FFF8F8",
",  c gray100",
"<  c gray100",
"1  c gray99",
"2  c #9F9F9F",
"3  c #A09E9D",
"4  c #F5B6B5",
"5  c #F90304",
"6  c #F9DAD8",
"7  c #F9FFFF",
"8  c #F9F8F6",
"9  c #F9F5F4",
"0  c #F9F7F6",
"q  c #F9F9F7",
"w  c #F9F5F3",
"e  c #F9F8F6",
"r  c #F9FBF9",
"t  c #F9FAF9",
"y  c #F9FBF9",
"u  c #F9F5F4",
"i  c #F9FAF8",
"p  c #F9FBF9",
"a  c #F9FAF9",
"s  c #F9FBF9",
"d  c #F5F7F5",
"f  c #A0A1A0",
"g  c #A0AAA9",
"h  c #FFE0DF",
"j  c #F93233",
"k  c #FC2426",
"l  c #FCDCDC",
"z  c #FCFFFF",
"x  c #FCFBFA",
"c  c #FCFEFE",
"v  c #FCFEFD",
"b  c #FCFEFD",
"n  c #FCFDFB",
"m  c #FCFEFC",
"M  c #FCFEFC",
"N  c #FCFDFC",
"B  c #FCFEFB",
"V  c #FCFEFC",
"C  c #FCFEFC",
"Z  c #F9FBF9",
"A  c #A0A1A0",
"S  c #A0AFAE",
"D  c #FF4444",
"F  c #F92C2D",
"G  c #FC292B",
"H  c #FC6464",
"J  c #FCEAE9",
"K  c #FC7171",
"L  c #FCAFAF",
"P  c #FCE2E1",
"I  c #FC6A6A",
"U  c #FCBCBB",
"Y  c #FCFCFA",
"T  c #FCFEFC",
"R  c #FC7171",
"E  c #FCEAE9",
"W  c #FCFDFB",
"Q  c #FCFEFC",
"!  c #F9FBF9",
"~  c #A0A1A0",
"^  c #A0A5A4",
"/  c #FFC5C3",
"(  c #F99A9A",
")  c #FC2A2B",
"_  c #FC8787",
"`  c #FC4F50",
"'  c #FC0000",
"]  c #FC2223",
"[  c #FC4B4B",
"{  c #FC0E0F",
"}  c #FCD9D8",
"|  c #FCFAF8",
" . c #FC4F50",
".. c #FCFCFA",
"X. c #FCFEFC",
"o. c #A09F9F",
"O. c #F9E8E9",
"+. c #FC0808",
"@. c #FC9B9B",
"#. c #FC2425",
"$. c #FC0001",
"%. c #FC0607",
"&. c #FC0102",
"*. c #FC0A0C",
"=. c #FCBDBB",
"-. c #FCF8F6",
";. c #FC0001",
":. c #FC2829",
">. c #FCFFFD",
",. c #FCFEFC",
"<. c #FCFEFC",
"1. c #A0A0A0",
"2. c #F9EFEF",
"3. c #FCD5D3",
"4. c #FCECEA",
"5. c #FC4C4C",
"6. c #FC0608",
"7. c #FC0305",
"8. c #FC0204",
"9. c #FC0A0B",
"0. c #FCD9D8",
"q. c #FCFAF8",
"w. c #FC4D4D",
"e. c #FCFCFA",
"r. c #FCFEFC",
"t. c #A0ABAA",
"y. c #FFD3D2",
"u. c #F99292",
"i. c #FCA8A8",
"p. c #FCB7B6",
"a. c #FCB9B9",
"s. c #FC0001",
"d. c #FC0405",
"f. c #FC080A",
"g. c #FC6565",
"h. c #FCFCFA",
"j. c #FCFEFC",
"k. c #FC0101",
"l. c #FCBBBB",
"z. c #FCFBF9",
"x. c #A0AEAD",
"c. c #FF4746",
"v. c #F90606",
"b. c #FC1818",
"n. c #FC1A1A",
"m. c #FCFBF9",
"M. c #FC9F9F",
"N. c #FC4E4F",
"B. c #FCFDFC",
"V. c #FCFDFB",
"C. c #FCFEFC",
"Z. c #FCFEFC",
"A. c #FC4E4F",
"S. c #FCA0A0",
"D. c #FCFBF9",
"F. c #FCFEFC",
"G. c #A0AFAE",
"H. c #FF6564",
"J. c #F90000",
"K. c #FC3838",
"L. c #FCF9F7",
"P. c #FC8383",
"I. c #FC3333",
"U. c #FCF9F9",
"Y. c #FCFFFD",
"T. c #FCFDFB",
"R. c #FCFEFC",
"E. c #FCFAF8",
"W. c #FCFEFC",
"Q. c #FCFEFC",
"!. c #FCFEFC",
"~. c #A0A4A4",
"^. c #FFFFFE",
"/. c #F92627",
"(. c #FC1314",
"). c #FCE0E0",
"_. c #FCFCFA",
"`. c #FCFEFC",
"'. c #FCF7F7",
"]. c #FCEDED",
"[. c #FCFFFE",
"{. c #FCFCFA",
"}. c #FCFEFC",
"|. c #FCFEFC",
" X c #FCF7F7",
".X c #FCFEFC",
"XX c #FCFEFC",
"oX c #FCFEFC",
"OX c #FCFEFC",
"+X c #A09F9F",
"@X c #F9D2D1",
"#X c #FCC9C9",
"$X c #FCFCFA",
"%X c #FCFEFC",
"&X c #FCFEFC",
"*X c #FCFCFA",
"=X c #FCFCFB",
"-X c #FCFDFB",
";X c #FCFEFC",
":X c #FCFEFC",
">X c #FCFEFC",
",X c #FCFEFC",
"<X c #A0A1A1",
"1X c #F9FAF9",
"2X c #FCFEFD",
"3X c #FCFCFA",
"4X c #FCFEFC",
"5X c #FCFEFC",
"6X c #FCFEFC",
"7X c #FCFEFC",
"8X c #FCFDFB",
"9X c #FCFEFC",
"0X c #FCFEFC",
"qX c #A0A1A0",
"wX c #F9F9F7",
"eX c #FCFCFA",
"rX c #FCFEFC",
"tX c #FCFEFC",
"yX c #F92627",
"uX c #FC4C4C",
"iX c #FC2425",
"pX c #A09F9F",
"aX c #FC8787",
"sX c #F99A9A",
"dX c #FFC5C3",
"fX c #FC7171",
"gX c #FC6A6A",
"hX c #FCAFAF",
"jX c #FC7171",
"kX c #FCEAE9",
"lX c #F9DAD8",
"zX c #FFE3E2",
"xX c #302F30",
"cX c #302F30",
/* pixels */
"  . X o O + @ # # # # # # # # # # # # # # # # # # $ % & * ",
"= - ; : > - , - - - - - - - - - - - - - - - - - - < 1 - 2 ",
"3 - 4 5 6 7 8 9 0 q w e r t y t r e w q 0 u i p a s d - f ",
"g h j k l z x z c v z b n m M m n b z v c z N B V C Z - A ",
"S D F G H z J K L P I U z Y T Y z U I P L R E z W Q ! - ~ ",
"^ / ( ) _ z ` ' ] [ ' { } z | z } { ' [ ] '  .z ..X.! - ~ ",
"o.- O.+.@.z #.$.%.&.*.' =.z -.z =.' *.&.%.;.:.>.,.<.! - ~ ",
"1.- 2.3.4.z 5.' 6.7.8.9.0.z q.z 0.9.8.7.6.' w.z e.r.! - ~ ",
"t.y.u.i.p.z a.s.d.f.' g.z h.j.h.z g.' f.d.k.l.z z.Q ! - ~ ",
"x.c.v.b.n.m.z M.' ' N.B.V.C.Z.C.V.B.A.' ' S.z D.F.C ! - ~ ",
"G.H.J.' K.z L.z P.I.U.Y.T.R.C R.T.Y.U.I.P.z E.W.Q.!.! - ~ ",
"~.^./.(.).z _.`.'.].[.{.}.|.!.|.}.{.[.]. X.XXXoXOX!.! - ~ ",
"+X- @X#Xz $X%X&X*X=X-X;X:X!.!.!.:X;X-X=X*X>X,XOX!.!.! - ~ ",
"<X- 1X2X3X4X5X6X7X8X9X|.!.!.!.!.!.|.9X8X7X6X0X!.!.!.! - ~ ",
"qX- wXeXrXtX!.!.!.!.!.!.!.!.!.!.!.!.!.!.!.!.!.!.!.!.! - ~ ",
"~ - ! !.!.!.!.!.!.!.!.!.!.!.!.!.!.!.!.!.!.!.!.!.!.!.! - ~ ",
"~ - ! !.!.!.!.!.!.!.!.!.!.!.!.!.!.!.!.!.!.!.!.!.!.!.! - ~ ",
"~ - ! !.!.!.!.!.!.!.!.!.!.!.!.!.!.!.!.!.!.!.!.!.!.!.! - ~ ",
"~ - ! !.!.!.!.!.!.!.!.!.!.!.!.!.!.!.!.!.!.!.!.!.!.!.! - ~ ",
"~ - ! !.!.!.!.!.!.!.!.!.!.!.!.!.!.!.!.!.!.!.!.!.!.!.! - ~ ",
"~ - ! !.!.!.!.!.!.!.!.!.!.!.!.!.!.!.!.!.!.!.!.!.!.!.! - ~ ",
"~ - ! !.!.!.!.!.!.!.!.!.!.!.!.!.!.!.!.!.!.!.!.!.!.!.! - ~ ",
"~ - ! !.!.!.!.!.!.!.!.!.!.!.!.!.!.!.!.!.!.!.!.!.!.!.! - ~ ",
"~ - ! !.!.!.!.!.!.!.!.!.!.!.!.!.!.!.!.!.!.!.!.!.!.!.! - ~ ",
"~ - ! !.!.!.!.!.!.!.!.!.!.!.!.!.!.!.!.!.!.!.!.!.!.!.! - ~ ",
"~ - ! !.!.!.!.!.!.!.!.!.!.!.!.!.!.!.!.!.!.!.!.!.!.!.! - ~ ",
"~ - ! !.!.!.!.!.!.!.!.!.!.!.!.!.!.!.!.!.!.!.!.!.!.!.! - ~ ",
"~ - ! !.!.!.!.!.!.!.!.!.!.!.!.!.!.!.!.!.!.!.!.!.!.!.! - ~ ",
"~ - ! !.!.!.!.!.!.!.!.!.!.!.!.!.!.!.!.!.!.!.!.tXrXeXwX- qX",
"~ - ! !.!.!.0X6X7X8X9X|.!.!.!.!.!.|.9X8X7X6X5X4X3X2X1X- <X",
"~ - ! !.!.OX,X>X*X=X-X;X:X!.!.!.:X;X-X=X*X&X%X$Xz #X@X- +X",
"~ - ! !.OXoXXX.X'.].[.{.}.|.!.|.}.{.[.]. X`._.z ).(.yX^.~.",
"~ - ! !.Q.W.E.z P.I.U.Y.T.R.C R.T.Y.U.I.P.z L.z K.' J.H.G.",
"~ - ! C F.D.z S.' ' N.B.V.C.Z.C.V.B.A.' ' M.z m.n.b.v.c.x.",
"~ - ! Q z.z l.k.d.f.' g.z h.j.h.z g.' f.d.s.a.z p.i.u.y.t.",
"~ - ! r.e.z w.' 6.7.8.9.0.z q.z 0.9.8.7.6.' uXz 4.3.2.- 1.",
"~ - ! <.,.>.:.;.%.&.*.' =.z -.z =.' *.&.%.$.iXz @.+.O.- pX",
"~ - ! X...z  .' ] [ ' { } z | z } { ' [ ] ' ` z aX) sXdX^ ",
"~ - ! Q W z E fXL P gXU z Y T Y z U gXP hXjXkXz H G F D S ",
"A - Z C V B N z c v z b n m M m n b z v c z x z l k j h g ",
"f - d s a p i u 0 q w e r t y t r e w q 0 9 8 7 lX5 4 - 3 ",
"2 - 1 < - - - - - - - - - - - - - - - - - - , - > zX; - = ",
"xX& % $ # # # # # # # # # # # # # # # # # # @ + O o X . cX"
};
