/* XPM */
static char *Free_Converter_com_143_11250144[] = {
/* columns rows colors chars-per-pixel */
"29 43 228 2 ",
"   c #302F30",
".  c #999A99",
"X  c #929292",
"o  c gray62",
"O  c #989898",
"+  c #959595",
"@  c gray59",
"#  c gray59",
"$  c gray59",
"%  c #959595",
"&  c gray60",
"*  c #302F30",
"=  c #9F9F9F",
"-  c gray100",
";  c #FEFEFE",
":  c #E2E3E2",
">  c #F8F8F8",
",  c gray100",
"<  c gray100",
"1  c gray99",
"2  c #9F9F9F",
"3  c #9D9E9D",
"4  c #B5B6B5",
"5  c #040304",
"6  c #D8DAD8",
"7  c #F7F9F7",
"8  c #F9FBF9",
"9  c #F7F9F7",
"0  c #F6F8F6",
"q  c #F9FBF9",
"w  c #F9FAF9",
"e  c #F9FBF9",
"r  c #F9FBF9",
"t  c #F9FAF9",
"y  c #F9FBF9",
"u  c #F5F7F5",
"i  c #A0A1A0",
"p  c #A9AAA9",
"a  c #DFE0DF",
"s  c #333233",
"d  c #262426",
"f  c gainsboro",
"g  c #FBFDFB",
"h  c #FBFDFB",
"j  c #FBFCFB",
"k  c #FEFEFE",
"l  c #FAFCFA",
"z  c #FCFEFC",
"x  c #FCFEFC",
"c  c #FCFEFC",
"v  c #FBFDFB",
"b  c #FCFEFC",
"n  c #FCFEFC",
"m  c #F9FBF9",
"M  c #A0A1A0",
"N  c #AEAFAE",
"B  c #444444",
"V  c #2D2C2D",
"C  c #2B292B",
"Z  c #656565",
"A  c #FAFCFA",
"S  c gray89",
"D  c #C3C3C3",
"F  c #F9FBF9",
"G  c #FCFEFC",
"H  c #FCFEFC",
"J  c #FAFCFA",
"K  c #FCFEFC",
"L  c #FCFEFC",
"P  c #F9FBF9",
"I  c #A0A1A0",
"U  c #A4A5A4",
"Y  c #C3C5C3",
"T  c #9A9A9A",
"R  c #2B2A2B",
"E  c #888888",
"W  c #FCFEFC",
"Q  c #FDFEFD",
"!  c #494949",
"~  c #040304",
"^  c gray81",
"/  c #FAFCFA",
"(  c #FCFEFC",
")  c #FCFEFC",
"_  c #FDFEFD",
"`  c #FCFEFC",
"'  c #FBFDFB",
"]  c #FCFEFC",
"[  c #9F9F9F",
"{  c #E8E7E8",
"}  c #070707",
"|  c #9D9D9D",
" . c gray37",
".. c black",
"X. c #020002",
"o. c #191919",
"O. c gainsboro",
"+. c #FAFCFA",
"@. c #FCFEFC",
"#. c #191919",
"$. c gray37",
"%. c #FBFDFB",
"&. c #FCFEFC",
"*. c #FCFEFC",
"=. c gray63",
"-. c #F0F2F0",
";. c #CCCDCC",
":. c #D8DAD8",
">. c #969796",
",. c #0B090B",
"<. c #0B090B",
"1. c #3C3C3C",
"2. c #FBFDFB",
"3. c #FCFEFC",
"4. c #979897",
"5. c #F8FAF8",
"6. c #FCFEFC",
"7. c #9FA09F",
"8. c gray86",
"9. c #D9DAD9",
"0. c #FDFFFD",
"q. c #2E2D2E",
"w. c #040404",
"e. c #010001",
"r. c #0A080A",
"t. c #C0C1C0",
"y. c #F6F8F6",
"u. c #2E2D2E",
"i. c #FCFEFC",
"p. c #FCFEFC",
"a. c gray64",
"s. c #313031",
"d. c #1B1A1B",
"f. c #E4E5E4",
"g. c #343334",
"h. c #4F4E4F",
"j. c #696869",
"k. c #111111",
"l. c #C7C8C7",
"z. c #F7F9F7",
"x. c #353535",
"c. c #FBFDFB",
"v. c #FCFEFC",
"b. c #AEAFAE",
"n. c #636463",
"m. c #353535",
"M. c #D8D9D8",
"N. c #B6B7B6",
"B. c gray50",
"V. c gray28",
"C. c #BABBBA",
"Z. c gray74",
"A. c #FEFFFE",
"S. c #FCFEFC",
"D. c #FCFEFC",
"F. c #B7B8B7",
"G. c gray85",
"H. c #FBFDFB",
"J. c #AFAFAF",
"K. c #696869",
"L. c #161516",
"P. c #232223",
"I. c #3F3D3F",
"U. c #FCFDFC",
"Y. c #C8C9C8",
"T. c #B7B9B7",
"R. c gray94",
"E. c #FBFDFB",
"W. c #FCFEFC",
"Q. c #FCFEFC",
"!. c #FDFEFD",
"~. c #FCFEFC",
"^. c #FCFEFC",
"/. c #9FA09F",
"(. c #6F6F6F",
"). c #5A595A",
"_. c #FEFFFE",
"`. c #FCFEFC",
"'. c #FAFCFA",
"]. c #F8FAF8",
"[. c #FEFEFE",
"{. c #FAFBFA",
"}. c #F9FBF9",
"|. c #FCFEFC",
" X c #FCFEFC",
".X c #FCFEFC",
"XX c #F8FAF8",
"oX c #FAFCFA",
"OX c #FCFEFC",
"+X c #FCFEFC",
"@X c #A0A0A0",
"#X c #EEEFEE",
"$X c #EEEFEE",
"%X c #FEFEFE",
"&X c #FBFDFB",
"*X c #FCFEFC",
"=X c #FCFEFC",
"-X c #FAFCFA",
";X c #F9FBF9",
":X c #FBFDFB",
">X c #FCFEFC",
",X c #FCFEFC",
"<X c #FCFEFC",
"1X c #FCFEFC",
"2X c gray63",
"3X c #FAFBFA",
"4X c #FEFEFE",
"5X c #FBFDFB",
"6X c #FCFEFC",
"7X c #FCFEFC",
"8X c #A0A1A0",
"9X c #F8FAF8",
"0X c #FBFDFB",
"qX c #FCFEFC",
"wX c #B7B8B7",
"eX c #BABBBA",
"rX c gray74",
"tX c #B6B7B6",
"yX c #D8D9D8",
"uX c #343334",
"iX c #1B1A1B",
"pX c #2E2D2E",
"aX c #9A9A9A",
"sX c #C3C5C3",
"dX c #C3C3C3",
"fX c #E2E3E2",
"gX c #302F30",
"hX c #302F30",
/* pixels */
"  . X o O + @ # # # # # # # # # # # # # # # # # # $ % & * ",
"= - ; : > - , - - - - - - - - - - - - - - - - - - < 1 - 2 ",
"3 - 4 5 6 - 7 8 9 0 q w e e e e e w q 0 9 r t e e y u - i ",
"p a s d f - g h j k l z x c c c x z l k j v b n c c m - M ",
"N B V C Z - A - S D - F G H c H G F - D S - J K L c P - I ",
"U Y T R E - W Q ! ~ ^ - / ( ) ( / - ^ ~ ! _ ` ' ] c P - I ",
"[ - { } | - -  ...X.o.O.- +.@.+.- O.#.X...$.- %.&.*.P - I ",
"=.- -.;.:.- >...,.<...1.- 2.3.2.- 1...<.,...4.- 5.6.P - I ",
"7.- 8.9.- 0.q...w.e.r...t.- y.- t...r.e.w...u.- i.p.P - I ",
"a.- s.d.f.- g...h.j.k...l.- z.- l...k.j.h...x.- c.v.P - I ",
"b.n.....m.- M.N.B.V.C.Z.A.S.D.S.A.Z.C.V.B.F.G.- H.*.P - I ",
"J.K.L.P.I.- U.- Y.T.R.- E.W.Q.W.E.- R.T.Y.- !.~.^.c P - I ",
"/.- (.)._.`.'.].[.- {.}.|. X.X X|.}.{.- [.XXoXOX+Xc P - I ",
"@X- #X$X%X&X*X=X-X;X:X>X,Xc c c ,X>X:X;X-X<X.X1Xc c P - I ",
"2X- 3X4X5X6X7Xc c c c c c c c c c c c c c c c c c c P - I ",
"8X- 9X0XqX) c c c c c c c c c c c c c c c c c c c c P - I ",
"I - P c c c c c c c c c c c c c c c c c c c c c c c P - I ",
"I - P c c c c c c c c c c c c c c c c c c c c c c c P - I ",
"I - P c c c c c c c c c c c c c c c c c c c c c c c P - I ",
"I - P c c c c c c c c c c c c c c c c c c c c c c c P - I ",
"I - P c c c c c c c c c c c c c c c c c c c c c c c P - I ",
"I - P c c c c c c c c c c c c c c c c c c c c c c c P - I ",
"I - P c c c c c c c c c c c c c c c c c c c c c c c P - I ",
"I - P c c c c c c c c c c c c c c c c c c c c c c c P - I ",
"I - P c c c c c c c c c c c c c c c c c c c c c c c P - I ",
"I - P c c c c c c c c c c c c c c c c c c c c c c c P - I ",
"I - P c c c c c c c c c c c c c c c c c c c c c c c P - I ",
"I - P c c c c c c c c c c c c c c c c c c c c ) qX0X9X- 8X",
"I - P c c c c c c c c c c c c c c c c c c c 7X6X5X4X3X- 2X",
"I - P c c 6..X<X-X;X:X>X,Xc c c ,X>X:X;X-X=X*X&X%X$X#X- @X",
"I - P c +XOXoXXX[.- {.}.|. X.X X|.}.{.- [.].'.`._.).(.- /.",
"I - P c ^.~.!.- Y.T.R.- E.W.Q.W.E.- R.T.Y.- U.- I.P.L.K.J.",
"I - P *.H.- G.wXB.V.eXrXA.S.D.S.A.rXeXV.B.tXyX- m.....n.b.",
"I - P v.c.- x...h.j.k...l.- z.- l...k.j.h...uX- f.iXs.- a.",
"I - P p.i.- pX..w.e.r...t.- y.- t...r.e.w...q.0.- 9.8.- 7.",
"I - P 6.5.- 4...,.<...1.- 2.3.2.- 1...<.,...>.- :.;.-.- =.",
"I - P *.&.%.- $...X.o.O.- +.@.+.- O.#.X... .- - | } { - [ ",
"I - P c ] ' ` _ ! ~ ^ - / ( ) ( / - ^ ~ ! Q W - E R aXsXU ",
"I - P c L K J - S dX- F G H c H G F - dXS - A - Z C V B N ",
"M - m c c n b v j k l z x c c c x z l k j h g - f d s a p ",
"i - u y e e t r 9 0 q w e e e e e w q 0 9 8 7 - 6 5 4 - 3 ",
"2 - 1 < - - - - - - - - - - - - - - - - - - , - > fX; - = ",
"gX& % $ # # # # # # # # # # # # # # # # # # @ + O o X . hX"
};
