/* XPM */
static char *Free_Converter_com_4_1_34470144[] = {
/* columns rows colors chars-per-pixel */
"29 43 151 2 ",
"   c black",
".  c #010101",
"X  c #020102",
"o  c #020202",
"O  c #030203",
"+  c gray1",
"@  c #040304",
"#  c #040404",
"$  c #090909",
"%  c gray4",
"&  c #0C0B0C",
"*  c #0E0D0E",
"=  c #100F10",
"-  c #101010",
";  c #131113",
":  c #131213",
">  c #161616",
",  c #1D1B1D",
"<  c #222122",
"1  c #222222",
"2  c #262426",
"3  c #262526",
"4  c #292829",
"5  c #2A282A",
"6  c #2B292B",
"7  c #2A2A2A",
"8  c #2B2A2B",
"9  c #2D2C2D",
"0  c #302F30",
"q  c #313031",
"w  c #333233",
"e  c #383738",
"r  c gray22",
"t  c #393839",
"y  c #393939",
"u  c #403F40",
"i  c #424142",
"p  c #434243",
"a  c #444444",
"s  c #454445",
"d  c #484848",
"f  c #4E4D4E",
"g  c gray31",
"h  c #515151",
"j  c gray34",
"k  c #585858",
"l  c #5A5B5A",
"z  c gray37",
"x  c #606160",
"c  c #656565",
"v  c #666566",
"b  c #696869",
"n  c #6B6A6B",
"m  c #6C6C6C",
"M  c gray44",
"N  c #717171",
"B  c gray47",
"V  c #797979",
"C  c gray48",
"Z  c gray49",
"A  c #818181",
"S  c #868686",
"D  c #878887",
"F  c #888888",
"G  c #8A8B8A",
"H  c #929292",
"J  c #959595",
"K  c gray59",
"L  c #989898",
"P  c gray60",
"I  c #999A99",
"U  c #9A9A9A",
"Y  c #9B9B9B",
"T  c #9D9D9D",
"R  c #9D9E9D",
"E  c gray62",
"W  c #9F9F9F",
"Q  c #A0A0A0",
"!  c #A0A1A0",
"~  c gray63",
"^  c #A1A2A1",
"/  c #A4A5A4",
"(  c gray65",
")  c #A9AAA9",
"_  c #ACADAC",
"`  c #AEAFAE",
"'  c #AFAFAF",
"]  c #B3B5B3",
"[  c gray71",
"{  c #B5B6B5",
"}  c #B7B8B7",
"|  c #BAB9BA",
" . c #BCBCBC",
".. c #BEBFBE",
"X. c #BFC0BF",
"o. c #C0C1C0",
"O. c #C3C4C3",
"+. c #C3C5C3",
"@. c #C4C5C4",
"#. c #C5C6C5",
"$. c #C6C7C6",
"%. c #C8C9C8",
"&. c #CACBCA",
"*. c #CCCECC",
"=. c #CECECE",
"-. c #D2D2D2",
";. c #D3D4D3",
":. c #D3D5D3",
">. c #D5D6D5",
",. c gray84",
"<. c #D8DAD8",
"1. c #DBDCDB",
"2. c gainsboro",
"3. c #DFE0DF",
"4. c #E2E3E2",
"5. c gray89",
"6. c #E3E5E3",
"7. c #E5E6E5",
"8. c #E5E7E5",
"9. c #E7E9E7",
"0. c #E9E9E9",
"q. c #E9EAE9",
"w. c #ECEDEC",
"e. c gray93",
"r. c #F1F1F1",
"t. c #F3F5F3",
"y. c #F4F4F4",
"u. c gray96",
"i. c #F4F6F4",
"p. c #F5F7F5",
"a. c #F6F8F6",
"s. c #F7F9F7",
"d. c #F8F8F8",
"f. c #F8F9F8",
"g. c #F8FAF8",
"h. c #F9FAF9",
"j. c #F9FBF9",
"k. c #FAFBFA",
"l. c #FAFCFA",
"z. c #FAFDFA",
"x. c #FBFCFB",
"c. c #FBFDFB",
"v. c gray99",
"b. c #FCFDFC",
"n. c #FDFDFD",
"m. c #FCFEFC",
"M. c #FDFEFD",
"N. c #FDFFFD",
"B. c #FEFEFE",
"V. c #FEFFFE",
"C. c gray100",
/* pixels */
"0 I H W K K K K K K K K K K K K K K K K K K K K K K K I 0 ",
"W C.C.4.d.C.C.C.C.C.C.C.C.C.C.C.C.C.C.C.C.C.C.C.C.C.j.C.W ",
"W C.{ @ <.C.s.d.j.i.d.d.d.j.j.j.j.d.d.i.s.d.j.j.d.j.s.C.Q ",
") 2.w 3 1.C.j.C.j.C.C.j.C.j.C.j.C.C.j.C.C.j.C.j.C.j.j.C.Q ",
"` a 9 8 v C.j.C.e.B ,.C.j.j.j.C.j.C.C.S { C.j.C.C.j.d.C.Q ",
"/ @.I 8 F C.d.C.h   8 i.C.j.C.j.s.C.A   & :.C.j.j.C.j.C.Q ",
"W C.0.$ I C.d.C.f   5 i.C.j.C.C.d.C.Z   * -.C.j.C.j.j.C.Q ",
"Q C.e.@.8.C.j.k s - i i 9.C.j.j.C.B i , t e +.C.j.C.j.C.Q ",
"W C./ : { C.D   #   #   k C.i.C.X.  @       8 C.j.C.j.C.W ",
"W C.m   B C.@.@ 1 N t   W C.s.C.0.1 $ b h   M C.j.j.d.C.Q ",
"` x * > - l C.&._ r I @.C.C.C.j.C.1.} d Z X.s.C.C.C.g.C.Q ",
"` b   t   v C.C.4.{ ,.C.j.j.C.j.j.C.r.} %.C.j.j.C.j.j.C.^ ",
"Q C.o.w *.d.j.j.j.C.C.j.j.C.j.C.C.j.j.C.C.s.j.C.C.j.d.C.W ",
"Q C.d.0.j.C.C.j.C.d.j.j.C.j.C.j.j.C.j.j.j.C.C.j.j.C.j.C.^ ",
"Q C.d.C.j.C.j.C.j.C.j.C.j.C.j.C.C.j.C.j.C.j.C.j.C.j.j.C.^ ",
"Q C.j.j.C.j.C.j.C.j.C.j.C.j.C.j.j.C.j.C.j.C.j.C.j.C.j.C.W ",
"Q C.j.j.C.j.C.j.C.j.C.j.C.j.C.j.C.j.C.j.C.j.C.j.C.j.j.C.Q ",
"Q C.j.C.j.C.j.C.j.C.j.C.j.C.j.C.j.C.j.C.j.C.j.C.j.C.d.C.Q ",
"Q C.j.j.C.j.C.j.C.j.C.j.C.j.C.j.C.j.C.j.C.j.C.j.C.j.j.C.Q ",
"Q C.j.C.j.C.j.C.j.C.j.C.j.C.j.C.j.C.j.C.j.C.j.C.j.C.j.C.Q ",
"Q C.d.C.C.j.C.j.C.j.C.j.C.j.C.j.C.j.C.j.C.j.C.j.C.j.d.C.^ ",
"Q C.j.j.j.C.j.C.j.C.j.C.j.C.j.C.j.C.j.C.j.C.j.C.j.C.j.C.Q ",
"Q C.j.C.C.j.C.j.C.j.C.j.C.j.C.j.C.j.C.j.C.j.C.j.C.j.j.C.^ ",
"Q C.j.j.j.C.j.C.j.C.j.C.j.C.j.C.j.C.j.C.j.C.j.C.j.C.j.C.W ",
"Q C.j.j.C.j.C.j.C.j.C.j.C.j.C.j.C.j.C.j.C.j.C.j.C.j.j.C.Q ",
"Q C.j.C.j.C.j.C.j.C.j.C.j.C.j.C.j.C.j.C.j.C.j.C.j.C.d.C.Q ",
"Q C.d.j.C.j.C.j.C.j.C.j.C.j.C.j.C.j.C.j.C.j.C.j.C.C.j.C.Q ",
"Q C.j.C.j.C.j.C.j.C.j.C.j.C.j.C.j.C.j.C.j.C.j.C.j.j.j.C.Q ",
"W C.j.C.C.j.C.j.j.C.j.j.C.j.C.j.C.j.C.j.C.j.C.j.j.C.s.C.^ ",
"W C.j.j.j.C.j.C.C.d.j.C.j.C.j.C.j.C.j.j.j.j.j.C.C.0.s.C.Q ",
"Q C.j.C.j.C.C.j.j.C.j.j.C.j.C.j.C.j.j.C.C.s.C.d.&.w +.C.^ ",
"Q C.j.j.C.j.j.C.4.] <.C.g.C.j.C.j.C.r.} $.C.C.v   r   b ` ",
"Q C.j.C.C.j.C.*.` t I @.C.C.j.j.C.1.} d Z  .C.z * > * x ` ",
"Q C.j.j.j.C.$.+ 1 N t   Q C.d.C.9.1 $ n h   N C.B   m C.Q ",
"Q C.j.C.j.C.G   #   #   l C.s.C.X.          3 C.} - / C.W ",
"Q C.j.j.j.C.j.k s - a a 8.C.j.j.C.B i , t t @.C.8.+.e.C.Q ",
"Q C.j.j.C.j.j.C.f   8 t.C.j.C.j.j.C.Z   * -.C.C.T $ 0.C.W ",
"Q C.j.C.j.C.s.C.h   8 t.C.j.j.C.d.C.A   & :.C.C.F 9 I @./ ",
"Q C.d.j.C.j.C.C.e.B ,.C.j.j.C.j.C.j.C.S } C.j.C.v 5 9 s ` ",
"Q C.j.C.j.C.j.C.j.C.C.j.C.C.j.C.j.C.d.C.C.j.j.C.2.2 w 2.) ",
"Q C.s.d.j.d.j.d.d.s.s.d.j.d.j.j.d.d.j.i.s.d.s.C.<.  { C.W ",
"W C.j.C.C.C.C.C.C.C.C.C.C.C.C.C.C.C.C.C.C.C.C.C.d.4.C.C.W ",
"w I K K K K K K K K K K K K K K K K K K K K K K I W H I 9 "
};
