/* XPM */
static char *_735_6f1bc398ae498013c1f5c49b880c3d1d5c895948116426fc29d827ffef34eb67[] = {
/* columns rows colors chars-per-pixel */
"29 43 181 2 ",
"   c #352B22",
".  c #2D2E33",
"X  c #253333",
"o  c #323136",
"O  c #BE1009",
"+  c #A91A1E",
"@  c #B71B1B",
"#  c #A6201F",
"$  c #B71A25",
"%  c #9D2F2E",
"&  c #A42828",
"*  c #AF2427",
"=  c #B42329",
"-  c #B0282A",
";  c #B82626",
":  c #A43A39",
">  c #C10F0B",
",  c #DE0C0C",
"<  c #D50A0C",
"1  c #CC110F",
"2  c #D71009",
"3  c #DE120B",
"4  c #CE0D11",
"5  c #D30E15",
"6  c #C41313",
"7  c #CB1314",
"8  c #C41C16",
"9  c #C4151B",
"0  c #C71918",
"q  c #CC131B",
"w  c #D0181A",
"e  c #D41317",
"r  c #E60408",
"t  c #E8090C",
"y  c #F30C0E",
"u  c #EC110D",
"i  c #E3120B",
"p  c #F00B12",
"a  c #EE151B",
"s  c #E0141D",
"d  c #F21311",
"f  c #CA1D22",
"g  c #D0312E",
"h  c #C02E39",
"j  c #C83C3D",
"k  c #D6383B",
"l  c #C13E43",
"z  c #D43740",
"x  c #994046",
"c  c #A14749",
"v  c #AE464D",
"b  c #B84A49",
"n  c #AD554B",
"m  c #B3554E",
"M  c #BE5248",
"N  c #B9594C",
"B  c #A2575E",
"V  c #BC575B",
"C  c #BB5A63",
"Z  c #BB6B68",
"A  c #BB6C71",
"S  c #C24143",
"D  c #C54848",
"F  c #C64A55",
"G  c #E55B57",
"H  c #D7625B",
"J  c #CD5C62",
"K  c #CA6460",
"L  c #D56060",
"P  c #DD696C",
"I  c #C67679",
"U  c #DA7B7F",
"Y  c #E7706A",
"T  c #E66F75",
"R  c #E97878",
"E  c #F4757B",
"W  c #FE7678",
"Q  c #E9897D",
"!  c #E87B83",
"~  c #F37E83",
"^  c #889A8C",
"/  c #93948C",
"(  c #9D948D",
")  c #97988A",
"_  c #8D9A94",
"`  c #8B9692",
"'  c #959694",
"]  c #9B9495",
"[  c #939894",
"{  c #999896",
"}  c #959598",
"|  c #9A9499",
" . c #929A99",
".. c #9D9B9D",
"X. c #BB8386",
"o. c #A49E9C",
"O. c #AD9C99",
"+. c #A69697",
"@. c #B3969B",
"#. c #BB9C9A",
"$. c #BA9799",
"%. c #94A194",
"&. c #9DA39D",
"*. c #A2A29E",
"=. c #B4A09F",
"-. c #B8A09E",
";. c #A29FA2",
":. c #A99BA4",
">. c #BF9EA5",
",. c #B29CA4",
"<. c #9EA2A3",
"1. c #9DA0AA",
"2. c #95A5A4",
"3. c #A3A1A3",
"4. c #A6A6A8",
"5. c #ACA7AD",
"6. c #B6A8A7",
"7. c #B8A9B0",
"8. c #D98180",
"9. c #D68488",
"0. c #DE9187",
"q. c #D38F90",
"w. c #D69193",
"e. c #E68886",
"r. c #E18E88",
"t. c #EB8886",
"y. c #F88484",
"u. c #E89188",
"i. c #FF9896",
"p. c #C1A39D",
"a. c #FFA998",
"s. c #FFA19C",
"d. c #C99FA3",
"f. c #ED9BA1",
"g. c #FF9DA2",
"h. c #DCA9A6",
"j. c #E8ADA5",
"k. c #FFA0A3",
"l. c #FEA4AB",
"z. c #F4AFA8",
"x. c #FFADAE",
"c. c #F3A7A9",
"v. c #FFAEB4",
"b. c #FFB7B1",
"n. c #FFB6BA",
"m. c #F6BABF",
"M. c #FFBDBA",
"N. c #F2B0B4",
"B. c #FDC3BF",
"V. c #FFBDC2",
"C. c #FDC3C3",
"Z. c #FFCAC4",
"A. c #FFC0C9",
"S. c #FECACC",
"D. c #FCD0CD",
"F. c #F2C9D1",
"G. c #FED4D2",
"H. c #FFDBD4",
"J. c #FFD7DB",
"K. c #FFDCDE",
"L. c #FFE3DD",
"P. c #FFE4D4",
"I. c #FFDFE3",
"U. c #FFE5E6",
"Y. c #FFEBE5",
"T. c #FFE6EB",
"R. c #FFECEB",
"E. c #ECF1ED",
"W. c #FFF0E4",
"Q. c #FFF3ED",
"!. c #FFF9EE",
"~. c #FFECF2",
"^. c #EFFAF2",
"/. c #F4F5F2",
"(. c #FFF5F4",
"). c #F5FBF6",
"_. c #FCFBF5",
"`. c #F5F6FB",
"'. c #FEF6FA",
"]. c #F6FEFB",
"[. c #FDFDFC",
/* pixels */
"  O.@.,.}  .`  .} { ( ( ( ) %.^ / / %._ _ %.[ ' ] ] | | o ",
"#.U.S.F.(.].[.].[.'.'.[.(.[.].].[.[.`.].].].[.[.[.[.'.[.1.",
"w.Z C A Y.[./.'.'.'.'.[.`.[./.[.[./.'.[.[.[.[./._._.`.[.3.",
"w.I T n.Q._.[.'.~.'.'.`.].[.'.[.[.'.'.'.'.'.[.[.]._._.[.4.",
"$.C.T b H._._._.G.A.(.[.].].[._.[.(.R.C.U.(.'.[.[._.(.[.<.",
"-.h.H.K D._.(.R.L & M.(.'.]._.[.'.(.C.% V R.(.).[.[.[.[.<.",
"6.X.: n T.'.~.~ 6 4 j P.!._.[.Q.'.I.k e w W Q.[.[.[._.[.<.",
"$.R.b.Z.(.'.V.* i d 6 R !.!.[.'._.9.4 y r f C.[.[.[._.].<.",
"$.R.Y M.Q.(.K.l , d @ i.Q.[.].[.'.c.7 y r k L.[.'.[._.[.<.",
"#.q.# S Y._.~.k.8 O H Y.(.'.].].[.R.G 1 0 i.Q.[.[.[._.[.3.",
",.! $ ; K._.(.Q.u.n Y._.[.[.[.].]._.L.m r.R._.].].[._.[.<.",
"@.~.F v.(._.[._.L.Y._.).[.[.'.].)._.Q.L.Q.(.].].].[._.[.<.",
";.(.Y.Q._.].`.[.[._.[.[.'.'.[._._.].[.'.'.[.[.].).].'.[.4.",
"&.]./.[.].[.'.[.).].[.[.[.'.[._.]._.[.[.].].].[.].].[.'.<.",
"*._./.[.].`.[.'.[.[.[._.[.].[.).'.[.[.].[.[.[._.[.[.[.[.<.",
"&.[.].[.[.[.'.[.[.'.[.[.[.[.).[.[.[.].[.].]._.[.'.[.[.[.3.",
"*.[._.[._.[.[.'.'.[.].[.[._.[.)._.[.).].].).'.[.[.[.].[.4.",
"*.[._._.[.[.[.[.[.].[.[.(._.Y.(._.[.].).].].[.'.[.[.].].;.",
"<.[.].].[._.[.[.[.[.).).Q.Z.D V.R.(.[.[._.).[.[.].].].].3.",
"1.[.].]._.[.].[.[.[.^.!.P.D 9 z K.'._._.[._.[.].].].].].<.",
"1.].].[.]._.].].].[.[.Y.~ q p 5 ! ~.(._._.[.[.[._.[.'.[.*.",
"1.[.[.[.[._.].].[.`.[.Y.l 5 p 5 V T.[._._._._.].[.[.'.'.3.",
"3.[.`.[._.].].[.'.[._.Q.x.@ s f v.(._._.[.[.[._.[.[._.'.3.",
"*.[._._.[.[.].[.'.'._._.R.t.= E R.`._.[._._.[._.[.[.'.[.3.",
"o.[._.].[.[.].].[.[.[.Q._.Y.j.Y._._.[.[.[.].].[.[.[.].[.4.",
"o.[.`.[.[.[.[.].).)._.[.(._._._.]._.[.[.].].[.[.`.[.`.[...",
"<.].[.'.[.[.[.[._.].]._._.!.].].[.[.'.[.[.].].].[.`.].[.4.",
"2.].[.[.'.[.[.[.[._.[./.[.].].].].[.[.'._.].].].[.[.[.[.;.",
"1.].].].[.[.[.[.[.(.[._.[.[.[.[.].[.[.'._.].].).].].E.[.o.",
"3.[.[.].[.].].[.'.[.[.[.'.'.[./.].[.[.[.[.[.[.).[._.[.'.3.",
";.[._.[.]._.].[.'.[.].].[.[.[.[.].].[.'._._.[._.[.~.T.'.o.",
"3.[.'.[._._.[.'.R.T.[.].[.'.]._.[.[.(.Y.R.(.[._.(.m.B R.,.",
"3.'.'.[.[.[.'.~.y.D R.(.).].).].].'.L.M e.U.'.~.J.: $ P p.",
"3.[.[.[.'._.~.l.8 O L R._.].[.[.'.~.G 8 @ k.~.'.I.b + ~ p.",
"..[.`.]._.!.G.j 2 i 9 g._.).[.'.'.c.1 u < z I.(.(.D.I R.+.",
"*.[.).[._.Q.Z.* 3 u 9 ~ Q.).[.'.(.Q 1 y a $ S.(.R.C.S.'.:.",
"&.].[.[._.!.Y.e.7 2 l U._.].[._._.L.g 4 9 ~ R.(.f.v x m.7.",
"&.].[.[.]._.[.T.G ; n._._._._._._.W.B.- J T.(.(.! i.M.Z.6.",
"*.[.[.[.].].'.'.G.C._.'.`.].[._._.!.Q.C.J.'.'.(.0.N Q H.O.",
"*._.).[.].[.'.'._._.'.[.[.[.).].].[.(.[.[.'.(._.P.a.m z.6.",
"<.[./.[.'.'.'._.!.!.(.'.'.[.`.`.[.[.'.'.[.`.(.Q.j.Z c N.5.",
"<.].[.'.[.'.[.[._._.[.[.[.[.[.[.[.[.[.[.[.[.[.(.H.C.V.~.5.",
"X  .} { ] ] ' ' ) ) ' { | {  . .{ { ' '  .} { ] ( O.,.:.. "
};
