/* XPM */
static char *_1931_280cf143f9c6a2085e7b20221787f349c0abb277e2d28294cbf57cb4c445155a[] = {
/* columns rows colors chars-per-pixel */
"29 43 198 2 ",
"   c #2F2F2F",
".  c #36312E",
"X  c #2E2E30",
"o  c #34282C",
"O  c #BF120E",
"+  c #BC1416",
"@  c #B41B1D",
"#  c #BB191A",
"$  c #B5211B",
"%  c #B9261F",
"&  c #BC1A25",
"*  c #BF312F",
"=  c #A53633",
"-  c #A13E39",
";  c #B73130",
":  c #B92929",
">  c #CC0F0D",
",  c #D60B0D",
"<  c #DB0D0A",
"1  c #DC100F",
"2  c #D50E15",
"3  c #C51315",
"4  c #CD1314",
"5  c #CC1B15",
"6  c #C6161C",
"7  c #CF1218",
"8  c #C31919",
"9  c #CB1B1A",
"0  c #C51915",
"q  c #D41314",
"w  c #DD1411",
"e  c #D4141A",
"r  c #DA131E",
"t  c #EB0C0C",
"y  c #E50B07",
"u  c #F40403",
"i  c #FC0704",
"p  c #F2070C",
"a  c #F90509",
"s  c #F40C0D",
"d  c #F30A08",
"f  c #EB130B",
"g  c #EC0D12",
"h  c #E80F1A",
"j  c #F70D13",
"k  c #EC1012",
"l  c #F21413",
"z  c #CF1E24",
"x  c #C42426",
"c  c #DC2422",
"v  c #C3322F",
"b  c #D12F3E",
"n  c #CC3835",
"m  c #DB3533",
"M  c #D8383D",
"N  c #E72A2F",
"B  c #9B3C42",
"V  c #A63B45",
"C  c #BE3A48",
"Z  c #964242",
"A  c #A74646",
"S  c #B84A4A",
"D  c #AD544E",
"F  c #B9514E",
"G  c #BA5552",
"H  c #BA5857",
"J  c #B16861",
"K  c #C74C4A",
"L  c #C64242",
"P  c #D6494A",
"I  c #C6534E",
"U  c #C24D53",
"Y  c #CC5958",
"T  c #D25553",
"R  c #FD4845",
"E  c #E7524E",
"W  c #F04C53",
"Q  c #EB5C5B",
"!  c #EA5658",
"~  c #F95554",
"^  c #C8605F",
"/  c #DB5D68",
"(  c #E45B6B",
")  c #CD7069",
"_  c #D87067",
"`  c #D2786F",
"'  c #C96871",
"]  c #CB7C78",
"[  c #D97D77",
"{  c #C56664",
"}  c #EC686C",
"|  c #F46C6C",
" . c #E6736E",
".. c #F26973",
"X. c #E47576",
"o. c #FF7F7E",
"O. c #F07476",
"+. c #CC817C",
"@. c #E87A83",
"#. c #959A8B",
"$. c #988E99",
"%. c #8E9994",
"&. c #959595",
"*. c #9A9493",
"=. c #939893",
"-. c #95949B",
";. c #9B949A",
":. c #969999",
">. c #9C9C98",
",. c #A1949C",
"<. c #A59C9D",
"1. c #AC9C9C",
"2. c #AA979B",
"3. c #B29D9D",
"4. c #BE9B9F",
"5. c #9DA39D",
"6. c #A3A29D",
"7. c #BCA39E",
"8. c #B1A29D",
"9. c #9E9EA4",
"0. c #A49DA2",
"q. c #AB9DA3",
"w. c #A49FAA",
"e. c #A99DA9",
"r. c #B398A1",
"t. c #9CA2A2",
"y. c #9BA3A9",
"u. c #A3A1A3",
"i. c #AEA4AA",
"p. c #A9A8A9",
"a. c #B5A9AA",
"s. c #BBA7B0",
"d. c #CB8880",
"f. c #D28283",
"g. c #D29084",
"h. c #C49D9D",
"j. c #E68B88",
"k. c #E2918D",
"l. c #EB8C94",
"z. c #E39990",
"x. c #FE9393",
"c. c #FF9798",
"v. c #FF9A9C",
"b. c #F28986",
"n. c #C7A29A",
"m. c #FBA49C",
"M. c #C9AEA8",
"N. c #D8A5A4",
"B. c #EFA7A8",
"V. c #FFA5A4",
"C. c #FFACA3",
"Z. c #FFA4AB",
"A. c #FFABAD",
"S. c #F6ACA9",
"D. c #E4B1AC",
"F. c #F5B2AC",
"G. c #FEADB3",
"H. c #FFB4B3",
"J. c #FFB8B6",
"K. c #FFB5BA",
"L. c #FFBCBB",
"P. c #F7C6B8",
"I. c #FFC5BD",
"U. c #FDBCC5",
"Y. c #EBC3C3",
"T. c #FEC3C4",
"R. c #FFCBC5",
"E. c #FFCCCB",
"W. c #F6C5CA",
"Q. c #FFD2CC",
"!. c #FFD0C4",
"~. c #FFCFD5",
"^. c #FFD2D3",
"/. c #FFDBDC",
"(. c #FFD9D6",
"). c #FFE6DE",
"_. c #FFEADE",
"`. c #FFE2E1",
"'. c #FFEBE4",
"]. c #FFE6EC",
"[. c #F7ECEA",
"{. c #FFECEC",
"}. c #FFF6E7",
"|. c #F7F7EF",
" X c #FFF3EC",
".X c #FEFAED",
"XX c #F5F3E7",
"oX c #FFEDF3",
"OX c #FFEBFA",
"+X c #EDFBF3",
"@X c #F5F6F3",
"#X c #FEF4F3",
"$X c #F5FCF4",
"%X c #FDFCF5",
"&X c #F5F6F9",
"*X c #FDF5FB",
"=X c #F6FEFB",
"-X c #FCFDFC",
/* pixels */
"o 2.1.1.9.$.$.;.#.#.:.-.:.>.*.*.*.;.&.;.-.:.-.-.;.;.&.:.. ",
"q.#XE.P.[.-X-X-X%X%X-X-X-X=X-X-X-X-X-X-X-X-X-X-X-X-X-X-X<.",
"M.D.- ) M.-X#XoX@X$X&X=X-X=X-X%X%X|.%X-X@X%X-X%X-X=X&X-Xu.",
"a.D.I m._. X'.#X#X#XoX#X-X&X-X|. X%X X{.oX#X#X-X=X=X=X-Xu.",
"8.'.j.G g.}.E.O.Z.~.X.H.oX*X%X%X{.I.[ T.Z.@./.#X%X$X=X-Xy.",
"a.W.K.V.+._.E 3 M W 8 : ~.-X#X#XE.= # ~ N & ' oX.X%X-X-Xu.",
"s.W.V V N.'.m y g t j 3 K.#X-X#XH.@ w y g r C oX.X%X%X%Xw.",
"r.OXU.U.].{.! < a a p x ^.-X&X#XE.x y i p 2 / ].%X%X%X-Xu.",
"4.R.x.x.G.].G.8 y j q } OX-X=X%X X_ w d k + J.#X%X%X%X-Xu.",
"n.J % n B ].].x.6 3 Q `.*X-X-X%X%X_.~ 4 3 c. X-X%X%X=X-Xu.",
"4.+.O 3 H *X#X Xj.G `.#X-X&X=X-X%X X(.G k.'.%X@X=X=X-X*Xe.",
"1.'.n v E.#XXX%X'.).-X-X-X-X-X=X=X-X#X).{.%X-X-X=X=X-X-Xe.",
"2.#XQ.P..X%X%X%X%X X-X@X-X=X+X=X-X&X-X-X-X*X-X-X-X=X-X-Xe.",
"q.-X%X%X%X%X%X-X-X-X-X-X-X-X=X=X-X-X-X=X-X-X-X-X=X-X*X-Xq.",
"q.-X@X-X-X-X=X-X%X-X-X-X-X*X-X%X%X-X+X-X%X-X=X-X=X-X=X-X6.",
"6.-X-X-X-X&X-X-X-X-X-X-X-X-X-X-X%X=X-X=X-X-X-X-X=X=X%X-X6.",
"5.-X=X-X-X-X=X-X-X-X-X-X*X-X=X=X-X-X-X=X-X-X%X%X-X-X-X-X0.",
"5.-X%X*X-X-X-X-X=X-X-X&XOXOX#X#X#X#X-X=X=X-X%X.X-X=X=X-X6.",
"5.-X-X-X-X-X-X=X-X%X}.'.@...E. .+./.#X-X=X-X%X-X=X=X=X-Xu.",
"t.-X*X-X-X*X=X=X%X.X|.z.z r R 9 # x. X-X$X=X%X-X=X=X-X-Xu.",
"0.-X-X-X-X%X-X-X%X X}.` e p d f 9 O.'.XX-X-X@X-X-X-X*X-Xq.",
"0.-X*X-X-X-X-X-X-X%X.Xm.3 j i t 8 v. X%X=X-X-X-X-X-X*X*Xu.",
"t.-X$X=X-X-X=X=X-X-X%X'.P q s , K '.%X%X-X-X-X=X=X=X%X-Xu.",
"t.-X$X%X=X-X-X=X-X-X%X#X~.L 8 M (.%X*X=X-X-X-X%X$X%X%X-X6.",
"u.-X$X=X%X-X-X-X-X-X-X-X#XE.D R.#X-X-X-X-X-X%X=X=X%X#X-Xi.",
"u.-X$X%X%X%X-X-X*X-X-X*X%X-X). X%X-X=X-X-X-X=X-X%X-X-X-X,.",
"y.-X=X%X%X%X%X%X-X=X-X-X-X-X%X X%X-X%X-X-X-X-X-X-X-X*X-Xe.",
"t.-X=X%X%X%X%X-X=X=X-X-X=X-X X-X#X-X-X=X-X=X-X-X=X-X-X-Xw.",
"u.-X%X%X%X%X%X-X-X-X-X-X%X=X=X=X%X%X%X=X-X-X=X=X$X|.-X-X9.",
"0.-X*X-X=X%X-X%X%X#X#X-X-X$X=X=X=X=X-X%X-X-X-X=X%X%X-X*Xy.",
"q.-X=X=X=X=X=X-X-X-X-X@X-X-X-X-X-X-X-X-X-X-X%X%X'.R.W.*X0.",
"q.-X=X=X%X-X-X%X{.`.#X-X-X-X-X-X-X-XoX{.oX#X-X.XQ.= S ].r.",
"6.=X-X=X$X%X XoX+.E {.-X*X-X%X%X=X#X/.U l.oX#X#XP q > | h.",
"5.-X&X$X%X%X Xv.q w Y {.{.-X=X%X#X'.Q 3 @ v.#X'.v c 9 T r.",
"e.-X*X-X+X{.G.3 y d q } oX-X-X X}. .> d g 6 H.'.C.m.m.Q.i.",
"q.-X%X=X=X*X! , d u t z ~.*X-X%X!.$ y i i < Y ).'.I.E.&Xp.",
"q.-X%X=X-XOXb h t l a 7 K.-X-X XH.+ l u i 1 L `.v.A Z W.i.",
">.-X$X%X-XOX/ z m R q x ^.-X%X#XT.; 0 R N + ^ `.X.v.H.T.a.",
"6.=X$X=X=X-X/.f.F.R.[ J. X%X%X%X#XU.] R.A.f.].{.k.F b.(.1.",
"t.-X$X=X-X-X*X%X.X.X X#X-X%X%X%X*X*X%X X#X#X*X*X`.V.F S.a.",
"u.-X&X*X-X-X#X@X%X$X*X*X*X-X=X#X-X*X#X X X#X=X#XB.{ A F.p.",
"9.-X*X#X-X-X-X-X-X=X-X-X-X-X-X-X-X-X-X-X-X%X-X-X/.T.L.{.p.",
"X ;.*.*.,.*.*.*.*.*.:.:.:.:.:.=.=.%.%.=.*.*.;.;.;.q.8.1.  "
};
