/* XPM */
static char *_117_ed6a13d6e7eff001b5a3c3b0dc06273640d6d865250c48099ef72473e0a4c3a8[] = {
/* columns rows colors chars-per-pixel */
"29 43 220 2 ",
"   c black",
".  c #000100",
"X  c #010101",
"o  c #010300",
"O  c #020202",
"+  c gray1",
"@  c #030502",
"#  c #040603",
"$  c #040404",
"%  c gray2",
"&  c #050704",
"*  c #060606",
"=  c #070707",
"-  c #060805",
";  c #070906",
":  c gray3",
">  c #090909",
",  c #090B08",
"<  c gray4",
"1  c #0B0B0B",
"2  c #0C0E0B",
"3  c #0C0C0C",
"4  c gray6",
"5  c #111111",
"6  c #111310",
"7  c #131313",
"8  c #131512",
"9  c gray8",
"0  c #181818",
"q  c gray10",
"w  c #1B1B1B",
"e  c gray11",
"r  c #1D1D1D",
"t  c #202020",
"y  c #232323",
"u  c #252525",
"i  c gray17",
"p  c #2C2C2C",
"a  c #2D2D2D",
"s  c #2D2F2C",
"d  c #2F2F2F",
"f  c #2E302D",
"g  c #2F312E",
"h  c gray19",
"j  c #323232",
"k  c gray20",
"l  c #343434",
"z  c #373936",
"x  c gray22",
"c  c #393939",
"v  c #3A3A3A",
"b  c gray23",
"n  c #3C3C3C",
"m  c gray26",
"M  c #434343",
"N  c gray27",
"B  c gray28",
"V  c #484848",
"C  c gray29",
"Z  c #4B4B4B",
"A  c gray30",
"S  c #4E4E4E",
"D  c gray31",
"F  c #535353",
"G  c #555555",
"H  c #565656",
"J  c gray34",
"K  c gray35",
"L  c gray37",
"P  c #606060",
"I  c #626262",
"U  c gray39",
"Y  c #646464",
"T  c #656565",
"R  c gray40",
"E  c #686868",
"W  c #6A6A6A",
"Q  c gray42",
"!  c #6C6C6C",
"~  c gray43",
"^  c #6F6F6F",
"/  c #6F716E",
"(  c gray44",
")  c #727272",
"_  c #757774",
"`  c gray48",
"'  c #7E7E7E",
"]  c gray50",
"[  c #80827F",
"{  c #818181",
"}  c #838383",
"|  c #828481",
" . c #8D8F8C",
".. c #90928F",
"X. c gray57",
"o. c #929292",
"O. c #939393",
"+. c #929491",
"@. c gray58",
"#. c #959595",
"$. c #959794",
"%. c gray59",
"&. c #979797",
"*. c #969895",
"=. c #979996",
"-. c #989898",
";. c gray60",
":. c #9A9A9A",
">. c #9B9B9B",
",. c gray61",
"<. c #9D9D9D",
"1. c gray62",
"2. c #9F9F9F",
"3. c #9FA19E",
"4. c #A0A29F",
"5. c #A0A0A0",
"6. c gray63",
"7. c #A2A2A2",
"8. c gray64",
"9. c #A4A6A3",
"0. c #A4A4A4",
"q. c #A5A5A5",
"w. c gray65",
"e. c #A7A7A7",
"r. c #A8AAA7",
"t. c gray66",
"y. c #AAAAAA",
"u. c gray67",
"i. c #ABADAA",
"p. c #ACACAC",
"a. c #AEAEAE",
"s. c gray69",
"d. c #B1B1B1",
"f. c gray70",
"g. c #B4B6B3",
"h. c #B4B4B4",
"j. c #B7B7B7",
"k. c #B6B8B5",
"l. c #B7B9B6",
"z. c gray72",
"x. c #B9B9B9",
"c. c #B9BBB8",
"v. c gray73",
"b. c #BBBBBB",
"n. c #BABCB9",
"m. c #BCBEBB",
"M. c #BCBCBC",
"N. c gray",
"B. c #BEC0BD",
"V. c #C0C0C0",
"C. c #C1C1C1",
"Z. c gray76",
"A. c gray77",
"S. c #C5C5C5",
"D. c #C6C6C6",
"F. c gray78",
"G. c #C6C8C5",
"H. c #C8CAC7",
"J. c #C8C8C8",
"K. c gray79",
"L. c #CBCBCB",
"P. c #CACCC9",
"I. c #CECECE",
"U. c gray81",
"Y. c #D0D0D0",
"T. c #D1D3D0",
"R. c #D2D2D2",
"E. c gray83",
"W. c #D5D7D4",
"Q. c #D7D9D6",
"!. c gray85",
"~. c #DADADA",
"^. c #DADCD9",
"/. c #DCDEDB",
"(. c gainsboro",
"). c #DDDDDD",
"_. c gray87",
"`. c #DFDFDF",
"'. c #DEE0DD",
"]. c gray88",
"[. c #E1E1E1",
"{. c gray89",
"}. c #E4E4E4",
"|. c #E6E6E6",
" X c #E9E9E9",
".X c #EAEAEA",
"XX c #ECEEEB",
"oX c #ECECEC",
"OX c gray93",
"+X c #EDEFEC",
"@X c #EFEFEF",
"#X c #EEF0ED",
"$X c gray94",
"%X c #F1F3F0",
"&X c gray95",
"*X c #F3F3F3",
"=X c #F3F5F2",
"-X c #F4F6F3",
";X c #F4F4F4",
":X c gray96",
">X c #F5F7F4",
",X c #F6F6F6",
"<X c gray97",
"1X c #F6F8F5",
"2X c #F7F9F6",
"3X c #F8FAF7",
"4X c #F8F8F8",
"5X c #F9F9F9",
"6X c #F9FBF8",
"7X c gray98",
"8X c #FBFBFB",
"9X c #FAFCF9",
"0X c #FBFDFA",
"qX c #FCFEFB",
"wX c gray99",
"eX c #FDFDFD",
"rX c #FDFFFC",
"tX c #FEFFFD",
"yX c #FEFEFE",
"uX c white",
/* pixels */
"h 0.w.e.;.O.&.&.&.%.$.*.*.=.+.$.O.<.X.#.;.&.&.o.%.-.@.#.k ",
"5.&XC.S.,XuX8XwXuX8XqXtXqXqXtXtXuX4XuXuX8XyXuXuXuXuXyXuX7.",
"p.A M H |.wXwXuX4X<X6X>X9X9X0X>X4X4X8X<X8X7X:XwX4X7X<XwX5.",
"u.F ( S.yX8XeX,X7XuX6XrXtX9X9XtXeXuX;XuX,X7XuX8XeXyX7XuX0.",
"e.N.W u [.5XuXuX{.A.tX>X2XtX2XtX8XwXyXC.|.uXyX8XeXeX5XyX7.",
"8.5.4XS E.uX5XuXZ   T.tX3X3XtX6XwXyXI.% V wX7XuXeXyX7XuX8.",
"h.U q d oXwXuXL O X 8 W.tX1X0XrXwX).w X   I uX:XwXeX7XuX7.",
"7.5XD.}.5XeX>.  > > & z qXtX3XqXuXv   1 : X &.uX7XwX5XyX6.",
"1.uX).!.uX7Xp O + O ; # B.tX1XtXC.  : X *   i uXwXyX7XyX7.",
"t.wXj w .XuXc   D T 6 . H.tX=XtXF.X 5 T D   v 8XwXyX7XyX7.",
"d.R   X h 7X`.j.] C m.n.tX3XrXtX8XM.M.C ' z.(.uXwXyX7XyX7.",
"s.R 9 y m uXwXyXS.v.+XtX3XtXqX1XuXeXOXb.S.uXwX8XwXyX7XyX7.",
"5.uX~ J uX7X4XwXuX7XtX9X0X3X0XtX5X8XuXuXwX:XuX8XwXyX7XyX7.",
"5.uX&X$XwXeXuXwX4X5X9X6XtXtXtX9X8X7XwX<XuXeX;XuXwXyX7XyX7.",
"8.eXwX4XuXyX5XuXyXuXqX6XtXqX3XrXuXuXyXwX8XyXuXwXwXyX7XyX7.",
"1.uX4XuX8X8XuX7X8XyXtXtXqX3XtX6XuX8X8XuXeXwXyXeXwXyX7XyX7.",
"3.tX6X0XqXqXqXqXqXrXqXqXqXqXrX0XtX2XtX0X>XtX7XeXeXyX7XyX7.",
"3.tX6X0XqXqXqXqXqXtX2XtX9X>Xl.6X0XrXrXtXtX=XuXuXeXyX7XyX7.",
"3.tX6X0XqXqXqXqXrXrXtX1XtX...  .tX>XrX6X3XtXwXyXeXyX7XyX7.",
"3.tX6X0XqXqXqXqX0X0X2X0X4.o & . 9.tX-XtX0X0XyXeXeXyX7XyX7.",
"3.tX6X0XqXqXqXqXqXrXtXQ., . 2 . @ ^.rX3XtX6X7XyXeXyX7XyX7.",
"3.tX6X0XqXqXqXqXtX3X2X_ @ - o , o / rX0X6XtXuX7XeXyX7XyX7.",
"3.tX6X0XqXqXqXqXrX%XtX| . s _ g o [ tX2X3X0XyX8XeXyX7XyX7.",
"3.tX6X0XqXqXqXqXqXrXrXXXm.i.f r.g.-X6X9XtXqX8XuXeXyX7XyX7.",
"3.tX6X0XqXqXqXqXrX6XrXtXqX'.k./.rXrX0XqX0X0XuX8XuX,XwXuX,.",
"3.tX6X0XqXqXqXqXqXqX6XqX1XqXtXtX6X2XrXtXqXqXwXuXyXuX:XuX6.",
"3.tX6X0XqXqXqXqXtXtX2XtXrX9XqX9X6X0XtX3X2XtXwXwXyXwX<X8Xw.",
"3.tX6X0XqXqXqXqX2XtXtX9XqXtX6XrXtXqX0XtXtXrX7XwX7XuX8XuX:.",
"3.tX6X0XqXqXqXqXrX6XtXtX6XqXqX6XqXtX2X6XqX6XyXyX5XuX,XwXq.",
"3.tX6X0XqXqXqXqXrX9X1XqXtX3XtXrX1XtXrXqXtX9X8XeXuX X@XwX6.",
"3.tX6X0XqXqXqXqX6XtXtX1XqXqXtX9XqX3X0X3XrXrX&XuXuXK ) uX1.",
"3.tX6X0XqXqXqXqXP.n.+XtX9XqXqXrXtXqX#Xc.G.tXyXuXn u 7 E d.",
"2.uX4XuX5XeX_.x.{ N M.V.7XuXwXyXuXN.b.B ` x.!.yXl O   Y a.",
"q.7XwXuXeXyXk   S Q 4   Y.wX7XuXS.  5 ! S   l uX].e j ;Xt.",
"<.uXyX,XuXuXi % O   < * N.uX:XeXC.+ =   >   a uXuX).~.uX2.",
"0.uXyX5X:XeX>.  4 > $ b 8XyX8XuXuXv   3 = X <.4X;XU.I.uX5.",
"7.8X4XuXuXuXeXP     0 `.uX,X7XyXyX`.9   O K uXuX;.r 9 M.f.",
"2.uX4X7XeX,XuXyXZ O E.8XwXuXeX5X5XuXR.  S uX*XuX^ y.L.D.d.",
"6.uXyXuXeXuX<XuX[.K.4X7XeX5X7XuXyXwXuXA.).uX;XuX} k ] |.e.",
"7.uX,X8XyX5XuX8XwXuX5XuX8XuXuXeXuX5XyXeX8X7XuXyX:Xu.x e.j.",
"5.uX;X5XeX5X7X7X5X5X5X5X7X7X7X7X8X7X5X4X4X5X7X8X5.G t w.z.",
"2.uX8XuXuXyXuXuXuXuXuXuXuXuXuXuXuXuXuXuXuXuXuXuX}.Z.J.uXw.",
"d -.@.%.%.@.%.%.%.%.%.%.%.%.%.%.%.%.%.%.%.%.%.%.6.6.e.1.i "
};
