/* XPM */
static char *_299_c1a782f291d536894a5d8eb239a015eecd33d5065a9be6c1076d77e12c7be57b[] = {
/* columns rows colors chars-per-pixel */
"29 43 214 2 ",
"   c black",
".  c #000100",
"X  c #010101",
"o  c #000200",
"O  c #020202",
"+  c gray1",
"@  c #030502",
"#  c #040404",
"$  c gray2",
"%  c #060606",
"&  c #070707",
"*  c gray3",
"=  c #090909",
"-  c gray4",
";  c #0B0B0B",
":  c #0C0C0C",
">  c gray5",
",  c #0E0E0E",
"<  c #101010",
"1  c #111111",
"2  c gray8",
"3  c #151714",
"4  c #161616",
"5  c #181818",
"6  c #1B1B1B",
"7  c gray11",
"8  c #1D1D1D",
"9  c #1E1E1E",
"0  c #202020",
"q  c gray13",
"w  c #212320",
"e  c #222222",
"r  c gray14",
"t  c #252525",
"y  c #272727",
"u  c #262825",
"i  c #282828",
"p  c gray17",
"a  c #2A2C29",
"s  c #2C2C2C",
"d  c #2D2D2D",
"f  c #2F2F2F",
"g  c #323232",
"h  c gray20",
"j  c #353535",
"k  c gray21",
"l  c #373737",
"z  c #393B38",
"x  c #3A3A3A",
"c  c gray23",
"v  c #3C3C3C",
"b  c gray24",
"n  c #3E3E3E",
"m  c #3F3F3F",
"M  c #3E403D",
"N  c gray25",
"B  c #434343",
"V  c #434542",
"C  c gray27",
"Z  c #464646",
"A  c gray28",
"S  c #4C4C4C",
"D  c #4E4E4E",
"F  c gray31",
"G  c #505050",
"H  c #515151",
"J  c #535353",
"K  c #555555",
"L  c #585858",
"P  c #5B5D5A",
"I  c gray36",
"U  c #606060",
"Y  c #626262",
"T  c DimGray",
"R  c gray42",
"E  c #6A6C69",
"W  c #6C6C6C",
"Q  c #6D6D6D",
"!  c #6F6F6F",
"~  c #717171",
"^  c #727272",
"/  c #747474",
"(  c gray46",
")  c #767676",
"_  c #777777",
"`  c #7B7B7B",
"'  c #7C7C7C",
"]  c gray49",
"[  c #7E7E7E",
"{  c gray50",
"}  c #808080",
"|  c #818181",
" . c gray52",
".. c #868686",
"X. c gray55",
"o. c #8D8D8D",
"O. c #8E8E8E",
"+. c gray56",
"@. c #919390",
"#. c #929292",
"$. c #939393",
"%. c #929491",
"&. c #949693",
"*. c gray58",
"=. c #959595",
"-. c #959794",
";. c gray59",
":. c #979797",
">. c #969895",
",. c #989A97",
"<. c #989898",
"1. c #9A9A9A",
"2. c #9B9B9B",
"3. c #9C9E9B",
"4. c gray61",
"5. c #9D9D9D",
"6. c gray62",
"7. c #9F9F9F",
"8. c #9FA19E",
"9. c #A0A0A0",
"0. c gray63",
"q. c #A1A3A0",
"w. c #A2A2A2",
"e. c gray64",
"r. c #A4A4A4",
"t. c #A5A5A5",
"y. c gray65",
"u. c #A7A7A7",
"i. c gray66",
"p. c gray67",
"a. c #ACACAC",
"s. c gray68",
"d. c #AEAEAE",
"f. c #B1B1B1",
"g. c #B2B2B2",
"h. c #B4B6B3",
"j. c #B4B4B4",
"k. c gray71",
"l. c #B6B6B6",
"z. c gray72",
"x. c #B9B9B9",
"c. c gray73",
"v. c #BBBBBB",
"b. c #BABCB9",
"n. c #BCBCBC",
"m. c gray74",
"M. c gray",
"N. c #BEC0BD",
"B. c #BFC1BE",
"V. c #C0C0C0",
"C. c gray76",
"Z. c #C5C5C5",
"A. c #C5C7C4",
"S. c #C6C6C6",
"D. c gray78",
"F. c #C8CAC7",
"G. c #C8C8C8",
"H. c gray79",
"J. c #CACACA",
"K. c #CBCBCB",
"L. c #CECECE",
"P. c gray81",
"I. c #D0D0D0",
"U. c #D1D3D0",
"Y. c LightGray",
"T. c #D2D4D1",
"R. c #D4D6D3",
"E. c gray83",
"W. c #D8DAD7",
"Q. c #D8D8D8",
"!. c #DDDDDD",
"~. c gray87",
"^. c gray89",
"/. c #E2E4E1",
"(. c #E4E6E3",
"). c #E4E4E4",
"_. c gray90",
"`. c #E6E6E6",
"'. c #E7E7E7",
"]. c #E9E9E9",
"[. c #ECEEEB",
"{. c #ECECEC",
"}. c gray93",
"|. c #EEEEEE",
" X c #EFF1EE",
".X c gray94",
"XX c #F1F1F1",
"oX c #F1F3F0",
"OX c gray95",
"+X c #F3F3F3",
"@X c #F2F4F1",
"#X c #F3F5F2",
"$X c #F4F6F3",
"%X c #F4F4F4",
"&X c gray96",
"*X c #F6F6F6",
"=X c gray97",
"-X c #F6F8F5",
";X c #F7F9F6",
":X c #F8FAF7",
">X c #F8F8F8",
",X c #F9F9F9",
"<X c #F9FBF8",
"1X c gray98",
"2X c #FBFBFB",
"3X c #FAFCF9",
"4X c #FBFDFA",
"5X c #FCFEFB",
"6X c gray99",
"7X c #FDFDFD",
"8X c #FDFFFC",
"9X c #FEFFFD",
"0X c #FEFEFE",
"qX c white",
/* pixels */
"p 0.r.p.5.$.2.#.*.;.@.>.-.&.3.%.$.:.<.*.#.1.;.;.=.:.=.;.g ",
"r.7XD.n.].qX2XqXqXqX9X5X3X8X5X8XqXqX6XqXqX>XqX2X0X0X6XqX9.",
"g.d.q J 6.qX+X1X=X%X X9X:X9X@X5X1X1X>XXX1X,X2X0X2X1X>X0X0.",
"l.y.l u.%XqX0X0X2XqX9X;X5X8X5X<X0X1XqXqX*X7XqX>X0X6X,XqXe.",
"t.{.{ j | qX&X0X.X/ U.9X#X8X9X5X2X0X1Xo.x.1X6XqX6X6X,X0X9.",
"f.Z.G.a.! 7X1XqXF + a $X9X5X$X9X,XqX{   = Q.2X0X0X0X7XqXw.",
"j.v.5 9 4.2XqX2XS X u oX9X:X9X3X6X7X} X 1 I.qX,X2X2X,XqX9.",
"0.qXL.G.qX7X6XL C 1 V M (.9X5X<X7X` m 7 j k Z.qX7X6X,XqX0.",
"7.qXH n .XqXO.  + # o o P 4X<X5Xm.  *   # X i 7X6X0X1X0Xw.",
"i._.2 - Z.0XZ.% r W z . q.4X<X5X}.q = ~ S   ~ qX6X0X1X0Xw.",
") y 8 5 , m.7XJ.s.c 8.A.;X8X8X8X7X!.c.C ' n.7X1X6X0X1X0Xw.",
"} e < y X D.qXqX^.g.U.9X;X9X:X4X7X0XOXz.S.qX>X0X6X0X1X0Xw.",
"7.qX~ U %X2X0X+X2XqX9X$X9X4X<X9X2X6X,X0XqX+X2XqX6X0X1X0Xw.",
"2.qX+X{.7XqX2XqXqX>X-X9X:X:X9X9XqX7X2X7XqX0XqX,X6X0X1X0Xw.",
"e.qX*XqX,X6XqX1X2X0X9X3X9X9X4X3X6XqX1X>X7X1X2XqX6X0X1X0Xw.",
"0.0X2X=XqX1X0X7XqX2X4X9X;X3X9X4X7X2XqXqX1X0XqX6X6X0X1X0Xw.",
"9.qX1X6X5X5X5X5X4X8X:X:XqXqX&X1X<X5X9X5X5X<XqX0X7X0X1X0Xw.",
"9.qX1X6X5X5X5X5X4X5X5X9X,X1X0XqX9X5X8X4X<X9X,X6X7X0X1X0Xw.",
"9.qX1X6X5X5X5X5X9X-X4X8X7X0X_ X.-X5X9X4X9X4X1XqX7X0X1X0Xw.",
"9.qX1X6X5X5X5X5X<X9X<X4XqX+.  # B.9X;X<X9X;XqX6X7X0X1X0Xw.",
"9.qX1X6X5X5X5X5X3X9X5X3X>X4.  > N.5X4X9X<X9XqX,X7X0X1X0Xw.",
"9.qX1X6X5X5X5X5X9X:X8X4X( d 0 f w ,.9X:X9X;XqX1X7X0X1X0Xw.",
"9.qX1X6X5X5X5X5X4X;X5XT.    O   . 3 -X8X4X9X2XqX7X0X1X0Xw.",
"9.qX1X6X5X5X5X5X8X4X9X4XZ # / T @ E 4X5X8X;XqX2X7X0X1X0Xw.",
"0.qX1X7X5X5X4X5X5X5X<X9X+XI.Z R W.oX4X9X3X9X1X7XqX1X1XqXw.",
"0.qX1X7X5X5X4X5X3X9X9X3X>X6XQ.Q.3X9X4X9X5X8X1XqX6X6X*XqX6.",
"0.qX1X7X5X5X4X5X5X5X3X5XqX,XqX2X:X9X8X3X<X9X2X1X7XqX1X,Xr.",
"0.qX1X7X5X5X4X5X5X8X<X5X6X0X6X7X4X4X4X9X9X9X7X0X1X2X>XqX0.",
"0.qX1X7X5X5X4X5X9X4X5X9X>XqX6X6X9X5X3X:X<X4X0X6X2XqX7X2Xr.",
"0.qX1X7X5X5X4X5X;X3X<X5XqX,X0XqX<X<X9X9X8X<X0X0XqX|.{.qX7.",
"0.qX1X7X5X5X4X5X8X8X5X:XqX2XqX,X9X:X4X<X4X3X0X>X+XY Q 6Xw.",
"0.qX1X7X5X5X4X5X/.h.R.9X6X,XqX7X<X9X[.b.F.4X0XD.X r q 6 { ",
"7.qX1X7X0X,XqXK.s.x 4.S.6X7X7X2XqX~.k.A [ v.qXM.: 6 < t ' ",
"r.,X,X1XqX2XJ.# 6 ^ h X u.2X=XqX'.7 , Q D   / 6XH.$ 7 |.5.",
"9.qX6X2X1XqX .  % & $   K qX>X6XV.O X   $ O i qX=Xc F qXt.",
"9.1XqX1X7X0X2XI C ; N B `.qX7X2XqX[ v 8 v h V.qX0XJ.P.7X1.",
"0.qX>X=X2X2XqX,XD + p OXqX0X1XqX=XqX] X * E.qXqX;.e 4 V.k.",
"9.>X0XqX2XqX,XqXG   s +X2X7XqX,X7X6X}   ; E.qX1X! a.H.G.a.",
"e.qX2X2X6X7X*X0X|.' Y.qX1XqXqX0X7X1X7XX.l.qX+XqX..d } '.s.",
"0.7X>X2XqX0X6X0X2XqX1XqX7X6X,X0X2XqX7X6X0X2X7X7X+Xi.b t.j.",
"9.qX%X,X7X,X1X1X>X>X>X,X,X1X1X1X2X1X>X*X*X>X1X2X9.K 0 y.z.",
"7.qX2XqXqX0XqXqX0X0X0XqXqXqXqXqXqXqX0X0X0X0XqXqX).C.G.qXy.",
"f <.*.;.;.*.;.;.=.=.;.;.;.;.;.;.=.=.;.;.;.;.=.=.0.0.u.6.p "
};
