/* XPM */
static char *_930_bf0488ca86456540052a5a6f30f32e0e5a219c2186947406acced1f9c33fa4fc[] = {
/* columns rows colors chars-per-pixel */
"29 43 138 2 ",
"   c #302F30",
".  c #F90000",
"X  c #FC0000",
"o  c #FC0001",
"O  c #FC0002",
"+  c #FC0103",
"@  c #FC0203",
"#  c #FC0304",
"$  c #FC0305",
"%  c #FC0406",
"&  c #FC0707",
"*  c #FC0709",
"=  c #FC080A",
"-  c #FC0A0B",
";  c #FC0F10",
":  c #FC1515",
">  c #FC1516",
",  c #FC1D1D",
"<  c #F51E20",
"1  c #F91F20",
"2  c #FC2627",
"3  c #FC2C2C",
"4  c #FC2D2E",
"5  c #FC2F2F",
"6  c #F93132",
"7  c #FC3131",
"8  c #FC3939",
"9  c #FC3D3C",
"0  c #FC3D3D",
"q  c #FC4546",
"w  c #FC4A4A",
"e  c #FF4C4B",
"r  c #FC4F50",
"t  c #FF5353",
"y  c #FC5354",
"u  c #FF5656",
"i  c #F9595A",
"p  c #F95C5D",
"a  c #FC5E5E",
"s  c #FF605F",
"d  c #FC6262",
"f  c #F96566",
"g  c #FF6B6B",
"h  c #FC6E6E",
"j  c #FC7171",
"k  c #FF7575",
"l  c #FC7C7D",
"z  c #FC7D7D",
"x  c #959595",
"c  c #969594",
"v  c gray59",
"b  c #999797",
"n  c gray60",
"m  c #9F9F9F",
"M  c #96A2A1",
"N  c #95A4A4",
"B  c #9FA0A0",
"V  c #A0A0A0",
"C  c #A0A1A0",
"Z  c #A0A1A1",
"A  c #A0A2A1",
"S  c #A0A4A3",
"D  c #A0A5A5",
"F  c #A0AAA9",
"G  c #A0ABAA",
"H  c #A0ADAC",
"J  c #A0AEAE",
"K  c #A0AFAE",
"L  c #FC8A8A",
"P  c #F99494",
"I  c #FC9C9C",
"U  c #FF9F9F",
"Y  c #FCA1A0",
"T  c #FCA9A9",
"R  c #FCABAA",
"E  c #FCB4B3",
"W  c #FCB6B6",
"Q  c #FCB8B8",
"!  c #FCBBBA",
"~  c #FCBBBB",
"^  c #FCC2C1",
"/  c #F9C4C2",
"(  c #FCC5C4",
")  c #FCC6C5",
"_  c #FCC8C7",
"`  c #FCCACA",
"'  c #FCCECC",
"]  c #FCD1CF",
"[  c #FCD4D3",
"{  c #FFD5D4",
"}  c #FCDBDB",
"|  c #FCDFDD",
" . c #FCE3E2",
".. c #F9E6E7",
"X. c #FCE6E5",
"o. c #FCE9E7",
"O. c #FCEAE8",
"+. c #FCEBE9",
"@. c #FCECEB",
"#. c #FCEDEC",
"$. c #FCEDED",
"%. c #FCEEED",
"&. c #FCF0EF",
"*. c #F5F7F5",
"=. c #F9F0F0",
"-. c #FCF1F1",
";. c #FCF2F2",
":. c #FCF5F5",
">. c #FCF7F6",
",. c #F9F8F6",
"<. c #F9F8F7",
"1. c #F9F9F7",
"2. c #FCF8F7",
"3. c #F9FAF8",
"4. c #F9FAF9",
"5. c #F9FBF9",
"6. c #FCF8F8",
"7. c #FCFAF8",
"8. c #FCFBF8",
"9. c #FCFBF9",
"0. c #FCFAFA",
"q. c #FCFBFA",
"w. c #FCFCF9",
"e. c #FCFCFA",
"r. c #FCFDFA",
"t. c #FCFCFB",
"y. c #FCFDFB",
"u. c #FFFCFB",
"i. c #F9FFFF",
"p. c gray99",
"a. c #FCFDFC",
"s. c #FCFEFC",
"d. c #FCFFFD",
"f. c #FCFEFE",
"g. c #FCFFFE",
"h. c #FCFFFF",
"j. c #FFFEFE",
"k. c white",
/* pixels */
"  b N M c v v v v v v v v v v v v v v v v v v v v v x n   ",
"B k._ { k.j.k.k.k.k.k.k.k.k.k.k.k.k.k.k.k.k.k.k.k.k.p.k.m ",
"K U < P i.,.4.5.,.1.5.4.5.5.5.5.5.4.5.1.,.5.4.5.5.5.*.k.C ",
"H e p ( h.y.s.e.f.t.y.s.s.s.s.s.s.s.y.t.f.e.s.s.s.s.5.k.C ",
"G u i 3 | h.7.h.^ X.h.y.s.s.s.s.s.y.h.X.^ h.e.s.s.s.5.k.C ",
"F t ..y ] h.h.` o r g.s.a.s.s.s.s.y.g.r o ` h.e.s.s.5.k.C ",
"J g 1 4 O.h.-., O X l h.7.s.s.s.7.h.z X O , ;.h.y.s.5.k.C ",
"S k./  .d.h.h X * O > %.h.y.s.e.h.' - # * X h h.9.s.5.k.C ",
"A k.f [ h.h.Y X = X 7 e.d.y.s.y.h.@.3 X = X Y h.e.s.5.k.C ",
"K k . 2 &.h.f.w X o T h.9.s.s.s.9.h.T X X w h.s.y.s.5.k.C ",
"J s . : o.h.y.:.5 L h.8.s.s.s.s.s.7.h.L 5 :.d.y.s.s.5.k.C ",
"D u.6 W h.e.r.g.$.2.s.s.s.s.s.s.s.s.s.2.$.g.r.s.s.s.5.k.C ",
"V k.=.t.s.s.s.y.t.e.s.s.s.s.s.s.s.s.s.e.t.y.s.s.s.s.5.k.C ",
"Z k.<.e.s.s.s.s.y.s.s.s.s.s.s.s.s.s.s.s.y.s.s.s.s.s.5.k.C ",
"C k.3.s.s.s.s.s.s.s.s.s.s.s.s.s.s.s.s.s.s.s.s.s.s.s.5.k.C ",
"C k.5.s.s.s.s.s.s.s.s.s.s.s.s.s.s.s.s.s.s.s.s.s.s.s.5.k.C ",
"C k.5.s.s.s.s.s.9.y.s.s.s.s.s.s.s.s.s.y.9.s.s.s.s.s.5.k.C ",
"C k.5.s.s.s.s.e.f.y.y.s.s.s.s.s.s.s.y.y.f.e.s.s.s.s.5.k.C ",
"C k.5.s.s.s.e.h.R } h.y.s.s.s.s.s.y.h.} R h.e.s.s.s.5.k.C ",
"C k.5.s.s.9.h.Q X 0 6.g.y.s.s.s.y.d.2.0 X Q h.9.s.s.5.k.C ",
"C k.5.s.y.h.#.: $ X j h.7.s.s.s.7.h.j X $ : #.h.y.s.5.k.C ",
"C k.5.s.9.h.d X * + ; +.h.y.s.q.h.) @ % * X d h.9.s.5.k.C ",
"C k.5.s.e.h.E X = X 9 h.s.y.s.y.d.>.8 X = X E h.e.s.5.k.C ",
"C k.5.s.s.y.h.a X & ! h.w.s.s.s.9.h.~ & X a h.y.s.s.5.k.C ",
"C k.5.s.s.y.a.a.q I h.9.s.s.s.s.s.8.h.I q a.a.y.s.s.5.k.C ",
"C k.5.s.s.s.y.s.:.0.y.s.s.s.s.s.s.s.y.0.:.s.y.s.s.s.5.k.C ",
"C k.5.s.s.s.s.y.e.e.s.s.s.s.s.s.s.s.s.e.e.y.s.s.s.s.5.k.C ",
"C k.5.s.s.s.s.s.y.s.s.s.s.s.s.s.s.s.s.s.y.s.s.s.s.s.5.k.C ",
"C k.5.s.s.s.s.s.s.s.s.s.s.s.s.s.s.s.s.s.s.s.s.s.s.s.3.k.C ",
"C k.5.s.s.s.s.s.y.s.s.s.s.s.s.s.s.s.s.s.y.s.s.s.s.e.<.k.Z ",
"C k.5.s.s.s.s.y.t.e.s.s.s.s.s.s.s.s.s.e.t.y.s.s.s.t.=.k.V ",
"C k.5.s.s.s.r.g.$.2.s.s.s.s.s.s.s.s.s.2.$.g.r.e.h.W 6 u.D ",
"C k.5.s.s.y.d.:.5 L h.8.s.s.s.s.s.7.h.L 5 :.y.h.o.: . s J ",
"C k.5.s.y.s.h.w X o T h.9.s.s.s.9.h.T X X w f.h.&.2 . k K ",
"C k.5.s.e.h.Y X = X 7 e.d.y.s.y.h.@.3 X = X Y h.h.[ f k.A ",
"C k.5.s.9.h.h X * O > %.h.y.s.e.h.' - # * X h h.d. ./ k.S ",
"C k.5.s.y.h.;., O X l h.7.s.s.s.7.h.z X O , -.h.O.4 1 g J ",
"C k.5.s.s.e.h.` o r g.s.a.s.s.s.s.y.g.r o ` h.h.] y ..t F ",
"C k.5.s.s.s.e.h.^ X.h.y.s.s.s.s.s.y.h.X.^ h.7.h.| 3 i u G ",
"C k.5.s.s.s.s.e.f.t.y.s.s.s.s.s.s.s.y.t.f.e.s.y.h.( p e H ",
"C k.*.5.5.5.4.5.,.1.5.4.5.5.5.5.5.4.5.1.,.5.4.,.i.P < U K ",
"m k.p.k.k.k.k.k.k.k.k.k.k.k.k.k.k.k.k.k.k.k.k.j.k.{ _ k.B ",
"  n x v v v v v v v v v v v v v v v v v v v v v c M N b   "
};
