/* XPM */
static char *_8566_cf8e9f3ed43acd0a12818f7944365518744e58c557ab9e600800fbddcf1e65de[] = {
/* columns rows colors chars-per-pixel */
"29 43 163 2 ",
"   c #302F30",
".  c #303031",
"X  c #F90000",
"o  c #FC0000",
"O  c #FC0001",
"+  c #FC0101",
"@  c #FC0002",
"#  c #FC0102",
"$  c #FC0103",
"%  c #FC0204",
"&  c #FC0304",
"*  c #FC0305",
"=  c #F90606",
"-  c #FC0405",
";  c #FC0406",
":  c #FC0506",
">  c #FC0607",
",  c #FC0608",
"<  c #FC0709",
"1  c #FC080A",
"2  c #FC0A0B",
"3  c #FC0A0C",
"4  c #FC0E0F",
"5  c #FC1111",
"6  c #FC1314",
"7  c #F91A1B",
"8  c #FC1818",
"9  c #FC1A1A",
"0  c #FC1D1C",
"q  c #FC1E1F",
"w  c #FC2223",
"e  c #F92424",
"r  c #F92627",
"t  c #FC2425",
"y  c #F52B2C",
"u  c #FC2829",
"i  c #FC292A",
"p  c #FC3333",
"a  c #F93839",
"s  c #FC3838",
"d  c #FC3E3E",
"f  c #FC4242",
"g  c #FC4344",
"h  c #FF4746",
"j  c #FC494A",
"k  c #FC4A4A",
"l  c #FC4B4B",
"z  c #FC4B4C",
"x  c #FC4D4D",
"c  c #FC4E4F",
"v  c #FC4F50",
"b  c #FC5151",
"n  c #F95657",
"m  c #FC5858",
"M  c #FC6464",
"N  c #FC6565",
"B  c #FF6564",
"V  c #FC6A6A",
"C  c #FC6B6A",
"Z  c #FC7171",
"A  c #FC7879",
"S  c #959595",
"D  c #969595",
"F  c gray59",
"G  c #999796",
"H  c #969897",
"J  c #959C9B",
"K  c gray60",
"L  c #9F9F9E",
"P  c #9F9F9F",
"I  c #A09F9F",
"U  c #96A8A7",
"Y  c #A0A1A0",
"T  c #A0A1A1",
"R  c #A0A4A4",
"E  c #A0A7A7",
"W  c #A0ABAA",
"Q  c #A0AEAD",
"!  c #A0AFAE",
"~  c #A0B1B0",
"^  c #A0B5B4",
"/  c #A0B6B5",
"(  c #A0B9B8",
")  c #FC8080",
"_  c #FC8383",
"`  c #F98C8D",
"'  c #FC9695",
"]  c #FC9696",
"[  c #F99B9B",
"{  c #FC9898",
"}  c #FF9B99",
"|  c #FC9F9F",
" . c #FCA0A0",
".. c #FCA6A6",
"X. c #FCA7A7",
"o. c #FFA9A7",
"O. c #FCA8A8",
"+. c #FFABAA",
"@. c #FCAFAF",
"#. c #FCB1B0",
"$. c #FCB3B3",
"%. c #FCB5B5",
"&. c #FCB9B9",
"*. c #FCBBBB",
"=. c #FCBCBB",
"-. c #FCBDBB",
";. c #FFC1C0",
":. c #FFC2C1",
">. c #FCC9C9",
",. c #F9D2D1",
"<. c #FCD1D0",
"1. c #FCD3D1",
"2. c #FFD3D1",
"3. c #FCD2D2",
"4. c #F9D6D5",
"5. c #FCD9D8",
"6. c #FCDFDE",
"7. c #FCE1DF",
"8. c #FCE0E0",
"9. c #FCE1E1",
"0. c #FCE2E1",
"q. c #FCE6E5",
"w. c #F9E9E8",
"e. c #FCEAE9",
"r. c #FFEAE9",
"t. c #FCEDED",
"y. c #FCF0EE",
"u. c #F5F7F5",
"i. c #F9F5F3",
"p. c #F9F5F4",
"a. c #F9F7F6",
"s. c #FCF5F5",
"d. c #FCF7F7",
"f. c #F9F8F6",
"g. c #F9F8F7",
"h. c #F9F9F7",
"j. c #FCF8F6",
"k. c #FCF9F7",
"l. c #F9FAF8",
"z. c #F9FAF9",
"x. c #F9FBF9",
"c. c #FCF9F8",
"v. c #FCF9F9",
"b. c #FFF9F9",
"n. c #FCFAF8",
"m. c #FCFAF9",
"M. c #FCFBF9",
"N. c #FCFCFA",
"B. c #FCFCFB",
"V. c #FCFDFB",
"C. c #FCFEFB",
"Z. c #F9FFFD",
"A. c gray99",
"S. c #FCFDFC",
"D. c #FCFDFD",
"F. c #FCFEFC",
"G. c #FCFEFD",
"H. c #FCFFFD",
"J. c #FCFEFE",
"K. c #FCFFFE",
"L. c #FCFFFF",
"P. c #FFFFFE",
"I. c white",
/* pixels */
". G J U H D F F F F F F F F F F F F F F F F F F F F S K   ",
"L I.9.;.b.I.I.I.I.I.I.I.I.I.I.I.I.I.I.I.I.I.I.I.I.I.A.I.P ",
"E r.y n w.Z.g.p.a.h.i.f.x.z.x.z.x.f.i.h.a.p.l.x.z.x.u.I.Y ",
"/ o.e X.y.K.B.L.J.G.L.G.V.F.F.F.V.G.L.G.J.L.S.C.F.F.x.I.Y ",
"^ +.a g ) L.q.Z @.0.V =.L.N.F.N.L.=.V 0.@.Z e.L.V.F.x.I.Y ",
"( } ` $.C L.z o w l o 4 5.L.n.L.5.4 o l w o v L.N.F.x.I.Y ",
"~ :.7 q ' L.t O > # 3 o -.L.j.L.-.o 3 # > O u H.F.F.x.I.Y ",
"Y I.4.1.S.L.x o , * % 2 5.L.n.L.5.2 % * , o x L.N.F.x.I.Y ",
"W 2.[ O.#.L.&.O - 1 o N L.N.F.N.L.N o 1 - + *.L.M.F.x.I.Y ",
"Q h = 8 9 M.L.| o o c S.V.F.F.F.V.S.c o o  .L.M.F.F.x.I.Y ",
"! B X o s L.k.L._ p v.H.V.F.F.F.V.H.v.p _ L.n.F.F.F.x.I.Y ",
"R P.r 6 8.L.N.F.d.t.K.N.F.F.F.F.F.N.K.t.d.F.F.F.F.F.x.I.Y ",
"I I.,.>.L.N.F.F.N.B.V.F.F.F.F.F.F.F.V.B.N.F.F.F.F.F.x.I.Y ",
"T I.z.G.N.F.F.F.F.V.F.F.F.F.F.F.F.F.F.V.F.F.F.F.F.F.x.I.Y ",
"Y I.h.N.F.F.F.F.F.F.F.F.F.F.F.F.F.F.F.F.F.F.F.F.F.F.x.I.Y ",
"Y I.x.F.F.F.F.F.F.F.F.F.F.F.F.F.F.F.F.F.F.F.F.F.F.F.x.I.Y ",
"Y I.x.F.F.F.V.k.M.N.k.M.F.F.F.F.F.M.k.N.M.k.V.F.F.F.x.I.Y ",
"Y I.x.F.F.F.S.L.J.D.L.J.V.F.F.F.V.J.L.D.J.L.S.F.F.F.x.I.Y ",
"Y I.x.F.N.L.6.b { 3.k ..L.N.F.N.L...k 3.{ b 6.L.N.F.x.I.Y ",
"Y I.x.F.V.L.f o 0 d o : <.L.c.L.<.: o d 0 o f L.V.F.x.I.Y ",
"Y I.x.F.F.H.i O , & 3 o -.L.j.L.-.o 3 & , O i H.F.F.x.I.Y ",
"Y I.x.F.N.L.m o < ; @ 5 7.L.M.L.7.5 @ ; < o m L.N.F.x.I.Y ",
"Y I.x.F.N.L.>.2 $ 1 o A L.M.F.M.L.A o 1 $ 2 >.L.N.F.x.I.Y ",
"Y I.x.F.F.M.L.%.- o M L.N.F.F.F.N.L.M o - %.L.M.F.F.x.I.Y ",
"Y I.x.F.F.F.n.L.] j L.V.V.F.F.F.V.V.L.j ] L.n.F.F.F.x.I.Y ",
"Y I.x.F.F.F.F.V.m.s.F.V.F.F.F.F.F.V.F.s.m.V.F.F.F.F.x.I.Y ",
"Y I.x.F.F.F.F.F.N.N.V.F.F.F.F.F.F.F.V.N.N.F.F.F.F.F.x.I.Y ",
"Y I.x.F.F.F.F.F.F.V.F.F.F.F.F.F.F.F.F.V.F.F.F.F.F.F.x.I.Y ",
"Y I.x.F.F.F.F.F.F.F.F.F.F.F.F.F.F.F.F.F.F.F.F.F.F.N.h.I.Y ",
"Y I.x.F.F.F.F.F.F.V.F.F.F.F.F.F.F.F.F.V.F.F.F.F.N.G.z.I.T ",
"Y I.x.F.F.F.F.F.N.B.V.F.F.F.F.F.F.F.V.B.N.F.F.N.L.>.,.I.I ",
"Y I.x.F.F.F.F.F.d.t.K.N.F.F.F.F.F.N.K.t.d.F.N.L.8.6 r P.R ",
"Y I.x.F.F.F.n.L._ p v.H.V.F.F.F.V.H.v.p _ L.k.L.s o X B ! ",
"Y I.x.F.F.M.L. .o o c S.V.F.F.F.V.S.c o o | L.M.9 8 = h Q ",
"Y I.x.F.M.L.*.+ - 1 o N L.N.F.N.L.N o 1 - O &.L.#.O.[ 2.W ",
"Y I.x.F.N.L.x o , * % 2 5.L.n.L.5.2 % * , o x L.S.1.4.I.Y ",
"Y I.x.F.F.H.u O > # 3 o -.L.j.L.-.o 3 # > O t L.' q 7 :.~ ",
"Y I.x.F.N.L.v o w l o 4 5.L.n.L.5.4 o l w o z L.C $.` } ( ",
"Y I.x.F.V.L.e.Z @.0.V =.L.N.F.N.L.=.V 0.@.Z q.L.) g a +.^ ",
"Y I.x.F.F.C.S.L.J.G.L.G.V.F.F.F.V.G.L.G.J.L.B.K.y.X.e o./ ",
"Y I.u.x.z.x.l.p.a.h.i.f.x.z.x.z.x.f.i.h.a.p.g.Z.w.n y r.E ",
"P I.A.I.I.I.I.I.I.I.I.I.I.I.I.I.I.I.I.I.I.I.I.I.b.;.9.I.L ",
"  K S F F F F F F F F F F F F F F F F F F F F D H U J G . "
};
