/* XPM */
static char *_466_0ebee00394cd012ac4feeb42b8af5e8ccef20cf5799f7af10914082b792d9af6[] = {
/* columns rows colors chars-per-pixel */
"29 43 160 2 ",
"   c black",
".  c #010001",
"X  c #020002",
"o  c #030203",
"O  c #040304",
"+  c #040404",
"@  c #0A080A",
"#  c #0B090B",
"$  c #0B0A0B",
"%  c #111111",
"&  c gray7",
"*  c #131213",
"=  c #161516",
"-  c #181818",
";  c #191919",
":  c #1B1A1B",
">  c #1C1B1C",
",  c #1D1C1D",
"<  c #201F20",
"1  c #232223",
"2  c gray14",
"3  c #262526",
"4  c #2C2B2C",
"5  c #2D2C2D",
"6  c #2E2D2E",
"7  c #2F2E2F",
"8  c #302F30",
"9  c #313031",
"0  c #343434",
"q  c #353535",
"w  c gray21",
"e  c #393839",
"r  c gray23",
"t  c #3C3B3C",
"y  c #3C3C3C",
"u  c #3F3D3F",
"i  c #424142",
"p  c #444344",
"a  c #464646",
"s  c gray28",
"d  c #494949",
"f  c #4F4E4F",
"g  c #505050",
"h  c #565556",
"j  c #575657",
"k  c #5A595A",
"l  c #5D5D5D",
"z  c gray37",
"x  c #636463",
"c  c #686968",
"v  c #696869",
"b  c #6A6A6A",
"n  c #6C6D6C",
"m  c #6F6F6F",
"M  c #6F706F",
"N  c gray50",
"B  c #818181",
"V  c #838383",
"C  c #868686",
"Z  c #8D8C8D",
"A  c #929392",
"S  c #959595",
"D  c gray59",
"F  c #969796",
"G  c #979897",
"H  c #989898",
"J  c gray60",
"K  c #999B99",
"L  c #9B9C9B",
"P  c #9D9E9D",
"I  c #9E9F9E",
"U  c #9F9F9F",
"Y  c #9FA09F",
"T  c #A0A0A0",
"R  c #A0A1A0",
"E  c gray63",
"W  c #A1A2A1",
"Q  c gray64",
"!  c #A5A6A5",
"~  c #A6A7A6",
"^  c #A7A7A7",
"/  c #A7A8A7",
"(  c #A7A9A7",
")  c #AAABAA",
"_  c #ABADAB",
"`  c #ACACAC",
"'  c #AEAFAE",
"]  c #AFAFAF",
"[  c gray69",
"{  c #B1B2B1",
"}  c gray70",
"|  c #B4B5B4",
" . c #B5B6B5",
".. c #B6B7B6",
"X. c #B7B8B7",
"o. c #B7B9B7",
"O. c #B8B9B8",
"+. c #B9BAB9",
"@. c gray73",
"#. c #BABBBA",
"$. c #BCBDBC",
"%. c gray74",
"&. c #BDBEBD",
"*. c #BFC0BF",
"=. c #C0C1C0",
"-. c #C1C2C1",
";. c #C3C3C3",
":. c #C3C4C3",
">. c #C7C8C7",
",. c #C8C9C8",
"<. c #CACBCA",
"1. c #CCCDCC",
"2. c #CDCECD",
"3. c #CECFCE",
"4. c gray81",
"5. c #CFD1CF",
"6. c gray84",
"7. c #D8D9D8",
"8. c gray85",
"9. c #DADADA",
"0. c gray86",
"q. c #DBDCDB",
"w. c gainsboro",
"e. c #E0E1E0",
"r. c #E1E1E1",
"t. c #E2E2E2",
"y. c gray89",
"u. c #E5E6E5",
"i. c #E8E9E8",
"p. c #E9EAE9",
"a. c #EEEFEE",
"s. c #EFEFEF",
"d. c #EEF0EE",
"f. c gray94",
"g. c #F0F1F0",
"h. c #F0F2F0",
"j. c #F2F3F2",
"k. c #F3F5F3",
"l. c #F5F7F5",
"z. c #F6F8F6",
"x. c #F7F9F7",
"c. c #F8F9F8",
"v. c #F9F9F9",
"b. c #F8FAF8",
"n. c #F9FAF9",
"m. c #F9FBF9",
"M. c #FAFBFA",
"N. c #F9FCF9",
"B. c #FAFCFA",
"V. c #FBFCFB",
"C. c #FBFDFB",
"Z. c gray99",
"A. c #FCFDFC",
"S. c #FDFDFD",
"D. c #FCFEFC",
"F. c #FDFEFD",
"G. c #FDFFFD",
"H. c #FEFEFE",
"J. c #FEFFFE",
"K. c white",
/* pixels */
"9 F L / G S D D D D D D D D D D D D D D D D D D D D S J 8 ",
"I K.r.=.v.K.K.K.K.K.K.K.K.K.K.K.K.K.K.K.K.K.K.K.K.K.Z.K.U ",
"^ p.4 j i.G.x.m.x.z.m.n.m.m.m.m.m.n.m.z.x.m.n.m.m.m.l.K.R ",
" .( 2 ^ d.K.D.C.V.H.B.D.D.D.D.D.D.D.B.H.V.C.D.D.D.D.m.K.R ",
"| ) e p B K.z.K.y.;.K.m.D.D.D.D.D.m.K.;.y.K.B.D.D.D.m.K.R ",
"O.K Z } n K.c.F.d O 4.K.B.D.D.D.B.K.4.O d F.D.C.D.D.m.K.R ",
"[ :.> < G K.K.z   X ; w.K.B.D.B.K.w.; X   z K.C.D.D.m.K.R ",
"E K.2.1.k.K.G   # #   y K.C.D.C.K.y   # #   G K.b.D.m.K.R ",
"Y K.e.q.K.G.6   + . @   =.K.z.K.=.  @ . +   6 K.D.D.m.K.R ",
"Q K.7 : u.K.0   f v %   >.K.x.K.>.  % v f   q K.C.D.m.K.R ",
"' x     q K.7...N s #.%.J.D.D.D.J.%.#.s N X.8.K.C.D.m.K.R ",
"] v = 1 u K.A.K.,.o.f.K.C.D.D.D.C.K.f.o.,.K.F.D.D.D.m.K.R ",
"Y K.m k J.D.B.b.H.K.M.m.D.D.D.D.D.m.M.K.H.b.B.D.D.D.m.K.R ",
"T K.a.a.H.C.D.D.B.m.C.D.D.D.D.D.D.D.C.m.B.D.D.D.D.D.m.K.R ",
"E K.M.H.C.D.D.D.D.D.D.D.D.D.D.D.D.D.D.D.D.D.D.D.D.D.m.K.R ",
"R K.b.C.D.D.D.D.C.B.D.D.D.D.D.D.D.D.D.B.C.D.D.D.D.D.m.K.R ",
"R K.m.D.D.D.D.C.V.H.B.D.D.D.D.D.D.D.B.H.V.C.D.D.D.D.m.K.R ",
"R K.m.D.D.D.B.K.t.-.K.m.D.D.D.D.D.m.K.-.t.K.B.D.D.D.m.K.R ",
"R K.m.D.D.C.D.S.s o 2.K.N.D.D.D.N.K.2.o s S.D.C.D.D.m.K.R ",
"R K.m.D.D.C.K.l   X - 0.K.B.D.B.K.0.- X   l K.C.D.D.m.K.R ",
"R K.m.D.b.K.F   $ #   r K.C.A.C.K.r   # $   F K.b.D.m.K.R ",
"R K.m.D.D.K.5   O . @   *.K.z.K.*.  @ . O   5 K.D.D.m.K.R ",
"R K.m.D.C.K.w   g b &   >.K.x.K.>.  & b g   w K.C.D.m.K.R ",
"R K.m.D.C.K.9.@.N a $.*.J.D.D.D.J.*.$.a N @.9.K.C.D.m.K.R ",
"R K.m.D.D.D.F.K.<.#.g.K.C.D.D.D.C.K.g.#.<.K.F.D.D.D.m.K.R ",
"R K.m.D.D.D.B.b.H.K.M.m.D.D.D.D.D.m.M.K.H.b.B.D.D.D.m.K.R ",
"R K.m.D.D.D.D.D.B.m.C.D.D.D.D.D.D.D.C.m.B.D.D.D.D.D.m.K.R ",
"R K.m.D.D.D.D.D.D.D.D.D.D.D.D.D.D.D.D.D.D.D.D.D.D.C.b.K.R ",
"R K.m.D.D.D.D.D.D.D.D.D.D.D.D.D.D.D.D.D.D.D.D.D.C.H.M.K.E ",
"R K.m.D.D.D.D.D.B.m.C.D.D.D.D.D.D.D.C.m.B.D.D.C.H.a.a.K.T ",
"R K.m.D.D.D.B.b.H.K.M.m.D.D.D.D.D.m.M.K.H.b.B.D.J.k m K.Y ",
"R K.m.D.D.D.F.K.,.o.f.K.C.D.D.D.C.K.f.o.,.K.A.K.u 1 = v ] ",
"R K.m.D.C.K.8.X.N s #.%.J.D.D.D.J.%.#.s N ..7.K.q     x ' ",
"R K.m.D.C.K.q   f v %   >.K.x.K.>.  % v f   0 K.u., 9 K.Q ",
"R K.m.D.D.K.6   + . @   =.K.z.K.=.  @ . +   6 G.K.3.6.K.U ",
"R K.m.D.b.K.G   # #   y K.C.D.C.K.y   # #   G K.M.K.Z.K.R ",
"R K.m.D.D.C.K.z   X ; w.K.B.D.B.K.w.; X   z K.K.5.t p h.~ ",
"R K.m.D.D.C.D.F.d O 4.K.B.D.D.D.B.K.4.O d F.c.K.M C c I X.",
"R K.m.D.D.D.B.K.y.;.K.m.D.D.D.D.D.m.K.;.y.K.z.K.n W V I X.",
"R K.m.D.D.D.D.C.V.H.B.D.D.D.D.D.D.D.B.H.V.C.B.K.&.i * _ | ",
"R K.l.m.m.m.n.m.x.z.m.n.m.m.m.m.m.n.m.z.x.m.b.B.j...3 +.{ ",
"U K.Z.K.K.K.K.K.K.K.K.K.K.K.K.K.K.K.K.K.K.K.H.K.s.h A K.P ",
"8 J S D D D D D D D D D D D D D D D D D D D D S H ` ! H 8 "
};
