/* XPM */
static char *_0313_8f371674548d0030e1e5552a7c59556c1a00829533fb62f5a1bfbb28382f89e8[] = {
/* columns rows colors chars-per-pixel */
"29 43 206 2 ",
"   c black",
".  c #010001",
"X  c #010101",
"o  c #020102",
"O  c #020202",
"+  c #030203",
"@  c gray1",
"#  c #040304",
"$  c #040404",
"%  c #040504",
"&  c #060606",
"*  c #070607",
"=  c gray4",
"-  c #0C0B0C",
";  c #0C0C0C",
":  c #0D0C0D",
">  c #0E0D0E",
",  c gray6",
"<  c #131113",
"1  c #141214",
"2  c #161516",
"3  c gray9",
"4  c #191719",
"5  c #1A191A",
"6  c #1C1B1C",
"7  c #1D1B1D",
"8  c #1D1C1D",
"9  c #1E1D1E",
"0  c #1F1D1F",
"q  c gray12",
"w  c #212021",
"e  c #222122",
"r  c #222222",
"t  c #232223",
"y  c gray14",
"u  c #252525",
"i  c #252625",
"p  c #282728",
"a  c #282828",
"s  c #292829",
"d  c #2A282A",
"f  c #2A292A",
"g  c #2A2A2A",
"h  c #2B2A2B",
"j  c #2C2B2C",
"k  c #2E2D2E",
"l  c #302F30",
"z  c #313031",
"x  c #313131",
"c  c #333233",
"v  c #363536",
"b  c #373637",
"n  c #383738",
"m  c gray22",
"M  c #393839",
"N  c #393939",
"B  c #3D3C3D",
"V  c #3E3D3E",
"C  c #403F40",
"Z  c #424142",
"A  c #434243",
"S  c #444344",
"D  c #454445",
"F  c gray27",
"G  c #484848",
"H  c #4E4D4E",
"J  c gray31",
"K  c #515151",
"L  c #525152",
"P  c #555555",
"I  c #575657",
"U  c gray34",
"Y  c #585858",
"T  c gray35",
"R  c gray36",
"E  c #5D5D5D",
"W  c #616061",
"Q  c #686868",
"!  c #6B6A6B",
"~  c #6C6D6C",
"^  c gray44",
"/  c #717071",
"(  c #717171",
")  c #767676",
"_  c gray47",
"`  c #797979",
"'  c #7A797A",
"]  c gray48",
"[  c #7B7B7B",
"{  c gray49",
"}  c gray50",
"|  c #808080",
" . c #818181",
".. c #858685",
"X. c #868686",
"o. c gray53",
"O. c #878887",
"+. c gray54",
"@. c #8A8B8A",
"#. c #8D8C8D",
"$. c #959595",
"%. c gray59",
"&. c #969796",
"*. c #979897",
"=. c gray60",
"-. c #999A99",
";. c #999B99",
":. c #9B9C9B",
">. c #9E9F9E",
",. c #9F9F9F",
"<. c #9FA09F",
"1. c #A0A0A0",
"2. c #A0A1A0",
"3. c gray63",
"4. c #A2A2A2",
"5. c #A4A4A4",
"6. c #A7A7A7",
"7. c #A7A8A7",
"8. c #A7A9A7",
"9. c #AAABAA",
"0. c #ACADAC",
"q. c gray69",
"w. c #B0B1B0",
"e. c gray70",
"r. c #B3B5B3",
"t. c #B4B5B4",
"y. c #B5B6B5",
"u. c #B7B8B7",
"i. c #B8B9B8",
"p. c #B9BAB9",
"a. c #BCBDBC",
"s. c #BEBFBE",
"d. c #BFC0BF",
"f. c #C0C1C0",
"g. c #C2C4C2",
"h. c #C3C4C3",
"j. c #C3C5C3",
"k. c #C4C5C4",
"l. c #C5C6C5",
"z. c #C6C7C6",
"x. c #C8C8C8",
"c. c #C8C9C8",
"v. c #CBCBCB",
"b. c #CBCCCB",
"n. c #CCCDCC",
"m. c #CECECE",
"M. c #CFD1CF",
"N. c #D1D2D1",
"B. c #D1D3D1",
"V. c #D2D2D2",
"C. c #D3D5D3",
"Z. c #D5D6D5",
"A. c gray84",
"S. c #D7D8D7",
"D. c #D9DAD9",
"F. c #DADBDA",
"G. c #DBDCDB",
"H. c #DDDEDD",
"J. c #E1E1E1",
"K. c #E1E2E1",
"L. c #E2E2E2",
"P. c gray89",
"I. c #E3E4E3",
"U. c #E5E7E5",
"Y. c #E7E9E7",
"T. c #E8E9E8",
"R. c #E9EAE9",
"E. c #EAEBEA",
"W. c #EBECEB",
"Q. c gray93",
"!. c #EEEFEE",
"~. c #EEF0EE",
"^. c #F0F1F0",
"/. c #F1F1F1",
"(. c #F1F2F1",
"). c #F1F3F1",
"_. c #F2F3F2",
"`. c #F3F3F3",
"'. c #F3F5F3",
"]. c #F4F4F4",
"[. c gray96",
"{. c #F4F6F4",
"}. c #F5F7F5",
"|. c gray97",
" X c #F6F8F6",
".X c #F7F8F7",
"XX c #F7F9F7",
"oX c #F8F9F8",
"OX c #F9F9F9",
"+X c #F8FAF8",
"@X c #F9FAF9",
"#X c #F9FBF9",
"$X c #FAFBFA",
"%X c #FAFCFA",
"&X c #FAFDFA",
"*X c #FBFCFB",
"=X c #FBFDFB",
"-X c #FBFEFB",
";X c gray99",
":X c #FCFDFC",
">X c #FCFEFC",
",X c #FDFEFD",
"<X c #FDFFFD",
"1X c #FEFEFE",
"2X c #FEFFFE",
"3X c white",
/* pixels */
"z &.:.7.*.$.%.%.%.%.%.%.%.%.%.%.%.%.%.%.%.%.%.%.%.%.$.=.l ",
">.3XJ.f.OX3X3X3X3X3X3X3X3X3X3X3X3X3X3X3X3X3X3X3X3X3X;X3X,.",
"6.R.j I T.<XXX#X+X{.XX#X@X#X#X#X@X#X+X{. X#X@X#X#X#X}.3X2.",
"y.8.y 6.~.3X=X>X=X3X:X=X>X>X>X>X>X>X*X3X,X=X>X>X>X>X#X3X2.",
"t.9.M S  .3XXX3XQ._ Z.3X%X>X>X>X>X>X,XX.u.3X%X>X>X>X#X3X2.",
"i.;.#.e.~ 3X}.3XK   g '.<X=X>X>X+X3X .  - C.3X%X>X>X#X3X2.",
"q.g.9 t *.3XoX3XH   d ].3X=X>X>X@X3X{   > V.3X%X>X>X#X3X2.",
"1.3Xb.z.,X>X=XU D < A Z U.3X=X%X3X] C 7 M n j.3X%X>X#X3X2.",
"<.3XL V `.3X+.  $ o $   Y 3X}.3Xs.  O X +   s 3X>X>X#X3X2.",
"5.W.3 * x.3Xl.@ r ( N   1.3X+X3XY.e = ! J   ( 3X%X>X#X3X2.",
"' u 2 5 ; a.3Xv.0.m -.k.3X>X>X&X3XG.u.G { d.[.2X>X>X#X3X2.",
"| 0 8 f . z.3X3XP.r.A.3X#X>X>X>X%X3X/.u.c.3X%X>X>X>X#X3X2.",
",.3X/ R '.$X>X#X*X3X:X#X>X>X>X>X>X%X$X3X1X+X>X>X>X>X#X3X2.",
",.3X!.!.3X*X>X>X=X#X%X>X>X>X>X>X>X>X=X#X%X>X>X>X>X>X#X3X2.",
"3.3X$X1X%X>X>X>X>X>X>X>X>X>X>X>X>X>X>X>X>X>X>X>X>X>X#X3X2.",
"2.3X+X=X>X>X>X>X>X>X>X>X>X>X>X>X>X>X>X>X>X>X>X>X>X>X#X3X2.",
"2.3X#X>X>X>X>X>X=XXX%X>X>X>X>X>X>X>X>X+X#X>X>X>X>X>X#X3X2.",
"2.3X#X>X>X>X>X>X:X3X,X=X>X>X>X>X>X>X=X3X1X=X>X>X>X>X#X3X2.",
"2.3X#X>X>X>X=X3XI.U z.3X%X>X>X>X>X<X@XQ 4.3X%X>X>X>X#X3X2.",
"2.3X#X>X>X>X#X3XF   q (.<X=X>X>XXX3X)   # m.3X%X>X>X#X3X2.",
"2.3X#X>X>X-X:X3XT   v ^.3X=X>X>X%X3X..  4 N.3X%X>X>X#X3X2.",
"2.3X#X>X=X2X).B b 1 M p S.3X%X=X3XW k 6 c w w.3X%X>X#X3X2.",
"2.3X#X>XoX3XO.  % o $   P 3X}.3Xa.  @ o +   i 2X>X>X#X3X2.",
"2.3X#X>X%X3XS.: g } F   t.3X@X2X_.x , ` E   o.3X%X>X#X3X2.",
"2.3X#X>X>X=X3XK.p.h ,.H.,X>X>X=X3XT.n.B [ D..X<X>X>X#X3X2.",
"2.3X#X>X>X>X#X3XE.M.L.3X#X>X>X>X%X2X`.B.F.3X%X>X>X>X#X3X2.",
"2.3X#X>X>X>X>X%X:X3X,X%X>X>X>X>X>X=X*X3X1X#X>X>X>X>X#X3X2.",
"2.3X#X>X>X>X>X>X=X%X=X>X>X>X>X>X>X>X>X%X=X>X>X>X>X=X+X3X2.",
"2.3X#X>X>X>X>X>X>X>X>X>X>X>X>X>X>X>X>X>X>X>X>X>X%X1X$X3X3.",
"2.3X#X>X>X>X>X>X=X#X%X>X>X>X>X>X>X>X=X#X%X>X>X%X3X!.!.3X,.",
"2.3X#X>X>X>X>X#X*X3X:X#X>X>X>X>X>X%X$X3X1X+X>X$X'.R / 3X,.",
"2.3X#X>X>X>X#X3XP.r.A.3X#X>X>X>X%X3X/.u.c.1X3Xl.. f 8 0 | ",
"2.3X#X>X>X=X3Xm.0.m -.k.3X>X>X&X3XG.u.G { a.3Xd.- 5 2 u ' ",
"2.3X#X>X%X3Xz.@ r ( N   1.3X+X3XY.e = ! J   ^ 3Xc.& 3 W.5.",
"2.3X#X>X+X3X@.  $ o $   Y 3X}.3Xs.  O X +   a 3X|.B L 3X<.",
"2.3X#X>X=X<X=XU D < A Z U.3X=X%X3X] C 7 M n h.3X*Xz.b.3X1.",
"2.3X#X>X>X>X=X3XH   d ].3X=X>X>X@X3X{   > V.3X3X*.t 9 g.q.",
"2.3X#X>X>X>X#X3XK   g '.<X=X>X>X+X3X .  - C.2X3X~ e.#.;.i.",
"2.3X#X>X>X>X=X3XQ._ Z.3X%X>X>X>X>X>X,XX.u.3X X3X .S M 9.t.",
"2.3X#X>X>X>X>X>X=X3X:X=X>X>X>X>X>X>X*X3X,X=X>X3X~.6.y 8.y.",
"2.3X}.#X#X#X@X#X+X{.XX#X@X#X#X#X@X#X+X{. X#XXX<XT.I j R.6.",
",.3X;X3X3X3X3X3X3X3X3X3X3X3X3X3X3X3X3X3X3X3X3X3XOXf.J.3X>.",
"l =.$.%.%.%.%.%.%.%.%.%.%.%.%.%.%.%.%.%.%.%.%.$.*.7.:.&.z "
};
