/* XPM */
static char *_0729_1c445f12c5209e4bb3ff241af836e1e8d5b4d55ce03316e1e2452cfa74fa7c94[] = {
/* columns rows colors chars-per-pixel */
"29 43 186 2 ",
"   c #382E2F",
".  c #2D3027",
"X  c #2C3331",
"o  c #AD1A19",
"O  c #BA1714",
"+  c #BA1A16",
"@  c #BB1C1C",
"#  c #B8181C",
"$  c #AD2019",
"%  c #A6251F",
"&  c #9F1F20",
"*  c #AB1923",
"=  c #BE1E22",
"-  c #9E2E2D",
";  c #953D3C",
":  c #A52021",
">  c #AB2122",
",  c #AE2E2B",
"<  c #B43127",
"1  c #AF3C3F",
"2  c #B83239",
"3  c #D00D06",
"4  c #D40E08",
"5  c #DC0D0A",
"6  c #C9120F",
"7  c #D6100D",
"8  c #C80E19",
"9  c #D80D10",
"0  c #C51413",
"q  c #CF1512",
"w  c #CB1916",
"e  c #C61819",
"r  c #CA1B1A",
"t  c #C01D14",
"y  c #D41312",
"u  c #DB1314",
"i  c #D21D1A",
"p  c #D61B16",
"a  c #E50B0A",
"s  c #E90804",
"d  c #F30C0C",
"f  c #ED120B",
"g  c #E80D13",
"h  c #EA1311",
"j  c #E91A19",
"k  c #CF1925",
"l  c #C62928",
"z  c #D32527",
"x  c #CC312C",
"c  c #C23837",
"v  c #D63C3D",
"b  c #8E484A",
"n  c #AF4B49",
"m  c #B74849",
"M  c #AA514D",
"N  c #BA524F",
"B  c #BF4E54",
"V  c #A4555A",
"C  c #B85454",
"Z  c #926560",
"A  c #A06169",
"S  c #AB6B6B",
"D  c #B1766E",
"F  c #AB6F77",
"G  c #B16A70",
"H  c #B97974",
"J  c #C74847",
"K  c #DB4F4E",
"L  c #CF5E58",
"P  c #CC575F",
"I  c #D85A52",
"U  c #E34F4D",
"Y  c #E45050",
"T  c #E15A5E",
"R  c #CF6055",
"E  c #C0635E",
"W  c #DC615C",
"Q  c #CE5962",
"!  c #E85D60",
"~  c #CD6B6C",
"^  c #DF6B6A",
"/  c #CF706C",
"(  c #D7706B",
")  c #DE6B70",
"_  c #C8777A",
"`  c #D57E7B",
"'  c #DB7573",
"]  c #EA6C65",
"[  c #FD7E7C",
"{  c #F27474",
"}  c #E67A77",
"|  c #D97D82",
" . c #8B948F",
".. c #93938D",
"X. c #94988B",
"o. c #9D958B",
"O. c #8F9297",
"+. c #8F9799",
"@. c #969595",
"#. c #9B9694",
"$. c #929995",
"%. c #959599",
"&. c #959A9A",
"*. c #9B9C9D",
"=. c #9A949A",
"-. c #A79E97",
";. c #A59D9C",
":. c #AB9B9B",
">. c #B49B9B",
",. c #B89E9F",
"<. c #BA9091",
"1. c #9BA39D",
"2. c #A4A29E",
"3. c #AAA19F",
"4. c #9A9EA1",
"5. c #A39DA4",
"6. c #A89EA4",
"7. c #B29AA2",
"8. c #9DA3A1",
"9. c #9BA5A3",
"0. c #A4A2A3",
"q. c #A2A6A9",
"w. c #A9A3A6",
"e. c #B0A3AA",
"r. c #D18C8E",
"t. c #DB958B",
"y. c #C29D9B",
"u. c #E78685",
"i. c #F98583",
"p. c #EC9091",
"a. c #FF969E",
"s. c #FF9E9B",
"d. c #F79596",
"f. c #C5A097",
"g. c #C8A39A",
"h. c #F6A69F",
"j. c #FFA19C",
"k. c #FF9EA1",
"l. c #C6A4A3",
"z. c #DFB0AA",
"x. c #FEA4A4",
"c. c #FFA5AA",
"v. c #FAA6A9",
"b. c #FFAAB0",
"n. c #FFADB8",
"m. c #FFB5B6",
"M. c #FEBDBB",
"N. c #F8B9B6",
"B. c #E6A4A8",
"V. c #FFC6BF",
"C. c #F9BEC2",
"Z. c #FDC5C3",
"A. c #FFCEC7",
"S. c #FFCBCB",
"D. c #F7C7C7",
"F. c #FFD4CF",
"G. c #FFCFD2",
"H. c #FFD6D6",
"J. c #FFDDD6",
"K. c #FFD6DA",
"L. c #FFDDDC",
"P. c #F4DBD7",
"I. c #FFE4DE",
"U. c #FFEADF",
"Y. c #FFDDE4",
"T. c #FFE5E4",
"R. c #FFECE5",
"E. c #FFE5EA",
"W. c #FFECEC",
"Q. c #EFF0EA",
"!. c #FFF1E6",
"~. c #F7F7EB",
"^. c #FFF2ED",
"/. c #F6FEED",
"(. c #FCFBEE",
"). c #FFEDF2",
"_. c #FFEEFA",
"`. c #EFF8F5",
"'. c #F6F5F4",
"]. c #FEF4F3",
"[. c #F5FBF5",
"{. c #FDFCF5",
"}. c #FEF5FB",
"|. c #F6FDFC",
" X c #FDFDFC",
".X c #F7F4FB",
/* pixels */
". 2.:.>.#.@.@.=.$.@.$.&.%.&.X.X.X...*.O.4.%. .&.%.%.=.%.X ",
"-.^.D.H.}. X X X X X X X X X[.{.{. X|. X X X|.|.|. X X X1.",
"y.S C ; P. X X].{. X.X|.`.|. X[.'.[.}. X}.}.[.[.|.{..X X0.",
"<.E.m.' ].[. X X^.{..X X X|. X X X X X_.}.}. X X X X]. X0.",
":.).` x.]. X].].M.K.}.'. X X|. X X{.^.T.C.].^.{.{.{.]. X2.",
"5.}.S F.}. X].Z.> T E.{.}.|. X|.[.^.R.E - M.^.{. X X{. X2.",
"0.].Z ^.{.].L.c 4 6 i.W.].{.{.(.{.).[ 0 u x L.]. X X.X X;.",
":.].H.R.].^.} 0 f 5 2 L.{.{./.(. XS.l a d y ` ]. X X{. X2.",
">.^.( M.].].s.+ f 5 m _.}. X[. X XT.v 5 d q x.]. X X|. X0.",
"f.r.* J W.}.I.I w O n._.{. X X{.}.^.j.+ r U R.{. X X X X0.",
"l.H * 2 Y.}.].T.n p.}.}.}.}.}.}.}.].R.t.M I.].{. X|.|. X0.",
">.].B b._. X X.XT.].}. X}.E.r.E.].^.{.].E.]. X X|.|. X X6.",
":.].U.!.{. X|.|.].].{.(.R.) = ! W.{.{. X}. X X{.|. X X X0.",
"w.'./.{.{. X X X X{.~.(.s.# j w x.^.}. X.X X X X X X|. X0.",
"8. X X{. X X X}.'. X{.I.c y s 4 m T. X.X X X^. X X X|. X2.",
"4. X[. X|. X X X{.}.{.^.a.6 h y p.].].{.^. X X X X X{. X2.",
"9.|.[.{. X.X X_.).).{.}.E.P = K T.{.}.]._.]. X{. X X|. X6.",
"9. X[. X X{.}._._ b.].{.}.K.~ H.].).W.N._ ).]. X X{. X X6.",
"5. X X X X].E.u.+ l V.R.].{.].^.{.W.M.l @ { ^.(. X X|. X9.",
"6. X X'.{.(.m.o h 3 R !.].[.[.{. X^.Y 9 g e M.{. X|.|.|.9.",
"6. X{. X'.^.) r a 7 < I.]. X X{.{.M.t a d y / ^. X|.[. X9.",
"1. X X'. X].H.= 7 i ^ U.{. X X X{.^.] q g z S.]. X X|. X0.",
"1.|. X X[.{.W.v.o J I.]. X X{.].{.^.J.m - s.T.{.{.{. X X0.",
"9.|.|. X{.{.{.).s.Z.{. X|.{. X{.{.(.^.A.B.E.}.].{.{.{. X9.",
"0. X|.[. X X{. X}.]. X|.|. X X X{.}.{.}.}. X X|.{.{.{. Xw.",
"6. X[.|.{.{. X X X X X X X X X X X X X X X|.|.|.]. X]. X4.",
"5. X X{.{. X X X{.{. X X X X X X X X|. X X|.|.|. X].]. X9.",
"2. X X[.{. X X|. X X}. X{.[. X X X X X{. X X X|.{.{. X X8.",
"2.{.[.|. X X X X|. X X{.{.[.|. X X X|.{. X X X|.|.{.~. X9.",
"2. X|. X|. X X X X{.{.[.[.|. X X|.|.{.[.{. X X|. X{.{. X0.",
"-. X|.|.|.|. X X~.{.|.|. X{. X X X X{.].}. X X X].^.T.}.;.",
"0. X|. X|. X X].R.R.{. X X X X X X X^.^.W.]. X{.].N.V E.7.",
"4. X X X X{.{.Y.J i.W.}.|.|. X X[.].W.u.N T.W.}.K.1 o ] y.",
"q.|.|. X{.{.).Q 0 r c.]. X|..X X X).x.@ O I ).].Y.m $ } y.",
"6. X}. X(.!.k.k h 3 J T.{. X X{.{.L.v 5 f 6 c.).}.D.H !.:.",
"w..X X{.].W.{ 8 h 4 , W.].[. X{.}.G.l a s p | }. X{.H.^.7.",
"0. X|. X~.!.E.2 q r u.^.{.[. X[.{.E.[ r y x L.}.}.}.A ).7.",
"0. X|.[.{.].).S.: I W. X X X X{.{.].T.L % m.].{.}.Y.G W.>.",
"2. X X|.|. X}._.D.J.{..X X X{.{. X X].U.D.!.{.^.].z.H ^.:.",
"2. X X X X|. X X{.]. X X X{. X X X X X{.{.(.{.].^.D A.^.:.",
"8. X}.}. X|. X{.{.(.{.{..X X}.].{.|.|.|.}.{.].(.G.b V F e.",
"9. X}. X X X X X{.{. X X X X X X X X X X X X X{.}.G.Z.E.5.",
"X %.@.@.#.@.$.X.o.o.#.@.=.@.&.$.@.@.$.$.@.=.=.=.@.:.:.3.  "
};
