/* XPM */
static char *_1455_8a806d33a70984b33fafe6e4608613c77e294b1158bab9831c310428ad9a0297[] = {
/* columns rows colors chars-per-pixel */
"29 43 198 2 ",
"   c #2A2F19",
".  c #2F2F2F",
"X  c #35322D",
"o  c #292C33",
"O  c #BC1516",
"+  c #B41A1B",
"@  c #BC1B1C",
"#  c #B91A14",
"$  c #B6211A",
"%  c #BD1C21",
"&  c #98393F",
"*  c #A62124",
"=  c #BC2626",
"-  c #B1352D",
";  c #A33638",
":  c #BD3234",
">  c #B93F3E",
",  c #CF0E0F",
"<  c #D70909",
"1  c #C6140F",
"2  c #D3120D",
"3  c #D81507",
"4  c #D80D11",
"5  c #C41515",
"6  c #CB1314",
"7  c #C4141C",
"8  c #CE141B",
"9  c #C31B1C",
"0  c #C91917",
"q  c #D51314",
"w  c #D81514",
"e  c #E70506",
"r  c #ED0202",
"t  c #EF0B05",
"y  c #E30D0C",
"u  c #EC0C0C",
"i  c #E30C02",
"p  c #F10B03",
"a  c #FB0A03",
"s  c #F4050B",
"d  c #FB060C",
"f  c #F60B0D",
"g  c #FA0805",
"h  c #EF100B",
"j  c #F4100F",
"k  c #EA0F19",
"l  c #E60B15",
"z  c #F90A15",
"x  c #EA1615",
"c  c #F91111",
"v  c #C9201C",
"b  c #CC1C24",
"n  c #C42327",
"m  c #D72A2B",
"M  c #D0332E",
"N  c #D12F3E",
"B  c #CB3337",
"V  c #DE3435",
"C  c #E92629",
"Z  c #E52B30",
"A  c #FF3532",
"S  c #B5423F",
"D  c #C7433E",
"F  c #D03940",
"G  c #914349",
"H  c #9D4A52",
"J  c #AC474C",
"K  c #AA524E",
"L  c #B85551",
"P  c #BC6965",
"I  c #B06B70",
"U  c #D24040",
"Y  c #C1504C",
"T  c #D94B50",
"R  c #CD5C57",
"E  c #C8595A",
"W  c #D85759",
"Q  c #D1514B",
"!  c #FC4541",
"~  c #FA4B48",
"^  c #FF504D",
"/  c #ED4D59",
"(  c #FF4D52",
")  c #E85757",
"_  c #CD605B",
"`  c #D9625B",
"'  c #E65B66",
"]  c #C36564",
"[  c #C26966",
"{  c #CE6668",
"}  c #DA6464",
"|  c #CC7D76",
" . c #DE7B7F",
".. c #D67675",
"X. c #EA686D",
"o. c #F16B69",
"O. c #E9726E",
"+. c #EC6E71",
"@. c #E57174",
"#. c #FA787A",
"$. c #E3827A",
"%. c #B67C80",
"&. c #CE7C82",
"*. c #EF7685",
"=. c #93948F",
"-. c #8E9A90",
";. c #949495",
":. c #9A9493",
">. c #949992",
",. c #94959A",
"<. c #9A9599",
"1. c #9C9B9A",
"2. c #979998",
"3. c #A79B94",
"4. c #AB9E96",
"5. c #A49D9D",
"6. c #A99D9D",
"7. c #A7979E",
"8. c #BA9C9D",
"9. c #B59B9B",
"0. c #A5948C",
"q. c #9DA39D",
"w. c #A2A39C",
"e. c #A6A394",
"r. c #9499A3",
"t. c #9E9EA4",
"y. c #A29EA2",
"u. c #AB9DA3",
"i. c #9DA3A3",
"p. c #95A5A4",
"a. c #A3A2A2",
"s. c #A9A5AA",
"d. c #B4AEAE",
"f. c #AEA9B0",
"g. c #D68585",
"h. c #DD8D90",
"j. c #C39C94",
"k. c #CB9898",
"l. c #EB8D8D",
"z. c #FA8787",
"x. c #E1908D",
"c. c #FF928D",
"v. c #EA9B99",
"b. c #FF9495",
"n. c #FF9A9A",
"m. c #F9969A",
"M. c #C5A09A",
"N. c #EEA09E",
"B. c #D8B3B5",
"V. c #E0A2A7",
"C. c #FFA4A5",
"Z. c #FFACAD",
"A. c #FFA0AE",
"S. c #FCB6AC",
"D. c #FFAFB5",
"F. c #FFB3B2",
"G. c #FEB9B5",
"H. c #FEB3BA",
"J. c #FFBCBB",
"K. c #F6BFBC",
"L. c #E5B6BC",
"P. c #FFC2BD",
"I. c #FFC8BE",
"U. c #FFBEC3",
"Y. c #EFC5C9",
"T. c #FFC6C2",
"R. c #FFCDC5",
"E. c #FFC6CB",
"W. c #FFCCCA",
"Q. c #F4C7CA",
"!. c #FFD4CC",
"~. c #FFD0C4",
"^. c #FDCFD5",
"/. c #FFD3D3",
"(. c #FFDBDC",
"). c #FFD9DA",
"_. c #FFE1DC",
"`. c #FFE9DF",
"'. c #FFDDE5",
"]. c #FFE5E4",
"[. c #FFECE5",
"{. c #FFE7EA",
"}. c #FFEDEC",
"|. c #EFF6E6",
" X c #FFF2EC",
".X c #FEFBEE",
"XX c #F6F6E9",
"oX c #FFEEF3",
"OX c #FFEDF9",
"+X c #EEFCF4",
"@X c #F5F6F3",
"#X c #FEF4F4",
"$X c #F5FCF5",
"%X c #FDFBF5",
"&X c #F7F6FA",
"*X c #FDF6FA",
"=X c #F6FDFC",
"-X c #FDFDFC",
/* pixels */
"  e.u.9.7.;.:.;.,.r.2.,.r.r.>.=.>.>.=.<.>.>.-.-.<.<.;.>.X ",
"e.#XY.^.{.*X-X-X-X%X-X-X-X=X-X%X%X-X-X-X-X%X-X-X-X-X=X=Xw.",
"d.B.G H k.#XoX}.$X$X@X%X&X%X%X%X&X*X-X-X&X&X-X*X-X=X$X=Xq.",
"f.oX]...Q.#X[. X X#X[. X-X#X-X#X%X*XoXOXOXOX*X*X-X-X$X=Xw.",
"7.*XU.] }. X!.$.C.^.@.F. X*X-X*X}.J.$.T.A.*.'.#X#X%X%X%X5.",
"5.#Xh.v.#X X` $ F / b = !.-X*X*X^.; $ ^ C b { oX*X-X%X-Xw.",
"1.#X%.V.*X XM i k l j 6 G.#X-XOXH.+ w i t 3 S }.%X=X%X-Xw.",
"4.#X).'.*X[./ y f s p v /.-X*X*XE.= 3 p p < } [.-X=X%X-Xw.",
"j.R.b.b.D.{.Z.@ u f 2 o.oX-X-X*XoX@.w t h 1 G.-X-X-X=X-Xa.",
"M.P = N & oX{.n.5 q Q _.oX*X-X*XoX].) 6 5 b. X*X-X-X=X-Xa.",
"j.| # O L #X#X X$.L [..X[.}.XX[. X[.].K x. X}.-X=X-X=X-Xu.",
"9.[.B : /.*XXX%X X!..X.X] R G._ [ _. X[.#X#X-X-X-X-X=X-Xa.",
"4.#X~.T.#X-X-X-X#X#X#Xg.n < A w O *.[.%X-X=X$X=X%X-X*X-Xi.",
"y.-X X%X*X=X-X%X-X#X&X*.4 a a f w #. X@X-X-X-X%X%X%X-X-Xa.",
"i.-X#X*X-X=X=X-X-X%X#XG.6 s g u O C.#X-X=X-X-X%X%X-X-X-Xa.",
"q.-X*X-X-X=X-X-X%X%X-XoX' q u 6 ` [.%X$X-X-X-X-X%X-X%X-Xi.",
"i.-X=X-X=X-X-X$X%X%X=X*X].E n T [.#X#X-X&X*X-X-X%X-X&X-Xa.",
"a.-X-X-X-X*X#X#X X[.#XoX#X].{ /.#X*X#X}.#X}.*X-X-X%X-X-Xa.",
"w.-X@X-X=X*XE.} c.J.W C.}.[..X[.].Z.W F.z.{ /.#X%X%X=X-Xa.",
"w.-X@X-X-XOXW 5 m ! q @ /.-XXX#XW.* 5 ! C @ ] [.%X%X-X-Xs.",
"w.-X.X-X=X#XF 2 y e c 5 P.*X*XoXH.@ x r p q J [.*X-X=X-Xa.",
"a.&X-X%X-X#X) 2 f d t M !.*X-XOXT.B y g p 2 }  X*X-X-X-Xa.",
"y.-X%X%X$X#XT.% l z 6 +.#X*X-X&X#X$.5 u y 9 P.*X-X=X&X-Xi.",
"a.-X-X-X-X#X[.D.b 7 X.}.#X-X=X-X#X[.o.9 n C. X%X=X=X-X-Xi.",
"y.-X=X-X*X%X%XoXv.[ [.%X*X-X-X-X*X#X[.P v.}.oX-X-X-X*X-Xs.",
"a.-X=X-X-X-X-X%X X[.%X=X-X%X=X-X-X-X#X].#X*X-X-X*X-X-X-X2.",
"y.-X$X=X=X-X-X-X.X%X$X-X%X-X-X%X-X-X*X-X&X-X=X=X-X-X$X%Xp.",
"u.-X=X$X=X=X=X=X%X|.%X-X&X-X-X-X%X%X-X&X=X=X=X-X%X%X%X-Xi.",
"u.-X%X%X=X=X-X-X-X%X%X-X-X$X-X-X%X-X$X-X-X-X=X-X.XXX.X-Xa.",
"u.-X&X%X%X=X-X-X#X%X#X%X-X-X-X%X$X-X*X=X-X=X-X%X.X.X#X*Xu.",
"p.-X%X-X=X=X-X-X-X*X-X-X-X-X%X$X-X%X-X-X*X-X%X%X[.~.E.OXu.",
"p.-X%X%X%X%X-X*X{.].*X-X-X%X=X=X%X*XoX].#X%X-X#X/.& J {.8.",
"p.=X-X-X$X%X XoX$.T }.*X-X-XXX%X=X*X(.Y l.[. X XT 8 7 X.j.",
"q.-X&X$X%X#X Xn.q w E oXoX*X%X-X*X[.) 5 + n. X[.: m b W M.",
"u.-X%X-X+X XF.7 i f q X.oX-X-X#X[.O.2 k k 7 G. XS.C.v.!.8.",
"u.-X%X=X=X#X) , t p t b ^.*X-X%XR.@ y d d 4 R `.}.].(.oX9.",
"y.-X%X%X-XOXN k u f g 6 J.-X-X XS.# x r d 4 D `. XB.%.oX0.",
"1.-X$X$X-XOX' 7 V ~ w n ^.*X%X.XI.- 9 ( Z # _ ].}.k.k.#X3.",
"a.$X$X-X=X-X'.g.S.R...P. X%X%X.X#XK.| W.Z.g.[. X}.I Q.*Xa.",
"i.-X$X=X=X-X*X#X.X%X X#X-X%X%X%X%X#X%X#XoX#X#X#XU.&.{.#Xy.",
"a.-X*X*X-X*X%X X@X.X*X*X*X-X&X%X*X%X X X#X#X#X Xg.J G L.f.",
"t.-X*X-X-X-X-X-X-X=X-X-X-X-X-X-X-X-X-X-X-X-X-X%X_.T.U.#Xs.",
". <.:.:.:.:.<.<.:.>.,.,.,.,.>.>.,.,.;.,.,.,.;.:.3.4.5.y.o "
};
