/* XPM */
static char *_1478_336b1a8da9469856c33aa21a53de24382cc1fbd0439f5723cfb33899672ceb8a[] = {
/* columns rows colors chars-per-pixel */
"29 43 183 2 ",
"   c black",
".  c #010101",
"X  c #020202",
"o  c gray1",
"O  c #040404",
"+  c gray2",
"@  c #060606",
"#  c #070707",
"$  c gray3",
"%  c #090909",
"&  c gray4",
"*  c #0B0B0B",
"=  c #0C0C0C",
"-  c gray5",
";  c #0E0E0E",
":  c gray6",
">  c #111111",
",  c gray7",
"<  c #131313",
"1  c gray8",
"2  c #151515",
"3  c #161616",
"4  c gray9",
"5  c #181818",
"6  c gray10",
"7  c #1B1B1B",
"8  c gray11",
"9  c #232323",
"0  c gray15",
"q  c gray16",
"w  c #2A2A2A",
"e  c gray17",
"r  c #2C2C2C",
"t  c #2D2D2D",
"y  c #2F2F2F",
"u  c gray19",
"i  c #323232",
"p  c gray20",
"a  c #343434",
"s  c #353535",
"d  c gray22",
"f  c #393939",
"g  c #3A3A3A",
"h  c gray23",
"j  c gray24",
"k  c gray25",
"l  c #414141",
"z  c #434343",
"x  c gray27",
"c  c #464646",
"v  c gray28",
"b  c #484848",
"n  c #494949",
"m  c gray29",
"M  c #4B4B4B",
"N  c #4E4E4E",
"B  c gray31",
"V  c #555555",
"C  c gray34",
"Z  c #585858",
"A  c gray35",
"S  c #5D5D5D",
"D  c #5F5F5F",
"F  c #606060",
"G  c gray38",
"H  c #626262",
"J  c gray39",
"K  c #656565",
"L  c gray40",
"P  c #686868",
"I  c DimGray",
"U  c gray42",
"Y  c #6C6C6C",
"T  c gray43",
"R  c gray44",
"E  c #727272",
"W  c gray45",
"Q  c #767676",
"!  c gray47",
"~  c #7B7B7B",
"^  c #7C7C7C",
"/  c gray49",
"(  c #808080",
")  c #818181",
"_  c #848484",
"`  c gray52",
"'  c #868686",
"]  c #898989",
"[  c gray57",
"{  c #929292",
"}  c #939393",
"|  c gray58",
" . c #959595",
".. c gray59",
"X. c #979797",
"o. c #989898",
"O. c gray60",
"+. c #9A9A9A",
"@. c #9B9B9B",
"#. c gray61",
"$. c #9D9D9D",
"%. c gray62",
"&. c #9F9F9F",
"*. c #A0A0A0",
"=. c gray63",
"-. c #A2A2A2",
";. c gray64",
":. c #A4A4A4",
">. c #A5A5A5",
",. c gray65",
"<. c #A7A7A7",
"1. c gray67",
"2. c #ACACAC",
"3. c gray68",
"4. c #AEAEAE",
"5. c #AFAFAF",
"6. c #B1B1B1",
"7. c #B2B2B2",
"8. c #B4B4B4",
"9. c #B6B6B6",
"0. c gray72",
"q. c #B9B9B9",
"w. c gray73",
"e. c #BBBBBB",
"r. c #BCBCBC",
"t. c gray74",
"y. c gray",
"u. c gray75",
"i. c #C0C0C0",
"p. c #C1C1C1",
"a. c #C3C3C3",
"s. c gray77",
"d. c #C5C5C5",
"f. c #C6C6C6",
"g. c gray78",
"h. c #C8C8C8",
"j. c gray79",
"k. c #CACACA",
"l. c #CBCBCB",
"z. c gray80",
"x. c #CDCDCD",
"c. c #CECECE",
"v. c gray81",
"b. c #D0D0D0",
"n. c gray82",
"m. c #D2D2D2",
"M. c LightGray",
"N. c gray83",
"B. c #D5D5D5",
"V. c gray84",
"C. c #D7D7D7",
"Z. c #D8D8D8",
"A. c #DADADA",
"S. c gray86",
"D. c #DDDDDD",
"F. c gray87",
"G. c #DFDFDF",
"H. c gray88",
"J. c #E1E1E1",
"K. c gray89",
"L. c gray90",
"P. c #E6E6E6",
"I. c #E7E7E7",
"U. c gray91",
"Y. c #E9E9E9",
"T. c #EAEAEA",
"R. c #EFEFEF",
"E. c gray94",
"W. c #F1F1F1",
"Q. c gray95",
"!. c #F3F3F3",
"~. c #F4F4F4",
"^. c gray96",
"/. c #F6F6F6",
"(. c gray97",
"). c #F8F8F8",
"_. c #F9F9F9",
"`. c gray98",
"'. c #FBFBFB",
"]. c gray99",
"[. c #FDFDFD",
"{. c #FEFEFE",
"}. c white",
/* pixels */
"e &.>.<.$.} .. .X.....X.X.o.} ..} $.[  .O.X.X.{ ..o.|  .p ",
",.[.g.x.R.].}.].}.'.[.}.[.[.}.}.}.).}.}.'.{.}.}.}.}.{.}.-.",
"8.1.4 9 ! '.~.[.).(.`./.'.'.]./.).).'.(.'.`.^.].).`.(.].*.",
";.).!.P h.}.(.{.`.}.`.{.}.'.'.}.[.}.~.}./.`.}.'.[.{.`.}.:.",
"$.{.n.n {./.[.[.K.s.}./.).}.).}.'.].{.p.P.}.{.'.[.[._.{.-.",
"%.}./ ] }.(.{.}.M   m.}._._.}.`.].{.c.+ b ].`.}.[.{.`.}.;.",
"+.}.G -.}.].{.A X . 1 V.}.(.].{.].D.7 .   H }.^.].[.`.}.-.",
"=.[.P.!.'.[.o.X % % @ d [.}._.[.}.g   * $ . X.}.`.]._.{.=.",
"*.}.S.B.}.'.t   X . + X a.`.[.[.i.. &   $   r }.].{.`.{.-.",
",.].p 6 Y.}.f   B I 2   l.}.!.}.h.  = T n . p }.].{.`.{.-.",
"3.K   X u _.F.9.) x 0.u.{.`.[._.{.i.w.c ( 8.D.{.].{.`.{.-.",
"5.L 3 9 k }.'.}.d.e.(.(.].{.[.].`.`.W.y.k.}.[.{.].{.`.{.-.",
"*.}.T C }._.).[.[.].`.`.}.L.G T.}.~.].].'./.`.{.].{.`.{.-.",
"*.{.W.W.[.{.{.`.{.'.`.}.~.x . z ~.}.{.'.].[.}._.].{.`.{.-.",
";.'.'._.}.{.).{.'.'.{.}.V O & O C }.`.{.[.{.).{.].{.`.{.-.",
"*.}.(.{.`._.}.].'.}.{.7.O @ X $ . 7.}.].'.}.].}.].{.`.{.-.",
"*.}.].[.].}.'.[.`._.{.R   % > @   W {.^.}._.{.].].[.`.{.-.",
";.[.).].].'.}.`.}.^.}.7.$ D ` J * 6.[.]._.{.`.}.].[.`.{.-.",
"-.}.`.}.].}.`.}.Z.6._.`.`.d.e i.}.!.}.2.F.}.}.).].[.`.{.-.",
"@.}./.].}./.}.(.s   a.}.`.(.'.(.{.}.t.  s Q.[.[.].[.`.{.-.",
"<.'.}.}._.}.'.v . O = j.}.{.{.]._.v.-   @ N [.}.].[.`.{.-.",
";.'./._.[._._ & $ - X e ].]./.{.}.w . ; %   ' }.].[.`.{.-.",
"-.}._.].[.}.t   o   o @ i.].].}.y.  * . X o q [.].[.`.{.-.",
"*.}.].].[.{.h O S ~ <   c.{._.{.v.. 1 Q S   x [.].[.`.{.-.",
";.}._.].}.).I.C.^ h z.V.}.`.}.`.].A.l.j ( m.P.{.{.^.'.}.#.",
"&.}.'.[.}.}.}.[.H.n.(.}./.}.).}.{._.^.b.S.}.`.[.}.}.^.}.=.",
"-.}.'.'.].[.].'.(.}.}._.}.`.}.[.}.{._.}.[._.[.}.{.].(.'.,.",
"=.}.'.{.}.{.'._.[.{.'.].{.].}.]._.{.[.).}.'.{.`._.{.`.}.@.",
"&.}.].{.[.].}.}.[.[.'.}.(.{.`.{.[.[._.}.].}.`.}.`.}./.].>.",
"-.}.`.].].`._.`.'.].].`.}.`.}.[.'.}.[.}.!.{.}.(.}.Y.R.].=.",
";.{.(.[.}.}.]._.}.'.[.[.{.[.].].}.~.).}.}.(.).}.}.Z E }.%.",
"=.}.`.[.[.].[.}.g.r.R.`.}.].'.{.).}.E.0.j.}.[.{.j 0 1 P 6.",
"&.}.).}._.[.F.q.) x r.i.`.}.].{.[.t.t.l ) e.M.}.i O   J 8.",
">.`.].}.[.{.p   N U :   b.].`.}.k.  , Y m   p }.U.6 a {.:.",
"$.}.{./.}.}.e + X   & @ y.}.^.[.i.  $ X @   t [.{.C.A.'.=.",
":.}.{._.^.[.@.  : % O h '.{.'.}.}.j   $ o o $.].).L.`.{.=.",
"-.'.).}.}.}.[.F     5 G.}./.`.{.'.H.5 . # A {.`.}.M a.{.#.",
"&.}.).`.[./.}.{.M X N.'.].}.[._.[.[.M.  M '.`.}.(.B A.}.$.",
"=.}.{.}.[.}.(.}.J.j.).`.[._.`.}.'._.{.j.H.}.).{.z.m }.}.>.",
"-.}./.'.{._.}.'.].}._.}.'.}.}.[.].}.).[.}.`._.}.W 4.Q.}.&.",
"*.}.~._.[._.`.`._._._._.`.`.`.`._._._._._._._._.q d 8 }.,.",
"&.}.'.}.}.{.}.}.}.}.}.}.}.}.}.}.}.}.}.}.}.}.}.}.S.f.A.).&.",
"y o.| ....| ....................................;.<.>.#.r "
};
