/* XPM */
static char *_1465_c1583eec96e6282d0c43c9b497b0fc8e9fc160d5f54db2042f584514fac9e3a3[] = {
/* columns rows colors chars-per-pixel */
"29 43 197 2 ",
"   c black",
".  c #010101",
"X  c #020202",
"o  c gray1",
"O  c #040404",
"+  c gray2",
"@  c #060606",
"#  c #070707",
"$  c gray3",
"%  c #090909",
"&  c gray4",
"*  c #0B0B0B",
"=  c #0C0C0C",
"-  c gray5",
";  c #0E0E0E",
":  c gray6",
">  c #111111",
",  c gray7",
"<  c #131313",
"1  c #151515",
"2  c #161616",
"3  c gray9",
"4  c #181818",
"5  c #1B1B1B",
"6  c gray11",
"7  c #1D1D1D",
"8  c #1E1E1E",
"9  c gray12",
"0  c #202020",
"q  c gray13",
"w  c #222222",
"e  c #232323",
"r  c gray14",
"t  c #252525",
"y  c #272727",
"u  c gray17",
"i  c #2C2C2C",
"p  c gray18",
"a  c #2F2F2F",
"s  c #313131",
"d  c #323232",
"f  c gray20",
"g  c #353535",
"h  c gray21",
"j  c #373737",
"k  c #393939",
"l  c #3A3A3A",
"z  c gray23",
"x  c #3C3C3C",
"c  c #3F3F3F",
"v  c gray25",
"b  c #414141",
"n  c gray26",
"m  c #434343",
"M  c #444444",
"N  c gray27",
"B  c #464646",
"V  c #484848",
"C  c #494949",
"Z  c gray29",
"A  c #4B4B4B",
"S  c #4C4C4C",
"D  c #4E4E4E",
"F  c gray31",
"G  c #505050",
"H  c gray33",
"J  c #555555",
"K  c #585858",
"L  c #5A5A5A",
"P  c gray36",
"I  c #5D5D5D",
"U  c #606060",
"Y  c gray38",
"T  c #626262",
"R  c gray39",
"E  c #656565",
"W  c #676767",
"Q  c DimGray",
"!  c #6A6A6A",
"~  c #6D6D6D",
"^  c gray43",
"/  c #6F6F6F",
"(  c #717171",
")  c #727272",
"_  c #747474",
"`  c #767676",
"'  c #777777",
"]  c #797979",
"[  c gray48",
"{  c #7B7B7B",
"}  c #7C7C7C",
"|  c gray49",
" . c #7E7E7E",
".. c gray50",
"X. c #808080",
"o. c #818181",
"O. c #838383",
"+. c #848484",
"@. c gray52",
"#. c #868686",
"$. c #888888",
"%. c #8B8B8B",
"&. c gray55",
"*. c #8D8D8D",
"=. c #929292",
"-. c #939393",
";. c gray58",
":. c #959595",
">. c gray59",
",. c #979797",
"<. c #989898",
"1. c #9A9A9A",
"2. c gray61",
"3. c #9D9D9D",
"4. c gray62",
"5. c #9F9F9F",
"6. c #A0A0A0",
"7. c gray63",
"8. c #A2A2A2",
"9. c gray64",
"0. c #A4A4A4",
"q. c #A5A5A5",
"w. c gray65",
"e. c #A7A7A7",
"r. c gray66",
"t. c #AAAAAA",
"y. c gray67",
"u. c gray68",
"i. c gray69",
"p. c #B1B1B1",
"a. c #B2B2B2",
"s. c gray70",
"d. c gray71",
"f. c #B6B6B6",
"g. c gray72",
"h. c #B9B9B9",
"j. c gray73",
"k. c #BBBBBB",
"l. c #BCBCBC",
"z. c gray75",
"x. c #C0C0C0",
"c. c #C1C1C1",
"v. c #C3C3C3",
"b. c gray77",
"n. c #C5C5C5",
"m. c #C6C6C6",
"M. c gray78",
"N. c #C8C8C8",
"B. c gray79",
"V. c #CACACA",
"C. c #CBCBCB",
"Z. c gray80",
"A. c #CDCDCD",
"S. c #CECECE",
"D. c #D0D0D0",
"F. c #D2D2D2",
"G. c LightGray",
"H. c gray83",
"J. c #D5D5D5",
"K. c gray84",
"L. c #D8D8D8",
"P. c #DADADA",
"I. c gray86",
"U. c gainsboro",
"Y. c #DDDDDD",
"T. c gray87",
"R. c #DFDFDF",
"E. c #E2E2E2",
"W. c gray89",
"Q. c #E4E4E4",
"!. c gray90",
"~. c #E6E6E6",
"^. c #E7E7E7",
"/. c gray91",
"(. c #E9E9E9",
"). c #EAEAEA",
"_. c gray92",
"`. c #ECECEC",
"'. c gray93",
"]. c #EEEEEE",
"[. c #EFEFEF",
"{. c gray94",
"}. c #F1F1F1",
"|. c gray95",
" X c #F3F3F3",
".X c #F4F4F4",
"XX c gray96",
"oX c #F6F6F6",
"OX c gray97",
"+X c #F8F8F8",
"@X c #F9F9F9",
"#X c gray98",
"$X c #FBFBFB",
"%X c gray99",
"&X c #FDFDFD",
"*X c #FEFEFE",
"=X c white",
/* pixels */
"u 6.w.q.4.-.>.,.;.>.=.,.>.:.3.-.-.,.<.;.=.1.>.>.:.,.:.>.d ",
"r.+XN.V.{.%X=X*X=X=X=X&X$X*X&X*X=X=X%X=X=X+X=X$X*X*X%X=X6.",
"s.y.4 e ' =X|.%XOX.X{.=X@X=X X&X#X#X+X}.#X@X$X*X$X#X+X*X7.",
"0.$X|.Q N.*X*X$X$X=X=X+X&X*X&X#X*X#X=X=XoX&X=X+X*X%X@X=X9.",
"4.*XS.V *X=XoX=X{._ F.=X.X*X=X&X$X*X#X*.h.#X%X=X%X%X@X*X6.",
"3.%X+.O.=X$X+X=XF o u XX=X&XXX=X@X=X..  % L.$X*X*X*X&X=X8.",
"4.*XR t.@X*X$X%XS . y |.=X@X=X$X%X&XX.. > D.=X@X$X$X@X=X6.",
"7.=XI.^.=X$X@XP N > M c !.=X&X#X&X{ c 6 g h n.=X&X%X@X=X7.",
"6.=XA s  X=X*.  o O O   J =X#X#Xx.  X . X O r =X%X*X#X*X8.",
"q.).3 & n.%Xx.@ 9 / l   e.=X{.=X~.w - W G o ^ =X%X*X#X*X8.",
"` y 2 1 * c.=XS.p.x 1.v.*X#X*XOX=XU.f.C  .g.%XOX%X*X#X*X8.",
" .r 1 p   b.*X%XT.d.K.=X=XXX=X*XOX=X{.f.b.=X#X=X%X*X#X*X8.",
"7.$X( I [.+X=X$X$X=X*X#X*XOXa K =X@X%X=X=X.X@X=X%X*X#X*X8.",
"7.%X.X'.=X=X$XOX=XOX@XoX*X| X   u.*XOXoX$X=X%X@X%X*X#X*X8.",
"6.=XoX=XXXOX=X=X$X*X=X*X}.>.; q y.$X&X*X#X%X=X*X%X*X#X*X8.",
"7.*X@X%X=X&X%X%X&X*X#X%Xb % 4 5   E =X#X=X$X=X#X%X*X#X*X8.",
"6.=XoX&X@X=X@X*X*XoX*XH.  o $ -   1 {.=X@X$X=X%X%X&X#X*X8.",
"7.=X@X=X=X$X=X%X%X&X$X&X| p &.} 0 q.%X%X$X=XoX=X%X&X#X*X8.",
"9.=X+X=X&X&X+X=XW.K B.=X+XOXB / #X=XXX! 6.=X=X&X%X&X#X*X8.",
"4.&X%X*X%X=X$X=Xn O 4 oX&X%X*X&X+X=X]   @ Z.#X$X%X&X#X*X8.",
"q.=X$X*XoX*X*X#XP   z ].$X&X$X&X#X%X#.o 1 K.=X#X%X&X#X*X8.",
"6.&X#X@X=X=X].n j , k 0 R.=X X=X=XT i 4 d 8 i.&X%X&X#X*X8.",
"5.=X@X=XoX=X$.  X o + O H &X&X$Xl.X o o O o w =X%X&X#X*X8.",
"9.&X@X=X$X%XU.* i | B   a.=X#X=X Xp > ' L . #.=X%X&X#X*X8.",
"6.=X%X%X%X=XOX/.j.u <.E.%X&X=XOX=X(.A.x [ P.oX*X=X#X#X=X8.",
"7.*X#X&X*X=X*X@X_.F./.#XOX=XOX=X+X=X XD.I.=X#X&X%X%XoX=X4.",
"9.&X@X*X&X%X*X=X*X&X@X=X&X&X$X@X=X%X X=X=X$X%X*X&X=X#X@X0.",
"8.&X#X=X&X@X$X&X&X@X=XOX=X$X&X&X$X%X=X%X#X#X=X#X#X$X+X=X7.",
"7.*X#X*X*X&X*X&X&X+X=X=X$X&X@X=X*X&X%X=X%X=X@X%X$X=X&X$X0.",
"8.=X#X%X$X*X=X%X*X$X@X*X*X*X$X#X#X=X#X+X@X=X=X&X=X].`.=X5.",
"8.=X#X%X$X$X%X$X#X=X*X|.=X&X&X=X*X+X*X*X=X}.#X$X XT ~ %X8.",
"6.&X$X=X*X%X&X*XQ.s.J.=X@X#X*X$X%X=X{.j.m.=X=Xn.. r q 5 ..",
"5.=X#X&X*X@X=XC.u.l 2.m.%X&X&X$X=XY.d.C { z.=Xx.& 3 < t { ",
"0.@X@X#X=X$XV.O 5 ) f . e.$XOX=X(.6 : ^ A   ( &XV.= 1 '.8.",
"6.=X%X$X#X=X@.  @ # +   J =X+X%Xx.. .   o + y =X.Xd Z =X5.",
"6.#X=X#X&X*X$XP N * v m ~.=X&X$X*X} z 7 x g x.=X#X_.T.%X8.",
"7.=X+XOX$X$X=X@XD o u |.=X*X#X=X+X=X .X % F.=X%X=Xe.U *X5.",
"6.+X*X=X$X=X@X=XG   i  X$X&X=X@X&X&XX.  ; F.=X.X&X$.o.=X2.",
"9.=X$X$X%X&XoX*X].} G.=X#X=X=X*X&X@X%X%.k.=XoX=X*XF B.=Xq.",
"7.&X+X$X=X*X%X*X$X=X#X=X&X%X@X*X&X=X%X#X=X+X=X%XM.Y +X$X5.",
"6.=X.X@X&X@X#X#X+X+X+X@X@X#X#X#X$X#X+XOXOX+X#X$X] w 3 y.p.",
"5.=X$X=X=X*X=X=X*X*X*X=X=X=X=X=X=X=X*X*X*X*X=X=X`.S.m.#Xy.",
"a <.;.>.>.;.>.>.:.:.>.>.>.>.>.>.:.:.>.>.>.>.:.:.3.w.w.7.u "
};
