/* XPM */
static char *_0197_2f22c6de2acf483287d606bf5cd4d051108a59b9873c8e7f9694d1f475201060[] = {
/* columns rows colors chars-per-pixel */
"29 43 138 2 ",
"   c #302E2F",
".  c #302F30",
"X  c #F90000",
"o  c #FC0000",
"O  c #FC0001",
"+  c #FC0002",
"@  c #FC0102",
"#  c #FC0203",
"$  c #FC0304",
"%  c #FC0405",
"&  c #FC0406",
"*  c #FC0707",
"=  c #FC0708",
"-  c #FC0709",
";  c #FC0809",
":  c #FC080A",
">  c #FC090B",
",  c #FC0A0B",
"<  c #F90D0F",
"1  c #FC1515",
"2  c #FC1D1D",
"3  c #F92627",
"4  c #FC2627",
"5  c #F52E2F",
"6  c #F92A2B",
"7  c #FC2C2C",
"8  c #FC2F2F",
"9  c #F93132",
"0  c #FC3031",
"q  c #FC3536",
"w  c #FC393A",
"e  c #FC3D3D",
"r  c #FC4040",
"t  c #FC4546",
"y  c #FC4848",
"u  c #FC4A4A",
"i  c #FC4F50",
"p  c #FC5152",
"a  c #FF5353",
"s  c #FC5758",
"d  c #FF5B5B",
"f  c #FC5E5E",
"g  c #FF605F",
"h  c #FF6262",
"j  c #F96566",
"k  c #FF6D6D",
"l  c #FC6E6E",
"z  c #FF7575",
"x  c #FF7B7B",
"c  c #FC7D7D",
"v  c #959595",
"b  c #969494",
"n  c gray59",
"m  c #969F9E",
"M  c gray60",
"N  c #999D9C",
"B  c #9F9F9F",
"V  c #9FA3A3",
"C  c #95A8A7",
"Z  c #A0A0A0",
"A  c #A0A1A0",
"S  c #A0A1A1",
"D  c #A0A2A1",
"F  c #A0A4A3",
"G  c #A0A5A5",
"H  c #A0AAA9",
"J  c #A0ADAD",
"K  c #A0AEAE",
"L  c #A0AFAE",
"P  c #A0AFAF",
"I  c #FC8A8A",
"U  c #FC9C9C",
"Y  c #FCA1A0",
"T  c #FCA9A9",
"R  c #FCAEAD",
"E  c #FCB0AF",
"W  c #FCB6B6",
"Q  c #FCBABA",
"!  c #FCBBBB",
"~  c #FCBEBC",
"^  c #FCBFBE",
"/  c #F9C3C2",
"(  c #FCC2C1",
")  c #FCC5C3",
"_  c #FCCACA",
"`  c #FCCECC",
"'  c #FCCDCE",
"]  c #FCCECF",
"[  c #FCD1CF",
"{  c #FCD4D3",
"}  c #FCD8D6",
"|  c #FCD9D8",
" . c #F9E2E1",
".. c #FFE1E0",
"X. c #FCE2E1",
"o. c #F9E5E5",
"O. c #F9E6E7",
"+. c #FCE6E5",
"@. c #FCE9E7",
"#. c #FCE9E8",
"$. c #FCECEB",
"%. c #FCEDED",
"&. c #FCF0EF",
"*. c #F5F7F5",
"=. c #F9F0F0",
"-. c #FCF1F1",
";. c #FCF2F0",
":. c #FCF2F2",
">. c #FCF5F5",
",. c #F9F8F6",
"<. c #F9F8F7",
"1. c #F9F9F7",
"2. c #FCF8F7",
"3. c #FCF9F7",
"4. c #F9FAF8",
"5. c #F9FAF9",
"6. c #F9FBF9",
"7. c #FCFAF8",
"8. c #FCFBF9",
"9. c #FCFAFA",
"0. c #FCFCF9",
"q. c #FCFCFA",
"w. c #FCFDFA",
"e. c #FCFCFB",
"r. c #FCFDFB",
"t. c #FFFCFB",
"y. c #F9FFFE",
"u. c gray99",
"i. c #FCFDFC",
"p. c #FCFEFC",
"a. c #FCFFFC",
"s. c #FCFEFD",
"d. c #FCFFFD",
"f. c #FCFEFE",
"g. c #FCFFFE",
"h. c #FCFFFF",
"j. c #FFFEFE",
"k. c white",
/* pixels */
"  N C m b n n n n n n n n n n n n n n n n n n n n n v M . ",
"V k.^ ..k.j.k.k.k.k.k.k.k.k.k.k.k.k.k.k.k.k.k.k.k.k.u.k.B ",
"J h 5 6  .y.1.6.,.1.6.5.6.6.6.6.6.5.6.1.,.6.5.6.6.6.*.k.A ",
"H d o.s { h.r.q.f.e.r.p.p.p.p.p.p.p.r.e.f.q.p.p.p.p.6.k.A ",
"P x < q ;.h.8.h.( +.h.r.p.p.p.p.p.r.h.+.( h.q.p.p.p.6.k.A ",
"H a O.p [ h.h._ O i g.r.p.p.p.p.p.r.g.i O _ h.q.p.p.6.k.A ",
"K k 3 0 #.h.-.2 + o c h.7.p.p.p.7.h.c o + 2 :.h.r.p.6.k.A ",
"F k./ X.d.h.l o - $ , ` h.q.p.q.h.` , $ - o l h.8.p.6.k.A ",
"D k.j { h.h.Y o : o 7 $.h.r.p.r.h.$.7 o : o Y h.q.p.6.k.A ",
"L z X 4 &.h.f.u o o T h.8.p.q.p.8.h.T o o u h.p.r.p.6.k.A ",
"K g X 1 @.h.r.>.8 I h.7.p.q.s.q.p.7.h.I 8 >.d.r.p.p.6.k.A ",
"G t.9 W h.q.w.g.%.2.p.p.r.s.| s.r.p.p.2.%.g.w.p.p.p.6.k.A ",
"Z k.=.e.p.p.p.r.e.q.p.8.h.E # E h.8.p.q.e.r.p.p.p.p.6.k.A ",
"S k.<.q.p.p.p.p.r.p.q.h.] ; o ; ] h.q.p.r.p.p.p.p.p.6.k.A ",
"A k.4.p.p.p.p.p.p.r.p.r.u o > o u r.p.r.p.p.p.p.p.p.6.k.A ",
"A k.6.p.p.p.p.p.r.r.a.r.y o > o y r.a.r.r.p.p.p.p.p.6.k.A ",
"A k.6.p.p.p.p.r.q.q.0.h.' = o = ' h.0.q.q.r.p.p.p.p.6.k.A ",
"A k.6.p.p.p.r.p.>.9.r.8.h.R @ R h.8.r.9.>.p.r.p.p.p.6.k.A ",
"A k.6.p.p.r.i.i.t U h.8.r.s.} s.r.8.h.U t i.i.r.p.p.6.k.A ",
"A k.6.p.p.r.h.f o * ! h.0.q.s.q.q.h.Q * o f h.r.p.p.6.k.A ",
"A k.6.p.q.h.~ o : o e 3.d.r.q.i.r.h.r o : o ~ h.q.p.6.k.A ",
"A k.6.p.r.h.w o & & % ) h.8.p.8.h.) % & & o w h.r.p.6.k.A ",
"A k.6.p.q.h.~ o : o r h.r.i.q.r.d.3.e o : o ~ h.q.p.6.k.A ",
"A k.6.p.p.r.h.f o * Q h.q.q.s.q.0.h.! * o f h.r.p.p.6.k.A ",
"A k.6.p.p.r.i.i.t U h.8.r.s.} s.r.8.h.U t i.i.r.p.p.6.k.A ",
"A k.6.p.p.p.r.p.>.9.r.8.h.R @ R h.8.r.9.>.p.r.p.p.p.6.k.A ",
"A k.6.p.p.p.p.r.q.q.0.h.' = o = ' h.0.q.q.r.p.p.p.p.6.k.A ",
"A k.6.p.p.p.p.p.r.r.a.r.y o > o y r.a.r.r.p.p.p.p.p.6.k.A ",
"A k.6.p.p.p.p.p.p.r.p.r.u o > o u r.p.r.p.p.p.p.p.p.4.k.A ",
"A k.6.p.p.p.p.p.r.p.q.h.] ; o ; ] h.q.p.r.p.p.p.p.q.<.k.S ",
"A k.6.p.p.p.p.r.e.q.p.8.h.E # E h.8.p.q.e.r.p.p.p.e.=.k.Z ",
"A k.6.p.p.p.w.g.%.2.p.p.r.s.| s.r.p.p.2.%.g.w.q.h.W 9 t.G ",
"A k.6.p.p.r.d.>.8 I h.7.p.q.s.q.p.7.h.I 8 >.r.h.@.1 X g K ",
"A k.6.p.r.p.h.u o o T h.8.p.q.p.8.h.T o o u f.h.&.4 X z L ",
"A k.6.p.q.h.Y o : o 7 $.h.r.p.r.h.$.7 o : o Y h.h.{ j k.D ",
"A k.6.p.8.h.l o - $ , ` h.q.p.q.h.` , $ - o l h.d.X./ k.F ",
"A k.6.p.r.h.:.2 + o c h.7.p.p.p.7.h.c o + 2 -.h.#.0 3 k K ",
"A k.6.p.p.q.h._ O i g.r.p.p.p.p.p.r.g.i O _ h.h.[ p O.a H ",
"A k.6.p.p.p.q.h.( +.h.r.p.p.p.p.p.r.h.+.( h.8.h.;.q < x P ",
"A k.6.p.p.p.p.q.f.e.r.p.p.p.p.p.p.p.r.e.f.q.r.h.{ s o.d H ",
"A k.*.6.6.6.5.6.,.1.6.5.6.6.6.6.6.5.6.1.,.6.1.y. .6 5 h J ",
"B k.u.k.k.k.k.k.k.k.k.k.k.k.k.k.k.k.k.k.k.k.k.j.k...^ k.V ",
". M v n n n n n n n n n n n n n n n n n n n n n b m C N   "
};
