/* XPM */
static char *_7223_ed343a9d0977ce7642779d26110849d6c7d795ab3ef95b9cfb0fca9c3083aa28[] = {
/* columns rows colors chars-per-pixel */
"29 43 215 2 ",
"   c #302F30",
".  c #F90000",
"X  c #FC0000",
"o  c #FC0001",
"O  c #FC0101",
"+  c #FC0002",
"@  c #FC0102",
"#  c #FC0103",
"$  c #FC0203",
"%  c #FC0204",
"&  c #FC0304",
"*  c #FC0305",
"=  c #F90606",
"-  c #FC0405",
";  c #FC0406",
":  c #FC0507",
">  c #FC0607",
",  c #FC0608",
"<  c #FC0708",
"1  c #FC0709",
"2  c #FC0809",
"3  c #FC080A",
"4  c #FC090B",
"5  c #FC0A0B",
"6  c #FC0A0C",
"7  c #FC0D0E",
"8  c #FC0E0F",
"9  c #FC1010",
"0  c #FC1314",
"q  c #FC1414",
"w  c #FC1515",
"e  c #FC1517",
"r  c #FC1617",
"t  c #F91719",
"y  c #FC1818",
"u  c #FC1A1A",
"i  c #F91F20",
"p  c #F52021",
"a  c #FC2223",
"s  c #FC2324",
"d  c #F92627",
"f  c #FC2425",
"g  c #FC2626",
"h  c #F92829",
"j  c #FC2829",
"k  c #FC2A2B",
"l  c #FC3132",
"z  c #FC3233",
"x  c #FC3333",
"c  c #FC3334",
"v  c #FC3838",
"b  c #FC3939",
"n  c #FC3B3B",
"m  c #FC3B3C",
"M  c #FC3C3D",
"N  c #FC3E3E",
"B  c #FC4243",
"V  c #FC4344",
"C  c #FC4747",
"Z  c #FF4746",
"A  c #FC4949",
"S  c #FC4B4B",
"D  c #FC4B4C",
"F  c #FC4D4D",
"G  c #FC4E4E",
"H  c #FC4E4F",
"J  c #FC4F4F",
"K  c #FC4F50",
"L  c #FC5556",
"P  c #FC5859",
"I  c #FC5D5D",
"U  c #FC6363",
"Y  c #FC6364",
"T  c #FC6565",
"R  c #FF6564",
"E  c #FC6868",
"W  c #FC6A6A",
"Q  c #FC7171",
"!  c #FC7373",
"~  c #FC7374",
"^  c #FC7777",
"/  c #FC7B7B",
"(  c #FC7D7E",
")  c #959595",
"_  c #969695",
"`  c gray59",
"'  c #999998",
"]  c gray60",
"[  c #9F9F9F",
"{  c #A09F9F",
"}  c #95A3A3",
"|  c #96A6A5",
" . c #9FA0A0",
".. c #A0A1A0",
"X. c #A0A1A1",
"o. c #A0A4A4",
"O. c #A0ABAA",
"+. c #A0AEAD",
"@. c #A0AFAE",
"#. c #A0B1B0",
"$. c #A0B1B1",
"%. c #A0B7B6",
"&. c #A0B9B8",
"*. c #FC8080",
"=. c #FC8383",
"-. c #FC8787",
";. c #F98D8C",
":. c #F98C8D",
">. c #F98F90",
",. c #FC8F90",
"<. c #FC9695",
"1. c #FC9696",
"2. c #F99B9B",
"3. c #FC9898",
"4. c #FF9A99",
"5. c #FC9C9B",
"6. c #FC9E9E",
"7. c #FC9F9F",
"8. c #FCA0A0",
"9. c #FFA1A0",
"0. c #FCA7A6",
"q. c #FCA8A8",
"w. c #FCAFAF",
"e. c #FCB1B0",
"r. c #FCB1B2",
"t. c #FCB3B3",
"y. c #FCB9B9",
"u. c #FFB9B8",
"i. c #FCBBBB",
"p. c #FCBCBB",
"a. c #FCBDBB",
"s. c #FCC0C0",
"d. c #FCC2C1",
"f. c #FFC2C1",
"g. c #FCC4C3",
"h. c #FCC6C5",
"j. c #FCC7C6",
"k. c #FCC9C9",
"l. c #FCCAC9",
"z. c #FFCBCA",
"x. c #FCCDCD",
"c. c #FCCECD",
"v. c #FCCECE",
"b. c #F9D2D1",
"n. c #FCD1D1",
"m. c #FCD2D1",
"M. c #FFD2D0",
"N. c #FFD3D1",
"B. c #F9D5D4",
"V. c #FCD9D8",
"C. c #FCDBDA",
"Z. c #FCDCDB",
"A. c #FCDEDD",
"S. c #FCE1DF",
"D. c #FCE0E0",
"F. c #FCE1E0",
"G. c #FCE2E1",
"H. c #FCE2E2",
"J. c #FCE3E2",
"K. c #FCE4E3",
"L. c #FCE7E5",
"P. c #FCE7E6",
"I. c #FCE9E8",
"U. c #FCEAE9",
"Y. c #FCEAEA",
"T. c #FCECEB",
"R. c #FCECEC",
"E. c #FCEDEC",
"W. c #FCEDED",
"Q. c #FCEFEE",
"!. c #F5F7F5",
"~. c #FCF2F0",
"^. c #FCF3F1",
"/. c #FCF2F2",
"(. c #FCF3F2",
"). c #F9F5F3",
"_. c #F9F5F4",
"`. c #F9F6F4",
"'. c #F9F7F6",
"]. c #FCF6F4",
"[. c #FCF7F5",
"{. c #FCF7F7",
"}. c #F9F8F6",
"|. c #F9F9F7",
" X c #FCF8F6",
".X c #FCF8F7",
"XX c #FCF9F7",
"oX c #F9FAF8",
"OX c #F9FAF9",
"+X c #F9FBF9",
"@X c #FCF9F8",
"#X c #FCF9F9",
"$X c #FCFAF8",
"%X c #FCFAF9",
"&X c #FCFBF9",
"*X c #FCFBFA",
"=X c #FCFCF9",
"-X c #FCFCFA",
";X c #FCFDFA",
":X c #FCFCFB",
">X c #FCFDFB",
",X c #FCFEFB",
"<X c #F9FFFF",
"1X c gray99",
"2X c #FCFDFC",
"3X c #FCFDFD",
"4X c #FFFCFC",
"5X c #FCFEFC",
"6X c #FCFEFD",
"7X c #FCFFFD",
"8X c #FCFEFE",
"9X c #FCFFFE",
"0X c #FCFFFF",
"qX c #FFFFFE",
"wX c white",
/* pixels */
"  ' } | ` _ ` ` ` ` ` ` ` ` ` ` ` ` ` ` ` ` ` ` ` ` ) ]   ",
" .wXc.z.4XwXwXwXwXwXwXwXwXwXwXwXwXwXwXwXwXwXwXwXwXwX1XwX[ ",
"$.u.p h ;.<X`._.'.|.).}.+XOX+XOX+X}.).|.'._.oX+XOX+X!.wX..",
"%.9.>.t.! 0X.X0X8X6X0X6X>X5X5X5X>X6X0X6X8X0X2X,X5X5X+XwX..",
"+.M.t e 0.0XP.Q w.G.W p.0X-X5X-X0Xp.W G.w.Q U.0X>X5X+XwX..",
"&.4.:.r.W 0XD X a S X 8 V.0X$X0XV.8 X S a X K 0X-X5X+XwX..",
"#.f.i s 1.0Xf o > @ 6 X a.0X X0Xa.X 6 @ > o j 7X5X5X+XwX..",
"..wXB.m.2X0XF X , * % 5 V.0X$X0XV.5 % * , X F 0X-X5X+XwX..",
"O.N.2.q.e.0Xy.o - 3 X T 0X-X5X-X0XT X 3 - O i.0X&X5X+XwX..",
"+.Z = y u &X0X7.X X J :XXX-X>XXX-X2XH X X 8.0X&X5X5X+XwX..",
"@.R . X v 0XXX0X=.c @X6X8X7X6X0X:X5X#Xx =.0X$X5X5X5X+XwX..",
"o.qXd 0 D.0X-X5X{.E.0XQ.5.V.T.3.F.0X6XW.{.5X5X5X5X5X+XwX..",
"{ wXb.k.0X-X5X5X-X*X0XL X N P X z ^.9X*X-X5X5X5X5X5X+XwX..",
"X.wXOX6X-X5X5X5X>X9X^.w # < > 1 X m.0X&X5X5X5X5X5X5X+XwX..",
"..wX|.-X5X5X5X5X>X7X&Xk X ; & # 7 S.0X-X5X5X5X5X5X5X+XwX..",
"..wX+X5X5X5X5X5X5X$X0X,.X 1 3 X Y 0X&X5X5X5X5X5X5X5X+XwX..",
"..wX+X5X5X5X5X&X>X2X$X0XE X X B .X5X%X5X>X&X5X5X5X5X+XwX..",
"..wX+X5X5X5X-X0X6X:X0X:X0XG j (.7X*X0X:X6X0X-X5X5X5X+XwX..",
"..wX+X5X5X7X*Xl.K.@Xh.I.0XY.G.0X9XU.h.@XK.l.*X7X5X5X+XwX..",
"..wX+X5X-X0X-.X M ( X b ~.9X-X7X(.b X ( M X -.0X-X5X+XwX..",
"..wX+X5X5X9Xg X 6 9 ; X a.0X].0Xa.X ; 9 6 X g 9X5X5X+XwX..",
"..wX+X5X>X0Xl X : & : X g.0X.X0Xg.X : & : X l 0X>X5X+XwX..",
"..wX+X5X$X0X<.X 3 1 X n 0X>X>X>X0Xn X 1 3 X <.0X$X5X+XwX..",
"..wX+X5X5X>X0XI X + y C.9X$X>X[.0XZ.y + X I 0X>X5X5X+XwX..",
"..wX+X5X5X>X5X3XC $ x.0X3X8X6X0X*X0Xv.$ C 3X5X>X5X5X+XwX..",
"..wX+X5X5X5X-X0XH.s.0XJ./ j.A.^ n.0X0Xd.H.0X-X5X5X5X+XwX..",
"..wX+X5X5X5X5X>X:X8X5XV X x A X a T.9X3X:X>X5X5X5X5X+XwX..",
"..wX+X5X5X5X5X5X-X7X^.r * - $ 4 X m.0XXX>X5X5X5X5X5X+XwX..",
"..wX+X5X5X5X5X5X>X5X5Xc X : ; + q L.0X>X5X5X5X5X5X-X|.wX..",
"..wX+X5X5X5X5X5X5X$X0X6.X , 2 X ~ 0X&X>X5X5X5X5X-X6XOXwXX.",
"..wX+X5X5X5X5X5X-X:X$X0X*.X X P 0X>X>X:X-X5X5X-X0Xk.b.wX{ ",
"..wX+X5X5X5X5X5X{.W.9XXX0XU m 9X5X=X9XW.{.5X-X0XD.0 d qXo.",
"..wX+X5X5X5X$X0X=.x #X6X5X/.R.0X&X9X#Xx =.0XXX0Xv X . R @.",
"..wX+X5X5X&X0X8.X X H 2X>X-X:X;X>X2XH X X 7.0X&Xu y = Z +.",
"..wX+X5X&X0Xi.O - 3 X T 0X&X>X-X0XT X 3 - o y.0Xe.q.2.N.O.",
"..wX+X5X-X0XF X , * % 5 V.0X$X0XV.5 % * , X F 0X2Xm.B.wX..",
"..wX+X5X5X7Xj o > @ 6 X a.0X X0Xa.X 6 @ > o f 0X1.s i f.#.",
"..wX+X5X-X0XK X a S X 8 V.0X$X0XV.8 X S a X D 0XW r.:.4.&.",
"..wX+X5X>X0XU.Q w.G.W p.0X-X5X-X0Xp.W G.w.Q P.0X0.e t M.+.",
"..wX+X5X5X,X2X0X8X6X0X6X>X5X5X5X>X6X0X6X8X0X.X0X! t.>.9.%.",
"..wX!.+XOX+XoX_.'.|.).}.+XOX+XOX+X}.).|.'._.`.<X;.h p u.$.",
"[ wX1XwXwXwXwXwXwXwXwXwXwXwXwXwXwXwXwXwXwXwXwXwX4Xz.c.wX .",
"  ] ) ` ` ` ` ` ` ` ` ` ` ` ` ` ` ` ` ` ` ` ` _ ` | } '   "
};
