/* XPM */
static char *_8429_121511e2194bd7a9e88dd330dda3dafb9456a203711737b315d48948c83afc3b[] = {
/* columns rows colors chars-per-pixel */
"29 43 165 2 ",
"   c black",
".  c #010001",
"X  c #020002",
"o  c #020102",
"O  c #040304",
"+  c #040404",
"@  c #050405",
"#  c #090709",
"$  c gray3",
"%  c #0A080A",
"&  c #0B090B",
"*  c #0C0A0C",
"=  c #0D0B0D",
"-  c #0E0E0E",
";  c #110F11",
":  c #111111",
">  c #121112",
",  c #161516",
"<  c #171517",
"1  c gray9",
"2  c #191719",
"3  c #191919",
"4  c #1B1A1B",
"5  c #212021",
"6  c #232223",
"7  c #252425",
"8  c #262726",
"9  c #292829",
"0  c #2B292B",
"q  c #2C2A2C",
"w  c #2E2D2E",
"e  c #2F2E2F",
"r  c #302F30",
"t  c gray19",
"y  c #343434",
"u  c #353535",
"i  c #373737",
"p  c #3C3C3C",
"a  c #3D3C3D",
"s  c #3F3D3F",
"d  c gray25",
"f  c gray27",
"g  c #474647",
"h  c gray28",
"j  c #494949",
"k  c gray29",
"l  c #4F4E4F",
"z  c #535253",
"x  c #555455",
"c  c #5A595A",
"v  c gray36",
"b  c #5D5D5D",
"n  c gray37",
"m  c gray38",
"M  c gray39",
"N  c #636463",
"B  c #696869",
"V  c #6B6C6B",
"C  c #6E6F6E",
"Z  c #6F6F6F",
"A  c gray45",
"S  c #777677",
"D  c #7D7C7D",
"F  c gray50",
"G  c #858685",
"H  c #898989",
"J  c #8C8D8C",
"K  c #8D8C8D",
"L  c #908F90",
"P  c #959595",
"I  c #959695",
"U  c gray59",
"Y  c #979897",
"T  c #989998",
"R  c gray60",
"E  c #999A99",
"W  c #9F9F9F",
"Q  c #9FA09F",
"!  c #A0A0A0",
"~  c #A0A1A0",
"^  c gray63",
"/  c gray64",
"(  c #A5A6A5",
")  c #A7A8A7",
"_  c #ABACAB",
"`  c gray68",
"'  c #ADAEAD",
"]  c #AEAFAE",
"[  c #AFAFAF",
"{  c gray69",
"}  c #B1B1B1",
"|  c #B2B1B2",
" . c #B2B3B2",
".. c gray70",
"X. c #B3B4B3",
"o. c #B6B7B6",
"O. c #B7B8B7",
"+. c #B7B9B7",
"@. c #B8B9B8",
"#. c #BABBBA",
"$. c #BBBBBB",
"%. c #BBBCBB",
"&. c gray74",
"*. c #BFC0BF",
"=. c #C0C1C0",
"-. c #C3C3C3",
";. c #C3C5C3",
":. c #C6C7C6",
">. c #C7C8C7",
",. c #C8C9C8",
"<. c #CACBCA",
"1. c #CBCBCB",
"2. c #CBCCCB",
"3. c #CCCDCC",
"4. c #CDCECD",
"5. c #CECFCE",
"6. c gray81",
"7. c #CFD0CF",
"8. c #D0D2D0",
"9. c #D1D3D1",
"0. c #D4D5D4",
"q. c #D8D8D8",
"w. c #D8D9D8",
"e. c gray85",
"r. c #DADBDA",
"t. c #DBDCDB",
"y. c gainsboro",
"u. c #E0E1E0",
"i. c gray89",
"p. c #E4E5E4",
"a. c #E5E6E5",
"s. c gray91",
"d. c #E9E9E9",
"f. c #EEEFEE",
"g. c gray94",
"h. c #F3F3F3",
"j. c #F4F5F4",
"k. c #F5F7F5",
"l. c #F6F6F6",
"z. c #F6F7F6",
"x. c #F6F8F6",
"c. c #F7F8F7",
"v. c #F7F9F7",
"b. c #F8F8F8",
"n. c #F8F9F8",
"m. c #F9F9F9",
"M. c #F8FAF8",
"N. c #F9FAF9",
"B. c #F9FBF9",
"V. c #FAFBFA",
"C. c #FBFBFB",
"Z. c #FAFCFA",
"A. c #FAFDFA",
"S. c #FBFCFB",
"D. c #FBFDFB",
"F. c gray99",
"G. c #FCFDFC",
"H. c #FDFCFD",
"J. c #FDFDFD",
"K. c #FCFEFC",
"L. c #FDFEFD",
"P. c #FDFFFD",
"I. c #FEFEFE",
"U. c #FEFFFE",
"Y. c white",
/* pixels */
"r T / ( U I U U U U U U U U U U U U U U U U U U U U P R r ",
"! Y.4.<.F.Y.Y.Y.Y.Y.Y.Y.Y.Y.Y.Y.Y.Y.Y.Y.Y.Y.Y.Y.Y.Y.F.Y.W ",
"} @.5 9 J Y.k.B.v.x.B.N.B.B.B.B.B.N.B.x.v.B.N.B.B.B.k.Y.~ ",
"o.~ L ..A Y.M.D.S.I.Z.K.K.K.K.K.K.K.Z.I.S.D.K.K.K.K.B.Y.~ ",
"' 8.2 < ) Y.v.Y.i.-.Y.B.K.K.K.K.K.B.Y.-.i.Y.Z.K.K.K.B.Y.~ ",
"@.E K | V Y.n.L.j O 6.Y.Z.K.K.K.Z.Y.6.O j L.K.D.K.K.B.Y.~ ",
"{ ;.5 7 Y Y.Y.n   X 3 y.Y.Z.K.Z.Y.y.3 X   n Y.D.K.K.B.Y.~ ",
"^ Y.3.2.j.Y.Y   & &   p Y.D.K.D.Y.p   & &   Y Y.M.K.B.Y.~ ",
"Q Y.u.t.Y.P.w   + . %   =.Y.x.Y.=.  % . +   w Y.K.K.B.Y.~ ",
"/ Y.e 4 a.Y.y   l B :   >.Y.c.Y.>.  : B l   u Y.D.K.B.Y.~ ",
"] N     u Y.w.o.F h #.&.Y.D.B.D.Y.&.#.h F O.e.Y.D.K.B.Y.~ ",
"[ B , 6 s Y.G.Y.,.+.g.Y.Z.S.U.S.Z.Y.g.+.,.Y.L.K.K.K.B.Y.~ ",
"Q Y.Z c U.K.Z.M.I.Y.Z.v.Y.d.v d.Y.v.Z.Y.I.M.Z.K.K.K.B.Y.~ ",
"! Y.f.f.I.D.K.K.Z.B.D.L.m.g   g m.L.D.B.Z.K.K.K.K.K.B.Y.~ ",
"^ Y.V.I.D.K.K.K.K.K.K.Y.x   =   x Y.K.K.K.K.K.K.K.K.B.Y.~ ",
"~ Y.M.D.K.K.K.K.K.B.Y.X.  % o %   X.Y.B.K.K.K.K.K.K.B.Y.~ ",
"~ Y.B.K.K.K.K.K.D.k.Y.C   $ ; $   C Y.k.D.K.K.K.K.K.B.Y.~ ",
"~ Y.B.K.K.K.K.D.G.C.Y.' & m G m & ' Y.C.G.D.K.K.K.K.B.Y.~ ",
"~ Y.B.K.K.K.Z.Y.q.` Y.c.Y.*.0 *.Y.c.Y.` q.Y.Z.K.K.K.B.Y.~ ",
"~ Y.B.K.K.D.Y.l.i   &.Y.A.M.J.M.A.Y.&.  i l.Y.D.K.K.B.Y.~ ",
"~ Y.B.K.D.P.G.k   @ - 1.Y.Z.D.Z.Y.1.- @   k G.P.D.K.B.Y.~ ",
"~ Y.B.K.M.Y.H   * %   t P.K.D.K.P.t   % *   H Y.M.K.B.Y.~ ",
"~ Y.B.K.K.U.8   O . #   %.Y.x.Y.%.  # . O   8 U.K.K.B.Y.~ ",
"~ Y.B.K.D.Y.d   b S 1   7.Y.k.Y.7.  1 S b   d Y.D.K.B.Y.~ ",
"~ Y.B.K.D.Y.p.0.D a 5.0.K.S.I.S.K.0.5.a D 0.p.Y.D.K.B.Y.~ ",
"~ Y.B.K.K.K.G.Y.r.9.h.Y.U.s.c s.U.Y.h.9.r.Y.G.K.K.K.B.Y.~ ",
"~ Y.B.K.K.K.D.B.I.Y.V.Z.b.f   f b.Z.V.Y.I.B.D.K.K.K.B.Y.~ ",
"~ Y.B.K.K.K.K.K.D.Z.D.Y.z   =   z Y.D.Z.D.K.K.K.K.D.M.Y.~ ",
"~ Y.B.K.K.K.K.K.K.B.Y. .  % o %    .Y.B.K.K.K.K.D.I.V.Y.^ ",
"~ Y.B.K.K.K.K.K.Z.k.Y.C   $ > $   C Y.k.Z.K.K.D.I.f.f.Y.! ",
"~ Y.B.K.K.K.Z.M.I.H.Y._ = M G M = _ Y.H.I.M.Z.K.U.c Z Y.Q ",
"~ Y.B.K.K.K.L.Y.,.+.g.Y.Y.=.q =.Y.Y.g.+.,.Y.G.Y.s 6 , B [ ",
"~ Y.B.K.D.Y.e.O.F h #.$.Y.M.J.M.Y.$.#.h F o.w.Y.u     N ] ",
"~ Y.B.K.D.Y.u   l B :   :.Y.z.Y.:.  : B l   y Y.a.4 e Y./ ",
"~ Y.B.K.K.Y.w   + . %   =.Y.x.Y.=.  % . +   w P.Y.t.u.Y.Q ",
"~ Y.B.K.M.Y.Y   & &   p Y.D.K.D.Y.p   & &   Y Y.j.2.3.Y.^ ",
"~ Y.B.K.K.D.Y.n   X 3 y.Y.Z.K.Z.Y.y.3 X   n Y.Y.Y 7 5 ;.{ ",
"~ Y.B.K.K.D.K.L.j O 6.Y.Z.K.K.K.Z.Y.6.O j L.n.Y.V | K E @.",
"~ Y.B.K.K.K.Z.Y.i.-.Y.B.K.K.K.K.K.B.Y.-.i.Y.v.Y.) < 2 8.' ",
"~ Y.B.K.K.K.K.D.S.I.Z.K.K.K.K.K.K.K.Z.I.S.D.M.Y.A ..L ~ o.",
"~ Y.k.B.B.B.N.B.v.x.B.N.B.B.B.B.B.N.B.x.v.B.k.Y.J 9 5 @.} ",
"W Y.F.Y.Y.Y.Y.Y.Y.Y.Y.Y.Y.Y.Y.Y.Y.Y.Y.Y.Y.Y.Y.Y.F.<.4.Y.! ",
"r R P U U U U U U U U U U U U U U U U U U U U I U ( / T r "
};
