/* XPM */
static char *_8681_89190236587ae93881aa18616e7ddd141836900d92c18ef0b95f6a1865861187[] = {
/* columns rows colors chars-per-pixel */
"29 43 175 2 ",
"   c black",
".  c #010001",
"X  c #010101",
"o  c #020102",
"O  c #020202",
"+  c #030203",
"@  c gray1",
"#  c #040304",
"$  c #060506",
"%  c #060606",
"&  c gray3",
"*  c gray4",
"=  c #0C0B0C",
"-  c #0D0B0D",
";  c #0E0D0E",
":  c gray6",
">  c #100E10",
",  c #121112",
"<  c #161516",
"1  c #171517",
"2  c gray9",
"3  c #191719",
"4  c #1A191A",
"5  c #1C1B1C",
"6  c #1D1B1D",
"7  c #1D1C1D",
"8  c #1D1D1D",
"9  c #1E1D1E",
"0  c #1F1D1F",
"q  c #212021",
"w  c #222122",
"e  c #222222",
"r  c #232223",
"t  c #252525",
"y  c #252625",
"u  c #282728",
"i  c #282828",
"p  c #292829",
"a  c #2A292A",
"s  c #2B2A2B",
"d  c #2C2A2C",
"f  c #2E2D2E",
"g  c #302F30",
"h  c #313131",
"j  c #333233",
"k  c #383738",
"l  c #393839",
"z  c #3D3C3D",
"x  c #403F40",
"c  c #484848",
"v  c gray31",
"b  c #525152",
"n  c gray32",
"m  c #535253",
"M  c #575657",
"N  c gray35",
"B  c #5A5A5A",
"V  c gray36",
"C  c #5D5D5D",
"Z  c #616061",
"A  c #686768",
"S  c #6B6A6B",
"D  c #6B6C6B",
"F  c #6E6F6E",
"G  c gray44",
"H  c #717071",
"J  c #717171",
"K  c gray45",
"L  c #767676",
"P  c #797979",
"I  c #7A797A",
"U  c gray48",
"Y  c #7B7B7B",
"T  c gray49",
"R  c gray50",
"E  c #808080",
"W  c #818181",
"Q  c #858685",
"!  c #868686",
"~  c gray53",
"^  c #888988",
"/  c #8C8D8C",
"(  c #8D8C8D",
")  c #908F90",
"_  c gray58",
"`  c #959595",
"'  c #959695",
"]  c gray59",
"[  c #979897",
"{  c #989998",
"}  c gray60",
"|  c #999A99",
" . c #9F9F9F",
".. c #9FA09F",
"X. c #A0A0A0",
"o. c #A0A1A0",
"O. c gray63",
"+. c #A2A2A2",
"@. c gray64",
"#. c #A4A4A4",
"$. c #A4A5A4",
"%. c #A5A6A5",
"&. c #A7A8A7",
"*. c #ADAEAD",
"=. c #AEAEAE",
"-. c gray69",
";. c #B0B1B0",
":. c #B1B1B1",
">. c #B2B1B2",
",. c gray70",
"<. c #B6B7B6",
"1. c #B7B8B7",
"2. c #B7B9B7",
"3. c #B8B9B8",
"4. c #BCBDBC",
"5. c #BEBFBE",
"6. c #BFC0BF",
"7. c #BFC1BF",
"8. c #C3C4C3",
"9. c #C3C5C3",
"0. c #C5C6C5",
"q. c #C6C7C6",
"w. c #C8C9C8",
"e. c #CACBCA",
"r. c #CBCCCB",
"t. c #CCCDCC",
"y. c #CDCECD",
"u. c #CECECE",
"i. c #D0D0D0",
"p. c #D0D2D0",
"a. c #D1D2D1",
"s. c #D1D3D1",
"d. c #D2D2D2",
"f. c #D3D5D3",
"g. c gray84",
"h. c #D9DAD9",
"j. c #DADBDA",
"k. c gray86",
"l. c #DBDCDB",
"z. c #E7E8E7",
"x. c #E7E9E7",
"c. c #E8E9E8",
"v. c #EBECEB",
"b. c #EEEFEE",
"n. c gray94",
"m. c #F1F1F1",
"M. c #F1F2F1",
"N. c #F2F3F2",
"B. c #F3F3F3",
"V. c #F3F5F3",
"C. c gray96",
"Z. c #F4F6F4",
"A. c #F5F7F5",
"S. c gray97",
"D. c #F6F8F6",
"F. c #F7F8F7",
"G. c #F7F9F7",
"H. c #F8FAF8",
"J. c #F9FAF9",
"K. c #F9FBF9",
"L. c gray98",
"P. c #FAFBFA",
"I. c #FAFCFA",
"U. c #FBFCFB",
"Y. c #FBFDFB",
"T. c gray99",
"R. c #FCFDFC",
"E. c #FDFDFD",
"W. c #FCFEFC",
"Q. c #FDFEFD",
"!. c #FDFFFD",
"~. c #FEFEFE",
"^. c #FEFFFE",
"/. c #FFFEFF",
"(. c white",
/* pixels */
"g { @.%.] ' ] ] ] ] ] ] ] ] ] ] ] ] ] ] ] ] ] ] ] ] ` } g ",
"X.(.y.e.T.(.(.(.(.(.(.(.(.(.(.(.(.(.(.(.(.(.(.(.(.(.T.(. .",
":.3.q p / (.A.K.D.Z.H.K.J.K.K.K.J.K.H.Z.D.K.J.K.K.K.A.(.o.",
"<.o.) ,.K (.H.Y.Q.(.U.W.W.W.W.W.W.W.U.(.Q.Y.W.W.W.W.K.(.o.",
"*.p.3 1 &.(.G.(.1.! Q.W.W.W.W.W.W.W.Q.! 1.(.I.W.W.W.K.(.o.",
"3.| ( >.D (.^.f.=   W (.H.W.W.W.H.(.W   = f.(.I.W.W.K.(.o.",
"-.8.r u [ (.(.d.;   T (.J.W.W.W.J.(.T   ; d.(.I.W.W.K.(.o.",
"X.(.r.q.U.(.8.k l 6 x U (.I.W.I.(.U x 6 l k 9.(.I.W.K.(.o.",
"..(.b z S.(.i   + X O   5.(.D.(.5.  O X +   p (.W.W.K.(.o.",
"#.v.2 % w.(.G   v S * w x.(.A.(.x.w * S v   J (.I.W.K.(.o.",
"I t < 4 = 6.(.4.T c 1.l.(.K.(.K.(.l.1.c T 6.C.^.W.W.K.(.o.",
"E 0 7 a . 0.(.~.w.1.m.(.!.M.$.M.!.(.m.1.w.(.I.W.W.W.K.(.o.",
" .(.H V V.P.W.H.~.(.K.K.(.N   N (.K.K.(.~.H.W.W.W.W.K.(.o.",
" .(.b.b.(.I.W.W.I.K.Y.Q.E.s   s E.Q.Y.K.I.W.W.W.W.W.K.(.o.",
"O.(.P.~.I.W.W.W.W.W.!.J.K m - m K J.!.W.W.W.W.W.W.W.K.(.o.",
"o.(.H.Y.W.W.W.W.W.H.(.R   $ o $   R (.H.W.W.W.W.W.W.K.(.o.",
"o.(.K.W.W.W.W.W.K.Z.(.}   8 M 8   } (.Z.K.W.W.W.W.W.K.(.o.",
"o.(.K.W.W.W.W.Y.~.(.Y.(..._ n _ ..(.Y.(.~.Y.W.W.W.W.K.(.o.",
"o.(.K.W.W.W.I.(.+.A J.I.(.i.~ i.(.I.J.A +.(.I.W.W.W.K.(.o.",
"o.(.K.W.W.I.(.u.#   L (.V.U.(.U.V.(.L   # u.(.I.W.W.K.(.o.",
"o.(.K.W.W.I.(.a.3   Q (.I.I.H.I.I.(.Q   3 a.(.I.W.W.K.(.o.",
"o.(.K.W.I.(.;.q j 5 f Z (.Y.Y.Y.(.Z f 5 j q ;.(.I.W.K.(.o.",
"o.(.K.W.W.^.y   + o @   4.(.A.(.4.  @ o +   y ^.W.W.K.(.o.",
"o.(.K.W.I.(.~   C P : h N.!.U.!.N.h : P C   ~ (.I.W.K.(.o.",
"o.(.K.W.W.!.F.h.Y z t.c.(.E.P.E.(.c.t.z Y h.F.!.W.W.K.(.o.",
"o.(.K.W.W.W.I.(.j.s.B.R.(.=.> =.(.R.B.s.j.(.I.W.W.W.K.(.o.",
"o.(.K.W.W.W.W.K.~.(.I.I.L.q   q L.I.I.(.~.K.W.W.W.W.K.(.o.",
"o.(.K.W.W.W.W.W.Y.I.Y.(.g.B   B g.(.Y.I.Y.W.W.W.W.Y.H.(.o.",
"o.(.K.W.W.W.W.W.W.I.(.5.$ 9 ; 9 $ 5.(.I.W.W.W.W.I.~.P.(.O.",
"o.(.K.W.W.W.W.W.I.A.(.F   & , &   F (.A.I.W.W.I.(.b.b.(. .",
"o.(.K.W.W.W.W.H.~./.!.v.g V ^ V g v.!./.~.H.W.P.V.V H (. .",
"o.(.K.W.W.W.I.(.w.2.n.(.(.7.d 7.(.(.n.2.w.~.(.0.. a 7 0 E ",
"o.(.K.W.W.^.C.6.T c 1.k.(.G.E.G.(.k.1.c T 4.(.6.= 4 < t I ",
"o.(.K.W.I.(.J   v S * e z.(.H.(.z.e * S v   G (.w.% 2 v.#.",
"o.(.K.W.W.(.p   + X O   5.(.D.(.5.  O X +   i (.S.z b (...",
"o.(.K.W.I.(.9.k l 6 x U (.I.W.I.(.U x 6 l k 8.(.U.q.r.(.X.",
"o.(.K.W.W.I.(.d.;   T (.J.W.W.W.J.(.T   ; d.(.(.[ u r 8.-.",
"o.(.K.W.W.I.(.f.=   W (.H.W.W.W.H.(.W   = f.^.(.D >.( | 3.",
"o.(.K.W.W.W.I.(.1.! Q.W.W.W.W.W.W.W.Q.! 1.(.G.(.&.1 3 p.*.",
"o.(.K.W.W.W.W.Y.Q.(.U.W.W.W.W.W.W.W.U.(.Q.Y.H.(.K ,.) o.<.",
"o.(.A.K.K.K.J.K.D.Z.H.K.J.K.K.K.J.K.H.Z.D.K.A.(./ p q 3.:.",
" .(.T.(.(.(.(.(.(.(.(.(.(.(.(.(.(.(.(.(.(.(.(.(.T.e.y.(.X.",
"g } ` ] ] ] ] ] ] ] ] ] ] ] ] ] ] ] ] ] ] ] ] ' ] %.@.{ g "
};
