/* XPM */
static char *_3391_4163f0851f1d90fabf81126d4230fbbc7705bdcd67255165f2edf8de614e353d[] = {
/* columns rows colors chars-per-pixel */
"29 43 148 2 ",
"   c #302E2F",
".  c #302F30",
"X  c #F90000",
"o  c #FC0000",
"O  c #FC0001",
"+  c #FC0002",
"@  c #FC0103",
"#  c #FC0203",
"$  c #FC0304",
"%  c #FC0305",
"&  c #FC0608",
"*  c #FC0708",
"=  c #FC0709",
"-  c #FC080A",
";  c #FC090B",
":  c #FC0A0B",
">  c #FC0C0E",
",  c #FC1515",
"<  c #FC1A1A",
"1  c #FC1C1C",
"2  c #FC1D1D",
"3  c #F52425",
"4  c #FC2727",
"5  c #FC2728",
"6  c #F92A2B",
"7  c #FC2929",
"8  c #FC2B2C",
"9  c #F92C2D",
"0  c #FC2C2C",
"q  c #FC2F2F",
"w  c #F93132",
"e  c #FC3031",
"r  c #FC3131",
"t  c #FC3637",
"y  c #FC4848",
"u  c #FC4A4A",
"i  c #F94E4E",
"p  c #FC4F50",
"a  c #FC5151",
"s  c #FC5152",
"d  c #FF5555",
"f  c #FF5B5A",
"g  c #FC5E5E",
"h  c #FF605F",
"j  c #F96565",
"k  c #FF6666",
"l  c #FC6969",
"z  c #FC6E6E",
"x  c #FF7575",
"c  c #FC7675",
"v  c #FC7979",
"b  c #FC7B7B",
"n  c #FC7D7D",
"m  c #959595",
"M  c #969494",
"N  c gray59",
"B  c #969F9E",
"V  c gray60",
"C  c #999D9C",
"Z  c #9F9F9F",
"A  c #9FA3A3",
"S  c #95A8A7",
"D  c #A0A0A0",
"F  c #A0A1A0",
"G  c #A0A1A1",
"H  c #A0A2A1",
"J  c #A0A5A4",
"K  c #A0A5A5",
"L  c #A0A6A6",
"P  c #A0A9A9",
"I  c #A0ADAC",
"U  c #A0ADAD",
"Y  c #A0AEAE",
"T  c #A0AFAE",
"R  c #FC8A8A",
"E  c #F98E8E",
"W  c #FC9090",
"Q  c #FC9F9F",
"!  c #FCA1A0",
"~  c #FCA8A7",
"^  c #FCA9A9",
"/  c #FCAFAF",
"(  c #FCB6B6",
")  c #FCB9B8",
"_  c #FCC0BF",
"`  c #F9C1C0",
"'  c #FCC2C1",
"]  c #FCC3C3",
"[  c #FCCAC9",
"{  c #FCCACA",
"}  c #FCCDCD",
"|  c #FCCECC",
" . c #FCD1CF",
".. c #FFD4D3",
"X. c #FCD6D6",
"o. c #FCDBDA",
"O. c #FCE1E1",
"+. c #FFE1E0",
"@. c #F9E4E3",
"#. c #FCE6E5",
"$. c #FCE9E7",
"%. c #F9E7E8",
"&. c #FCEAE9",
"*. c #FCEBEB",
"=. c #FCECEB",
"-. c #FCEFEF",
";. c #FCF0EF",
":. c #FCF1EF",
">. c #FFF0EE",
",. c #F5F7F5",
"<. c #F9F0F0",
"1. c #FCF1F0",
"2. c #FCF2F2",
"3. c #FCF4F2",
"4. c #FCF4F3",
"5. c #FCF5F5",
"6. c #FCF7F5",
"7. c #FFF7F5",
"8. c #FCF7F7",
"9. c #F9F8F6",
"0. c #F9F8F7",
"q. c #F9F9F7",
"w. c #FCF8F7",
"e. c #FCF9F7",
"r. c #F9FAF8",
"t. c #F9FAF9",
"y. c #F9FBF9",
"u. c #FCF8F8",
"i. c #FCF9F8",
"p. c #FCFAF8",
"a. c #FCFBF9",
"s. c #FCFBFA",
"d. c #FCFCFA",
"f. c #FCFDFA",
"g. c #FCFCFB",
"h. c #FCFDFB",
"j. c #FFFCFB",
"k. c #F9FFFE",
"l. c gray99",
"z. c #FCFDFC",
"x. c #FCFEFC",
"c. c #FCFEFD",
"v. c #FCFFFD",
"b. c #FCFEFE",
"n. c #FCFFFE",
"m. c #FCFFFF",
"M. c #FFFEFE",
"N. c white",
/* pixels */
"  C S B M N N N N N N N N N N N N N N N N N N N N N m V . ",
"A N._ +.N.M.N.N.N.N.N.N.N.N.N.N.N.N.N.N.N.N.N.N.N.N.l.N.Z ",
"U k 3 6 @.k.q.y.9.q.y.t.y.y.y.y.y.t.y.q.9.y.t.y.y.y.,.N.F ",
"P d %.s  .m.h.d.b.g.h.x.x.x.x.x.x.x.h.g.b.d.x.x.x.x.y.N.F ",
"I f i 8 o.m.p.m.' #.m.h.x.x.x.x.x.h.m.#.' m.d.x.x.x.y.N.F ",
"L >.E 1 o.m.m.{ O p n.h.x.x.x.x.x.h.n.p O { m.d.x.x.y.N.F ",
"U ..9 g n.m.2.2 + o n m.p.x.x.x.p.m.n o + 2 2.m.h.x.y.N.F ",
"J 7.` 8.z.m.z o = $ : | m.d.x.d.m.| : $ = o z m.a.x.y.N.F ",
"H N.j } m.m.! o - o 0 =.m.h.x.h.m.=.0 o - o ! m.d.x.y.N.F ",
"T x X 4 ;.m.b.u o o ^ m.a.x.x.x.a.m.^ o o u m.x.h.x.y.N.F ",
"Y h X , $.m.h.5.q R m.p.x.x.x.x.x.p.m.R q 5.v.h.x.x.y.N.F ",
"K j.w ( m.d.f.n.*.8.x.x.x.x.x.x.x.x.x.8.*.n.f.x.x.x.y.N.F ",
"D N.<.g.x.x.x.a.c.s.h.x.x.x.x.x.x.x.h.s.c.a.x.x.x.x.y.N.F ",
"G N.0.d.x.x.d.m.) O.m.h.x.x.x.x.x.h.m.O.) m.d.x.x.x.y.N.F ",
"F N.r.x.x.a.m.] o y z.h.x.x.x.x.x.h.z.y o ] m.a.x.x.y.N.F ",
"F N.y.x.h.m.1.< @ o v m.p.x.h.x.p.m.v o @ < 1.m.h.x.y.N.F ",
"F N.y.x.a.m.l o = % * [ m.p.d.p.m.[ * % = o l m.a.x.y.N.F ",
"F N.y.x.d.m.~ o - o r :.v.g.4.g.v.:.r o - o ~ m.d.x.y.N.F ",
"F N.y.x.h.x.m.a o # / m.m.X.e X.m.m./ # o a m.x.h.x.y.N.F ",
"F N.y.x.x.h.x.u.t W m.v.&.7 o 7 &.v.m.W t u.x.h.x.x.y.N.F ",
"F N.y.x.x.x.h.v.-.u.a.m.c o > o c m.a.u.-.v.h.x.x.x.y.N.F ",
"F N.y.x.x.x.x.d.i.e.n.3.5 o & o 5 3.n.e.i.d.x.x.x.x.y.N.F ",
"F N.y.x.x.x.h.v.-.u.p.m.( o ; o ( m.p.u.-.v.h.x.x.x.y.N.F ",
"F N.y.x.x.h.x.u.t W m.6.m.b o b m.6.m.W t u.x.h.x.x.y.N.F ",
"F N.y.x.h.x.m.a o # / m.d.w.Q w.d.m./ # o a m.x.h.x.y.N.F ",
"F N.y.x.d.m.~ o - o r ;.n.a.m.a.n.;.r o - o ~ m.d.x.y.N.F ",
"F N.y.x.a.m.l o = % * [ m.a.a.a.m.[ * % = o l m.a.x.y.N.F ",
"F N.y.x.h.m.1.< @ o v m.p.x.x.x.p.m.v o @ < 1.m.h.x.y.N.F ",
"F N.y.x.x.a.m.] o y z.h.x.x.x.x.x.h.z.y o ] m.a.x.x.r.N.F ",
"F N.y.x.x.x.d.m.) O.m.h.x.x.x.x.x.h.m.O.) m.d.x.x.d.0.N.G ",
"F N.y.x.x.x.x.a.c.s.h.x.x.x.x.x.x.x.h.s.c.a.x.x.x.g.<.N.D ",
"F N.y.x.x.x.f.n.*.8.x.x.x.x.x.x.x.x.x.8.*.n.f.d.m.( w j.K ",
"F N.y.x.x.h.v.5.q R m.p.x.x.x.x.x.p.m.R q 5.h.m.$., X h Y ",
"F N.y.x.h.x.m.u o o ^ m.a.x.x.x.a.m.^ o o u b.m.;.4 X x T ",
"F N.y.x.d.m.! o - o 0 =.m.h.x.h.m.=.0 o - o ! m.m.} j N.H ",
"F N.y.x.a.m.z o = $ : | m.d.x.d.m.| : $ = o z m.z.8.` 7.J ",
"F N.y.x.h.m.2.2 + o n m.p.x.x.x.p.m.n o + 2 2.m.n.g 9 ..U ",
"F N.y.x.x.d.m.{ O p n.h.x.x.x.x.x.h.n.p O { m.m.o.1 E >.L ",
"F N.y.x.x.x.d.m.' #.m.h.x.x.x.x.x.h.m.#.' m.p.m.o.8 i f I ",
"F N.y.x.x.x.x.d.b.g.h.x.x.x.x.x.x.x.h.g.b.d.h.m. .s %.d P ",
"F N.,.y.y.y.t.y.9.q.y.t.y.y.y.y.y.t.y.q.9.y.q.k.@.6 3 k U ",
"Z N.l.N.N.N.N.N.N.N.N.N.N.N.N.N.N.N.N.N.N.N.N.M.N.+._ N.A ",
". V m N N N N N N N N N N N N N N N N N N N N N M B S C   "
};
