/* XPM */
static char *_562_7004bc5a95dc02293f5274ea8004a5cfc85b652ae88022d886159fbbac809fc7[] = {
/* columns rows colors chars-per-pixel */
"29 43 182 2 ",
"   c #302F30",
".  c #F90000",
"X  c #FC0000",
"o  c #FC0001",
"O  c #FC0101",
"+  c #FC0102",
"@  c #FC0103",
"#  c #FC0204",
"$  c #FC0304",
"%  c #FC0305",
"&  c #F90606",
"*  c #FC0404",
"=  c #FC0405",
"-  c #FC0406",
";  c #FC0507",
":  c #FC0607",
">  c #FC0608",
",  c #FC080A",
"<  c #FC090B",
"1  c #FC0A0B",
"2  c #FC0A0C",
"3  c #FC0A0D",
"4  c #FC0C0D",
"5  c #FC0E0F",
"6  c #FC1010",
"7  c #FC1111",
"8  c #FC1314",
"9  c #FC1515",
"0  c #F51C1D",
"q  c #FC1818",
"w  c #FC1A1A",
"e  c #F92122",
"r  c #FC2223",
"t  c #F92627",
"y  c #FC2626",
"u  c #FC2627",
"i  c #FC2729",
"p  c #FC2829",
"a  c #F92E2F",
"s  c #FC2C2D",
"d  c #FC3131",
"f  c #FC3232",
"g  c #FC3333",
"h  c #FC3738",
"j  c #FC3838",
"k  c #FC3939",
"l  c #FC3B3B",
"z  c #FC403F",
"x  c #FC4041",
"c  c #FC4244",
"v  c #FC4445",
"b  c #FC4545",
"n  c #FF4746",
"m  c #FC4949",
"M  c #FC4B4B",
"N  c #FC4B4C",
"B  c #FC4D4D",
"V  c #FC4D4E",
"C  c #FC4E4F",
"Z  c #FC4F50",
"A  c #FC5050",
"S  c #FC5959",
"D  c #F95C5D",
"F  c #FC6565",
"G  c #FF6564",
"H  c #FC6A6A",
"J  c #FC6C6C",
"K  c #FC7170",
"L  c #FC7171",
"P  c #FC7675",
"I  c #FC7C7C",
"U  c #FC7E7E",
"Y  c #959595",
"T  c #969695",
"R  c gray59",
"E  c #999998",
"W  c gray60",
"Q  c #9F9F9F",
"!  c #A09F9F",
"~  c #95A3A3",
"^  c #96A6A5",
"/  c #9FA0A0",
"(  c #A0A1A0",
")  c #A0A1A1",
"_  c #A0A2A1",
"`  c #A0A3A3",
"'  c #A0A4A4",
"]  c #A0AAAA",
"[  c #A0AEAD",
"{  c #A0AFAE",
"}  c #A0B1B0",
"|  c #A0B4B3",
" . c #A0B8B8",
".. c #FC8383",
"X. c #FC8788",
"o. c #F98E8F",
"O. c #FC8C8C",
"+. c #F99090",
"@. c #FC9494",
"#. c #FF9B9A",
"$. c #F99E9E",
"%. c #FC9F9F",
"&. c #FCA0A0",
"*. c #FCA2A2",
"=. c #FCA9A7",
"-. c #FCADAC",
";. c #FCAEAD",
":. c #FCAFAF",
">. c #FCB1B2",
",. c #FFB3B2",
"<. c #F9B6B5",
"1. c #FCB9B9",
"2. c #FCBBBB",
"3. c #FCBCBB",
"4. c #FCBDBB",
"5. c #FCBDBC",
"6. c #FFBDBC",
"7. c #FCC0BE",
"8. c #FCC1C0",
"9. c #FCC3C2",
"0. c #FCC4C4",
"q. c #F9CBCA",
"w. c #FCC9C9",
"e. c #FFCCCB",
"r. c #FCCDCC",
"t. c #FCCECD",
"y. c #F9D2D1",
"u. c #FCD0D0",
"i. c #FCD2D1",
"p. c #FFD4D2",
"a. c #FCD7D6",
"s. c #FCD9D8",
"d. c #FCDAD8",
"f. c #FCDAD9",
"g. c #FCDFDE",
"h. c #FCE0DF",
"j. c #FCE2E1",
"k. c #FCE6E5",
"l. c #FCEAE9",
"z. c #FCEBEA",
"x. c #FCEEED",
"c. c #FCF0EF",
"v. c #F5F7F5",
"b. c #F9F5F3",
"n. c #F9F5F4",
"m. c #F9F6F4",
"M. c #F9F7F6",
"N. c #FCF5F4",
"B. c #FCF5F5",
"V. c #FCF7F6",
"C. c #F9F8F6",
"Z. c #F9F9F7",
"A. c #FCF8F6",
"S. c #FCF8F7",
"D. c #FCF9F7",
"F. c #F9FAF8",
"G. c #F9FAF9",
"H. c #F9FBF9",
"J. c #FCF8F8",
"K. c #FCF9F8",
"L. c #FCF9F9",
"P. c #FCFAF8",
"I. c #FCFBF9",
"U. c #FCFBFA",
"Y. c #FCFBFB",
"T. c #FCFCFA",
"R. c #FCFCFB",
"E. c #FCFDFB",
"W. c #FCFEFB",
"Q. c #F9FFFF",
"!. c gray99",
"~. c #FCFDFC",
"^. c #FCFDFD",
"/. c #FFFCFC",
"(. c #FCFEFC",
"). c #FCFEFD",
"_. c #FCFFFD",
"`. c #FCFEFE",
"'. c #FCFFFE",
"]. c #FCFFFF",
"[. c #FFFFFE",
"{. c white",
/* pixels */
"  E ~ ^ R T R R R R R R R R R R R R R R R R R R R R Y W   ",
"/ {.t.e./.{.{.{.{.{.{.{.{.{.{.{.{.{.{.{.{.{.{.{.{.{.!.{.Q ",
"} 6.0 e +.Q.m.n.M.Z.b.C.H.G.H.G.H.C.b.Z.M.n.F.H.G.H.v.{.( ",
" .#.o.>.J ].S.].`.).].).E.(.(.(.E.).].).`.].~.W.(.(.H.{.( ",
"| ,.a x I ].k.L :.j.H 3.].T.(.T.].3.H j.:.L l.].E.(.H.{.( ",
"_ {.<.k P ].N X r M X 5 s.].P.].s.5 X M r X Z ].T.(.H.{.( ",
"` {.D i r.].u o : + 2 X 4.].A.].4.X 2 + : o p _.(.(.H.{.( ",
") {.q.g.].].B X > % # 1 s.].P.].s.1 # % > X B ].T.(.H.{.( ",
"] p.$.*.;.].1.o = , X F ].T.(.T.].F X , = O 2.].I.(.H.{.( ",
"[ n & q w I.].%.X X C ~.E.(.(.(.E.~.C X X &.].I.(.(.H.{.( ",
"{ G . X j ].D.]...g L._.E.(.(.(.E._.L.g ..].P.(.(.(.H.{.( ",
"' [.t 8 h.].T.T.V.x.(.I.(.(.(.(.(.I.(.x.V.T.(.(.(.(.H.{.( ",
"! {.y.w.].T.T.].~.U.].R.E.(.(.(.E.R.].U.~.].U.(.(.(.H.{.( ",
") {.G.).T._.!.d.z.K.a.c.].E.(.E.].c.a.K.z.d.!._.(.(.H.{.( ",
"( {.Z.T.T.].@.X c X.X v D._.T._.D.v X X.c X @.].U.(.H.{.( ",
"( {.H.(.(.'.y X 4 9 @ X 4.].A.].4.X @ 9 4 X y '.(.(.H.{.( ",
"( {.H.(.(.].s X ; $ > X 8.].A.].8.X > $ ; X s ].(.(.H.{.( ",
"( {.H.(.P.].O.X , > X f E.I.I.I.E.f X > , X O.].P.(.H.{.( ",
"( {.H.(.E.(.'.A X $ 7 u.].^.~.^.].u.7 $ X A '.(.E.(.H.{.( ",
"( {.H.(.(.E.'.J.l X 0.].S V a.V S ].0.X l J.'.E.(.(.H.{.( ",
"( {.H.(.(.(.T.].f.-.].U X * z * X U ].-.f.].T.(.(.(.H.{.( ",
"( {.H.(.(.(.(.T.U.L.].K X < $ < X K ].L.U.T.(.(.(.(.H.{.( ",
"( {.H.(.(.(.T.].f.;.].=.X > - > X =.].;.f.].T.(.(.(.H.{.( ",
"( {.H.(.(.E.'.J.l X 9.].b X 3 X b ].9.X l J.'.E.(.(.H.{.( ",
"( {.H.(.E.(.'.A X $ 6 i.Y.h X h Y.i.6 $ X A '.(.E.(.H.{.( ",
"( {.H.(.P.].O.X , > X d ].j.m j.].d X > , X O.].P.(.H.{.( ",
"( {.H.(.(.].s X ; $ > X 7.].B.].7.X > $ ; X s ].(.(.H.{.( ",
"( {.H.(.(.'.y X 4 9 @ X 5.].N.].5.X @ 9 4 X y '.(.(.H.{.( ",
"( {.H.(.U.].@.X c X.X v D._.T._.D.v X X.c X @.].T.T.Z.{.( ",
"( {.H.(.(._.!.d.z.K.a.c.].E.(.E.].c.a.K.z.d.!._.T.).G.{.) ",
"( {.H.(.(.(.U.].~.U.].R.E.(.(.(.E.R.].U.~.].T.T.].w.y.{.! ",
"( {.H.(.(.(.(.T.V.x.(.I.(.(.(.(.(.I.(.x.V.T.T.].h.8 t [.' ",
"( {.H.(.(.(.P.]...g L._.E.(.(.(.E._.L.g ..].D.].j X . G { ",
"( {.H.(.(.I.].&.X X C ~.E.(.(.(.E.~.C X X %.].I.w q & n [ ",
"( {.H.(.I.].2.O = , X F ].T.(.T.].F X , = o 1.].;.*.$.p.] ",
"( {.H.(.T.].B X > % # 1 s.].P.].s.1 # % > X B ].].g.q.{.) ",
"( {.H.(.(._.p o : + 2 X 4.].A.].4.X 2 + : o u ].r.i D {.` ",
"( {.H.(.T.].Z X r M X 5 s.].P.].s.5 X M r X N ].P k <.{._ ",
"( {.H.(.E.].l.L :.j.H 3.].T.(.T.].3.H j.:.L k.].I x a ,.| ",
"( {.H.(.(.W.~.].`.).].).E.(.(.(.E.).].).`.].S.].J >.o.#. .",
"( {.v.H.G.H.F.n.M.Z.b.C.H.G.H.G.H.C.b.Z.M.n.m.Q.+.e 0 6.} ",
"Q {.!.{.{.{.{.{.{.{.{.{.{.{.{.{.{.{.{.{.{.{.{.{./.e.t.{./ ",
"  W Y R R R R R R R R R R R R R R R R R R R R T R ^ ~ E   "
};
