/* XPM */
static char *_0668_0b6226f1dcd2a90fda6cf6916d8c0fb9f79234a514ee6680dbfd63bfe45fa250[] = {
/* columns rows colors chars-per-pixel */
"29 43 170 2 ",
"   c black",
".  c #010001",
"X  c #020002",
"o  c #030103",
"O  c gray1",
"+  c #040204",
"@  c #040304",
"#  c #040404",
"$  c #050405",
"%  c #070507",
"&  c #060606",
"*  c #090709",
"=  c #090809",
"-  c #0A080A",
";  c #0A090A",
":  c #0B090B",
">  c #0C0A0C",
",  c #111111",
"<  c #121112",
"1  c #131313",
"2  c #151515",
"3  c #161516",
"4  c #191919",
"5  c #1B1A1B",
"6  c #1C1B1C",
"7  c #1D1C1D",
"8  c #222122",
"9  c #232223",
"0  c gray15",
"q  c #2A292A",
"w  c #2B292B",
"e  c #2A2A2A",
"r  c #2E2D2E",
"t  c #2F2E2F",
"y  c #302F30",
"u  c #323232",
"i  c #343334",
"p  c #343434",
"a  c #353535",
"s  c gray22",
"d  c #393939",
"f  c #3A393A",
"g  c #3C3C3C",
"h  c #3E3D3E",
"j  c #3F3D3F",
"k  c #414041",
"l  c #424142",
"z  c gray26",
"x  c gray28",
"c  c #494949",
"v  c gray29",
"b  c #4F4E4F",
"n  c #504F50",
"m  c gray33",
"M  c gray34",
"N  c #5A595A",
"B  c gray37",
"V  c #5F5F5F",
"C  c #5F605F",
"Z  c #636463",
"A  c #696869",
"S  c #6C6C6C",
"D  c gray43",
"F  c #6F6F6F",
"G  c #717171",
"H  c #727172",
"J  c #777877",
"K  c gray49",
"L  c #7E7E7E",
"P  c #7E7F7E",
"I  c gray50",
"U  c #808080",
"Y  c #818281",
"T  c #868586",
"R  c #888888",
"E  c #8F8E8F",
"W  c #909090",
"Q  c #929392",
"!  c #959595",
"~  c #959695",
"^  c gray59",
"/  c #979897",
"(  c #989998",
")  c gray60",
"_  c #9A9B9A",
"`  c #9F9F9F",
"'  c #9FA09F",
"]  c #A0A0A0",
"[  c #A0A1A0",
"{  c gray63",
"}  c #A1A2A1",
"|  c #A2A2A2",
" . c #A2A3A2",
".. c gray64",
"X. c #A5A6A5",
"o. c gray66",
"O. c #AEAFAE",
"+. c #AFAFAF",
"@. c gray69",
"#. c #B0B1B0",
"$. c #B2B1B2",
"%. c #B2B3B2",
"&. c #B3B4B3",
"*. c #B4B5B4",
"=. c #B5B6B5",
"-. c #B6B7B6",
";. c #B7B8B7",
":. c gray72",
">. c #B9B9B9",
",. c #B9BAB9",
"<. c #BABBBA",
"1. c #BCBDBC",
"2. c gray74",
"3. c #BFC0BF",
"4. c #BFC1BF",
"5. c #C0C1C0",
"6. c #C1C1C1",
"7. c #C2C3C2",
"8. c #C3C3C3",
"9. c #C7C8C7",
"0. c #C8C9C8",
"q. c #CBCCCB",
"w. c #CDCECD",
"e. c gray81",
"r. c #CFD0CF",
"t. c #D2D3D2",
"y. c gray84",
"u. c #D7D7D7",
"i. c #D8D9D8",
"p. c gray85",
"a. c #DADBDA",
"s. c gainsboro",
"d. c #DDDEDD",
"f. c gray87",
"g. c #E0E1E0",
"h. c #E1E0E1",
"j. c #E1E1E1",
"k. c gray89",
"l. c #E5E7E5",
"z. c #E6E6E6",
"x. c #EEEFEE",
"c. c #EFF0EF",
"v. c #F0F1F0",
"b. c #F1F1F1",
"n. c #F5F6F5",
"m. c #F5F7F5",
"M. c #F6F8F6",
"N. c #F7F9F7",
"B. c #F8F9F8",
"V. c #F9F9F9",
"C. c #F8FAF8",
"Z. c #F9FAF9",
"A. c #F9FBF9",
"S. c gray98",
"D. c #FAFBFA",
"F. c #FBFBFB",
"G. c #F9FCF9",
"H. c #FAFCFA",
"J. c #FBFCFB",
"K. c #FBFDFB",
"L. c #FBFEFB",
"P. c gray99",
"I. c #FCFDFC",
"U. c #FDFDFD",
"Y. c #FCFEFC",
"T. c #FDFEFD",
"R. c #FDFFFD",
"E. c #FEFEFE",
"W. c #FEFFFE",
"Q. c white",
/* pixels */
"y ( ..X.^ ~ ^ ^ ^ ^ ^ ^ ^ ^ ^ ^ ^ ^ ^ ^ ^ ^ ^ ^ ^ ^ ! ) y ",
"] Q.w.q.P.Q.Q.Q.Q.Q.Q.Q.Q.Q.Q.Q.Q.Q.Q.Q.Q.Q.Q.Q.Q.Q.P.Q.` ",
"#.1.7 8 W Q.m.A.N.M.A.Z.A.A.A.A.A.Z.A.M.N.A.Z.A.A.A.m.Q.[ ",
":._ E $.S Q.C.K.J.E.H.Y.Y.Y.Y.Y.Y.Y.H.E.J.K.Y.Y.Y.Y.A.Q.[ ",
"&.%.t k K Q.M.Q.k.8.Q.A.Y.Y.Y.Y.Y.A.Q.8.k.Q.H.Y.Y.Y.A.Q.[ ",
"} Q.=.f J Q.B.T.c @ e.Q.H.Y.Y.Y.H.Q.e.@ c T.Y.K.Y.Y.A.Q.[ ",
" .Q.V w r.Q.Q.B   X 4 s.Q.H.Y.H.Q.s.4 X   B Q.K.Y.Y.A.Q.[ ",
"| Q.5.g.T.Q./   : :   g Q.K.Y.K.Q.g   : :   / Q.C.Y.A.Q.[ ",
"' Q.g.a.Q.R.r   # . -   5.Q.M.Q.5.  - . #   r Q.Y.Y.A.Q.[ ",
"..Q.t 6 z.Q.p   b A ,   9.Q.N.Q.9.  , A b   a Q.K.Y.A.Q.[ ",
"O.Z     a Q.i.-.I x <.2.W.Y.Y.Y.W.2.<.x I ;.p.Q.K.Y.A.Q.[ ",
"+.A 3 9 j Q.I.Q.9.=.v.Q.K.Y.Y.Y.K.Q.v.=.9.Q.T.Y.Y.Y.A.Q.[ ",
"' Q.F N W.Y.H.N.T.Q.Z.A.Y.Y.Y.Y.Y.A.Z.Q.T.N.J.Y.Y.Y.A.Q.[ ",
"] Q.x.x.T.K.H.Q.f.>.Q.C.Y.Y.Y.Y.Y.C.Q.>.f.Q.H.Y.Y.Y.A.Q.[ ",
"{ Q.D.E.K.K.R.F.l   0.Q.A.Y.Y.Y.A.Q.0.  l F.R.K.Y.Y.A.Q.[ ",
"[ Q.C.K.Y.I.Q.M   o 2 u.Q.H.A.H.Q.u.2 o   M Q.Y.Y.Y.A.Q.[ ",
"[ Q.A.Y.C.Q.Q   > -   s Q.A.E.A.Q.s   - >   Q Q.C.Y.A.Q.[ ",
"[ Q.A.Y.Y.W.e   @ . -   1.Q.@.Q.1.  - . @   e W.Y.Y.A.Q.[ ",
"[ Q.A.Y.K.Q.d   m D 1   y.)   ) y.  1 D m   d Q.K.Y.A.Q.[ ",
"[ Q.A.Y.K.Q.d.7.L z 3.t.|   %   | t.3.z L 7.d.Q.K.Y.A.Q.[ ",
"[ Q.A.Y.Y.Y.T.Q.r.4.V.h.& $ * $ & h.V.4.r.Q.T.Y.Y.Y.A.Q.[ ",
"[ Q.A.Y.Y.Y.J.C.E.F.Q.G   =   =   G Q.F.E.C.J.Y.Y.Y.A.Q.[ ",
"[ Q.A.Y.Y.Y.H.H.K.S.Q.P   u H u   P Q.S.K.H.H.Y.Y.Y.A.Q.[ ",
"[ Q.A.Y.Y.Y.U.Q.R v b.S.,.o.i o.,.S.b.v R Q.U.Y.Y.Y.A.Q.[ ",
"[ Q.A.Y.H.Q.L q U Y n h n.j.*.j.n.h n Y U q L Q.H.Y.A.Q.[ ",
"[ Q.A.Y.Y.W.0   < 5 O   ,.Q.S.Q.,.  O 5 <   0 W.Y.Y.A.Q.[ ",
"[ Q.A.Y.A.Q.C   - @ + 2 l.Q.M.Q.l.2 + @ -   C Q.A.Y.A.Q.[ ",
"[ Q.A.Y.H.Q.t.< X :   T Q.A.Y.A.Q.T   : X < t.Q.H.K.C.Q.[ ",
"[ Q.A.Y.Y.A.Q.6.;   G Q.A.Y.Y.Y.A.Q.G   ; 6.Q.G.K.E.D.Q.{ ",
"[ Q.A.Y.Y.Y.C.Q.] M Q.H.K.Y.Y.Y.K.H.Q.M ] Q.C.L.T.x.x.Q.] ",
"[ Q.A.Y.Y.Y.K.M.I.T.B.C.Y.Y.Y.Y.Y.C.B.T.I.M.H.Y.W.N F Q.' ",
"[ Q.A.Y.Y.Y.T.Q.9.-.c.Q.K.Y.Y.Y.K.Q.c.-.9.Q.I.Q.j 9 3 A +.",
"[ Q.A.Y.K.Q.p.;.I x <.2.W.Y.Y.Y.W.2.<.x I -.i.Q.a     Z O.",
"[ Q.A.Y.K.Q.a   b A ,   9.Q.N.Q.9.  , A b   p Q.z.6 t Q...",
"[ Q.A.Y.Y.Q.r   # . -   5.Q.M.Q.5.  - . #   r R.Q.a.g.Q.' ",
"[ Q.A.Y.C.Q./   : :   g Q.K.Y.K.Q.g   : :   / Q.T.g.5.Q.| ",
"[ Q.A.Y.Y.K.Q.B   X 4 s.Q.H.Y.H.Q.s.4 X   B Q.Q.r.w V Q. .",
"[ Q.A.Y.Y.K.Y.T.c @ e.Q.H.Y.Y.Y.H.Q.e.@ c T.B.Q.J f =.Q.} ",
"[ Q.A.Y.Y.Y.H.Q.k.8.Q.A.Y.Y.Y.Y.Y.A.Q.8.k.Q.M.Q.K k t %.&.",
"[ Q.A.Y.Y.Y.Y.K.J.E.H.Y.Y.Y.Y.Y.Y.Y.H.E.J.K.C.Q.S $.E _ :.",
"[ Q.m.A.A.A.Z.A.N.M.A.Z.A.A.A.A.A.Z.A.M.N.A.m.Q.W 8 7 1.#.",
"` Q.P.Q.Q.Q.Q.Q.Q.Q.Q.Q.Q.Q.Q.Q.Q.Q.Q.Q.Q.Q.Q.Q.P.q.w.Q.] ",
"y ) ! ^ ^ ^ ^ ^ ^ ^ ^ ^ ^ ^ ^ ^ ^ ^ ^ ^ ^ ^ ^ ~ ^ X...( y "
};
