/* XPM */
static char *_1815_618c194637a764ca1727d99ff8957fab763d7e20d0a8d92ea8ba6a839644557c[] = {
/* columns rows colors chars-per-pixel */
"29 43 173 2 ",
"   c black",
".  c #010001",
"X  c #010101",
"o  c #020002",
"O  c #020102",
"+  c #020202",
"@  c #030203",
"#  c #040404",
"$  c #070707",
"%  c #080708",
"&  c gray4",
"*  c #0B0B0B",
"=  c #0C0B0C",
"-  c #0E0D0E",
";  c #110F11",
":  c #111011",
">  c #121012",
",  c #121112",
"<  c #131213",
"1  c #161516",
"2  c #161616",
"3  c #171617",
"4  c #191819",
"5  c #1A191A",
"6  c #1B1A1B",
"7  c #1D1B1D",
"8  c #1D1C1D",
"9  c #1F1D1F",
"0  c #1F1E1F",
"q  c #222122",
"w  c #252525",
"e  c #282828",
"r  c #292829",
"t  c #2A292A",
"y  c #2D2B2D",
"u  c gray18",
"i  c #2F2E2F",
"p  c #302F30",
"a  c gray20",
"s  c #353435",
"d  c #383738",
"f  c #393839",
"g  c #393939",
"h  c #3A383A",
"j  c #3A393A",
"k  c #403F40",
"l  c #414041",
"z  c #434243",
"x  c #444344",
"c  c #474647",
"v  c gray28",
"b  c #484848",
"n  c #4E4D4E",
"m  c gray31",
"M  c #545354",
"N  c #555455",
"B  c #565656",
"V  c #585758",
"C  c gray36",
"Z  c #5E5D5E",
"A  c #5F5F5F",
"S  c #606060",
"D  c #656465",
"F  c #6B6A6B",
"G  c gray42",
"H  c #6C6C6C",
"J  c #6F6F6F",
"K  c gray44",
"L  c #717071",
"P  c #717171",
"I  c gray45",
"U  c #777877",
"Y  c #797979",
"T  c #7A797A",
"R  c gray48",
"E  c #7C7C7C",
"W  c #7C7D7C",
"Q  c gray49",
"!  c #808080",
"~  c #818181",
"^  c gray51",
"/  c #868686",
"(  c #8D8D8D",
")  c #8F8E8F",
"_  c #909090",
"`  c gray57",
"'  c #949594",
"]  c #959595",
"[  c #959695",
"{  c gray59",
"}  c #989998",
"|  c gray60",
" . c #9A9B9A",
".. c #9B9B9B",
"X. c #9D9D9D",
"o. c #9F9F9F",
"O. c #9FA09F",
"+. c #A0A0A0",
"@. c #A0A1A0",
"#. c gray63",
"$. c #A1A2A1",
"%. c #A2A3A2",
"&. c gray64",
"*. c #A4A4A4",
"=. c #A5A6A5",
"-. c #B0B1B0",
";. c #B2B1B2",
":. c #B2B3B2",
">. c #B3B4B3",
",. c gray71",
"<. c #B6B7B6",
"1. c #B7B8B7",
"2. c gray72",
"3. c #BCBDBC",
"4. c #BEBFBE",
"5. c #BFC0BF",
"6. c #C0C1C0",
"7. c #C1C0C1",
"8. c #C3C5C3",
"9. c #C4C3C4",
"0. c #C4C5C4",
"q. c #C5C6C5",
"w. c #C6C7C6",
"e. c #C7C8C7",
"r. c #C8C9C8",
"t. c #CBCCCB",
"y. c gray80",
"u. c #CDCECD",
"i. c #CECFCE",
"p. c #D2D2D2",
"a. c LightGray",
"s. c #D3D5D3",
"d. c #D5D5D5",
"f. c #D6D7D6",
"g. c #D8DAD8",
"h. c #DBDCDB",
"j. c #DDDEDD",
"k. c #E0E1E0",
"l. c #E1E3E1",
"z. c #E7E9E7",
"x. c #E8E9E8",
"c. c #E9EAE9",
"v. c #EBECEB",
"b. c gray93",
"n. c #EEEFEE",
"m. c #EFF0EF",
"M. c gray94",
"N. c #F1F1F1",
"B. c #F3F5F3",
"V. c gray96",
"C. c #F4F6F4",
"Z. c #F5F7F5",
"A. c #F6F8F6",
"S. c #F7F9F7",
"D. c #F8F8F8",
"F. c #F8F9F8",
"G. c #F8FAF8",
"H. c #F9FAF9",
"J. c #F9FBF9",
"K. c gray98",
"L. c #FAFBFA",
"P. c #FBFBFB",
"I. c #FAFCFA",
"U. c #FAFDFA",
"Y. c #FBFCFB",
"T. c #FBFDFB",
"R. c #FBFEFB",
"E. c gray99",
"W. c #FCFEFC",
"Q. c #FDFEFD",
"!. c #FEFEFE",
"~. c #FEFFFE",
"^. c white",
/* pixels */
"p } &.=.{ [ { { { { { { { { { { { { { { { { { { { { ] | p ",
"+.^.u.t.E.^.^.^.^.^.^.^.^.^.^.^.^.^.^.^.^.^.^.^.^.^.E.^.o.",
"-.3.8 q _ ^.Z.J.A.C.G.J.H.J.J.J.H.J.G.C.A.J.H.J.J.J.Z.^.@.",
"2. .) ;.H ^.G.T.Q.^.Y.W.W.W.W.W.W.W.Y.^.Q.T.W.W.W.W.J.^.@.",
">.:.i l Q ^.A.^.1./ Q.W.W.W.W.W.W.W.Q./ 1.^.I.W.W.W.J.^.@.",
"$.^.,.g U ^.~.s.=   ~ ^.G.W.W.W.G.^.~   = s.^.I.W.W.J.^.@.",
"%.^.S y i.^.^.p.-   Q ^.H.W.W.W.H.^.Q   - p.^.I.W.W.J.^.@.",
"@.^.6.a.^.^.0.d f 7 k R ^.I.W.I.^.R k 7 f d 8.^.I.W.J.^.@.",
"O.^.M d V.^.e   @ X +   4.^.A.^.4.  + X @   r ^.W.W.J.^.@.",
"*.v.3 $ r.^.K   m F & q z.^.J.^.z.q & F m   P ^.I.W.J.^.@.",
"T w 2 4 * 5.^.3.Q b 1.h.^.U.W.U.^.h.1.b Q 5.V.~.W.W.J.^.@.",
"! 0 2 t o q.^.!.e.<.N.^.I.W.W.W.I.^.N.<.e.^.I.W.W.W.J.^.@.",
"+.^.X.x k.~.T.G.Q.^.H.I.W.W.W.W.W.I.H.^.Q.G.W.W.W.W.J.^.@.",
"O.^.K.z.K.W.T.^.b.j.^.W.W.W.W.W.W.W.^.j.b.^.T.W.W.W.J.^.@.",
"#.^.S.^.T.T.W.C.z o 0.^.I.W.W.W.I.^.0.o z C.W.T.W.W.J.^.@.",
"@.^.J.T.W.J.^.9.    D ^.S.T.S.T.S.^.D     9.^.J.W.W.J.^.@.",
"@.^.J.W.T.^.m.' j ; Y u.^.L.^.L.^.u.Y ; j ' m.^.T.W.J.^.@.",
"@.^.J.W.I.^.V   , = % : l.x.J x.l.: % = ,   V ^.I.W.J.^.@.",
"@.^.J.W.T.^.a   6 r X   w.v   v w.  X r 6   a ^.T.W.J.^.@.",
"@.^.J.W.I.^.d.n ^ E A ` ^.h   h ^.` A E ^ n d.^.I.W.J.^.@.",
"@.^.J.W.W.W.Y.^.( B M.D.c x > x c D.M.B ( ^.Y.W.W.W.J.^.@.",
"@.^.J.W.W.W.J.C.Q.P.^.G   # O #   G ^.P.Q.C.J.W.W.W.J.^.@.",
"@.^.J.W.W.W.Y.^.( N F.7.  u I u   7.F.N ( ^.Y.W.W.W.J.^.@.",
"@.^.J.W.I.^.d.n ^ W Z ..f.%.s %.f...Z W ^ n d.^.I.W.J.^.@.",
"@.^.J.W.T.^.a   6 r X   y.c.-.c.y.  X r 6   a ^.T.W.J.^.@.",
"@.^.J.W.I.^.V   , = $ < g.^.E.^.g.< $ = ,   V ^.I.W.J.^.@.",
"@.^.J.W.T.^.m.' j ; Y u.^.J.J.J.^.u.Y ; j ' m.^.T.W.J.^.@.",
"@.^.J.W.W.J.^.9.    D ^.A.W.W.W.A.^.D     9.^.J.W.T.G.^.@.",
"@.^.J.W.W.T.W.C.z o 0.^.I.W.W.W.I.^.0.o z C.W.T.I.!.L.^.#.",
"@.^.J.W.W.W.T.^.b.j.^.W.W.W.W.W.W.W.^.j.b.^.R.T.^.n.n.^.o.",
"@.^.J.W.W.W.W.G.Q.^.H.I.W.W.W.W.W.I.H.^.Q.G.W.L.B.C L ^.o.",
"@.^.J.W.W.W.I.^.e.<.N.^.I.W.W.W.I.^.N.<.e.!.^.q.. t 8 9 ! ",
"@.^.J.W.W.~.V.5.Q b 1.h.^.U.W.U.^.h.1.b Q 3.^.5.= 5 1 w T ",
"@.^.J.W.I.^.P   m F & q z.^.J.^.z.q & F m   K ^.r.$ 3 v.*.",
"@.^.J.W.W.^.r   @ X +   4.^.A.^.4.  + X @   e ^.V.d M ^.O.",
"@.^.J.W.I.^.8.d f 7 k R ^.I.W.I.^.R k 7 f d 0.^.^.a.6.^.@.",
"@.^.J.W.W.I.^.p.-   Q ^.H.W.W.W.H.^.Q   - p.^.^.i.y S ^.%.",
"@.^.J.W.W.I.^.s.=   ~ ^.G.W.W.W.G.^.~   = s.~.^.U g ,.^.$.",
"@.^.J.W.W.W.I.^.1./ Q.W.W.W.W.W.W.W.Q./ 1.^.A.^.Q l i :.>.",
"@.^.J.W.W.W.W.T.Q.^.Y.W.W.W.W.W.W.W.Y.^.Q.T.G.^.H ;.)  .2.",
"@.^.Z.J.J.J.H.J.A.C.G.J.H.J.J.J.H.J.G.C.A.J.Z.^._ q 8 3.-.",
"o.^.E.^.^.^.^.^.^.^.^.^.^.^.^.^.^.^.^.^.^.^.^.^.E.t.u.^.+.",
"p | ] { { { { { { { { { { { { { { { { { { { { [ { =.&.} p "
};
