/* XPM */
static char *_454_35d43c39401aa350ed4daebbe5cec2bf6e56430149535a1d89f7dfc913f68efe[] = {
/* columns rows colors chars-per-pixel */
"29 43 122 2 ",
"   c #343334",
".  c #AA0304",
"X  c #BE0202",
"o  c #C10505",
"O  c #CA0006",
"+  c #C10A0A",
"@  c #D00102",
"#  c #F60000",
"$  c #FC0203",
"%  c #FC0608",
"&  c #F90F10",
"*  c #F31B15",
"=  c #FA1D1E",
"-  c #F43500",
";  c #F6231D",
":  c #CA3839",
">  c #D63A3B",
",  c #F53B3C",
"<  c #BF4202",
"1  c #CF4307",
"2  c #EA4635",
"3  c #ED4C3C",
"4  c #FB563D",
"5  c #FA7C38",
"6  c #CB4545",
"7  c #C04C4D",
"8  c #CD5757",
"9  c #F94242",
"0  c #FC4B42",
"q  c #F34E4E",
"w  c #EC5545",
"e  c #E15A4C",
"r  c #ED5A4A",
"t  c #F05A4A",
"y  c #EA5F51",
"u  c #FF5657",
"i  c #F25759",
"p  c #FF5758",
"a  c #F55B5A",
"s  c #EC6667",
"d  c #EA6768",
"f  c #EB6D6C",
"g  c #FF6767",
"h  c #F16B6B",
"j  c #EC796D",
"k  c #EB7F74",
"l  c #F97F7E",
"z  c #F2AF03",
"x  c #FC863E",
"c  c #F8C212",
"v  c #FBC91C",
"b  c #FD8A41",
"n  c #F18D6D",
"m  c #E78573",
"M  c #EB8075",
"N  c #E78F73",
"B  c #F6817E",
"V  c #F8817E",
"C  c #8D8C8C",
"Z  c #9E8787",
"A  c #958D8D",
"S  c #9E8988",
"D  c #959595",
"F  c #979897",
"G  c #989897",
"H  c #999A99",
"J  c #A19F9D",
"K  c #A1A19F",
"L  c #9EA5A4",
"P  c #A1A3A1",
"I  c #A3ABAA",
"U  c #A3B4B2",
"Y  c #ED8484",
"T  c #E48D8C",
"R  c #EA8E8F",
"E  c #F08989",
"W  c #EF9087",
"Q  c #EF9188",
"!  c #E39192",
"~  c #ED9595",
"^  c #F29696",
"/  c #F39898",
"(  c #E2AAAA",
")  c #FFA5A5",
"_  c #F3AEAE",
"`  c #E9B7B7",
"'  c #E5BEBD",
"]  c #ECBABB",
"[  c #F4B0B0",
"{  c #FFBCBC",
"}  c #EEC3BF",
"|  c #FCEABA",
" . c #EEC3C0",
".. c #FBC2C1",
"X. c #F6CFCB",
"o. c #F9D1CC",
"O. c #EDD4D4",
"+. c #F5D7D7",
"@. c #F9D2D1",
"#. c #F9DCDB",
"$. c #FCECC1",
"%. c #FDF7C0",
"&. c #EAE7E5",
"*. c #EBE8E7",
"=. c #ECECEB",
"-. c #F7E5E4",
";. c #FAE6E6",
":. c #F6E9E7",
">. c #F3ECEB",
",. c #FAEDEC",
"<. c #EEF1EE",
"1. c #FCFFE3",
"2. c #F1F0EE",
"3. c #F9F3EF",
"4. c #EEF2F0",
"5. c #EAFAF8",
"6. c #F3F5F3",
"7. c #FAF3F2",
"8. c #F6F8F6",
"9. c #FBF9F6",
"0. c #F3FEFD",
"q. c #FCFEFC",
/* pixels */
"  G C D C C D C D A A C C C C C C C A A C C C D C D D G   ",
"P q.q.q.q.q.q.q.q.q.9.9.9.7.9.9.6.9.q.q.q.q.q.q.q.7.7.q.P ",
"P q.8.6.6.4.=.=.*.>.;.*.&.&.&.&.&.:.;.<.=.=.<.2.0.E Y q.J ",
"P q.q.9.6.8.4.<.=.6.7.,.*.=.*.*.=.,.7.6.<.2.6.8.>.^ R q.P ",
"P q.q.q.8.6.8.<.<.<.6.,.>.*.*.*.>.7.4.2.<.6.6.0._ 9 , { U ",
"P q.8.q.q.8.6.8.<.=.6.,.>.*.*.=.,.7.<.<.4.6.6.6.q l l p L ",
"P q.8.q.q.q.6.8.6.=.4.>.7.=.*.>.,.2.<.2.6.6.0.-.a #.+.g S ",
"P q.8.q.q.q.q.6.8.6.<.6.,.>.&.>.7.2.2.4.8.6.q.q.q.q.q.q.P ",
"P q.q.q.q.q.q.8.6.6.<.<.3.:.=.,.6.<.6.6.6.9.q.q.q.#.O.q.P ",
"P q.9.q.q.q.q.q.8.6.4.<.6.7.] 7.<.<.6.6.6.q.q.q.9.a > q.P ",
"P q.q.q.q.q.q.q.q.6.8.<.4.*.7 >.6.6.6.8.q.q.q.q.T # $ ) I ",
"P q.8.q.q.q.q.q.q.9.8.=.5.( X ( q.6.6.q.q.q.q.q.5.f d q.P ",
"P q.8.q.q.q.q.q.q.q.8.6.0.6 X 6 0.6.8.q.q.q.q.q.q.;.;.q.P ",
"P q.q.q.q.q.q.q.q.q.q.q.' X o X } q.q.q.q.q.q.q.q.q.9.q.P ",
"P q.q.q.q.q.q.q.q.q.9.q.8 X + X 8 q.9.q.q.q.q.q.q.q.9.q.P ",
"P q.9.q.q.q.q.q.q.q.q.` o o o o o ` q.q.q.q.q.q.q.q.q.q.P ",
"P q.8.q.q.q.q.q.q.q.8.: o o o + X : 9.q.q.q.q.q.q.q.9.q.P ",
"P q.q.q.q.q.q.q.9.q.T X o o . o o X ! q.q.q.q.q.q.q.q.q.P ",
"P q.q.q.q.q.q.9.q...& @ X X < X X @ & ..q.9.q.q.q.q.8.q.P ",
"P q.8.q.q.q.q.q.@.= $ % O 1 c 1 O $ $ = @.q.q.q.q.q.q.q.P ",
"P q.q.q.q.q.,.^ = $ $ % - z v z - % % $ = ^ ,.q.q.q.q.q.P ",
"P q.9.q.q.9.h $ $ % $ 4 b x 5 x b 4 $ $ $ $ h 9.q.q.9.q.P ",
"P q.q.q.q.q.,.^ = $ % % 0 $.1.| 0 % % $ = / ,.q.q.q.9.q.P ",
"P q.8.q.q.q.q.q.o.= $ $ * n %.n * $ $ = @.q.q.q.q.q.q.q.P ",
"P q.8.q.q.q.q.9.q...% ; r w N w r ; % ..q.9.q.q.q.q.9.q.P ",
"P q.q.q.q.q.q.q.q.q.B 3 r w e w r 3 B 0.q.q.q.q.q.q.q.q.P ",
"P q.q.q.q.q.q.q.q.q.9.j 3 r w r 3 j 9.q.q.q.q.q.q.q.q.q.P ",
"P q.9.q.q.q.q.q.q.q.q.X.w w w w w X.q.q.q.q.q.q.q.q.8.q.P ",
"P q.9.q.q.q.q.q.q.q.q.q.Q 3 r 3 Q q.q.q.q.q.q.q.q.q.q.q.P ",
"P q.q.q.q.q.q.q.q.q.q.q.:.y w y :.q.q.q.q.q.q.q.q.q.9.q.P ",
"P q.-.;.q.q.q.q.q.q.q.q.q.M 2 M q.q.q.q.q.q.q.q.q.q.9.q.P ",
"P q.s f 5.q.q.q.q.q.q.q.q. .2  .q.q.q.q.q.q.q.q.q.q.q.q.P ",
"I ) $ # T q.q.q.q.q.q.q.q.3.m 3.q.q.q.q.q.q.q.q.q.q.8.q.P ",
"P q.> a q.q.q.q.q.q.q.q.q.q.o.q.q.q.q.q.q.q.q.q.q.q.q.q.P ",
"P q.O.#.q.q.q.q.q.q.q.q.q.q.q.q.q.q.q.q.q.q.q.q.q.q.9.q.P ",
"P q.9.q.q.q.q.q.q.q.q.q.q.q.q.q.q.q.q.q.q.q.q.q.q.q.q.q.P ",
"S g +.#.p ;.q.q.q.q.q.q.q.q.q.q.q.q.q.q.q.q.q.q.q.q.9.q.P ",
"L p Y l q q.q.q.q.q.q.q.q.q.q.q.q.q.q.q.q.q.q.q.q.q.q.q.P ",
"U { , 9 [ q.9.q.q.q.q.q.q.q.q.q.q.q.q.q.q.q.q.q.q.q.8.q.P ",
"P q.R ~ 7.q.q.q.q.q.q.q.q.q.q.q.q.q.q.q.q.q.q.q.q.q.q.q.P ",
"J q.Y E q.9.9.9.8.8.9.9.q.q.9.q.q.9.9.q.9.q.9.9.9.q.8.q.J ",
"P q.7.7.q.q.q.q.q.q.q.q.q.q.q.q.q.q.q.q.q.q.q.q.q.q.q.q.P ",
"  H F F F F D D G F F F F F F F D D G D F F F F F F D H   "
};
