/* XPM */
static char *_7290_f55b3546d6be6c1307a2ba62de7bd0b51256985a5a882bad39c23d40d148e6a8[] = {
/* columns rows colors chars-per-pixel */
"29 43 176 2 ",
"   c #343434",
".  c #B70003",
"X  c #BD0203",
"o  c #BC0C05",
"O  c #BF180D",
"+  c #C40304",
"@  c #CB0204",
"#  c #C50A06",
"$  c #C80809",
"%  c #D20405",
"&  c #DE0203",
"*  c #D30C07",
"=  c #C61405",
"-  c #C71E04",
";  c #C01108",
":  c #D01F05",
">  c #C51C17",
",  c #E60304",
"<  c #E90504",
"1  c #ED0806",
"2  c #EC0909",
"3  c #E80809",
"4  c #F40203",
"5  c #FD0203",
"6  c #F60C06",
"7  c #FC0B03",
"8  c #F40D0C",
"9  c #FE1700",
"0  c #F51D04",
"q  c #F6130F",
"w  c #FC140A",
"e  c #F40D14",
"r  c #F61815",
"t  c #FF1910",
"y  c #F6191B",
"u  c #C82807",
"i  c #D53006",
"p  c #D63B07",
"a  c #CB291C",
"s  c #CE3515",
"d  c #DD3819",
"f  c #E72F07",
"g  c #FC2301",
"h  c #F82906",
"j  c #F2280D",
"k  c #E93003",
"l  c #E63A00",
"z  c #E03F0B",
"x  c #F03601",
"c  c #F33C07",
"v  c #FF3B00",
"b  c #ED271A",
"n  c #F72910",
"m  c #F62215",
"M  c #E73D13",
"N  c #C93A2F",
"B  c #DC362C",
"V  c #DC3439",
"C  c #E4232A",
"Z  c #E82627",
"A  c #E03132",
"S  c #E73438",
"D  c #E63C35",
"F  c #F73639",
"G  c #F63939",
"H  c #D04207",
"J  c #DB4018",
"K  c #E84B05",
"L  c #FD4900",
"P  c #E35C06",
"I  c #F46E06",
"U  c #E17F06",
"Y  c #CD412D",
"T  c #D94623",
"R  c #D0512B",
"E  c #D94A36",
"W  c #E54F28",
"Q  c #E34121",
"!  c #F04324",
"~  c #F84031",
"^  c #E23A40",
"/  c #CA4940",
"(  c #DB4B4D",
")  c #D45447",
"_  c #D55050",
"`  c #E74B4E",
"'  c #F84142",
"]  c #F24E4E",
"[  c #F44F50",
"{  c #FF5657",
"}  c #FE5758",
"|  c #F65A5A",
" . c #FF5A5A",
".. c #F55251",
"X. c #D5626B",
"o. c #DC786E",
"O. c #D66C73",
"+. c #DB787E",
"@. c #EA6464",
"#. c #E7696B",
"$. c #FF6665",
"%. c #F06A6A",
"&. c #E76C72",
"*. c #E37070",
"=. c #EA7072",
"-. c #F77E7E",
";. c #FB7D7E",
":. c #FF8F05",
">. c #B48D78",
",. c #E4837F",
"<. c #F7807F",
"1. c #F9807F",
"2. c #F67F80",
"3. c #F87E81",
"4. c #9D8989",
"5. c #969796",
"6. c #959897",
"7. c #969998",
"8. c #999A99",
"9. c #A29F9E",
"0. c #9FA5A4",
"q. c #A2A3A2",
"w. c #A2ACAB",
"e. c #A2B0AF",
"r. c #A2B2B1",
"t. c #DD9496",
"y. c #D68788",
"u. c #EC8282",
"i. c #EC8B8C",
"p. c #FF8788",
"a. c #FF8A89",
"s. c #F88D93",
"d. c #EC9595",
"f. c #E1989E",
"g. c #EC9699",
"h. c #F19291",
"j. c #D9A09F",
"k. c #D9AC91",
"l. c #DBA4A4",
"z. c #D3B2B4",
"x. c #DABFBD",
"c. c #EDAEAD",
"v. c #E3A2A1",
"b. c #F6AEAE",
"n. c #E6B3A8",
"m. c #E6B5B3",
"M. c #EFB4B4",
"N. c #F4B0B0",
"B. c #FFBCBC",
"V. c #C4BFC7",
"C. c #DBC2C2",
"Z. c #E5C4C4",
"A. c #EDC5C5",
"S. c #E8CACC",
"D. c #F7C8C7",
"F. c #F1C8C8",
"G. c #E7D1D2",
"H. c #E2DDDD",
"J. c #F5D6D6",
"K. c #CEDCEE",
"L. c #DADFE2",
"P. c #E6E3E3",
"I. c #EBEBEA",
"U. c #E6EBE9",
"Y. c #F6E5E4",
"T. c #FBE5E4",
"R. c #E9F0EF",
"E. c #F8F0EF",
"W. c #EAEEF6",
"Q. c #F0EFF2",
"!. c #EDF9F7",
"~. c #F5F7F5",
"^. c #FAF3F2",
"/. c #F5FDFD",
"(. c #FCFEFC",
"). c #F0F3FB",
/* pixels */
"  8.5.8.5.5.5.5.7.5.7.8.5.5.8.5.5.5.5.5.7.5.7.8.5.5.5.8.  ",
"q.(.^.^.(.(.(.(.(.(.(.(.(.(.(.(.(.(.(.(.(.(.(.(.(.(.(.(.q.",
"9.(.u.i.(.~.(.(.~.(.(.~.(.(.(.~.~.(.(.(.~.(.(.~.(.(.~.(.q.",
"q.(.i.g.^.(.(.(.(.(.(.(.(.(.(.(.(.(.(.(.(.(.(.(.(.(.(.(.q.",
"r.B.G ' N.(.(.(.(.(.(.(.(.(.(.(.(.(.(.(.(.(.(.(.(.(.(.(.q.",
"0.{ p.3.[ /.(.(.(.(.(.(.(.(.(.(.(.(.(.(.(.(.(.(.(.(.(.(.q.",
"4.$.J.J.| T.(.(.(.(.(.(.(.(.(.(.(.(.(.(.(.(.(.(.(.(.~.(.q.",
"q.(.(.(.(.(.(.(.(.(.(.(.(.(.(.(.(.(.(.(.(.(.(.(.(.(.(.(.q.",
"w.J.N.M.J.(.(.(.(.(.(.(.(.(.(.(.(.(.(.(.(.(.(.(.(.(.(.(.q.",
"w.} 4 6 ..(.(.(.(.(.~.(./.(.(.(.(.(.(.(.(.(.(.(.(.(.(.(.q.",
"e.p.5 5 -.(.(.(.(.(.(.(./.W.~.).L.Q.(.(.(.(.(.(.(.(.~.(.q.",
"q.(.@.%.(.(.(.(.(.Z.3.g.W.C.k.C.>.K.G.3.h.I.(.(.(.(.(.(.q.",
"q.(.Y.T.(.(.(.(.l.2 y n E m.o.B n.-.b j 8 B P.(.(.(.(.(.q.",
"q.(.~.(.(.(.(.F.q G Y T D y z.z.+.w T Y _ t ` (.(.(.(.(.q.",
"q.(.(.(.(.(.(.@.m N + @ > x D g.0 J $ @ $ E q A.(.(.(.(.q.",
"q.(.(.(.(.(.(.F l o + # @ - Q Z E + + # + u g s.(.^.(.(.q.",
"q.(./.(.(.(.(.F M O # * 2 & a R $ < 3 # X s 0 s.(.(.(.(.q.",
"q.(.~.(.(.(.(.&.9 : X , 5 5 , $ 4 5 5 % X k q S.(.(.(.(.q.",
"q.(.(.(.(.(.(.m.4 d . , 5 5 5 5 5 5 5 + O j S /.(.(.(.(.q.",
"q.(.~.(.(.(.(.!.^ h u @ 5 5 5 5 5 5 , o z 6 t.(.(.(.~.(.q.",
"q.(.(.(.(.(.(.(.v.5 c u % 6 5 5 5 < + p 9 Z I.(.(.(.(.(.q.",
"q.(.(.(.(.(.(.(.(.=.5 c = % 5 5 4 + i g e F.(.(.(.(.(.(.q.",
"q.(.(.(.(.(.(.(.(.~.( 5 f X < 5 @ = g 4 l.(.(.(.(.(.(.(.q.",
"q.(.~.(.(.(.(.(.(.(.U.V 9 H @ , o K 7 y.(.(.(.(.(.(.(.(.q.",
"q.(.~.(.(.(.(.(.(.~.(.H.Z L p + P g O./.(.~.(.(.(.(.(.(.q.",
"q.(.(.(.(.(.(.(.(.(.(.(.l.4 I U v C R.(.(.(.(.(.(.(.(.(.q.",
"q.(.(.(.(.(.(.(.(.(.(.(./.X.g :.2 V.(.(.(.(.(.(.(.(.~.(.q.",
"q.(.(.(.(.(.(.(.(.(.(.(.(.P.b 7 #.(.(.(.(.(.(.(.(.(.(.(.q.",
"q.(.~.(.(.(.(.(.(.(.(.(.(.(.*.4 G.(.(.(.(.(.(.(.(.(.(.(.q.",
"q.(.(.(.(.(.(.(.(.(.(.(.(.(.Z._ /.(.(.(.(.(.(.(.(.(.(.(.q.",
"q.(.(.(.(.(.(.(.(.(.(.(.(.(.E.D.(.(.(.(.(.(.(.(.(.T.Y.(.q.",
"q.(.~.(.(.(.(.(.(.(.(.(.(.(.(.(.(.(.(.(.(.(.(.(.(.%.@.(.q.",
"q.(.(.(.(.(.(.(.(.(.(.(.(.(.(.(.(.(.(.(.(.(.(.(.-.5 5 a.r.",
"q.(.(.(.(.(.(.(.(.(.(.(.(.(.(.~.(.(.(.(.(.(.(.(.[ 4 4  .r.",
"q.(.(.(.(.(.(.(.(.(.(.(.(.(.(.(.(./.(.(.(.(.(.(.J.N.c.T.w.",
"q.(.~.(.(.(.(.(.(.(.(.(.(.(.(.(.(.(.(.(.(.(.(.(.(.(.(.(.q.",
"q.(.~.(.(.(.(.(.(.(.(.(.(.(.(.(.(.(.(.(.(.(.(.T.| J.J.$.4.",
"q.(.(.(.(.(.(.(.(.(.(.(.(.(.(.(.(.(.(.(.(.(.(.(.] 3.u. .q.",
"q.(.(.(.(.(.(.(.(.(.(.(.(.(.(.(.(.(.(.(.(.(.(.(.b.' G B.r.",
"q.(.(.(.(.(.(.(.(.(.(.(.(.(.(.(.(.(.(.(.(.(.(.(.E.d.i.(.q.",
"q.(.~.(.(.(.(.(.~.~.(.(.(.(.(.~.(.(.~.(.(.(.(.^.(.i.u.(.9.",
"q.(.(.(.(.(.(.(.(.(.(.(.(.(.(.(.(.(.(.(.(.(.(.(.(.^.^.(.q.",
"  5.5.5.5.5.5.5.8.7.5.5.5.5.5.5.5.5.5.5.5.5.5.5.5.5.5.8.  "
};
