/* XPM */
static char *_0638_3cbd25b062e1a123e731cb625c2ef39d6595b76a5407979936ee66ecc40f13d2[] = {
/* columns rows colors chars-per-pixel */
"29 43 71 1 ",
"  c #010101",
". c #0C0C0C",
"X c #100F10",
"o c #131313",
"O c #1B1B1B",
"+ c #222322",
"@ c #272C27",
"# c #292729",
"$ c #2C2D2C",
"% c #2B332C",
"& c #332432",
"* c #312B30",
"= c #353535",
"- c #343B35",
"; c #383738",
": c #373A38",
"> c #3C3C3C",
", c #3E413E",
"< c #7C2578",
"1 c #434443",
"2 c #4C4C4C",
"3 c #535353",
"4 c #5C5B5C",
"5 c #626362",
"6 c #686768",
"7 c #6B6A6B",
"8 c #6F706F",
"9 c #767576",
"0 c #7B7B7B",
"q c #81367E",
"w c #853481",
"e c #883682",
"r c #92358D",
"t c #A13A9E",
"y c #A737A0",
"u c #B928B2",
"i c #BA35B3",
"p c #C300BA",
"a c #934D8E",
"s c #C04ABB",
"d c #CE07C5",
"f c #858585",
"g c #8C8B8C",
"h c #969696",
"j c #989997",
"k c #94959A",
"l c #9C9C9C",
"z c #9FA09F",
"x c #AEAE89",
"c c #A78BA6",
"v c #A98CA7",
"b c #A2A3A2",
"n c #A7A8A7",
"m c #ABACAB",
"M c #B3B3B3",
"N c #BDBDBD",
"B c #CE9DCC",
"V c #D0A3CE",
"C c #DABFD9",
"Z c #C4C5C4",
"A c #CBCBCB",
"S c #D0CFD0",
"D c #DAC0D9",
"F c #D4D4D4",
"G c #D9DAD9",
"H c #E2E3E2",
"J c #ECEDEC",
"K c #EFF0EF",
"L c #F4F6F4",
"P c #F7F8F7",
"I c #FCFEFC",
/* pixels */
"xkjjkjjhhhhjkjjjhjkjjhhjkjjkx",
"bIJJIIIIIIIIIIIIIIIIIIIIIIIIb",
"zI90IPIPPIPIIPIPIPIPPIPIIPPIb",
"nP0fJIIIIIIIIIIIIIIIIIIIIIPIb",
"MM;>nIPIIIIIIIIIIIIIIIIIIIIIb",
"l2001IIIIIIIIIIIIIIIIIIIIIPIb",
"f5FF4HIIIIIIIIIIIIIIIIIIIIIIb",
"bIPPIIIIIIIIIIPIIIIIIIIIIIPIb",
"zIjzIPIIIIIIIPgPIIIIIIIIIIPIb",
"mF.XAIIIIIIIIAoFIPIIIIIIIIIIb",
"M0  9IIIIIIPI0 0IPIIIIIIIIIIb",
"nH23GIIIIIIIHo OHIIIIIIIIIPIb",
"bIMNIIIIIIII2 2 2PIIIIIIIIIIb",
"bIIIIIIIIPIl >#; bIPIIIIIIPIb",
"bIPIIIIIIIZX=+o+=oZIIIIIIIPIb",
"bIIIIIIPIFO$@&s&@*OFIIIIIIIIb",
"bIIIIIIIJ$o,-ipi:>X=JIIIIIPIb",
"bIPIIIIP3 :*4rdr4*; 3PIIIIIIb",
"bIPIIIIb ;%yu1a1ut%; bIIIIPIb",
"bIIIIIP1#=%qt1-,tq%=$1PIIIIIb",
"bIIIIIZ >>++,1g1,+O>, ZIIIIIb",
"bIPIPIf >$:;=2l2;>;$> gIIIPIb",
"bIIIII4 :>>>.$,%.;>>> 4IPIPIb",
"bIIIII9 .=;oO414OX>=X 0IIIIIb",
"bIPIIIN     0j.j9     NIPIPIb",
"bIIIIII7   OHgXgHO   7IIIIIIb",
"bIIIIIIL7o%VI3+3IN*o7PIIIIIIb",
"bIPIIIIIIHKIGO=OGIJHIIIIIIPIb",
"bIPIIIIIIIIIf#=#gIIIIIIIIIPIb",
"bIIIIIIIIPIG57375GIIIIIIIIIIb",
"bIIIIIIIIIIc<wew<vIIIIIIINNIb",
"bIPIIIIIIIIDBVVVBDIIIIIIG32Hn",
"bIIIIIIIIIIIIIIIIIIIIIPI9  0M",
"bIPIIIIIIIIIIIIIIIIIIIIIA..Fm",
"bIIIIIIIIIIIIIIIIIIIIIIIIlhIz",
"bIIIIIIIIIIIIIIIIIIIIIIIIIPIb",
"bIPIIIIIIIIIIIIIIIIIIIIH4FF5f",
"bIIIIIIIIIIIIIIIIIIIIIIP1002l",
"bIIIIIIIIIIIIIIIIIIIIIPIb>=MM",
"bIPIIIIIIIIIIIIIIIIIIIIIJf0Pn",
"bIPPPIIPIPIPIIPIIPPIPIPPI09Iz",
"bIIIIIIIIIIIIIIIIIIIIIIIIJKIb",
"xkhhjjhhhhhkhjjkhhkjjkjjhjjkx"
};
