/* XPM */
static char *_0607_65f79f54160e7a4b8323369c35f9757bd4306cb7f67f86479a2b92001e1dea0f[] = {
/* columns rows colors chars-per-pixel */
"29 43 197 2 ",
"   c black",
".  c #030001",
"X  c #040302",
"o  c #070503",
"O  c gray2",
"+  c #060607",
"@  c #080708",
"#  c #090909",
"$  c #09080B",
"%  c #0A090A",
"&  c #0B090B",
"*  c #0F0E0E",
"=  c #0F0E0F",
"-  c gray6",
";  c #100D0F",
":  c #020013",
">  c #030114",
",  c #100E10",
"<  c #111012",
"1  c #141315",
"2  c #161416",
"3  c #171417",
"4  c #181617",
"5  c #181618",
"6  c #181718",
"7  c #191919",
"8  c #1A181A",
"9  c #1B191B",
"0  c #1D1B1D",
"q  c gray11",
"w  c #1D1D1D",
"e  c #1E1D1E",
"r  c #1F1C1F",
"t  c #160E2A",
"y  c #190F2C",
"u  c #212021",
"i  c #222122",
"p  c #232123",
"a  c #232223",
"s  c #272423",
"d  c #272525",
"f  c #2A2726",
"g  c #2C2C2C",
"h  c #2D2C2D",
"j  c gray18",
"k  c #3B392A",
"l  c #3A382C",
"z  c #3D3B2D",
"x  c #322933",
"c  c #302F30",
"v  c #353335",
"b  c #373637",
"n  c #393839",
"m  c #3B3A3B",
"M  c #3D3B3D",
"N  c #3C3C3C",
"B  c #3D3C3D",
"V  c #3F3D3F",
"C  c #453E27",
"Z  c #0D0C4D",
"A  c #3E3C41",
"S  c #000060",
"D  c #00006D",
"F  c #434143",
"G  c #444344",
"H  c #474446",
"J  c gray28",
"K  c #4D4B4D",
"L  c gray31",
"P  c #535044",
"I  c #444352",
"U  c #4E4C50",
"Y  c #525052",
"T  c #535152",
"R  c #565456",
"E  c #575657",
"W  c #57555C",
"Q  c #706945",
"!  c #6C6A5F",
"~  c #626162",
"^  c #656064",
"/  c #656365",
"(  c #666667",
")  c #6C6A63",
"_  c #6C6A65",
"`  c #69666A",
"'  c gray42",
"]  c #6E6D6D",
"[  c #6F6E6F",
"{  c #706E6F",
"}  c #6F6B77",
"|  c #706F70",
" . c #716F70",
".. c gray44",
"X. c #757373",
"o. c #7A7A77",
"O. c #7B7C7C",
"+. c #7C7C7C",
"@. c #7D7C7D",
"#. c #7D7E7E",
"$. c #7F7E7F",
"%. c #5CF561",
"&. c #5CF562",
"*. c #7CF578",
"=. c #70FD7D",
"-. c #AC933E",
";. c #F4C81F",
":. c #F8D13C",
">. c #000094",
",. c #807F80",
"<. c #828182",
"1. c gray52",
"2. c #878687",
"3. c gray53",
"4. c #888888",
"5. c #8B8A8B",
"6. c #959595",
"7. c gray59",
"8. c #979697",
"9. c #979797",
"0. c #989998",
"q. c gray60",
"w. c #9D9D9D",
"e. c #9F9F9F",
"r. c #9FA09F",
"t. c #A0A0A0",
"y. c #A0A1A0",
"u. c gray63",
"i. c #A2A3A2",
"p. c #A4A5A4",
"a. c #A5A5A5",
"s. c #A0B1A1",
"d. c #A0B1A3",
"f. c #B7B4A6",
"g. c #B7B5AB",
"h. c gray69",
"j. c #B1B1B1",
"k. c #B1B2B1",
"l. c #B9BAB9",
"z. c #B6E8B6",
"x. c #B6E8B7",
"c. c #C0C0C0",
"v. c gray77",
"b. c #CECFCE",
"n. c #CFD0CF",
"m. c #D4D5D4",
"M. c #D7D8D7",
"N. c #E0D1DF",
"B. c #D0E3CF",
"V. c #D1E4CF",
"C. c #DDECDF",
"Z. c #F7FBC5",
"A. c #F7FBC9",
"S. c #FFFDCB",
"D. c #E1E1E1",
"F. c gray89",
"G. c gray90",
"H. c #E5E6E5",
"J. c gray91",
"K. c #EAEBEA",
"L. c #EAECEA",
"P. c #EBECEB",
"I. c #ECEDEC",
"U. c gray93",
"Y. c #EDEEED",
"T. c #E1F0E0",
"R. c #E1F1E2",
"E. c #EFF1EF",
"W. c #F0F2F0",
"Q. c #F1F2F1",
"!. c #F1F3F1",
"~. c #F3F3F3",
"^. c #F3F5F3",
"/. c #F5F7F5",
"(. c #F7F8F7",
"). c #F7F9F7",
"_. c #F6F7F8",
"`. c #F8F9F8",
"'. c #F8FAF8",
"]. c #F9FAF9",
"[. c #F9FBF9",
"{. c #FAFBFA",
"}. c #FBFBFB",
"|. c #FAFCFA",
" X c #FAFDFA",
".X c #FBFCFB",
"XX c #FBFDFB",
"oX c gray99",
"OX c #FCFDFC",
"+X c #FDFDFD",
"@X c #FCFEFC",
"#X c #FDFEFD",
"$X c #FDFFFD",
"%X c #FEFEFE",
"&X c #FEFFFE",
"*X c #FFFEFF",
"=X c white",
/* pixels */
"c 0.9.0.6.7.7.7.7.7.7.7.7.7.7.7.7.7.7.7.7.7.7.7.7.7.6.q.c ",
"e.=XJ.G.=X%X=X=X=X=X=X=X=X=X=X=X=X=X=X=X=X=X=X=X=X=XoX=Xe.",
"w.=X2.[ =X/.[.[.[.[.[.[.[.[.[.[.[.[.[.[.[.[.[.[.[.[./.=Xy.",
"i.=X,.@.H.=XXX@X@X@X@X@X@X@X@X@X@X@X@X@X@X@X@X@X@X@X[.=Xy.",
"j.c.N J 6.=X'.@X@X@X@X@X@X@X@X@X@X@X@X@X@X@X@X@X@X@X[.=Xy.",
"p.E ..1.b !.=XXX@X@X@X@X@X@X@X@X@X@X@X@X@X@X@X@X@X@X[.=Xy.",
"1.L v.D.m b.=X|.@X@X@X@X@X@X@X@X@X@X@X@X@X@X@X@X@X@X[.=Xy.",
"u.=X].oX=X#X@X@X@X@X@X@X@X@X@X@X@X@X@X@X@X@X@X@X@X@X[.=Xy.",
"r.=X/ Y {.$XXX@X@X@X@X@X@X@X@X@X@X@X@X@X@X@X@X@X@X@X[.=Xy.",
"a.`.7 @ M.=X|.@X@X@X@X@X@X@X@X@X@X@X@X@X@X@X@X@X@X@X[.=Xy.",
"3.n % = 9 n.=X|.@X@X@X@X@X'.).'.@X@X@X@X@X@X@X@X@X@X[.=Xy.",
"5.M a h r m.=X|.@X@X@XXX.X=X=X=X.XXX@X@X@X@X@X@X@X@X[.=Xy.",
"t.=X<.| @XOXXX@X@X@XXXOX(.7.4.7.(.OXXX@X@X@X@X@X@X@X[.=Xy.",
"y.=XK.L.&X@X@X@X@X@XXX=X'   O   ' =XXX@X@X@X@X@X@X@X[.=Xy.",
"y.=X}.&XXX@X@X@X@X|.=X+.  V U V   +.=X|.@X@X@X@X@X@X[.=Xy.",
"y.=X'.XX@X@X@X@XXX=X^.* v X.! X.v * ^.=XXX@X@X@X@X@X[.=Xy.",
"y.=X[.@X@X@X@X@XXX=X^.1 T W Z W T 1 ^.=XXX@X@X@X@X@X[.=Xy.",
"y.=X[.@X@X@X@XXX'.@XE.< s I >.I s < E.@X'.XX@X@X@X@X[.=Xy.",
"y.=X[.@X@X@X@X@X*X=XoXg   6 # 6   g oX=X*X@X@X@X@X@X[.=Xy.",
"y.=X[.@X@XXX$XY.k.k.l.h.- ` N.` - h.l.k.k.Y.$XXX@X@X[.=Xy.",
"y.=X[.@X@X'.=X(   $   j ^ C.=.C.^ j   $   ( =X'.@X@X[.=Xy.",
"y.=X[.@XXX=X$.8 R l d   x s.*.d.x   d l R 8 $.=XXX@X[.=Xy.",
"y.=X[.@X@X=Xq G K S : o.R.g.S.f.T.o.> S K G q =X@X@X[.=Xy.",
"y.=X[.@X@X=Xu H F D y z.&.A.:.Z.%.x.t D F H u =X@X@X[.=Xy.",
"y.=X[.@XXX=XB 0 { z f O.V.) -._ B.#.o k  .0 B =XXX@X[.=Xy.",
"y.=X[.@X|.=XF.w e A + X } C ;.C } X + A e w F.=X|.@X[.=Xy.",
"y.=X[.@X@X[.=X8.& 3 , ] _.P Q P _.] ; 2 & 8.=X[.@X@X[.=Xy.",
"y.=X[.@X@X@X|.#XQ.U.I.&X{.e   e {.&XI.U.Q.#X|.@X@XXX'.=Xy.",
"y.=X[.@X@X@X@X X&X=X+X=XD.4 . 4 D.=X+X=X&X X@X@XXX&X}.=Xy.",
"y.=X[.@X@X@X@X@XXX|.&X~.K   O   K ~.&X|.XX@X@X@X&XL.K.=Xy.",
"y.=X[.@X@X@X@X@XXX=XP.~ 5 p i p 5 ~ P.=XXX@XXXOX@X| <.=Xt.",
"y.=X[.@X@X@X@X@X@X$X).W.$XXXXXXX$XW.).$X@X|.=Xm.r h a M 5.",
"y.=X[.@X@X@X@X@X@X@X#X=X$X$X$X$X$X=X#X@X@X|.=Xn.9 = % n 3.",
"y.=X[.@X@X@X@X@X@X@X@X@X@X@X@X@X@X@X@X@X@X@X|.=XM.@ 7 `.a.",
"y.=X[.@X@X@X@X@X@X@X@X@X@X@X@X@X@X@X@X@X@X@XXX$X{.Y / =Xr.",
"y.=X[.@X@X@X@X@X@X@X@X@X@X@X@X@X@X@X@X@X@X@X@X#X=XoX].=Xu.",
"y.=X[.@X@X@X@X@X@X@X@X@X@X@X@X@X@X@X@X@X@X|.=Xb.m D.v.L 1.",
"y.=X[.@X@X@X@X@X@X@X@X@X@X@X@X@X@X@X@X@X@XXX=X!.b 1...E p.",
"y.=X[.@X@X@X@X@X@X@X@X@X@X@X@X@X@X@X@X@X@X@X'.=X6.J N c.j.",
"y.=X[.@X@X@X@X@X@X@X@X@X@X@X@X@X@X@X@X@X@X@XXX=XH.@.,.=Xi.",
"y.=X/.[.[.[.[.[.[.[.[.[.[.[.[.[.[.[.[.[.[.[.[./.=X[ 2.=Xw.",
"e.=XoX=X=X=X=X=X=X=X=X=X=X=X=X=X=X=X=X=X=X=X=X%X=XG.J.=Xe.",
"c q.6.7.7.7.7.7.7.7.7.7.7.7.7.7.7.7.7.7.7.7.7.7.6.0.9.0.c "
};
