/* XPM */
static char *_572_462279c2440012474ad85566c7710e6d24146a0c334646c67cb7bdf4285d8408[] = {
/* columns rows colors chars-per-pixel */
"29 43 220 2 ",
"   c #1B1600",
".  c #320000",
"X  c #380000",
"o  c #281703",
"O  c #331900",
"+  c #002E00",
"@  c #172C02",
"#  c #053606",
"$  c #2C2802",
"%  c #372803",
"&  c #243505",
"*  c #332914",
"=  c #2B2B2D",
"-  c #3B3629",
";  c #5C1B05",
":  c #4D110E",
">  c #700200",
",  c #711300",
"<  c #731F15",
"1  c #6E0400",
"2  c #453B19",
"3  c #4C2F0D",
"4  c #72310E",
"5  c #412E35",
"6  c #4B3134",
"7  c #6A2E31",
"8  c #6A3329",
"9  c #315433",
"0  c #6B4806",
"q  c #7A4A11",
"w  c #795817",
"e  c #6B570D",
"r  c #796317",
"t  c #7E6008",
"y  c #49513A",
"u  c #724A37",
"i  c #6C4B37",
"p  c #786C30",
"a  c #323D46",
"s  c #531145",
"d  c #723053",
"f  c #4C3F78",
"g  c #3D434E",
"h  c #264D58",
"j  c #21505B",
"k  c #56474D",
"l  c #444C51",
"z  c #475157",
"x  c #535457",
"c  c #474B4B",
"v  c #774C4D",
"b  c #755351",
"n  c #566456",
"m  c #626346",
"M  c #686055",
"N  c #787248",
"B  c #514871",
"V  c #6B6E72",
"C  c #6F7170",
"Z  c #774966",
"A  c #810000",
"S  c #8A0C10",
"D  c #A90201",
"F  c #BB0E01",
"G  c #BB0B12",
"H  c #892B09",
"J  c #BA3500",
"K  c #9F3E2E",
"L  c #893B3F",
"P  c #B52923",
"I  c #B13731",
"U  c #DF0002",
"Y  c #FC0203",
"T  c #FE0A00",
"R  c #F70000",
"E  c #FD1B06",
"W  c #E10002",
"Q  c #DD3E03",
"!  c #FB230B",
"~  c #FB330C",
"^  c #F92B1D",
"/  c #FF2B22",
"(  c #FD3D38",
")  c #925806",
"_  c #A45B05",
"`  c #8C7600",
"'  c #967807",
"]  c #8D700F",
"[  c #B46C07",
"{  c #AA6218",
"}  c #88442B",
"|  c #88593B",
" . c #8C4A34",
".. c #A15F21",
"X. c #917335",
"o. c #8C7030",
"O. c #BE742C",
"+. c #CA480D",
"@. c #F34516",
"#. c #C0711A",
"$. c #E57800",
"%. c #D55435",
"&. c #E84E39",
"*. c #FC503B",
"=. c #E6542F",
"-. c #C7752A",
";. c #C56022",
":. c #FA643B",
">. c #F97935",
",. c #EF693E",
"<. c #88374D",
"1. c #893D62",
"2. c #8E5653",
"3. c #AA5C55",
"4. c #90764F",
"5. c #AE765E",
"6. c #BD6954",
"7. c #837E76",
"8. c #8D767B",
"9. c #B5776D",
"0. c #C65A4A",
"q. c #D55A52",
"w. c #EC4D4D",
"e. c #FF4D46",
"r. c #F45B5B",
"t. c #C86848",
"y. c #FB6058",
"u. c #EB6868",
"i. c #F46665",
"p. c #EE7272",
"a. c #F97878",
"s. c #C87072",
"d. c #2AC73A",
"f. c #5A9F5F",
"g. c #468C48",
"h. c #A98300",
"j. c #C29802",
"k. c #D59F0D",
"l. c #D8AB1A",
"z. c #CFA319",
"x. c #E3B103",
"c. c #EAAF3A",
"v. c #DA9929",
"b. c #FCC602",
"n. c #98865E",
"m. c #8E8952",
"M. c #80807F",
"N. c #888668",
"B. c #B28667",
"V. c #C18553",
"C. c #FC9A48",
"Z. c #C18B62",
"A. c #D3966F",
"S. c #EB807F",
"D. c #D7B967",
"F. c #EDAC6C",
"G. c #576291",
"H. c #6E4F89",
"J. c #887D84",
"K. c #967F80",
"L. c #78898F",
"P. c #888585",
"I. c #918E8F",
"U. c #969796",
"Y. c #969699",
"T. c #879787",
"R. c #AF8588",
"E. c #AEAE87",
"W. c #B0AB89",
"Q. c #BEB58B",
"!. c #A99DA4",
"~. c #9BA8A8",
"^. c #A2A3A2",
"/. c #AAABAA",
"(. c #A6A8A9",
"). c #B0ABAE",
"_. c #AAAEB4",
"`. c #A2B9B7",
"'. c #A5B5B4",
"]. c #BCBCB9",
"[. c #B6B1A4",
"{. c #DF8B88",
"}. c #E88785",
"|. c #FC8787",
" X c #EC9493",
".X c #FA9898",
"XX c #FB9FA0",
"oX c #FDA4A4",
"OX c #FBA5A5",
"+X c #95C99F",
"@X c #BBC19C",
"#X c #95C9A0",
"$X c #BBC0BA",
"%X c #DCD0A6",
"&X c #CECEAB",
"*X c #E4D6B0",
"=X c #D3CD9B",
"-X c #C5BAC3",
";X c #CBCACA",
":X c #CCCED7",
">X c #CFD2D7",
",X c #D3D3D5",
"<X c #D8DBD8",
"1X c #D5CACF",
"2X c #F4D7D7",
"3X c #D5DEE0",
"4X c #EDDFEA",
"5X c #DEE7E9",
"6X c #DDEBEF",
"7X c #E4E4E2",
"8X c #ECEDEC",
"9X c #E8EBE6",
"0X c #F9E7E6",
"qX c #ECF5F5",
"wX c #F4F3F3",
"eX c #F7F9F7",
"rX c #F4FCFB",
"tX c #FDFEFD",
"yX c #F8F5F8",
"uX c #F4F0F3",
/* pixels */
"E.Y.~.~.Y.U.U.U.U.U.U.U.U.U.U.U.U.U.U.U.U.U.U.U.U.U.U.Y.E.",
"^.tXa.|.tXtXtXtXtXtXtXtXtXtXtXtXtXtXtXtXtXtXtXtXtXtXtXtX^.",
"'.oXr.i. XtXeXeXeXeXeXeXeXeXeXeXeXeXeXeXeXeXeXeXtXeXeXtX^.",
"`..X.XOX|.tXtXtXtXtXtXtXtXtXtXtXtXtXtXtXtXtXtXtXtXtXeXtX^.",
"`..X.X.X|.6X;X:X:X>X<X>X1X,X>X:X;X;X;X;X;X;X;X<XtXtXtXtX^.",
"'.OXu.a. XL.X.h.' e 1 b N y 2 p _././.(./././.7.wXtXeXtX^.",
"(.tXi.e.7X_.*Xb.x.] D B.[.M.- t 8XtXtXtXtXtXtX(.8XtXeXtX^.",
"^.tXtX0X9X/.5Xl.j.0 S M ].<X= o n.tXtXwX XrXtX^.8XtXeXtX^.",
"^.tX2X0XqX(.7Xz.' , L /.L.P.x - 2 <XtXp.Y }.tX^.8XtXeXtX^.",
"^.tXw.r.7X(.%Xj.e A I.tX(.1XM.x % W.yXw.Y r.yX(.8XtXeXtX^.",
"(.oXY Y }.~.D.` 1 K 1XtX^.-X8.V % n.tX0Xp.wXtX^.8XtXeXtX^.",
"^.tXu.a.qX).9X< P &X7.0X].!.a V 6 r wXtXyXtXtX^.8XtXtXtX^.",
"^.tX0X0XuX~.R.W *.A.h g P.l h 9.2 p qXtX<X8XrX~.8XtXeXtX^.",
"^.tXeXtXeXv F =.w.Y q.8.z C s.^ +.p yX%X{ n.wX!.8XtXtXtX^.",
"^.tXeXtXrX7 8 ;.E ^ q.( y.e./ q.E p 6XW.[ A.#Xg.yXtXtXtX^.",
"^.tXeXtXtX5 ; m.+.E 6.! 0.%.T ! O.N.6 uX].n d.f.yXtXeXtX^.",
"^.tXeXtXeXu v.0.m =./ T @.~ Q X.G.Z . z -XC n !.wXtXtXtX^.",
"^.tXeXtXqXn.*.D _ X.3.,.>.>.4.B B 2.. $ 4.-XJ.C eXtXeXtX^.",
"^.tXeXtXrX2.D { Z.[ ) -.V.H.I <.| } 0 '   V !.U.wXtXeXtX^.",
"^.tXeXtXeX8 O J c.9.) J  .<.*.1.i 0 ] $ @ # T.).8XtXeXtX^.",
"^.tXeXtXyXy $ 3 $.c.s 4 k v } v x 6 ; 7 . @ # n eXtXeXtX^.",
"^.tXeXtXtX9 @ % H t.c B.F.D.A.F.F.5.k 6.4 $ & 9 eXtXtXtX^.",
"^.tXtXtXyXn # & 3 4 ; u M v K v v < s c.$.: & y tXtXeXtX^.",
"^.tXeXtX9X).T.+ $ O ] ) | d :.d  .: { 9.c.H O 8 rXtXeXtX^.",
"^.tXeXtXwXU.!.C @ ] e 0 2.d I H.5.d ) [ Z.[ G 2.qXtXtXtX^.",
"^.tXeXtXeXC J.1X4.$ X 2.B B 4.>.v.w.3.X._ P C.m.wXtXeXtX^.",
"^.tXeXtX8XY.n C -Xl . b G.o.+.~ ~ T / =.m t.k.u rXtXeXtX^.",
"^.tXtXtXyXf.d.n $XqX6 N.-.E T &.0.! t.E +.f.; 5 tXtXrXtX^.",
"^.tXeXtXyXg.#XA.[ [.5X| ! q./ e.i.( q.! E ;.8 7 rXtXeXtX^.",
"^.tXeXtX8X!.uXn...;XqXp ~ / s.C x K.q.Y &.&.F b eXtXeXtX^.",
"^.tXtXtX8X^.tX9X3XtXyXp 4 q.j l J.a h A.*.W R.~.qX0X0XtX^.",
"^.tXeXtX8X^.tXtXtXtXqXw - M a (.-X4XJ.&XP < 9X/.qXp.u.tX^.",
"^.tXeXtX8X^.tXwXp.0XtXn.* V C -X!.tX1X .> ' D.(.{.Y R oX(.",
"^.tXeXtX8X(.yXr.Y w.yXW.% x K.,X).tXR.> 0 j.%X(.7Xr.w.tX^.",
"^.tXtXtX8X^.tX}.Y p.tX,X2 = x P.f.).<., h.l.9X/.qX0X2XtX^.",
"^.tXeXtX8X!.tXeX XwXtXtXn.o = =XQ.M S 0 h.l.7X/.9X0XtXtX^.",
"^.tXtXtX8X(.tXtXtXtXtXtX9Xr 2 7.E.5.D ] x.b.*X_.7X( p.tX^.",
"^.tXeXtXeXC /./././././._.N 3 y m u > e ' h.X.L. Xa.i.OX'.",
"^.tXtXtXtX<X;X;X;X;X;X;X;X,X,X,X,X,X>X,X:X:X;X6X|.XX.X.X'.",
"^.tXeXtXtXtXtXtXtXtXtXtXtXtXtXtXtXtXtXtXtXtXtXtX|.oX.X.X`.",
"^.tXeXtXtXeXeXeXeXeXeXeXeXeXeXeXrXeXeXeXeXeXyXtX.Xi.i.OX'.",
"^.tXeXtXtXtXtXtXtXtXtXtXtXtXtXtXtXtXtXtXtXtXtXtXtX|.a.tX^.",
"E.Y.U.U.U.U.U.U.U.U.U.U.U.U.U.U.U.U.U.U.U.U.U.U.U.~.~.Y.E."
};
