/* XPM */
static char *_422_989eca3b0a9c8e6c8c5b236d25e94fe910a35f84b5f50fff4359c3f4f1c5b4a6[] = {
/* columns rows colors chars-per-pixel */
"29 43 218 2 ",
"   c #000000",
".  c #0C0905",
"X  c #181413",
"o  c #250106",
"O  c #373712",
"+  c #353535",
"@  c #3F3524",
"#  c #6D0C0E",
"$  c #6C1113",
"%  c #780000",
"&  c #433200",
"*  c #573404",
"=  c #682007",
"-  c #413932",
";  c #783029",
":  c #1C5919",
">  c #02580B",
",  c #1D5C20",
"<  c #3D4839",
"1  c #4F4000",
"2  c #774400",
"3  c #705B15",
"4  c #635B18",
"5  c #597C03",
"6  c #72611B",
"7  c #48443A",
"8  c #55532A",
"9  c #614B33",
"0  c #776E2B",
"q  c #152C49",
"w  c #1B1462",
"e  c #3D1E77",
"r  c #003874",
"t  c #33336B",
"y  c #662956",
"u  c #710F7E",
"i  c #394446",
"p  c #164768",
"a  c #06447F",
"s  c #1F4D7B",
"d  c #37526E",
"f  c #365777",
"g  c #224D65",
"h  c #4A4745",
"j  c #54524D",
"k  c #464C58",
"l  c #565656",
"z  c #4F514F",
"x  c #64544D",
"c  c #5D6256",
"v  c #46665A",
"b  c #786A44",
"n  c #716F5C",
"m  c #757159",
"M  c #6E6C59",
"N  c #584B69",
"B  c #635967",
"V  c #5A6562",
"C  c #596B7F",
"Z  c #696965",
"A  c #64637E",
"S  c #797B7D",
"D  c #74716E",
"F  c #830201",
"G  c #890000",
"H  c #920000",
"J  c #9B1815",
"K  c #AC0000",
"L  c #AC1A0F",
"P  c #BF2100",
"I  c #A22B08",
"U  c #821826",
"Y  c #813F3D",
"T  c #972722",
"R  c #B22F32",
"E  c #D60000",
"W  c #FB0001",
"Q  c #F70505",
"!  c #E01C00",
"~  c #D52B09",
"^  c #FD2B00",
"/  c #E93C00",
"(  c #C01F24",
")  c #D53E3E",
"_  c #F93D3E",
"`  c #97580B",
"'  c #A8571A",
"]  c #957109",
"[  c #A47F16",
"{  c #9F403E",
"}  c #8A7539",
"|  c #D44E0E",
" . c #D1500C",
".. c #CF7A09",
"X. c #E43F40",
"o. c #A87759",
"O. c #BB586D",
"+. c #916A65",
"@. c #A67261",
"#. c #905851",
"$. c #FA5758",
"%. c #E94849",
"&. c #D2684C",
"*. c #EB6768",
"=. c #F36766",
"-. c #F77879",
";. c #EA7979",
":. c #C6494A",
">. c #4C914F",
",. c #588C5A",
"<. c #A68115",
"1. c #94833F",
"2. c #BCA230",
"3. c #CD9632",
"4. c #C6AD32",
"5. c #948D4F",
"6. c #A89B53",
"7. c #94926E",
"8. c #938F72",
"9. c #A19A65",
"0. c #ACA175",
"q. c #E2955A",
"w. c #DAB467",
"e. c #CD8742",
"r. c #FFF15A",
"t. c #002D84",
"y. c #3E2F90",
"u. c #0326AE",
"i. c #0F0CAB",
"p. c #6C1180",
"a. c #004988",
"s. c #004E9C",
"d. c #044A92",
"f. c #04539A",
"g. c #145B9D",
"h. c #2C5D9F",
"j. c #38698B",
"k. c #0357A6",
"l. c #0056AF",
"z. c #726B8D",
"x. c #4F44A4",
"c. c #0000D6",
"v. c #0000E5",
"b. c #0000EA",
"n. c #4430CD",
"m. c #3959EE",
"M. c #B72792",
"N. c #B937A7",
"B. c #AA34A8",
"V. c #CC3A85",
"C. c #857882",
"Z. c #B44BB8",
"A. c #CA4B84",
"S. c #C444AE",
"D. c #CD70D8",
"F. c #878C86",
"G. c #938F91",
"H. c #829190",
"J. c #969796",
"K. c #9C9B9B",
"L. c #99989A",
"P. c #8E948F",
"I. c #A19E9E",
"U. c #A59782",
"Y. c #9EA19D",
"T. c #A6A29B",
"R. c #A8B385",
"E. c #A89FA2",
"W. c #99A6A5",
"Q. c #A2A3A2",
"!. c #A3ACAC",
"~. c #ABAAA9",
"^. c #A8A8A6",
"/. c #A5B3AD",
"(. c #B3B4AA",
"). c #A2B9B7",
"_. c #A5B8B5",
"`. c #B5B9B6",
"'. c #B4AAA9",
"]. c #FD8787",
"[. c #FA9898",
"{. c #EB9393",
"}. c #C2BE9F",
"|. c #CC80BA",
" X c #FA9FA1",
".X c #FCA4A5",
"XX c #F6B9B9",
"oX c #EEACAB",
"OX c #D0B6AC",
"+X c #BCC1BF",
"@X c #C9C59B",
"#X c #D3C997",
"$X c #C6C8BE",
"%X c #DABDCD",
"&X c #DF91CA",
"*X c #CCCCCA",
"=X c #CAC6C4",
"-X c #D2D7CF",
";X c #CFD5D6",
":X c #D3D2D3",
">X c #DBD9D8",
",X c #CDCFD5",
"<X c #EFCBCC",
"1X c #E2E1DF",
"2X c #D9E9EB",
"3X c #ECEDEB",
"4X c #E6E7E8",
"5X c #F3E6E5",
"6X c #F6EDEC",
"7X c #FDE8E7",
"8X c #EDF0EE",
"9X c #F7F2ED",
"0X c #EFF2F2",
"qX c #F5F4F3",
"wX c #FDF5F2",
"eX c #F7F9F7",
"rX c #FBFAF4",
"tX c #FDFEFD",
/* pixels */
"+ K.!.!.L.G.L.L.L.J.J.J.J.L.L.J.J.J.J.L.L.J.J.J.J.J.J.L.+ ",
"Q.tXq.].eXtXtXtXtXtXtXtXtXtXtXtXtXtXtXtXtXtXtXtXtXtXtXtXQ.",
"_. X=.=.{.tXqXeXeXeXeXeXeXeXeXeXeXeXeXeXeXeXeXeXtXeXeXtXT.",
").[.[.[.].tXtXtXtXtXtXtXtXtXtXtXtXtXtXtXtXtXtXtXtXtXeXtXW.",
"_.[.[. X].2X=X,X*X-X:X:X:X>X:X,X:X*X*X*X*X*X*X>XtXtXtXtXQ.",
"_..X=.-.{.H.^.~.`.S + j m X = [ 3 K.'.^.~.~.~.C.qXtXeXtXQ.",
"Q.tX=.X.4X^.tXtXtXn j F.#X< I 4.0.tXtXtXtXtXtX^.3XtXeXtXQ.",
"Q.tXeXwX3XQ.tXtX*X2 +.4XT.< F ..`.tX5X*.;.*.eXQ.3XtXeXtXQ.",
"!.7XoXXX<XW.tXtX7.P x W.G.h o / 5.tXXXW W W <X!.3XtXeXtX^.",
"!.$.Q Q %.W.tX2X' ~ +XE.4X'.7 % 6.tX7X%.W $.rX^.3XtXeXtXQ.",
"!.].W W *./.tX-X| &.+XI.4X*X8.. +.tXtX5X-.6XtXQ.8XtXeXtXQ.",
"Q.rX*.-.3XW.tX@X/ #.z.~.:X`.&X0.  G.eXtXeXtXtXQ.3XtXtXtXQ.",
"Q.tX5X7XqXW.tXU.` O.Z.W.I.D.M.#X8.  Z tX6X5XwXQ.3XtXeXtXQ.",
"Q.tXeXtX3X^.9Xf v w.A.N.S.V.w.9 n x J.tX%.) .X!.3XtXeXtXQ.",
"Q.tXeXtX3XK.z.d.k.7.2.q.e.4.} X G K +.$XR R OXW.6XtXeXtXQ.",
"Q.tXeXtXrXk r f.s.s 0 4 0 @ v # E T m ] 5 : >.F.qXtXeXtXQ.",
"Q.tXeXtXrXd k.f.r l k & O z.7 H @.7.` 9 , > ,.I.3XtXeXtX^.",
"Q.tXtXtXrXd l.k.a j N Y ] Z $ J R. .! 7 B C.>X'.3XtXeXtXQ.",
"Q.tXeXtXrXf s.f.a h p n.; O G @.6.^ P i D %X~.T.3XtXeXtXQ.",
"Q.tXeXtXrXf s.k.q j g h.e 1 * b } ~ U V l z.i.z.qXtXeXtXQ.",
"Q.tXeXtXrXd a.u.w Z f g.x.b 6.6 * p.y.l t v.c.t rXtXeXtXQ.",
"Q.tXeXtXqXj.t.v.x.8.d.m.y 7.r.5.y m.s.8.x.v.t.j.rXtXeXtXQ.",
"Q.tXtXtXrXt c.b.t c y.u * 6 6.b x.g.f Z w u.d.d rXtXeXtXQ.",
"Q.tXeXtX0Xz.i.z.x Z $ ~ } 0 * 1 e h.g z q k.s.f rXtXeXtXQ.",
"Q.tXeXtX3X^.'.%XD i L ^ 9.@.F O ; n.r j a.k.d.f rXtXtXtXQ.",
"Q.tXeXtX3X~.>XC.B h ! | R.L $ V ] { N z r k.l.d rXtXeXtXQ.",
"Q.tXeXtX3XK.,.> , 9 ` 9.@.G 7 S O & z l r d.l.d rXtXeXtXQ.",
"Q.tXtXtXqXF.>.: 5 ] m T E # k - 0 4 b s s.g.r k rXtXeXtXQ.",
"Q.tXeXtX3X^.OX( { =X+.K G X } 4.3.q.2.Z s.d.C K.qXtXeXtXQ.",
"Q.tXtXtX3X/. X:.%.eXL.x n 9 w.O.B.M.A.w.v j.6XQ.3XtXeXtXQ.",
"Q.tXeXtX4X^.wX5X6XeX7   8.#XM.Z.F.P.B.O.` U.tXK.0X6X5XtXT.",
"Q.tXeXtX8XQ.tXtXeXtX1XZ . R.|.Y.>X~.A #./ }.tXQ.8X=.*.tXQ.",
"Q.tXeXtX3XQ.tXqX;.5XtXtXS . 7.*X4XE.`.&.| 1XtXW.;.W W ]._.",
"Q.tXeXtX6XQ.tX$.W %.qXtX1Xo 7 (.4X^.`.~ ' 2XtX^.X.Q Q $.W.",
"^.tXtXtX3X!.<XW W W oXtX6./ o h J.W.x P 7.tXtX!.<XXXoX7X^.",
"Q.tXeXtX3XQ.wX=.;.=.5XtX(.<.F 7 T.2X+.2 *XtXtXW.4XwXeXtXW.",
"Q.tXeXtX3X^.tXtXtXtXtXtX0.3.I 7 #XF.l n tXtXtX^.4XX.=.tX^.",
"Q.tXeXtX3XF.~.~.~.^.(.L.3 [ = X m j + C.`.~.~.H.{.-.=..X_.",
"Q.tXeXtXtX>X=X*X*X*X*X*X:X:X;X>X:X:X:X:X=X*X=X2X]. X[.[._.",
"Q.tXtXtXtXtXtXtXtXtXtXtXtXtXtXtXtXtXtXtXtXtXtXtX]..X[.[.).",
"Q.tXqXtXtXeXeXeXeXeXeXeXeXeXeXeXeXeXeXeXeXeXeXtX{.=.=..X_.",
"Q.tXtXtXtXtXtXtXtXtXtXtXtXtXtXtXtXtXtXtXtXtXtXtXtX].-.tXQ.",
"+ L.J.J.J.J.J.J.L.J.J.J.J.J.L.J.J.J.J.J.L.J.J.J.L.W.W.L.+ "
};
