/* XPM */
static char *_004_8ee50403adf49761fadcdc9e1089064ed522fafdc8ab12a71a682d272d6bdce8[] = {
/* columns rows colors chars-per-pixel */
"29 43 207 2 ",
"   c #000000",
".  c #090803",
"X  c #0D1212",
"o  c #1B1D1D",
"O  c #131212",
"+  c #001F00",
"@  c #261D1C",
"#  c #042808",
"$  c #1A3603",
"%  c #1F2B1C",
"&  c #133413",
"*  c #122B0A",
"=  c #30251E",
"-  c #201F20",
";  c #182624",
":  c #252929",
">  c #382B2D",
",  c #363731",
"<  c #4B0504",
"1  c #56060C",
"2  c #4B1818",
"3  c #5E1514",
"4  c #740000",
"5  c #681516",
"6  c #731213",
"7  c #503500",
"8  c #703E00",
"9  c #731C21",
"0  c #542225",
"q  c #5B3F2C",
"w  c #4B312F",
"e  c #742625",
"r  c #6B393A",
"t  c #723436",
"y  c #753D3C",
"u  c #613F25",
"i  c #134F00",
"p  c #114916",
"a  c #006905",
"s  c #007703",
"d  c #21691B",
"f  c #30453C",
"g  c #6C4D14",
"h  c #644726",
"j  c #675239",
"k  c #746330",
"l  c #000044",
"z  c #293143",
"x  c #2D2E5C",
"c  c #15066E",
"v  c #00207D",
"b  c #212877",
"n  c #2B1372",
"m  c #55124F",
"M  c #610E58",
"N  c #583A55",
"B  c #522E50",
"V  c #6B3A5F",
"C  c #7E2075",
"Z  c #6D3961",
"A  c #474646",
"S  c #47544B",
"D  c #4E5253",
"F  c #4D5258",
"G  c #545454",
"H  c #5B5A5A",
"J  c #5F5151",
"K  c #5E4B4B",
"L  c #695357",
"P  c #6C464F",
"I  c #4C665B",
"U  c #68665B",
"Y  c #684E67",
"T  c #77496B",
"R  c #6F536D",
"E  c #784571",
"W  c #745670",
"Q  c #735A73",
"!  c #586563",
"~  c #646464",
"^  c #69696A",
"/  c #797768",
"(  c #746E72",
")  c #6C7876",
"_  c #747474",
"`  c #7C7C7B",
"'  c #6C766F",
"]  c #830406",
"[  c #911F07",
"{  c #AA1513",
"}  c #91272D",
"|  c #B12F24",
" . c #AD3836",
".. c #B53735",
"X. c #D92B1F",
"o. c #D42923",
"O. c #CF2B21",
"+. c #8A4F04",
"@. c #936900",
"#. c #817100",
"$. c #967200",
"%. c #8F403F",
"&. c #DE4937",
"*. c #E04837",
"=. c #DE7934",
"-. c #8B4345",
";. c #974D4F",
":. c #974D50",
">. c #9D5556",
",. c #817343",
"<. c #827A5A",
"1. c #825E77",
"2. c #817F7F",
"3. c #2E8A39",
"4. c #7A807E",
"5. c #6E9366",
"6. c #B18D00",
"7. c #A5892C",
"8. c #AF9032",
"9. c #CBA100",
"0. c #9F8F42",
"q. c #898158",
"w. c #83837B",
"e. c #88847A",
"r. c #D9AE5D",
"t. c #C1A44F",
"y. c #C5B97D",
"u. c #F49351",
"i. c #D3CA66",
"p. c #F8CE75",
"a. c #2C00A7",
"s. c #420A8E",
"d. c #7D09B5",
"f. c #4A3DBB",
"g. c #6A4997",
"h. c #3500CF",
"j. c #7907D2",
"k. c #85039E",
"l. c #921494",
"z. c #940888",
"x. c #B716A9",
"c. c #9930A3",
"v. c #AB29A7",
"b. c #A1789E",
"n. c #A752A1",
"m. c #B64CA2",
"M. c #8E6C80",
"N. c #D45ABB",
"B. c #D364BE",
"V. c #CB31CB",
"C. c #D438D2",
"Z. c #8556FB",
"A. c #DA65C6",
"S. c #CE62C0",
"D. c #7C8888",
"F. c #848583",
"G. c #898888",
"H. c #958B85",
"J. c #958D93",
"K. c #959595",
"L. c #979897",
"P. c #9B9B9B",
"I. c #96969A",
"U. c #97938C",
"Y. c #A69796",
"T. c #9FA399",
"R. c #AEAE88",
"E. c #A2A199",
"W. c #B0AE8B",
"Q. c #9D9DA0",
"!. c #A99BA9",
"~. c #A3A3A2",
"^. c #A6A9A6",
"/. c #ABABAA",
"(. c #A7AAA9",
"). c #ADB4B3",
"_. c #B4B4B3",
"`. c #B7B9B7",
"'. c #BCBDBC",
"]. c #AFB0AF",
"[. c #CC8E8F",
"{. c #CAAEB1",
"}. c #D7BBBB",
"|. c #DEDAAE",
" X c #C4C1B9",
".X c #BF8ECA",
"XX c #BDBEC3",
"oX c #CACBCA",
"OX c #C6C9C7",
"+X c #CDD1D8",
"@X c #C7D3D2",
"#X c #D3D4D3",
"$X c #DBDAD9",
"%X c #D8DAD6",
"&X c #D1D7C4",
"*X c #DEE1DB",
"=X c #F1EED6",
"-X c #E3E6E5",
";X c #ECEEEC",
":X c #EAE7E7",
">X c #F0EBED",
",X c #E4E8F3",
"<X c #F4F6F4",
"1X c #F7F9F7",
"2X c #F5FDFC",
"3X c #FDFEFD",
"4X c #FAEAF8",
/* pixels */
"R.I././.K.K.K.L.L.K.K.L.K.K.L.K.I.L.K.K.L.K.I.L.K.K.K.I.W.",
"~.3X_ ` 3X3X3X3X3X3X3X3X3X3X3X3X3X3X3X3X3X3X3X3X3X3X3X3X~.",
"_.~.~ ^ L.3X<X1X1X1X1X1X1X1X1X1X1X1X1X1X1X1X1X1X1X3X<X3X~.",
"`.K.P.Q.G.3X3X3X3X3X3X3X3X3X3X3X3X3X3X3X3X3X3X3X3X3X1X3X~.",
"`.K.P.Y.G.;XOXOXoX#X%X#X#X#X+X#X+XoXoXoXoXoXOX$X3X3X3X3X~.",
"_.^.^ ` K.J.Q.^.`.H - A D r 7 g $._ )././././.2.<X3X1X3X~.",
"~.3X~ , *X^. X1X3XL G G.(.:.@.9.8.,X3X#XOX3X3X^.;X3X1X3X~.",
"~.3X3X;X;XU.7.*X;XL D.;XI.1 +.6.8.;X:X> o %X3X~.;X3X1X3X~.",
"Q.3XK.^.3Xe.<.%X}.>.^ ~.) 9 [ #.7.2XF.    ^ 3X~.;X3X1X3X^.",
"/.#X. O OXq.y.|.{.} @X^.-XY.{ 8 ).3X'.B , /.3X~.;X3X1X3X~.",
").`     ^ e.,.&X[.y (.~.:X@X .4 ).3X3X/.P.3X3X~.;X3X1X3X~.",
"(.:XA G &XH f L.[.: D _.*X_ ! O.>.2X1X3X3X3X3X~.;X3X3X3X~.",
"~.3X_.'.3XH 4.U.;.2 > D.) , 0 %...T.3X3X1X=X3X^.;X3X1X3X~.",
"~.3X3X3X<X_ U 4.; 3 { 2 0 } < f Y C !.3Xp.=.p./.;X3X3X3X~.",
"~.3X1X3X<XG.j s.x = | &.X.e I B z.n.p 5.r.u.r.~ <X3X1X3X~.",
"~.3X1X3X1Xy g k.c % 5 X.6 S m x..Xd . s 3./ F ^ 1X3X1X3X~.",
"~.3X1X3X2Xt h c.a.: w 6 S M C.Z.v i 1   & J.^ ^ 1X3X3X3X~.",
"E.3X1X3X2Xr g T j.l 0.i.m V.f.b % a < 1 I.4XJ.( 1X3X1X3X~.",
"^.3X2X3X2Xt h U l.h.e.t.v.g., P.J.# $ 0 K @ X H 1X3X1X3X~.",
"~.3X1X3X2Xt q ) 1.k.s.M N : oX4.^.( # * ] 4 < J 1X3X1X3X~.",
"~.3X1X3X2Xt q ' J.1.Z Z N Y Q R W R N Y } e N K 1X3X1X3X~.",
"~.3X1X3X2Xt q ! m.A.N.A.B.N.B.N.B.B.A.A.M.I q t 2X3X3X3X~.",
"~.3X3X3X1XJ r e } Y N W W W Q R N Z Z 1.J.^ h t 2X3X1X3X~.",
"~.3X1X3X1XD < 4 6 % + ( ^.4.oX: B M s.k.1.) q t 2X3X1X3X~.",
"~.3X1X3X1XH X @ K 0 $ * J.E.z g.v.t.w.h.l.L j t 2X3X1X3X~.",
"~.3X1X3X1X^ L.4XI.1 < a o b f.V.m i.0.l j.1.h t 2X3X1X3X~.",
"~.3X1X3X1X^ ^ I.& . 1 i v Z.C.m S 6 w ; a.c.h t 2X3X1X3X~.",
"~.3X3X3X1X^ F <.3.s . d .Xx.m S 6 o.3 % c d.8 j 2X3X1X3X~.",
"^.3X1X3X1X~ r.u.r.5.p n.z.N I e X.&.| = x n k G.<X3X1X3X~.",
"~.3X1X3X>X~.p.=.p.3X!.C L f 1 } 0 2 { 1 ; 4.U _ <X3X3X3X~.",
"~.3X1X3X;X^.3X=X3X1X3XT. .-.5 , ' D., 2 >.H.F.H 3X'.`.3XE.",
"~.3X1X3X;X^.3X3X3X3X3X2X>.o.! _ *X_.G : [.U., H %XG A :X(.",
"~.3X1X3X;X~.3X3XL./.3X3X).4  .@X:X^.(.y [. X,.H.^     M._.",
"~.3X1X3X;X~.3X/., A '.3X).8 { Y.-X^.OX-.}.|.i.q.XXO . %X/.",
"^.3X3X3X;X~.3X~     G.2X7.#.[ 9 ) ~.^ ;.}.*X<.e.3X^.K.2XT.",
"~.3X1X3X;X~.3X$Xo > ;X,X7.6.+.1 I.>X` U >X*X7.e.;X;X3X3X~.",
"~.3X1X3X;X^.3X3XOX#X3X,X8.9.@.;.(.G.G L 3X1X X/.*X, ~ 3X~.",
"~.3X1X3X<XF././.]./._._ $.g 7 y D A - H _./.P.J.T.g.~ ^.`.",
"~.3X1X3X1X$XoXoXOXoXoXoX+X+X+X#X%X#X$X#XoXoXOX;Xe.T.T.K.`.",
"~.3X3X3X3X3X3X3X3X3X3X3X3X3X3X3X3X3X3X3X3X3X3X3XG.^.L.K.`.",
"~.3X<X3X3X1X1X1X1X1X1X1X1X1X1X1X1X1X1X1X1X1X<X3XI.^ ~ ~._.",
"~.3X3X3X3X3X3X3X3X3X3X3X3X3X3X3X3X3X3X3X3X3X3X3X3X` _ 3X~.",
"R.I.K.K.K.K.K.L.L.K.K.L.K.L.L.K.K.K.K.K.L.K.I.K.L./.(.I.R."
};
