/* XPM */
static char *_4_1547d69aa94cc4e6003c279e40fd01c360544c0d6236145fac291f21ed5bc1f3[] = {
/* columns rows colors chars-per-pixel */
"29 43 221 2 ",
"   c #030303",
".  c #0D0C0C",
"X  c #1D0403",
"o  c #180907",
"O  c #001603",
"+  c #00001E",
"@  c #171517",
"#  c #290006",
"$  c #390000",
"%  c #002B00",
"&  c #023303",
"*  c #023806",
"=  c #153E1E",
"-  c #292800",
";  c #273A07",
":  c #2B2C16",
">  c #1C1D3E",
",  c #271F25",
"<  c #351333",
"1  c #252423",
"2  c #29282A",
"3  c #213222",
"4  c #2D3D33",
"5  c #3C3A3A",
"6  c #353635",
"7  c #39362F",
"8  c #4D0000",
"9  c #570602",
"0  c #571B16",
"q  c #4F0B14",
"w  c #620301",
"e  c #740204",
"r  c #6F1107",
"t  c #5D2918",
"y  c #493510",
"u  c #753700",
"i  c #6C341C",
"p  c #4F1729",
"a  c #443136",
"s  c #553727",
"d  c #63282F",
"f  c #763038",
"g  c #004500",
"h  c #004A00",
"j  c #005801",
"k  c #145019",
"l  c #364213",
"z  c #375516",
"x  c #006202",
"c  c #007700",
"v  c #1E5021",
"b  c #365733",
"n  c #384A3F",
"m  c #1D6225",
"M  c #386C3B",
"N  c #595A0A",
"B  c #4F5710",
"V  c #7C4200",
"C  c #7B5800",
"Z  c #6F5315",
"A  c #465638",
"S  c #6E4931",
"D  c #54633B",
"F  c #6E6936",
"G  c #1D1F40",
"H  c #30305F",
"J  c #403E5F",
"K  c #7C3F58",
"L  c #433D60",
"P  c #394F4D",
"I  c #2B4D43",
"U  c #2B5260",
"Y  c #396C60",
"T  c #4B4747",
"R  c #5C5C5B",
"E  c #575555",
"W  c #4E4952",
"Q  c #6E4F54",
"!  c #586857",
"~  c #526C4D",
"^  c #706D51",
"/  c #53566B",
"(  c #476469",
")  c #5B676A",
"_  c #636262",
"`  c #696B6A",
"'  c #677967",
"]  c #7D7C7C",
"[  c #777676",
"{  c #706F6D",
"}  c #AE1C00",
"|  c #963B12",
" . c #A13503",
".. c #AC340C",
"X. c #A41D26",
"o. c #843C39",
"O. c #CC3106",
"+. c #B64305",
"@. c #9F7800",
"#. c #A17900",
"$. c #8B5E22",
"%. c #8E6321",
"&. c #947F22",
"*. c #8A7433",
"=. c #CE7900",
"-. c #D57E0E",
";. c #CD4432",
":. c #925D5E",
">. c #934F48",
",. c #AE5045",
"<. c #88794C",
"1. c #94714D",
"2. c #B56746",
"3. c #935F65",
"4. c #887074",
"5. c #D15141",
"6. c #C55644",
"7. c #339839",
"8. c #0ED518",
"9. c #52844A",
"0. c #68855D",
"q. c #5F806E",
"w. c #6C8B66",
"e. c #6F9971",
"r. c #73846C",
"t. c #6CB972",
"y. c #6DB16F",
"u. c #7AD75F",
"i. c #7DD37E",
"p. c #A98607",
"a. c #AB8A17",
"s. c #928B2A",
"d. c #ACBC26",
"f. c #D4AE06",
"g. c #D7820E",
"h. c #FFCB00",
"j. c #8D854C",
"k. c #AFA14F",
"l. c #918E62",
"z. c #9B9364",
"x. c #969274",
"c. c #A2956F",
"v. c #B6A864",
"b. c #C5BA6D",
"n. c #86DD60",
"m. c #ABE779",
"M. c #E7C347",
"N. c #CEF378",
"B. c #C3C96B",
"V. c #1516A9",
"C. c #737C8F",
"Z. c #8E7289",
"A. c #9C7E82",
"S. c #7F8484",
"D. c #848483",
"F. c #898A8A",
"G. c #9B8A8F",
"H. c #8D908F",
"J. c #928E91",
"K. c #8E9692",
"L. c #969696",
"P. c #959B95",
"I. c #9A9A9A",
"U. c #959A9D",
"Y. c #8C8992",
"T. c #A59F9E",
"R. c #91BD97",
"E. c #95A396",
"W. c #BFBA92",
"Q. c #999AA3",
"!. c #A198A1",
"~. c #93A4AA",
"^. c #A2A3A2",
"/. c #AAA5A4",
"(. c #A7ABAD",
"). c #ABABAA",
"_. c #A5A4AD",
"`. c #B0AFAE",
"'. c #AFB2AF",
"]. c #B1B1AC",
"[. c #AFABBC",
"{. c #B4B4B3",
"}. c #B8B9B7",
"|. c #B5B8B7",
" X c #CDA796",
".X c #C3B0BA",
"XX c #D5BFBC",
"oX c #8DCE90",
"OX c #9EF28E",
"+X c #8CE78B",
"@X c #ACF08B",
"#X c #D9DF85",
"$X c #D6CEBC",
"%X c #BAC3CA",
"&X c #CACACA",
"*X c #C4C3C3",
"=X c #D7C9CA",
"-X c #C9CCD7",
";X c #D7CCD4",
":X c #CDD2DA",
">X c #D4D5D4",
",X c #D9D8D6",
"<X c #DCDDDC",
"1X c #D8D8D6",
"2X c #D8D2C1",
"3X c #E0DFDE",
"4X c #DFE0DF",
"5X c #F3EDD7",
"6X c #DDD9E0",
"7X c #F6DBEF",
"8X c #DBE1E5",
"9X c #ECEDEC",
"0X c #E5E5E4",
"qX c #F1F0EF",
"wX c #F3F4F3",
"eX c #F7F9F7",
"rX c #FAFCF5",
"tX c #F5FCFE",
"yX c #FDFEFD",
"uX c #F8F5FB",
"iX c #EEF1F5",
/* pixels */
"6 I./.).L.L.L.L.L.L.L.L.L.I.L.L.L.L.L.I.L.L.I.L.L.L.L.I.6 ",
"^.yX[ ] yXyXyXyXyXyXyXyXyXyXyXyXyXyXyXyXyXyXyXyXyXyXyXyX^.",
"|.^._ ` L.yXeXeXeXeXeXuXeXeXeXeXeXeXeXeXeXeXeXuXyXeXeXyX^.",
"}.L.I.^.F.yXyXyXyXyXyXyXyXyXyXyXyXyXyXyXyXyXyXyXyXyXeXyX^.",
"|.L.I.^.F.iX-X-X:X:X,X>X>X>X>X&X&X&X&X&X&X&X&X,XyXyXyXyX^.",
"{.)._ [ L.<.#.#.p.V , R 5 , T {.).).).|.`.).).D.wXyXeXyX^.",
"^.yX_ 5 0XI.M.h.a. .a H.[ ! R yXyXyXwX` *XyXyX^.9XyXeXyX^.",
"^.yXuX9X0X(.2Xf.-.9 ` D.`.6X7 =XyXyX).  R yXyX^.9XyXeXyX^.",
"^.yXT _ qX(.5X&...# U.'.J.I.y c.yX`., . @ [ yX^.9XyXeXyX^.",
"^.0X@ @ *X_.b.=.e I *X7X}.6XE N uX^.  6 . E yX^.9XyXeXyX^.",
"D.2   . @ _ %.w o (.;X7XT.=XK u k.iX,XR ).eXyX^.qXyXeXyX^.",
"F.E 6 5 5 H.=Xo ` 0X{ 3XXX$XL $ C v.tX>XqXyXyX_.9XyXyXyX^.",
"^.yXF.L.wX).D.1 U.~ I ( %X~.D y 9 u x.yX<XwXyX^.9XyXeXyX^.",
"^.yXqXeXyXT 1 [ 3 O A ' Y w.z.m : e Z /.>.3.wX/.9XyXyXyX^.",
"^.yXyXyXrXH V.[.' x h ; l.F * k Y.p x.3.X.o.R.P.qXyXeXyX^.",
"^.yXeXyXeXP + @ ).' v g w.9.% !.Z.X Q R.9.7.8.e.wXyXeXyX^.",
"^.yXeXyXyXb g & O ' {.E.! ` (.K.| 8 # c 7.S.i.J.iXyXyXyX^.",
"^.yXeXyXuXM j ; N - f  XC.E.~ & +.e 0 d G .XY.] eXyXeXyX^.",
"^.yXeXyXyXb l b.#XB.t r # O j l O.w Z ;.q L G.G.qXyXuXyX^.",
"^.yXeXyXeXf 1.OXt.+Xm.t i k k B ..%.n.S 5.# C.`.9XyXeXyX^.",
"^.yXeXyXiX>.,.s &.D OX*.r 4 R b } ^ oXj.| 6.< / eXyXeXyX^.",
"^.yXeXyXtXW ,.2.d.s.n.0.p Y.5XF.p <.n.s.d.2.,.L rXyXyXyX^.",
"^.yXyXyXeX/ < 6.| *.oX1.r I { 4 q *.@X^ &.s ,.$.iXyXeXyX^.",
"^.yXeXyX9X).C.# 5.Q u.%.} z m k t Z @XoXy.OX1.f tXyXuXyX^.",
"^.yXeXyXwXH.G.L q ;.Z 9 O.; x & # r S #XN.b.l b yXyXyXyX^.",
"^.yXeXyXeX[ Z..X> d 0 e +.& ~ K.x. Xf - N ; j M uXyXeXyX^.",
"^.yXeXyXqXH.oXt.7.c # 8 | J.).` ! ~.{.' O * h b yXyXeXyX^.",
"^.yXyXyXwXe.8.7.' oXQ X A._.g 9.w.g v { ).@ + P eXyXeXyX^.",
"^.yXeXyX9XE.R.o.X.3.z.p Y.k & ^ l.: h x ' [.V.H rXyXyXyX^.",
"^.yXyXyX9X_.wX:.>.T.Z e : k j.w.Y r.E % 3 [ 1 T yXeXqXyX^.",
"^.yXeXyX9X^.yXwX<XyXx.V 9 a *.~.%XY U ~ E.1 S.).wXJ.F.yX^.",
"^.yXeXyX9X^.yXyXqX,XtXv.C $ L =XXX1X) 8X_ o =XH.5 7 2 E F.",
"^.yXeXyX9X^.yXeX).E ,XiXk.u K ;X/.7X;X/.X w ` ` @ .   3 D.",
"^.yXeXyX9X^.yXE . 1   /.iXN W 6X{.0X*XJ e =. X_.*X@ . 0X/.",
"^.yXyXyX9X^.yX[ @ . 1 {.yXz.y !.L.'.I.# ..s.5X).qX_ T yX^.",
"^.yXeXyX9X^.yXyXR   ).yXyX>X7 <X'.D.` 9 g.f.2X_.0X0XyXyX^.",
"^.yXeXyXqX^.yXyX*X{ wXyXuXyXR _ [ F.a  .a.h.M.U.0X5 ` yX^.",
"^.yXeXyXqXD.(.(.`.|.).).).{.T , 5 R 2 u p.#.@.<.L.[ _ /.|.",
"^.yXyXyXyX<X&X&X&X&X&X&X&X&X>X>X1X>X1X:X:X:X-XqXD.!.I.L.|.",
"^.yXeXyXyXyXyXyXyXyXyXyXyXyXyXyXyXyXyXyXyXyXyXyXF.^.I.L.|.",
"^.yXeXyXyXeXeXeXuXeXeXeXeXeXeXeXuXeXeXeXeXeXeXyXL.` _ ^.|.",
"^.yXeXyXyXyXyXyXyXyXyXyXyXyXyXyXyXyXyXyXyXyXyXyXyX] [ yX^.",
"6 I.L.L.L.L.L.L.L.L.L.L.I.L.L.L.L.L.L.L.L.L.I.L.I././.I.6 "
};
