/* XPM */
static char *_3831_ca8b35bc45430cf5db501b52e811b41513b396b8a2a70d773958622c3aa55cb5[] = {
/* columns rows colors chars-per-pixel */
"29 43 220 2 ",
"   c #010005",
".  c #1C1D00",
"X  c #0A1116",
"o  c #331719",
"O  c #29271C",
"+  c #3F2C01",
"@  c #171931",
"#  c #291926",
"$  c #35152D",
"%  c #1B272A",
"&  c #2E3234",
"*  c #2C282A",
"=  c #570D05",
"-  c #421502",
";  c #411118",
":  c #571413",
">  c #6B0201",
",  c #730000",
"<  c #600318",
"1  c #601415",
"2  c #402C02",
"3  c #6A3B18",
"4  c #4A3F2D",
"5  c #46323A",
"6  c #19700C",
"7  c #38562B",
"8  c #216224",
"9  c #367139",
"0  c #105137",
"q  c #58490F",
"w  c #6A4900",
"e  c #7E6200",
"r  c #49442B",
"t  c #484436",
"y  c #534939",
"u  c #485836",
"i  c #545521",
"p  c #72503B",
"a  c #776337",
"s  c #756E34",
"d  c #302F51",
"f  c #312B6B",
"g  c #1C1B70",
"h  c #593E7D",
"j  c #394348",
"k  c #1A6249",
"l  c #377141",
"z  c #4C4848",
"x  c #5B4742",
"c  c #4A5E41",
"v  c #51445B",
"b  c #4C5957",
"n  c #5A595C",
"m  c #615F59",
"M  c #6C5440",
"N  c #636259",
"B  c #715F71",
"V  c #4B7368",
"C  c #696B69",
"Z  c #716E6D",
"A  c #737274",
"S  c #7B796D",
"D  c #4F6845",
"F  c #950B00",
"G  c #990702",
"H  c #963502",
"J  c #A83A0D",
"K  c #8B343A",
"L  c #F50001",
"P  c #FC0303",
"I  c #FD3418",
"U  c #DF3423",
"Y  c #FF3522",
"T  c #F82A2B",
"R  c #905200",
"E  c #A45F10",
"W  c #97791C",
"Q  c #8C7010",
"!  c #AB6917",
"~  c #804D3C",
"^  c #9D5B36",
"/  c #A25B33",
"(  c #957929",
")  c #867739",
"_  c #947E35",
"`  c #A66321",
"'  c #B47C38",
"]  c #AF7636",
"[  c #DD430B",
"{  c #E1440B",
"}  c #F96C00",
"|  c #FC7600",
" . c #E66411",
".. c #D55234",
"X. c #FF5E27",
"o. c #EF4B31",
"O. c #FF432E",
"+. c #D66F30",
"@. c #C56938",
"#. c #F76F21",
"$. c #F57330",
"%. c #AD5F42",
"&. c #8F774A",
"*. c #AE6043",
"=. c #A35875",
"-. c #B37A68",
";. c #91645E",
":. c #C24F5C",
">. c #E8595B",
",. c #F25D5D",
"<. c #F15050",
"1. c #EB4C4D",
"2. c #D9765A",
"3. c #EB6969",
"4. c #EB7474",
"5. c #F57372",
"6. c #9F810D",
"7. c #A98705",
"8. c #A68915",
"9. c #97833A",
"0. c #A98E34",
"q. c #B99B3A",
"w. c #B49839",
"e. c #A58625",
"r. c #CF990D",
"t. c #FF960B",
"y. c #F4A619",
"u. c #DE8F20",
"i. c #EF9834",
"p. c #D1B03B",
"a. c #C2A33F",
"s. c #8C854F",
"d. c #9E964D",
"f. c #95864B",
"g. c #BA9E43",
"h. c #A3925E",
"j. c #A6934C",
"k. c #BCA75E",
"l. c #BCA044",
"z. c #9C8E63",
"x. c #88837B",
"c. c #BDA760",
"v. c #A4926A",
"b. c #C6A847",
"n. c #CCB15C",
"m. c #DB9F7C",
"M. c #C68B62",
"N. c #EE807F",
"B. c #594080",
"V. c #685D90",
"C. c #72748D",
"Z. c #847E84",
"A. c #7E8F8D",
"S. c #848383",
"D. c #858C8C",
"F. c #8C8B8B",
"G. c #8B8885",
"H. c #918E86",
"J. c #98948B",
"K. c #969796",
"L. c #9C9C9C",
"P. c #989698",
"I. c #889190",
"U. c #A29D9E",
"Y. c #97A298",
"T. c #AEAD87",
"R. c #A4A29B",
"E. c #B1AA94",
"W. c #A59FA1",
"Q. c #96A2A3",
"!. c #A2A3A1",
"~. c #A3ABAB",
"^. c #ACACAA",
"/. c #A9A9A5",
"(. c #A1B6B4",
"). c #A2B8B7",
"_. c #B3B3B2",
"`. c #B5B7BA",
"'. c #B0AFAE",
"]. c #E58B8B",
"[. c #F88989",
"{. c #FD9292",
"}. c #FE9B9B",
"|. c #EC9493",
" X c #FFA09F",
".X c #FDA5A4",
"XX c #FCA8A7",
"oX c #E9DA92",
"OX c #D0CBBB",
"+X c #DCD6BF",
"@X c #D3C9A8",
"#X c #EBE3B8",
"$X c #BEBFC1",
"%X c #D8BBDB",
"&X c #CDCCCB",
"*X c #C4C6C8",
"=X c #DCDACE",
"-X c #CBCED5",
";X c #CBCDD9",
":X c #CDD4D6",
">X c #CBD5D8",
",X c #DCDDDC",
"<X c #D7D6D4",
"1X c #E2DDD2",
"2X c #F3D1D4",
"3X c #FFFECA",
"4X c #E1E1DE",
"5X c #FCE1DF",
"6X c #DDDBE1",
"7X c #E7E6E5",
"8X c #ECEEEE",
"9X c #E7E6E6",
"0X c #F7EAEA",
"qX c #ECF7F7",
"wX c #F3F5F3",
"eX c #F7F9F7",
"rX c #F4FCFC",
"tX c #FDFEFD",
"yX c #F9F6F8",
"uX c #EBEEF3",
/* pixels */
"T.Q.Q.Q.Q.K.K.K.P.K.K.P.K.K.P.K.K.P.K.K.P.K.K.P.K.K.K.P.T.",
"~. X}.}.{.tXtXtXtXtXtXtXtXtXtXtXtXtXtXtXtXtXtXtXtXtXtXtX!.",
"(.{.,.,.2XrXyXyXeXeXeXeXeXeXeXeXeXeXeXeXeXeXeXeXrXrXeXtX!.",
"(.XXL 5XtXtXtXtXtXtXtXtXtXtXtXtXtXtXtXtXtXtXtXtXtXtXeXtX!.",
"(..XT .XtX<X&X&X&X&X&X:X>X:X:X;X;X;X-X:X&X<X&X4XtXtXrXtX!.",
").[.[.5.].D././.^.^.P.W ! ! ` 7.8.7.7.( P.G.P.A wXtXtXtX!.",
"~.{.[.{.4.~.tXtXtXtXrX].G G F {  .y.y.#X9XF./.y eXtXeXtX!.",
"!.tXrXtX8X!.tXeX|.wXtX*Xj C b - = > : >XP.F.N t tXtXeXtX!.",
"!.tX5X5XqX!.tX4.P 4.tX,XZ <X,Xw.s i a _.C &XH.H.wXtXrXtX!.",
"!.tX1.,.9XW.yX,.P <.0X_.9XtX=Xw.b.b.n.&XS.K.t z eXtXeXtX!.",
"~..XL P ].~.tXwX4.0XrXS._.1X8Xk.q.a.w.=X*XA.J.r rXtXeXtX!.",
"U.tX3.5.qX!.tXtXtXtXtX7XA L.uX&Xq.a.w.n.7X`.x.r tXtXrXtX!.",
"R.tX0X0XwX/._.!.,XtXyX`.P.rX@Xb.p.a.b.a.4XtXR.r tXtXeXtX!.",
"!.tXeXtXwXC Z.W.G.,X!.v.oX3XE.Q ( ) ( ) `.tXY.r tXtXrXtX!.",
"!.tXeXtXyXm !.6X%X>.@.d.z.4 * . > H q , E f.1 y rXtXrXtX!.",
"!.tXeXtX8X!.`.;.p #.I K 0 k   O o < X ; = + F p rXtXeXtX!.",
"!.tXeXtXqX;.w.7.&.-.U $.V 9 3 x y z x p u u 8 7 rXtXrXtX!.",
"!.tXrXtXqX) e.J.A % @.X.~ 8.f.) _ _ r.' f.7.6 9 tXtXeXtX!.",
"!.tXeXtXrXS ~.& n I.~ Y h.C.h ;.V.h.+.a e.0.Q u tXtXeXtX!.",
"!.tXeXtX8XA.' R C 6Xm Y =.g E J B u.*.O & d # d eXtXeXtX!.",
"!.tXeXtXqX^ } t.w n b ..:.d v f M.i.5 C.f $ # z tXtXeXtX!.",
"!.tXeXtXqX/ | | 3 @ X 2.o.Y.rXY.o.2.X @ 3 | | / qXtXrXtX!.",
"!.tXrXtXeXz o $ f C.5 i.M.d v d :...n n w t.| ^ rXtXrXtX!.",
"!.tXeXtXtXd # d 4 O *.u.B J J g =.Y N 6XN R ] S.wXtXeXtX!.",
"!.tXrXtXtXc R 0.0.a +.h.V.;.h C.&.O.p I.n & R.S wXtXrXtX!.",
"!.tXeXtXyX9 6 6.f.' r.( _ ) j.8.p X.@.% A J.8.S qXtXeXtX!.",
"!.tXeXtXrXD 8 7 u p x y y x 3 9 V $.U M.s.7.j.;.wXtXeXtX!.",
"!.tXrXtXrXp F + = o X < ; O   k 0 K I #.p x.$X/.8XtXeXtX!.",
"!.tXeXtXrXy : f.E , q H > . * t z.d.2.1.%X6XW.n wXtXeXtX!.",
"!.tXrXtXrXr Y.tX`.) ( ) ( Q E.3XoXs.R.>XG.W.Z.C eXtXtXtX!.",
"!.tXeXtXtXr R.tX4Xa.b.l.p.b.@XtXP.`.yXtX,X!.^.!.wX0X9XtX!.",
"!.tXeXtXtXr H.$X7Xc.q.g.q.OXuXU.A 7XtXrXtXtXtXR.qX5.3.tX!.",
"!.tXeXtXrXr H.x.*X+Xw.g.q.c.uX1X_.S.rX0X4.wXtX!.].P P .X~.",
"!.tXeXtXtXz z U.S.:Xn.b.b.q.=XtX7X_.0X<.P ,.yX~.7X,.1.tX!.",
"!.tXrXtXwXD.P.&XC _.s i s w.1X:XZ 6XtX3.P N.tX!.wX0X2XtX!.",
"!.tXeXtXtXt N F.P.:X1 , = - b C j *XtX8X|.wXtX!.8XtXtXtX!.",
"!.tXeXtXeXy /.F.9X#Xy.y. .[ F F G m.tXtXtXtXtX~.4.{.[.{.~.",
"!.tXeXtXwXA K.F.Q.W 7.7.8.8.` ! ! W L._.^.^.^.D.].5.[.[.(.",
"!.tXrXtXtX1X&X<X&X-X;X;X-X;X>X>X>X-X&X&X&X&X&X,XtX.XT XX(.",
"!.tXtXtXtXtXtXtXtXtXtXtXtXtXtXtXtXtXtXtXtXtXtXtXtX5XL .X(.",
"R.tXeXrXrXeXeXeXeXeXeXeXeXeXeXeXeXeXeXeXeXeXeXrX2X,.>.{.(.",
"!.tXtXtXtXtXtXtXtXtXtXtXtXtXtXtXtXtXtXtXtXtXtXtX[.}.}. X~.",
"T.P.P.K.P.P.K.K.P.K.K.K.K.K.P.K.K.K.K.K.P.K.K.K.Q.Q.Q.Q.T."
};
