/* XPM */
static char *_0722_4f0ad27958084ab0afa4764a3df088c8e6087760004f2a9aac42b8de260c4a8d[] = {
/* columns rows colors chars-per-pixel */
"29 43 223 2 ",
"   c #01070D",
".  c #011102",
"X  c #17110C",
"o  c #320405",
"O  c #002F00",
"+  c #3D3114",
"@  c #040735",
"#  c #390B2B",
"$  c #002227",
"%  c #122C33",
"&  c #3A312F",
"*  c #38383B",
"=  c #273433",
"-  c #4F0004",
";  c #710000",
":  c #751219",
">  c #4B3207",
",  c #792F00",
"<  c #702E1B",
"1  c #5F1B37",
"2  c #49382B",
"3  c #5E3031",
"4  c #733131",
"5  c #004600",
"6  c #0E4111",
"7  c #0D5013",
"8  c #015D35",
"9  c #33403F",
"0  c #0A6E24",
"q  c #59490D",
"w  c #6E590D",
"e  c #755906",
"r  c #6A5C18",
"t  c #745F30",
"y  c #695430",
"u  c #796A28",
"i  c #686D21",
"p  c #4E5A2F",
"a  c #0D2F43",
"s  c #14364F",
"d  c #392545",
"f  c #352650",
"g  c #000077",
"h  c #053865",
"j  c #2C2A7B",
"k  c #5A0848",
"l  c #73004C",
"z  c #7B025C",
"x  c #553752",
"c  c #422E64",
"v  c #1D414B",
"b  c #32424E",
"n  c #3F624E",
"m  c #035B7E",
"M  c #1D4576",
"N  c #374B7A",
"B  c #464846",
"V  c #595343",
"C  c #575856",
"Z  c #4F575E",
"A  c #674243",
"S  c #645847",
"D  c #447854",
"F  c #767356",
"G  c #4C4D66",
"H  c #765863",
"J  c #5A6469",
"K  c #606165",
"L  c #7A7868",
"P  c #797B7A",
"I  c #6C726E",
"U  c #870000",
"Y  c #A80400",
"T  c #8E3608",
"R  c #9D3938",
"E  c #CE0C05",
"W  c #E30002",
"Q  c #F60202",
"!  c #FC0102",
"~  c #E8201B",
"^  c #EA2C28",
"/  c #FA2C2D",
"(  c #F62F31",
")  c #FB3A3B",
"_  c #8C5709",
"`  c #965909",
"'  c #8F6E0F",
"]  c #B86D00",
"[  c #834638",
"{  c #826724",
"}  c #AE763F",
"|  c #E74C00",
" . c #F15102",
".. c #F87301",
"X. c #920574",
"o. c #8A6E52",
"O. c #B67A4F",
"+. c #836F77",
"@. c #A37165",
"#. c #F94647",
"$. c #FE5C5D",
"%. c #EC5555",
"&. c #C07A5E",
"*. c #E56250",
"=. c #FC6E6E",
"-. c #FE7C7C",
";. c #F87272",
":. c #F17171",
">. c #7F807F",
",. c #B89B37",
"<. c #FF8701",
"1. c #978C5D",
"2. c #9A926C",
"3. c #848179",
"4. c #958C6F",
"5. c #96A17B",
"6. c #B1A374",
"7. c #A49C6F",
"8. c #C28262",
"9. c #CF9D78",
"0. c #CCAB74",
"q. c #DBC869",
"w. c #070A94",
"e. c #08339C",
"r. c #063EA7",
"t. c #422683",
"y. c #035297",
"u. c #334D8F",
"i. c #3A7E9A",
"p. c #0653B7",
"a. c #044AA6",
"s. c #1764A7",
"d. c #1665AB",
"f. c #3574A3",
"g. c #0D608D",
"h. c #484185",
"j. c #476A8B",
"k. c #4E6E8C",
"l. c #787D81",
"z. c #005EC0",
"x. c #0063C9",
"c. c #006AD0",
"v. c #0075D9",
"b. c #0074F8",
"n. c #0068EB",
"m. c #A2418B",
"M. c #9D7788",
"N. c #A17C84",
"B. c #0E90A9",
"V. c #748082",
"C. c #888D8A",
"Z. c #98968B",
"A. c #928D90",
"S. c #969796",
"D. c #9C989A",
"F. c #8E8B8F",
"G. c #A58585",
"H. c #A49C8A",
"J. c #A09C98",
"K. c #9FA19A",
"L. c #ADAA87",
"P. c #ABA499",
"I. c #BCB896",
"U. c #B0B094",
"Y. c #8387AC",
"T. c #96A7A5",
"R. c #A2A3A2",
"E. c #ACA8A6",
"W. c #A3ABAA",
"Q. c #ABAAA9",
"!. c #AAA6A7",
"~. c #BCB4A4",
"^. c #A1B6B4",
"/. c #A8B6B5",
"(. c #B5B4B5",
"). c #B0AFA7",
"_. c #FF8586",
"`. c #FE8B8B",
"'. c #EA9D9E",
"]. c #CBBF8D",
"[. c #C5BA99",
"{. c #D0BB91",
"}. c #FEABAB",
"|. c #F9A7A6",
" X c #FFBBBB",
".X c #F9B5B3",
"XX c #D1B8B9",
"oX c #B8C297",
"OX c #BFC1BA",
"+X c #BACBAA",
"@X c #CAC59B",
"#X c #DBD782",
"$X c #C9C9A7",
"%X c #CECBB4",
"&X c #D3C9B0",
"*X c #BDACC3",
"=X c #C8B9C3",
"-X c #D0BDC4",
";X c #CDCBCA",
":X c #CAC8C7",
">X c #D9C8D2",
",X c #CCD4D8",
"<X c #CDD8D9",
"1X c #D8D6D7",
"2X c #D5D4C1",
"3X c #F6CBCA",
"4X c #FADBDA",
"5X c #EAD4CF",
"6X c #FCE0DF",
"7X c #E6E3DD",
"8X c #E4C7E5",
"9X c #ECEDEC",
"0X c #E9E6E8",
"qX c #FFE5E4",
"wX c #EEF0ED",
"eX c #FBF5EB",
"rX c #EEF4F2",
"tX c #EEFDFB",
"yX c #F3F4F2",
"uX c #F7F9F7",
"iX c #F3FEFB",
"pX c #FDFEFD",
"aX c #FBF7F7",
/* pixels */
"R.T.T.T.T.S.S.S.S.S.S.S.S.S.S.S.S.S.S.S.S.S.S.S.S.S.S.S.R.",
"W.`.`.`.-.pXpXpXpXpXpXpXpXpXpXpXpXpXpXpXpXpXpXpXpXpXpXpXR.",
"^.-.#.#..XpXuXuXuXuXuXuXuXuXuXuXuXuXuXuXuXuXuXuXpXuXuXpXR.",
"^.}.Q qXpXpXpXpXpXpXpXpXpXpXpXpXpXpXpXpXpXpXpXpXpXpXuXpXR.",
"^.}./ }.pX7X,X;X;X;X;X;X,X,X,X,X,X<X<X1X:X:X;X1XpXpXpXpXR.",
"^.-.;.$.:.V.Q.Q.Q.!.(.+., ` ` _ ` T ` w A.(.E.V.yXpXuXpXR.",
"W.-.;.-.%.W.pXpXpXpXpXpX&.|  . ...<.] H.6.2XpXR.9XpXuXpXR.",
"R.pXiXpXrXW.4X) #.( 3XaX!.+.N.M.4 T < J _ A P.W.9XpXuXpXR.",
"W. X-._.'.^. X! ! ! |.pXE.I /.l.C.U.I X { x t F.yXpXuXpXR.",
"W.#.Q ! ( W.eX) ! / qXrXU.R.P !.U.$X4.e ' H M.Q.9XpXuXpXR.",
"W.=.! ! %.W.pX4X) 3XpX7X~.0XM.aX-XI.@X,.> > S D.wXpXuXpXR.",
"R.pX( ) 0XR.pXuXaXpX9X%X~.,XP 0X5X[.%Xo.l X.k B uXpXpXpXR.",
"R.pX4XqXrXR.pXpX0XD.B B I.&X>XXX~.&X{.j.t.z m.+.rXpXuXpXR.",
"R.pXuXpX9XQ.eXY.2 v h +.3.I.H.+X@.y s.b.g.6 # * pXpXpXpXR.",
"R.pXuXpXyXl.u.g f D p.j.F.q u A E 1 b.p.h 6 % C uXpXuXpXR.",
"R.pXuXpXeXu.w.@ w.{ d.y.E.F > W Q j v.e.8 > - B pXpXuXpXR.",
"R.pXuXpXaXN $ % p.B ' g.k.T.Y Q : n.a.0 5 2 *.4 iXpXpXpXR.",
"R.pXpXpXaXD B.r.f @ d r a 2 E Y s m 7 O X oX9.R iXpXuXpXR.",
"R.pXuXpXeXi.c.j 4.> G *XF.w e w w p . X L.@XE 3 iXpXuXpXR.",
"R.pXuXpXeXf.c.h.U.i G.8X=XK 3.L.1.4.  5.@X^ ; b pXpXuXpXR.",
"R.pXuXpXuXB y.d.B o o y o.V 2.F 0.2 o.&.~ U * P yXpXuXpXR.",
"R.pXuXpXwXD.Z   U Q W 1.q.u q.u #X,.W Q U   Z R.9XpXpXpXR.",
"R.pXpXpXyX>.* U ~ &.@.2 7.F 4.V o.y o o B d.y.B pXpXuXpXR.",
"R.pXuXpXuX9 ; ^ @X5.  1.1.L.+.K *X8XG.r I.h.c.f.eXpXuXpXR.",
"R.pXuXpXiX3 E {.U.X . i e w w r C.*Xj q 4.c x.B.eXpXuXpXR.",
"R.pXuXpXtXR {.oXX O 7 g.% Y E 2 % r & @ b e.B.D uXpXuXpXR.",
"R.pXuXpXiX4 *.& 5 0 a.n.: ! Y R.k.g.' x r.% $ N uXpXuXpXR.",
"R.pXpXpXpX2 - + 8 e.c.M Q W > F E.a.s.y w.@ w.u.eXpXpXpXR.",
"R.pXuXpXuXC = 6 h p.b.1 E A u q A.k.p.p f g u.>.yXpXuXpXR.",
"R.pXuXpXpX* # 6 m n.s.[ @.+XH.I.+.4.h s 2 Y.eXW.9XpXuXpXR.",
"R.pXaXpX9X+.m.z t.f.].%X~.:X>X%XoXd B Z.0XpXpXR.rXqX4XpXR.",
"R.pXuXpXaXC k X.l o.%XI.5XqX>.;X~.%XwXpXaXpXpX!.0X) ( pXR.",
"R.pXuXpXwXD.S q + ,.@XI.:XpXM.0X~.7XpX3X) 4XpXW.%.! ! =.W.",
"R.pXuXpX9XQ.M.H ' e 2.&XP.!.P T.U.wXqX/ ! ) eXW.^ ! ! #.W.",
"R.pXpXpXwXF.t x r X F ).C.P /.I E.pX|.! ! !  X^.'._.;. XW.",
"R.pXuXpX9X!.R.A _ J < T 4 N.G.H (.pX3X( #.) 4XW.9XpXpXpXR.",
"R.pXuXpXwXR.pX2X6.H.] <...|  .| 8.pXpXpXpXpXpXW.%._.;.-.W.",
"R.pXuXpX9XC.).(.F.w ` T ` _ ` ` , +.(.Q.Q.Q.Q.C.-.$.;.-.^.",
"R.pXpXpXpX1X:X;X;X<X,X<X,X,X,X,X<X;X;X;X;X;X:X1XiX|.( }.^.",
"R.pXuXpXpXpXpXpXpXpXpXpXpXpXpXpXpXpXpXpXpXpXpXpXpX4XQ .X^.",
"R.pXyXpXpXuXuXuXuXuXuXuXuXuXuXuXuXuXuXuXuXuXuXpX.X#.#.-.^.",
"R.pXpXpXpXpXpXpXpXpXpXpXpXpXpXpXpXpXpXpXpXpXpXpX-._.`.`.W.",
"R.S.S.S.S.S.S.S.S.S.S.S.S.S.S.S.S.S.S.S.S.S.S.S.T.T.T.T.R."
};
