/* XPM */
static char *_22_34f1d1e08445f81d8a2f3a52f60d60903bb7c10ea9241a4fa139866424d8905c[] = {
/* columns rows colors chars-per-pixel */
"29 43 200 2 ",
"   c #020101",
".  c #080808",
"X  c #131313",
"o  c #1B1D19",
"O  c #0E1016",
"+  c #19201B",
"@  c #2E1424",
"#  c #30152B",
"$  c #310633",
"%  c #30142D",
"&  c #232423",
"*  c #252926",
"=  c #2B2C2B",
"-  c #273624",
";  c #3B2E3D",
":  c #3D3F3D",
">  c #383737",
",  c #5A0404",
"<  c #760500",
"1  c #77110F",
"2  c #5D231C",
"3  c #702603",
"4  c #4A1B21",
"5  c #4B3634",
"6  c #6A3129",
"7  c #1A6D1F",
"8  c #285F2B",
"9  c #3D443D",
"0  c #264021",
"q  c #1D6C23",
"w  c #28712F",
"e  c #624D08",
"r  c #795F12",
"t  c #47453E",
"y  c #5A523E",
"u  c #1C195A",
"i  c #361F5B",
"p  c #201D5A",
"a  c #0E0C78",
"s  c #461144",
"d  c #60115F",
"f  c #660B61",
"g  c #6D1367",
"h  c #750077",
"j  c #740469",
"k  c #5E2468",
"l  c #7D397A",
"z  c #782A71",
"x  c #3C6341",
"c  c #3C7F40",
"v  c #444444",
"b  c #4C4C4C",
"n  c #4F4D44",
"m  c #4D4D50",
"M  c #574A55",
"N  c #4F5050",
"B  c #4F535E",
"V  c #565555",
"C  c #5B555B",
"Z  c #5A5B5B",
"A  c #595656",
"S  c #565143",
"D  c #79514B",
"F  c #635554",
"G  c #625B5F",
"H  c #735A58",
"J  c #466649",
"K  c #63615A",
"L  c #7D775E",
"P  c #72436F",
"I  c #645E64",
"U  c #665462",
"Y  c #6C4769",
"T  c #5C6364",
"R  c #636262",
"E  c #6B6C6B",
"W  c #676869",
"Q  c #786E6A",
"!  c #79746B",
"~  c #706E70",
"^  c #6E7473",
"/  c #747474",
"(  c #7B7B7B",
")  c #787877",
"_  c #504F65",
"`  c #8F0300",
"'  c #961B00",
"]  c #8D1A01",
"[  c #982C00",
"{  c #962E25",
"}  c #A85D00",
"|  c #856F09",
" . c #8A6A00",
".. c #8B7106",
"X. c #B36803",
"o. c #B27812",
"O. c #892750",
"+. c #AB3D50",
"@. c #82177B",
"#. c #885858",
"$. c #8E7E53",
"%. c #8C7F4C",
"&. c #856C71",
"*. c #807F7F",
"=. c #A47D7D",
"-. c #3C8040",
";. c #57885A",
":. c #688C6A",
">. c #A78A07",
",. c #B29F0A",
"<. c #B2A00B",
"1. c #938853",
"2. c #938D6D",
"3. c #81807C",
"4. c #838A7A",
"5. c #928C79",
"6. c #9C9677",
"7. c #97906B",
"8. c #A1976A",
"9. c #AAA174",
"0. c #161589",
"q. c #000094",
"w. c #3A0387",
"e. c #2C2A87",
"r. c #891984",
"t. c #911C8A",
"y. c #A31D9B",
"u. c #BC24B3",
"i. c #91478C",
"p. c #965692",
"a. c #8A7D88",
"s. c #B35CAD",
"d. c #AF57A9",
"f. c #BE72B9",
"g. c #C55EBE",
"h. c #C173BA",
"j. c #848484",
"k. c #8C8C8C",
"l. c #858989",
"z. c #889687",
"x. c #9B9685",
"c. c #9A9988",
"v. c #998592",
"b. c #8B9495",
"n. c #969696",
"m. c #959699",
"M. c #9B9B9C",
"N. c #A48D87",
"B. c #9FA09F",
"V. c #87A989",
"C. c #ACAC89",
"Z. c #B5AD86",
"A. c #A2A29B",
"S. c #A7A696",
"D. c #9D9DA3",
"F. c #A989A4",
"G. c #A3A3A2",
"H. c #A7A8A7",
"J. c #A6AFAF",
"K. c #AAABAA",
"L. c #A7A7A7",
"P. c #AAB0AF",
"I. c #AAABB0",
"U. c #B4AAB4",
"Y. c #B4B4B4",
"T. c #BBBABA",
"R. c #BBB9B7",
"E. c #B1A5AF",
"W. c #C194BE",
"Q. c #BFC1BF",
"!. c #CBC8B9",
"~. c #D1CDB3",
"^. c #D7D2B8",
"/. c #D8ADD5",
"(. c #BFC8C8",
"). c #C1C1C2",
"_. c #C7C8C7",
"`. c #CBCBCA",
"'. c #C8C7C9",
"]. c #D0CFC5",
"[. c #CACDD8",
"{. c #CED2D9",
"}. c #D2D4D5",
"|. c #D1D3D8",
" X c #DADBD9",
".X c #D8D8D7",
"XX c #D6D3C8",
"oX c #E5DCE2",
"OX c #E4E4E6",
"+X c #ECEEEC",
"@X c #E5E5E9",
"#X c #EFF1EF",
"$X c #EEFAEE",
"%X c #F2F1EE",
"&X c #F3F4F2",
"*X c #F6F9F7",
"=X c #FBFBF5",
"-X c #F7F9F9",
";X c #FDFEFD",
":X c #F7EBF6",
/* pixels */
"C.G.G.G.G.n.n.n.n.n.n.n.n.m.n.n.n.n.n.m.n.n.n.n.n.m.n.n.C.",
"J.M.n.n.l.;X;X;X;X;X;X;X;X;X;X;X;X;X;X;X;X;X;X;X;X;X;X;XG.",
"Y.l.A V ).;X*X-X-X*X-X-X-X-X*X-X-X-X-X*X-X-X*X*X;X*X*X;XL.",
"Y.K..  X;X;X;X;X;X;X;X;X;X;X;X;X;X;X;X;X;X;X;X;X;X;X*X;XG.",
"Y.L.= H.;X X_.`.`.`.`.`.[.[.[.|.|.|.|.}.`.`._. X;X;X;X;XG.",
"R.v.:.W l.k.H.K.K.K.Y.!  .>.>.| | | ..e l.Y.K.j.&X;X*X;XG.",
"K.k.a.k.E K.;X;X;X;X;X;X$.} X.[ ] ' 3 A.;X;X;Xk.#X;X*X;XG.",
"G.;X-X;X&XG.;X;XG.R.;X;XI., 1 #.N.=.&.}.;X;Xm.Z *X;X-X;XG.",
"D.;Xn.B.;XB.;X`.X &  X;X~.:.D.I.K.(.n.K.;X&Xn.( &X;X;X;XG.",
"K.}.. X R.K.;XT     3.;X~.x.D.T.R.M.L.S.;X-Xn.) &X;X-X;XG.",
"Y.(     I K.;XT.v b `.;X^.x.M.}.+XG.OX6.=X*Xn.( &X;X-X;XG.",
"L.OXb A `.K.;X;XL.Y.;X&X9.x.M.`.).n.`.6.^.*Xn.( &X;X-X;XG.",
"A.;XY.).*XG.;X-X;X;X+X5.1.S.D.T.!.!.Z.2.2.XXM.) &X;X-X;XG.",
"G.;X;X;X+XG.;X;X:XW.9 - ! 6.c.c.8.1.! b V T / *.%X;X;X;XG.",
"G.;X*X;X+XL.;X/.Y M J w % # # ; S K N v R 2 F j.&X;X=X;XG.",
"G.;X-X;X+Xz.s.g & 9 C 7 r.O.r 4 $ R E ^ D ` H l.%X;X*X;XG.",
"G.;X-X;X*XP y.% 9 N G 8 k +.,.o.t.G E W { < 5 W &X;X;X;XG.",
"G.;X;X;X$Xp.t.& N s @.- q a.*.4.A M / K 6 A A V -X;X-X;XG.",
"G.;X-X;X$Xi.@.- G j h i z.U.K.T.V.w W : T b ) E *X;X*X;XG.",
"G.;X*X;X$Xp.t.* A f w.a K ^ k.) :.;.b & > b k.) &X;X-X;XG.",
"G.;X-X;X*Xl f + t e.q.0.j.d.f.g.F.) n + + v.oXk.%X;X-X;XG.",
"G.;X-X;X&X~ F.U X _ u B E.u./.u.U.B i a O H F./ &X;X;X;XG.",
"G.;X;X;X%Xk.oXa.o o n / F.g.h.d.j.0.q.0.v + f l *X;X=X;XG.",
"G.;X*X;X&X( v.b > & m ;.:.) k.^ K a w.f C * t.p.$X;X-X;XA.",
"G.;X-X;X&XE ) b Z : E c V.T.K.U.z.i h j U = r.i.$X;X;X;XG.",
"G.;X*X;X=XN A A 6 R ^ M C j.*.a.q - z f A & r.p.$X;X-X;XG.",
"G.;X-X;X&XW 5 < { W E Z r.o.,.+.k 8 I m 9 % y.P *X;X*X;XG.",
"G.;X;X;X+Xl.H ` D ^ W R $ 4 r O.r.7 C 9 * g s.z.&X;X-X;XG.",
"G.;X-X;X#Xv.F 2 G v N G S ; @ @ $ w J M Y /.;XL.+X;X*X;XG.",
"G.;X-X;X#X:./ T V n L 1.8.c.c.6.! 0 9 U.:X;X;XG.+X;X-X;XG.",
"G.;X-X;X&X) D.XX2.2.Z.].!.Q.D.A.1.5.+X;X;X-X;XA.*X).R.;XA.",
"G.;X-X;X&X) m.-X^.6.!.n.)._.B.c.9.%X;XY.L.;X;XL.`.V b OXK.",
"G.;X-X;X%X) n.-X=X6.@XG.&X`.D.x.^.;X`.b v ).;XK.R     ( Y.",
"G.;X-X;X&X( m.-X=XS.K.m.R.T.G.x.~.;X(     R ;XK.R.X . .XK.",
"G.;X;X;X&X( k.*X=XY.k.(.J.P.b.4.~.;X X& X `.;XM.-XG.n.;XG.",
"G.;X*X;X-XZ M.;X;X}.&.=.N.#.1 , I.;X;XY.G.;X;XG.&X;X-X;XA.",
"G.;X;X;X#Xk.;X;X;XA.3 ' ] [ X.} 1.;X;X;X;X;X;XK.E k.a.k.H.",
"G.;X-X;X#Xl.K.Y.k.e ..| | | >.>. .) Y.K.K.K.K.k.j.E ( l.R.",
"G.;X;X;X=X X_.`.`..X|.|.|.|.[.[.{.`.`.`.`.`.`..X;XL.= L.Y.",
"G.;X-X=X;X;X;X;X;X;X;X;X;X;X;X;X;X;X;X;X;X;X;X;X;X X. K.R.",
"G.;X*X;X-X-X*X-X-X-X-X*X-X-X*X*X-X-X*X-X*X-X-X;XQ.A V l.R.",
"G.;X-X;X;X;X;X;X;X;X;X;X;X;X;X;X;X;X;X;X;X;X;X;Xl.n.n.M.I.",
"C.n.n.n.n.n.n.n.n.n.n.m.m.n.n.n.n.n.n.n.n.n.n.n.G.G.B.G.C."
};
