/* XPM */
static char *_2101_7b1ca47be8af91c169def5edf1154d743fd9dd88117a9789b96fd241e6a0f234[] = {
/* columns rows colors chars-per-pixel */
"29 43 203 2 ",
"   c #040303",
".  c #0C0C0D",
"X  c #00000D",
"o  c #180F00",
"O  c #100F0E",
"+  c #041206",
"@  c #00001A",
"#  c #100F10",
"$  c #1A1819",
"%  c #1E2017",
"&  c #212218",
"*  c #1D2221",
"=  c #2C2B2C",
"-  c #312B2E",
";  c #302F30",
":  c #373637",
">  c #490000",
",  c #5B0000",
"<  c #5A1417",
"1  c #501C0A",
"2  c #7F1200",
"3  c #7D1E18",
"4  c #723C1B",
"5  c #58332B",
"6  c #403E3F",
"7  c #4E2729",
"8  c #703F2F",
"9  c #30541A",
"0  c #1F781D",
"q  c #3C6D12",
"w  c #285D2A",
"e  c #297025",
"r  c #41551C",
"t  c #4D7405",
"y  c #55553A",
"u  c #644A3B",
"i  c #6A5D36",
"p  c #7D5C31",
"a  c #6B7B2F",
"s  c #1B1C54",
"d  c #15174F",
"f  c #003041",
"g  c #353E41",
"h  c #31336E",
"j  c #0A4158",
"k  c #3C4B4E",
"l  c #18665D",
"z  c #1E5B65",
"x  c #255962",
"c  c #316367",
"v  c #4A494A",
"b  c #53484B",
"n  c #57524A",
"m  c #4A4D51",
"M  c #555555",
"N  c #595959",
"B  c #585859",
"V  c #45545E",
"C  c #674B48",
"Z  c #635B43",
"A  c #6A5454",
"S  c #715C58",
"D  c #5F604D",
"F  c #7B6B49",
"G  c #716F54",
"H  c #475E65",
"J  c #655967",
"K  c #43696D",
"L  c #556764",
"P  c #6B6B6B",
"I  c #686567",
"U  c #796466",
"Y  c #757A6C",
"T  c #7D7D7D",
"R  c #767477",
"E  c #6E7476",
"W  c #811100",
"Q  c #9F0F0A",
"!  c #BA150A",
"~  c #A71912",
"^  c #AC0B08",
"/  c #842D08",
"(  c #823A1C",
")  c #8A2F13",
"_  c #8D3724",
"`  c #9A3728",
"'  c #9C3F30",
"]  c #A92F2D",
"[  c #A43929",
"{  c #AE3128",
"}  c #B77812",
"|  c #8C4732",
" . c #A64935",
".. c #BF4333",
"X. c #857D27",
"o. c #85643A",
"O. c #8C7136",
"+. c #8D6F0D",
"@. c #C37912",
"#. c #C34B36",
"$. c #90594C",
"%. c #865550",
"&. c #A25644",
"*. c #8C724D",
"=. c #8A6B6C",
"-. c #9B777C",
";. c #817D7B",
":. c #07821A",
">. c #2E892B",
",. c #318326",
"<. c #209020",
"1. c #7E872A",
"2. c #6D892F",
"3. c #68B25A",
"4. c #6E8567",
"5. c #788164",
"6. c #638F7A",
"7. c #39E746",
"8. c #52F05B",
"9. c #A58504",
"0. c #A3933F",
"q. c #D3880A",
"w. c #EA830A",
"e. c #F19C06",
"r. c #F3A006",
"t. c #E89F2C",
"y. c #EBA52D",
"u. c #FBC52B",
"i. c #8D8F4F",
"p. c #A79A42",
"a. c #9CB346",
"s. c #A2B044",
"d. c #93807F",
"f. c #8B866B",
"g. c #A18361",
"h. c #84B765",
"j. c #C18F6F",
"k. c #99C555",
"l. c #AFC556",
"z. c #9ACD77",
"x. c #B4C27B",
"c. c #91F27B",
"v. c #1D7985",
"b. c #367482",
"n. c #7F6892",
"m. c #5A5BA5",
"M. c #8A6C89",
"N. c #3B888C",
"B. c #47868D",
"V. c #6D9093",
"C. c #838283",
"Z. c #8C8C8C",
"A. c #888986",
"S. c #969485",
"D. c #9A9785",
"F. c #9B9986",
"G. c #9D9A88",
"H. c #8E9898",
"J. c #959595",
"K. c #9A9796",
"L. c #9C9C95",
"P. c #9B9B9B",
"I. c #969896",
"U. c #928E8D",
"Y. c #A39F9D",
"T. c #A19F94",
"R. c #9FA09F",
"E. c #A1A19F",
"W. c #848CBA",
"Q. c #9189A9",
"!. c #9DA5A3",
"~. c #A3A3A2",
"^. c #A9A6A6",
"/. c #A7A8A7",
"(. c #AAABAB",
"). c #AAA6AB",
"_. c #B0B0AF",
"`. c #AEB4B5",
"'. c #B4B4B3",
"]. c #B9BAB9",
"[. c #A9DF81",
"{. c #BFC1BF",
"}. c #C6C2B7",
"|. c #BEC7C6",
" X c #C4C4C3",
".X c #CACBCB",
"XX c #CDCED1",
"oX c #CED3D6",
"OX c #D1D3D3",
"+X c #DADADA",
"@X c #D7D8D7",
"#X c #D5D0CF",
"$X c #E2CEDC",
"%X c #DFE0DF",
"&X c #E2E2DF",
"*X c #F0D2E7",
"=X c #E3E4E2",
"-X c #ECEDEC",
";X c #EEF0F0",
":X c #F3F4F3",
">X c #F7F9F7",
",X c #FDFEFD",
"<X c #F4F8F9",
/* pixels */
"; (.~.~.~.J.J.J.I.J.I.I.J.I.I.J.I.I.J.I.J.J.I.J.I.I.J.P.; ",
"(.P.I.J.Z.,X,X,X,X,X,X,X,X,X,X,X,X,X,X,X,X,X,X,X,X,X,X,X~.",
"'.A.M N  X,X>X>X>X>X>X>X>X>X>X>X>X>X>X>X>X>X>X>X>X,X:X,X~.",
"'.(.  +X,X,X,X,X,X,X,X,X,X,X,X,X,X,X,X,X,X,X,X>X,X,X,X,X~.",
"{./.= /.,X+X.X.X.X.X.X.XXX#XOXOXoXoXXXoXOX.X.X%X,X,X,X,X~.",
"`.d.n.P A.U./.(.(.(._.Z.i o.*.o.o.O.p.+.Z )._.M.:X,X>X,X~.",
"/.A.C.Z.P (.,X,X,X,X,X,X}.Q ^ ^ ^ ! #.g.=X,X,X~.-X,X>X,X~.",
"R.,X>X,X;XR.,X.X6 ].,X,X.X=.-.S.=.5 > A.,X;XR.P :X,X>X,X~.",
"E.,Xv N ;X~.,XC.  R ,X,X~.Z.|.`.A.!.L /.,X.XL.S.;X,X>X,X/.",
"/.&XO *  X(.J.. . . T ,X~.R./.~.'.P./.#X,X.XL.F.;X,X>X,X~.",
"5.=   . # J.P.# ; $ C.,X(.;X~.+X-XI.J. X,X.XK.F.;X,X>X,X~.",
"U.M = : : U.,XOXB  X,X=XI .XJ._.+XI././..X.XL.F.;X,X,X,X~.",
").,XC.J.:X~.,X>X=X>X,X).n.#X@X+X X).].!.7 b L.F.:X,X>X,X~.",
"~.,X:X>X-X~.,X,X,X<X].P /.(.'.'.Y.Z.U.S &., L.F.;X,X>X,X~.",
"!.,X>X,X-X~.,X.XK.u 1 j.*.G B.c x z L ' ` C L.D.;X,X>X,X~.",
"~.,X>X,X-X(.].i.z.k./ w.u.` b B.B.F |  .%.W.P.F.;X,X>X,X~.",
"~.,X>X,X:XM.& a.7.8.s.2 y.@.9 f.G q  .3 Q.s S.F.;X,X>X,X/.",
"~.,X,X,X>XN   s.[.3.h.l 5 r.t w e q ] $.m.@ E.F.;X,X>X,X~.",
"~.,X>X,X>XP R X.x.4.V.v.j } 9.:.0 a [ M.h X d.F.;X,X>X,X~.",
"~.,X>X>X<Xn m o D 1.3.N.* y w.,.>.( [ M.s A Y I :X,X,X,X~.",
"~.,X>X,X>X6 - $ * 5.Y k K k 4 & + |  .d.L *X'.v >X,X>X,X~.",
"~.,X>X,X>Xb ).$Xm 6.< < (.I V I (.< < P b $X).M >X,X>X,X~.",
"~.,X,X,X>Xv '.*XI M. .| + & 4 m K K 5.4.* $ ; : ,X,X>X,X~.",
"~.,X>X,X:XP R A s M.[ 4 ,.,.q.n f B.i.i.D o m M >X,X>X,X~.",
"~.,X,X,X;XG.A.X h M.[ 2.<.:.9.9.j v.6.5.x.X.R P :X,X>X,X~.",
"~.,X>X,X;XG.T.@ m.$.] q e w t r.5 l h.3.c.s.  N >X,X>X,X~.",
"~.,X>X,X;XF.S.d Q.3  .r G f.9 q.y.W l.8.7.a.& C.:X,X>X,X~.",
"~.,X>X,X;XD.K.W.%. ._ u B.N.n ) u.w./ k.[.i.].(.-X,X,X,X~.",
"~.,X>X,X;XD.T.C ` _ n c x c V.u $.j.1 S }.&X,X~.-X,X,X,X~.",
"~.,X,X,X;XG.L., $.A U.H./.^._.(.).P `.<X,X,X,X~.-X>X:X,X~.",
"~.,X>X,X;XF.L.C 7 !.'./. X%XOX#X;.(.,X>X=X>X,X~.:XJ.C.,X~.",
"~.,X>X,X;XF.K.XX.X~.).P.+X_.J..XI =X,X.XB OX,XJ.: ; = M Z.",
"~.,X>X,X;XF.L..X,X XK.K.-X@X~.-X_.,XC.$ = $ P.Z.. .   = d.",
"~.,X>X,X:XF.K..X,X#X^.Y._.^.).R./.,XT . . . J._. X$ # %X^.",
"~.,X,X,X:XS.I..X,X(.L ~.A.'.|.Z.~.,X,XR   C.,X~.-XN m ,X^.",
"~.,X>X,X:XP !.-X,XC.> 5 =.-.-.U OX,X,X].: .X,X~.;X,X>X,XE.",
"~.,X>X,X;X~.,X,X-X*.#.{ ~ ~ ~ 3  X,X,X,X,X,X,X(.P U.6.U._.",
"~.,X>X,X;Xd.(.(.Z +.0.*.F F i.F i U._./.(.(./.Z.C.P M.C.].",
"~.,X,X,X,X@X.X.XOX@XXXOXOXOXoXoXOX.X.X.X.X.X.X+X,X/.= (.'.",
"~.,X>X,X,X,X,X,X,X,X,X,X,X,X,X,X,X,X,X,X,X,X,X,X,X+X  (.'.",
"~.,X>X>X>X>X>X>X>X>X>X>X>X>X>X>X>X>X>X>X>X>X>X,X{.B M A.'.",
"~.,X,X,X,X,X,X,X,X,X,X,X,X,X,X,X,X,X,X,X,X,X,X,XA.J.J.I.(.",
": I.J.I.I.I.I.J.I.J.I.I.I.I.I.J.J.J.J.J.I.I.J.J.~.~.E./.: "
};
