/* XPM */
static char *_354_f71fb92cc573e5f5df8314079865a15ae60006854baba7c432319f9185ce1182[] = {
/* columns rows colors chars-per-pixel */
"29 43 219 2 ",
"   c #290000",
".  c #372101",
"X  c #2D281A",
"o  c #343332",
"O  c #2F3237",
"+  c #142718",
"@  c #570000",
"#  c #681311",
"$  c #740C08",
"%  c #593814",
"&  c #4B3B19",
"*  c #732D0C",
"=  c #67370D",
"-  c #5F2B25",
";  c #7A2725",
":  c #793328",
">  c #783432",
",  c #640832",
"<  c #0B6500",
"1  c #007506",
"2  c #186505",
"3  c #1F4B24",
"4  c #3C563A",
"5  c #204A25",
"6  c #33623B",
"7  c #4E431F",
"8  c #50451C",
"9  c #6F5200",
"0  c #7A5F04",
"q  c #684112",
"w  c #7B6216",
"e  c #474233",
"r  c #57523C",
"t  c #4F4C35",
"y  c #6D5934",
"u  c #6F4630",
"i  c #11167B",
"p  c #242172",
"a  c #383652",
"s  c #463D4A",
"d  c #7A3A42",
"f  c #653941",
"g  c #483A7A",
"h  c #276D75",
"j  c #464544",
"k  c #4A4B4B",
"l  c #5A4E4E",
"z  c #5C5A5A",
"x  c #5B5354",
"c  c #50524F",
"v  c #785A4C",
"b  c #795956",
"n  c #556B46",
"m  c #77674A",
"M  c #7C734F",
"N  c #60605F",
"B  c #5D5F64",
"V  c #4B4A65",
"C  c #685F65",
"Z  c #7F4277",
"A  c #775966",
"S  c #506267",
"D  c #636264",
"F  c #6C6B6B",
"G  c #6A6667",
"H  c #767676",
"J  c #687168",
"K  c #940000",
"L  c #BF0000",
"P  c #8F2600",
"I  c #A11F20",
"U  c #9E3232",
"Y  c #832C23",
"T  c #A33738",
"R  c #B22022",
"E  c #DA0806",
"W  c #F80505",
"Q  c #F11B1A",
"!  c #D73711",
"~  c #E8231B",
"^  c #FD241F",
"/  c #CE1D23",
"(  c #D51F23",
")  c #C02024",
"_  c #E92525",
"`  c #F72822",
"'  c #E93736",
"]  c #F03D3D",
"[  c #87690C",
"{  c #9C7300",
"}  c #8C7216",
"|  c #8E5A34",
" . c #8A4E2E",
".. c #BD5B3F",
"X. c #A45633",
"o. c #AD7E36",
"O. c #A9712C",
"+. c #866D39",
"@. c #D4721D",
"#. c #F7582D",
"$. c #F1432E",
"%. c #CE7A2D",
"&. c #FE7F3F",
"*. c #A03F5D",
"=. c #805E47",
"-. c #A74041",
";. c #A25A42",
":. c #A3435B",
">. c #927654",
",. c #AE6645",
"<. c #9A5769",
"1. c #BC576E",
"2. c #98706F",
"3. c #986E72",
"4. c #827C67",
"5. c #A27D7C",
"6. c #CF5B53",
"7. c #EA4D4E",
"8. c #EB5F5F",
"9. c #F65656",
"0. c #F94B4A",
"q. c #F57347",
"w. c #EC6767",
"e. c #FF6E6E",
"r. c #EE7A78",
"t. c #F1706F",
"y. c #008808",
"u. c #7F807F",
"i. c #7C8D6B",
"p. c #7B8651",
"a. c #A59919",
"s. c #938430",
"d. c #B6942F",
"f. c #FE9630",
"g. c #C2A238",
"h. c #DBAF29",
"j. c #F3B332",
"k. c #F9CC3A",
"l. c #958A4F",
"z. c #B69A47",
"x. c #AE9B4E",
"c. c #94947D",
"v. c #A39772",
"b. c #B3A16C",
"n. c #A7A174",
"m. c #FD8949",
"M. c #FE8651",
"N. c #FA9051",
"B. c #C3B258",
"V. c #F8AC5D",
"C. c #D2866F",
"Z. c #C2AE61",
"A. c #CCB769",
"S. c #E3B17B",
"D. c #F9D064",
"F. c #161A89",
"G. c #0B0B92",
"H. c #091192",
"J. c #23148A",
"K. c #1F3E9E",
"L. c #292989",
"P. c #3E7B85",
"I. c #1C40A2",
"U. c #554581",
"Y. c #407A82",
"T. c #817F80",
"R. c #969796",
"E. c #9C9B99",
"W. c #969798",
"Q. c #848887",
"!. c #A2A19F",
"~. c #ACB79D",
"^. c #B9B693",
"/. c #98A7A6",
"(. c #A2A3A2",
"). c #ABACAB",
"_. c #A4AAAA",
"`. c #A9B3B4",
"'. c #B5B6B7",
"]. c #A0AFB8",
"[. c #EE9595",
"{. c #F09493",
"}. c #C3B890",
"|. c #E4BD82",
" X c #C4BAA5",
".X c #FEA9A8",
"XX c #F6B6B5",
"oX c #CEC08F",
"OX c #D0C18E",
"+X c #CFC6A1",
"@X c #D0CBBA",
"#X c #EADFB8",
"$X c #CBCBCA",
"%X c #C6C6C8",
"&X c #D6D3C8",
"*X c #CECFD1",
"=X c #CBD4D3",
"-X c #D4D7D6",
";X c #EEDEDC",
":X c #F8D8D7",
">X c #F4CCCC",
",X c #E4E1DF",
"<X c #FDE1DF",
"1X c #DDDFE5",
"2X c #E6DFE4",
"3X c #DBE2E1",
"4X c #ECEEEC",
"5X c #E2E7E6",
"6X c #F3ECEC",
"7X c #F9E5E5",
"8X c #EEF1EE",
"9X c #ECFBF9",
"0X c #F4F6F3",
"qX c #FFF4F3",
"wX c #F7F9F7",
"eX c #FAFBF5",
"rX c #F4FDFE",
"tX c #FDFEFD",
"yX c #F1EFF0",
/* pixels */
"o E.E./.E.R.R.R.W.R.R.R.W.R.E.R.R.W.W.W.E.R.R.W.W.W.R.E.o ",
"(.tX7Xe.:XtXtXtXtXtXtXtXtXtXtXtXtXtXtXtXtXtXtXtXtXtXtXtX(.",
"(.tX6X] :XtXwXwXwXwXwXwXwXwXwXwXwXwXwXwXwXwXwXwXeXeXwXtX(.",
"(.tXwX9.7XtXtXtXtXtXtXtXtXtXtXtXtXtXtXtXtXtXtXtXtXtXrXtX(.",
"(.tX7X9.:X5X%X$X$X*X*X=X=X=X=X$X-X*X$X$X$X$X$X-XtXtXeXtX(.",
"]..X9.9.,XQ.).).).X.I U T U U *.; l )._.).).).H yXtXtXtX(.",
"(.tXt.XX9XE.tXtXtX:X0.7.` 6._ ' T 4XtXtXqXqXtX_.8XtXwXtX(.",
"(.tXtXtXeXj ).tXeXtXA   u 2.5.3.2.eXeXrXw.{.tX!.4XtXwXtX(.",
"(.tX:X:XrXj H tX4XtXc.s.B._.`.].l.#XtXr.W W XX_.4XtXeXtX(.",
"(.tX7.8.0Xj F 5XE.tX}.g.z.%XE.'.b.+XtX;X' w.eX_.4XtXwXtX(.",
"(..XW W [.c F '.$XtX}.d.x.tX).%XOX+XtXtX>X<XtX(.4XtXwXtX(.",
"(.tXw.t.9XD G ).eX,XA.g.z.yX_.%XA.z.&XtXwXtXtX(.4XtXeXtX(.",
"!.tX7X7XtXz F eXtXZ.d.z.n ~.6X-Xc.a.n.rXtXtX5XF 0XtXwXtX(.",
"(.tXwXtX0Xz Q.tX2XX.% ! > h S P.> <.t G *XtXR.k eXtXeXtX(.",
"(.tXwXtX0XD G '.S.~ $ ; ~ ( ) ( ^ Z r 7 [ v.4.B rXtXeXtX(.",
"(.tXwXtX0Xz O # M.m.^ $ X Y Y u % s y e [ { y B 0XtXwXtX(.",
"_.tXwXtX9XG W.v #.M.f.Q $ m ;.X...A l w e 0 l J 0XeXeXtX_.",
"(.tXwXtX4XR.J 7 f.#.M.m.~ * | X.| v J.+.} & c D 0XtXwXtX(.",
"(.tXwXtX0XF 5 < @.j.$.D.C.E > >.,.A F.V = 9 r D 0XtXrXtX(.",
"(.tXwXtX0XB 4 1 O.k.%.:.K.1.E = | u F.o @ . 6 C 0XtXwXtX(.",
"(.tXwXtX0XG 4 1 o.k.M L.H.~.m.K v U.G.m P < 4 D 0XtXwXtX(.",
"(.tXwXtX0XC 4 y.o.h.L.H.p 8.f.#., H.p h.o.y.4 C wXtXwXtX(.",
"_.tXwXtX0XC 6 2 P =.H.g =.E M.^.J.J.>.k.o.1 4 C 0XtXwXtX(.",
"(.tXwXtXwXG 6 . @ s F.u | = E 1.K.:.%.k.O.1 4 B 0XtXwXtX(.",
"(.tXeXtX0XD c 9 q a i b ..,.Y E C.V.$.j.@.< 5 G 0XtXeXtX(.",
"(.tXwXtX0XD c & s.=.F.m | X.| * Q q.M.#.f.8 J R.8XtXwXtX(.",
"(.tXwXtX0XD r 0 & w x A ..;.;.v $ ^ f.M.#.v R.F 0XtXwXtX(.",
"(.tXwXtX0XD y { } & y s = > : : + @ ^ m.m.# o x wXtXeXtX(.",
"_.tXwXtXrXB 4.v.[ 7 r Z ` / ) / ( - @ _ S. XF C wXtXwXtX(.",
"(.tXwXtXwXk R.tX*XG t <.d P.S h > ! q y 3XtXY.A 0XtXwXtX(.",
"(.tXwXtX0XF 5XtXtXwXn.a.p.&X6X~.n x.d.A.tXwXF z rX7X7XtX(.",
"(.tXwXtX4X_.tXeXtXtX&Xz.A.%X).6Xz.g.B.,XeX).G D rXt.w.tX(.",
"(.tXwXtX4X(.tX;X>XtXtX XOX%X).tXx.g.}.tX$X'.G c [.W W .X_.",
"(.tXwXtX4X(.rXw.' :XtX+Xb.'.E.%Xd.g.oXrXE.5XF j 0X9.7.wX(.",
"_.tXwXtX4X_.XXW W r.tX#X>.].`._.B.s.c.tX6XtXH j tX:X:XtX(.",
"(.tXwXtX8X(.tX{.8.rXtXeX2.3.v.2.u   A tXwXtX).k rXtXtXtX(.",
"(.tXwXtX4X_.tXqXqXtXtX4XT ' _ 6._ 7.0.:XtXtXtXW.9XXXt.tX_.",
"(.tXwXtXrX4.).).).).`.l Y -.U *.T T I -.).).).Q.;X9.9..X`.",
"(.tXwXtXtX-X$X$X$X$X$X*X-X=X&X=X=X=X=X=X$X$X%X3X:X9.7XeX(.",
"(.tXtXtXtXtXtXtXtXtXtXtXtXtXtXtXtXtXtXtXtXtXtXtX7X9.eXtX(.",
"(.tXwXeXwXwXwXrXwXwXwXwXwXwXwXwXwXwXwXwXwXwXwXtX:X$.6XtX(.",
"(.tXtXtXtXtXtXtXtXtXtXtXtXtXtXtXtXtXtXtXtXtXtXtX:Xe.7XtX!.",
"o E.R.W.W.W.R.R.E.R.R.R.R.R.E.R.W.W.W.W.W.R.R.R.E./.W.E.o "
};
