/* XPM */
static char *_0117_5614b4e5c16013b027e31a8cffc8b6ff71c054738d62f7283822119a3a0c7477[] = {
/* columns rows colors chars-per-pixel */
"29 43 207 2 ",
"   c #391809",
".  c #053704",
"X  c #193517",
"o  c #1B1128",
"O  c #1E2F37",
"+  c #343333",
"@  c #4B140C",
"#  c #7D0F05",
"$  c #6B181A",
"%  c #6E1319",
"&  c #753E12",
"*  c #681D29",
"=  c #503738",
"-  c #7F2C22",
";  c #6D3839",
":  c #095400",
">  c #0F4B08",
",  c #0B7F08",
"<  c #2F4B2F",
"1  c #39673F",
"2  c #774014",
"3  c #774626",
"4  c #271E5F",
"5  c #1C2E50",
"6  c #181F74",
"7  c #291F60",
"8  c #152077",
"9  c #2E3173",
"0  c #50374C",
"q  c #602B53",
"w  c #760D70",
"e  c #3E5F43",
"r  c #364971",
"t  c #4D494C",
"y  c #59494C",
"u  c #4D5959",
"i  c #525253",
"p  c #5A5B5A",
"a  c #555A58",
"s  c #4B504B",
"d  c #634748",
"f  c #78534C",
"g  c #43704F",
"h  c #5E615E",
"j  c #6D644D",
"k  c #5D5962",
"l  c #4C4870",
"z  c #7A5B78",
"x  c #754F73",
"c  c #656564",
"v  c #6A696B",
"b  c #786B6B",
"n  c #6C7577",
"m  c #737474",
"M  c #797878",
"N  c #6E6F70",
"B  c #8C0000",
"V  c #950000",
"C  c #90181F",
"Z  c #BB0F12",
"A  c #A60914",
"S  c #88372E",
"D  c #B33B2D",
"F  c #AE3737",
"G  c #B63334",
"H  c #DF0000",
"J  c #F50404",
"K  c #FD0000",
"L  c #EE1D1F",
"P  c #EC0E0E",
"I  c #F23C3D",
"U  c #B04F3E",
"Y  c #935340",
"T  c #87595A",
"R  c #935653",
"E  c #815E63",
"W  c #856C6A",
"Q  c #896A6D",
"!  c #AD6766",
"~  c #B25040",
"^  c #F04D4D",
"/  c #F95555",
"(  c #EF5052",
")  c #C3674D",
"_  c #ED6B6B",
"`  c #E86566",
"'  c #F9676A",
"]  c #F5787B",
"[  c #0C8009",
"{  c #269D2E",
"}  c #51825D",
"|  c #4D9A57",
" . c #5C8861",
".. c #7B837C",
"X. c #758676",
"o. c #6C9E73",
"O. c #B79832",
"+. c #B89A36",
"@. c #BFA83D",
"#. c #CCA316",
"$. c #C29F3F",
"%. c #C4A53D",
"&. c #9A8D45",
"*. c #B89D47",
"=. c #B79F50",
"-. c #BEA142",
";. c #BEA941",
":. c #BAA150",
">. c #80847F",
",. c #B6AA69",
"<. c #C19D40",
"1. c #C1A244",
"2. c #C89270",
"3. c #EC9271",
"4. c #C9B36A",
"5. c #D1C37F",
"6. c #2C2383",
"7. c #004D97",
"8. c #125595",
"9. c #035BA3",
"0. c #0061A8",
"q. c #2F72B8",
"w. c #6D7A88",
"e. c #003CC5",
"r. c #2725D8",
"t. c #2633CA",
"y. c #1D1CF9",
"u. c #363AFA",
"i. c #3836FD",
"p. c #2932E6",
"a. c #0042C3",
"s. c #005AD7",
"d. c #0041D6",
"f. c #2F5ACE",
"g. c #364AFB",
"h. c #2F6CC2",
"j. c #9A0094",
"k. c #A5009C",
"l. c #A45891",
"z. c #9D6F9A",
"x. c #897A87",
"c. c #7A88B0",
"v. c #858585",
"b. c #888887",
"n. c #8C8B8B",
"m. c #87878A",
"M. c #918F8E",
"N. c #969695",
"B. c #989B99",
"V. c #8F9191",
"C. c #A09C94",
"Z. c #98A698",
"A. c #918EAA",
"S. c #9E9FA1",
"D. c #A29EA3",
"F. c #9BA7A5",
"G. c #A2A3A2",
"H. c #ACACAB",
"J. c #A6A9A8",
"K. c #B2AEAF",
"L. c #A8B1AF",
"P. c #B2B2AF",
"I. c #AFA3B4",
"U. c #B2ABB2",
"Y. c #A8B3B2",
"T. c #B7B6B6",
"R. c #FF8888",
"E. c #CBBA88",
"W. c #FDA884",
"Q. c #EEB88F",
"!. c #D0BFAD",
"~. c #F3B4B3",
"^. c #F5ACAD",
"/. c #CFC996",
"(. c #D3D0AC",
"). c #D6CDB5",
"_. c #FFD1A3",
"`. c #CCCBCA",
"'. c #C5C4C6",
"]. c #D4C8CB",
"[. c #CBD0CF",
"{. c #D4D3CA",
"}. c #CCD3D2",
"|. c #D3D4D2",
" X c #DAD9D7",
".X c #F6D4D3",
"XX c #F9DAD9",
"oX c #E7CCCC",
"OX c #E0E0DE",
"+X c #F6E0DE",
"@X c #D0DEE4",
"#X c #F2C3F3",
"$X c #DEE5E6",
"%X c #EDEEEC",
"&X c #E7EBEB",
"*X c #FEE4E3",
"=X c #FCE9EA",
"-X c #F4E9E8",
";X c #EFF1EF",
":X c #FBF3EF",
">X c #EFF3F2",
",X c #F3F5F3",
"<X c #F7F9F7",
"1X c #F4FCFB",
"2X c #FDFEFD",
"3X c #FAF6F7",
"4X c #F1EEF8",
/* pixels */
"+ B.B.F.B.N.N.N.B.N.N.B.N.N.B.N.N.B.N.N.B.N.N.B.N.N.N.B.+ ",
"G.2X=X' XX2X2X2X2X2X2X2X2X2X2X2X2X2X2X2X2X2X2X2X2X2X2X2XG.",
"G.2X;XI .X2X3X<X<X<X<X<X<X<X<X<X<X<X<X<X<X<X<X<X2X<X<X2XG.",
"G.2X3X/ *X2X2X2X2X2X2X2X2X2X2X2X2X2X2X2X2X2X2X2X2X2X<X2XG.",
"J.2X=X/ *X$X`.|.`.[.}.[.}.}.}.`.|.`.`.`.`.`.`. X2X2X2X2XG.",
"Y.^./ / +Xn M.m J.; G F ! F ! G f m T.H.K.H.L.W ,X2X<X2XG.",
"G.2X_ ^.1Xp K.N @X].Z ' ' ] ' ` i &X2X=X=X:X2XJ.%X2X<X2XG.",
"G.2X2X2X2Xs c M.N.&Xf & & & Q d M 2X_ P L ( 2XG.%X2X<X2XG.",
"J.=X^.~.oXn.N.'.h './.@.%./.@XB.'.2X_ K K ( 2XG.%X2X2X2XG.",
"F./ J P ( a t v.b.|.:.+.O.!.3X%XK.,X3X^ I *X2XG.;X2X<X2XG.",
"L.R.K K ] u M.m T.%X=.1.O.).I.P.b.OX2XXX.X2X2XG.%X2X<X2XG.",
"G.2X` _ 3Xp b.D. X4.*.*.+.(.1Xn.H.2X3X2X2X|.|.G.%X2X2X2XG.",
"G.2X-X=X2Xi J.2XE.#.1.-.&.l.#XZ.v v.`.2X,Xp p n.,X2X<X2XG.",
"G.2X<X2X<Xi J.2X).*.<.,.0 j.k.w c v m.<XD.t m H.%X2X2X2XG.",
"G.2X<X2X<Xi F.T.<  ...J.G.z x z.x... .M ].U.p V.,X2X<X2XG.",
"G.2X<X2X<Xi @ 2.) @ X g v.b...X.| { : o A.G.M M 3X2X<X2XG.",
"G.2X<X2X,XN y S 3.W.~   < e z 1 , X 6.p.8 O n S.,X2X2X2XG.",
"G.2X2X2X,Xc n V.d S 3.3.S . o.: 7 r.t.q $ 7.h.c.,X2X<X2XG.",
"G.2X<X2X3Xf.7.n = V B D _.Y . 6 y.6.B H A 0.e.u.2X2X<X2XG.",
"G.2X2X2X3Xg.s.4 B T b d D Q.0 r.9 j W T % 9.a.i.2X2X<X2XG.",
"G.2X<X2X<Xi.s.8.C W $ u ; T n p p i * W - 9.a.u.2X2X<X2XG.",
"G.2X<X2X2Xu.9.9.* R V X.m h l p M m V R * 9.a.u.2X2X2X2XF.",
"G.2X2X2X2Xu.e.9.* Q $ a p k n f ; u $ W C 8.d.i.2X2X<X2XG.",
"G.2X<X2X2Xi.a.9.% T b j 9 r.= W.D y W T B 5 s.f.,X2X<X2XG.",
"G.2X2X2X2Xp.9.0.A H # 6.y.6 . Y _.D B V = n 7.r :X2X2X2XG.",
"G.2X<X2X%Xc.h.9.% q t.r.7 > o.. S W.3.S y V.N v <X2X<X2XG.",
"G.2X<X2X,XC.w.5 6 p.6.X [ 1 b e <   U W.3.; a N ,X2X<X2XG.",
"G.2X2X2X3XM b G.A.o : { | X...v.X.g X @ ) 2.+ i 1X2X<X2XG.",
"G.2X<X2X>Xn.p U.].M  .v.x.z.x z G.D.M } < !.S.i 2X2X<X2XG.",
"G.2X2X2X&XH.M t G.3Xx.v c w k.j.y ,.1.-.).2XJ.i <X2X<X2XG.",
"G.2X<X2X,Xn.p p ;X2X`.v.v Z.#Xl.&.-.%.#.E.2XG.i 2X=X*X2XG.",
"J.2X<X2X%XD.|.|.2X2X2X2XH.n.1X(.+.=.*.4. XS.b.a 2X_ ` 2XG.",
"G.2X<X2X%XG.2X2X.XXX2XOXv.P.I.).O.*.:.;XT.m M.k ] K J R.L.",
"G.2X<X2X%XG.2X+XI ( 3X,XK.%X3X!.O.@.:.|.v.v.s u ( J J / L.",
"J.2X<X2X%XG.2X/ K K _ 2X'.C.@X/.%.%.E.'.c '.M.n.oX~.^.*XJ.",
"G.2X<X2X%XD.2X( L P _ 2XW q Q 3 & & j $XM.N.c t 2X2X2X2XG.",
"G.2X<X2X%XJ.2X:X=X*X2X&Xi _ ' ] ' ' Z ]. XN H.p 1X~._ 2XJ.",
"G.2X<X2X1XW H.L.P.H.T.m f G ! F ! G G ; J.m N.m -X/ / ^.Y.",
"G.2X2X2X2X X`.`.`.`.`.[.|.}.}.}.}.}.}.}.`. X`.$XXX/ =X3XG.",
"G.2X<X2X2X2X2X2X2X2X2X2X2X2X2X2X2X2X2X2X2X2X2X2X*X/ 3X2XG.",
"G.2X3X2X2X<X<X<X<X<X<X<X<X<X<X<X<X<X<X<X<X<X3X2XXXI :X2XG.",
"F.2X2X2X2X2X2X2X2X2X2X2X2X2X2X2X2X2X2X2X2X2X2X2X.X' =X2XD.",
"+ B.N.N.N.N.N.N.B.N.N.N.N.N.B.N.N.N.N.N.B.N.N.N.B.F.N.B.+ "
};
