/* XPM */
static char *_8201_0c308fc0ed13709d0a1c41668a4ab5e37c502d17ce85234ac575bb2a7f95daf0[] = {
/* columns rows colors chars-per-pixel */
"29 43 205 2 ",
"   c #010001",
".  c #090809",
"X  c #141314",
"o  c #1D061B",
"O  c #003600",
"+  c #2B0624",
"@  c #2D1927",
"#  c #3B1C2C",
"$  c #361A25",
"%  c #262724",
"&  c #323B33",
"*  c #383937",
"=  c #342D31",
"-  c #560A0A",
";  c #701819",
":  c #6B3F14",
">  c #513637",
",  c #024D07",
"<  c #0F4111",
"1  c #006F08",
"2  c #007800",
"3  c #2D5B30",
"4  c #394139",
"5  c #356838",
"6  c #6F4217",
"7  c #71451A",
"8  c #63452C",
"9  c #734F39",
"0  c #7F6F2F",
"q  c #776B35",
"w  c #6F663C",
"e  c #301C70",
"r  c #2E2871",
"t  c #33367E",
"y  c #3D2D66",
"u  c #52004D",
"i  c #471546",
"p  c #5A3558",
"a  c #4B3649",
"s  c #60315E",
"d  c #6E0869",
"f  c #7D2678",
"g  c #753272",
"h  c #472F65",
"j  c #3F4A40",
"k  c #454344",
"l  c #4C4C4C",
"z  c #4A4845",
"x  c #574949",
"c  c #575647",
"v  c #545353",
"b  c #5A5C58",
"n  c #5B475A",
"m  c #625D59",
"M  c #5D645D",
"N  c #62625B",
"B  c #786D5E",
"V  c #7E7752",
"C  c #53596C",
"Z  c #645F63",
"A  c #7E457A",
"S  c #646363",
"D  c #676763",
"F  c #6F726F",
"G  c #74726C",
"H  c #7D7E7D",
"J  c #727373",
"K  c #786A6F",
"L  c #940A0E",
"P  c #89261F",
"I  c #B0241D",
"U  c #8C2E2A",
"Y  c #872A2A",
"T  c #863434",
"R  c #917A19",
"E  c #BE5728",
"W  c #B44F36",
"Q  c #857329",
"!  c #BC6027",
"~  c #CA412D",
"^  c #C55B31",
"/  c #87226E",
"(  c #8B367D",
")  c #812B74",
"_  c #854C4A",
"`  c #9A5152",
"'  c #924343",
"]  c #BC474A",
"[  c #B95855",
"{  c #A64344",
"}  c #8B764E",
"|  c #BE6259",
" . c #836468",
".. c #877A67",
"X. c #817E7A",
"o. c #AB7A73",
"O. c #C45053",
"+. c #C46457",
"@. c #D2655E",
"#. c #E95162",
"$. c #D3687F",
"%. c #D84969",
"&. c #B7993C",
"*. c #B69939",
"=. c #BFA83F",
"-. c #C19F2C",
";. c #D7AE23",
":. c #C9A634",
">. c #9E8146",
",. c #A7854E",
"<. c #B99D43",
"1. c #A69457",
"2. c #BDA143",
"3. c #80807F",
"4. c #B0A169",
"5. c #A4946F",
"6. c #CCAC43",
"7. c #C5AB46",
"8. c #C3AE56",
"9. c #D9857F",
"0. c #C8B561",
"q. c #CEB979",
"w. c #2B1A99",
"e. c #2B169F",
"r. c #31319E",
"t. c #2E1AA1",
"y. c #454D9E",
"u. c #545A96",
"i. c #7D7F81",
"p. c #4F59A5",
"a. c #4C4FBF",
"s. c #121EC1",
"d. c #3A3AD8",
"f. c #1F25E5",
"g. c #2026E7",
"h. c #484BC2",
"j. c #8C0685",
"k. c #8F318C",
"l. c #B13BA7",
"z. c #AB39AC",
"x. c #D42D85",
"c. c #A5639F",
"v. c #B554B5",
"b. c #BC66AD",
"n. c #BC6CB3",
"m. c #904F91",
"M. c #E75981",
"N. c #C956BE",
"B. c #D150BF",
"V. c #C668AF",
"C. c #C16FB6",
"Z. c #E463C3",
"A. c #E667D1",
"S. c #E268D3",
"D. c #CA75CB",
"F. c #8C8C8C",
"G. c #868586",
"H. c #8C8E90",
"J. c #969696",
"K. c #9A9B9B",
"L. c #97959A",
"P. c #93908F",
"I. c #A79797",
"U. c #9BA09F",
"Y. c #A0A19F",
"T. c #A2A3A2",
"R. c #A7A8A7",
"E. c #ABABAB",
"W. c #A8A8A8",
"Q. c #ADB5AE",
"!. c #ABACB1",
"~. c #B6AAB3",
"^. c #B3B4B3",
"/. c #BBBBBA",
"(. c #B7BAB9",
"). c #B0B1B0",
"_. c #D38C8C",
"`. c #BFC1BF",
"'. c #D2D0B3",
"]. c #CDBCCD",
"[. c #F9AFE1",
"{. c #E792EB",
"}. c #BDC5C8",
"|. c #CCCCCB",
" X c #C2C5C5",
".X c #D3C9C5",
"XX c #CFD0CE",
"oX c #DCD8CC",
"OX c #CCD3D3",
"+X c #D3D4D3",
"@X c #DBDCDB",
"#X c #D7D7D4",
"$X c #F8DFDF",
"%X c #E0DFDF",
"&X c #DFE0DF",
"*X c #E0E0DF",
"=X c #E3E3E3",
"-X c #ECEDEC",
";X c #EFF0EE",
":X c #EAEBF0",
">X c #F3F5F4",
",X c #F6F9F7",
"<X c #FDFEFD",
"1X c #F7F8FB",
"2X c #EECFF5",
/* pixels */
"R.J.K.R.K.J.J.J.L.J.J.J.L.J.J.J.J.L.J.J.J.L.J.J.L.J.J.J.R.",
"T.<X=XD XX<X<X<X<X<X<X<X<X<X<X<X<X<X<X<X<X<X<X<X<X<X<X<XT.",
"I.<X-X* +X<X,X,X,X,X,X,X1X1X,X1X,X1X1X,X1X,X,X,X<X,X,X<XT.",
"T.<X,Xv =X<X<X<X<X<X<X<X<X<X<X<X<X<X<X<X<X<X<X<X<X<X,X<XT.",
"T.<X>Xv @X=X|.OX|.+XOXXX+X.XOXOX+X|.|.|.|.|.|.@X<X<X<X<XT.",
"^.).D v @XF.G ..P.z Y _ T m T U ; U.!.R.R.E.E.H >X<X,X<XT.",
"T.<Xb R.,XJ.G 4.;X!.` ~ [ O.O.L I.<X<X<X<X<X<XR.-X<X1X<XT.",
"T.<X<X<X;XJ.B } 1X@Xa  .9 : 7 8 OX<X<X^.R.<X<XT.-X<X,X<XT.",
"Y.<XJ.K.<XT.P.5.<X%XG.}.'.7.7.8.-X<X@X% X |.<XT.-X<X,X<XT.",
"E.#X. X (.E...,.,X(.=X<XoX*.2.*.oX<XH     S <XT.-X<X1X<XT.",
").H     Z !...,.:XL./.K..X&.<.&.oX<X|.l k /.<XT.;X<X1X<XT.",
"R.=Xl b XXP.m 1.-X#XH :X'.-.<.:.6.oX<X^.E.<X<XT.-X<X<X<XT.",
"Y.<X^./.<XP.Z D %XF.J.<Xq.:.7.7.;.0.<X<X<X,X<XT.-X<X1X<XT.",
"T.<X<X<X;XF.~.P.l X % } 0 w Q 0 R o.2X<X<X<X<XT.-X<X<X<XT.",
"T.<X,X<X>X3.J b c k + # # # # # $ v.B.9.$X<X<XR.;X<X,X<XT.",
"T.<X1X<X<XM o n z b e t.w.w.w.t.r C.A.P ; _. XG >X<X1X<XT.",
"T.<X,X<X,Xp + 3 M c t f.a.d.a.d.s.b.A.U - > G k ,X<X,X<XT.",
"T.<X,X<X,Xa , 1 c > = y p.C u.y.r.V.S.I { ^.v a ,X<X1X<XT.",
"T.<X,X<X<X5 2 < @ & K ^ E E ^ ! ~ Z.l.@..XH = b ,X<X,X<XT.",
"T.<X,X<X1X5 O d p & E.$.[ [ ] +.[ C.c.W.}.M a m.,X<X<X<XT.",
"T.<X1X<X<X& u g 4 J |.z./ k.m.k.( / v.}.G.j ) k.,X<X1X<XT.",
"T.<X1X<X,Xp j.z C Q.D.x.%.$.[.$.#.x.{.'.b l j.p ,X<X<X<XT.",
"T.<X,X<X>Xk.f k G. XN./ ( k.m.( ) v.].F 4 g u & ,X<X,X<XT.",
"T.<X<X<X,XA a N }.!.n.n.[ +.[ [ [ $.W.= p d O 5 ,X<X1X<XT.",
"T.<X,X<X,XM = H '.+.z.Z.~ E E E W E K 4 i < 2 5 1X<X1X<XT.",
"T.<X,X<X<Xk l (.' I A.V.r.y.u.C p.y > > b 1 , k ,X<X,X<XT.",
"T.<X1X<X,Xk J > - Y S.b.s.d.h.d.a.f.t c b 3 @ p <X<X,X<XT.",
"T.<X<X<X>XJ |._.L Y Z.N.r e.w.w.w.e.e N z n X M <X<X,X<XT.",
"T.<X1X<X;XR.<X<X$X_.B.c.@ # # # $ $ + k v N D m.>X<X,X<XT.",
"T.<X<X<X;XY.<X,X<X<X2Xo.R 0 Q w q V % . * L.~.P.>X<X1X<XT.",
"T.<X,X<X-XT.<X<X<X<X<X0.;.7.6.:.q.<XJ.F.%XS Z H.1X'.(.<XY.",
"T.<X1X<X-XR.<X<XR.^.<XoX:.:.&.-.'.:XH @X:X1.b H.|.v l =XW.",
"T.<X1X<X-XT.<X/.k l OX,XoX*.=.*..XK./.J.:X,...!.Z     H ).",
"T.<X1X<X-XT.<XS     m.<XoX=.2.*.@X<X=X^.1X} ..E./.X . #XE.",
"T.<X<X<X-XT.<X|.X % @X<X;X2.2.=.'. XF.&X<X} 3.E.1XI.J.<XY.",
"T.<X,X<X-XT.<X<XT.^.<X<X@X8 7 6 9 B x &X>X} } L.;X<X<X<XT.",
"T.<X,X<X-XR.<X<X<X<X<X<XK.L O.] O.O.` ).-X4.G J.1XR.M <XT.",
"R.<X,X<X>X3.).E.E.E.).U.; T Y B T _ Y > H...G F.@Xv D ).^.",
"T.<X1X<X<X@X X|.|.|.|.|.#XOX|.|.OXOXOX+X|.+X|.=X&Xv >X<XR.",
"T.<X<X<X<X<X<X<X<X<X<X<X<X<X<X<X<X<X<X<X<X<X<X<X=Xv ,X<XT.",
"T.<X>X<X<X1X,X1X1X,X1X,X,X1X,X,X1X,X,X1X,X,X,X<X+X* -X<XT.",
"T.<X<X<X<X<X<X<X<X<X<X<X<X<X<X<X<X<X<X<X<X<X<X<X|.D =X<XY.",
"T.J.J.J.J.J.J.J.J.J.L.J.J.J.J.L.J.J.J.J.J.L.J.J.K.E.J.J.R."
};
