/* XPM */
static char *_325_d76f82e3e9cdb3b75815fada3cd5d9f6ea1c1481880a999fb7c9d4856ee49fa3[] = {
/* columns rows colors chars-per-pixel */
"29 43 220 2 ",
"   c #0C0C0C",
".  c #070605",
"X  c #1F1200",
"o  c #080419",
"O  c #181717",
"+  c #221300",
"@  c #201F1F",
"#  c #002A00",
"$  c #003A00",
"%  c #1E3F00",
"&  c #393204",
"*  c #3D2717",
"=  c #1B1D20",
"-  c #1C1E37",
";  c #2C2A29",
":  c #3B2D21",
">  c #363534",
",  c #3A393A",
"<  c #2E2D30",
"1  c #461A00",
"2  c #7A160F",
"3  c #472A09",
"4  c #5A2A00",
"5  c #562D0E",
"6  c #4D320B",
"7  c #673D14",
"8  c #703F16",
"9  c #5E3239",
"0  c #004A02",
"q  c #005E04",
"w  c #055609",
"e  c #364204",
"r  c #224000",
"t  c #037A09",
"y  c #067010",
"u  c #2F702C",
"i  c #574307",
"p  c #4B5618",
"a  c #7C5B05",
"s  c #765B17",
"d  c #6D471A",
"f  c #796415",
"g  c #7B7E1C",
"h  c #4D452F",
"j  c #594635",
"k  c #4C4F3D",
"l  c #694620",
"z  c #754F22",
"x  c #7C5B2B",
"c  c #765327",
"v  c #624C3A",
"b  c #597034",
"n  c #70632D",
"m  c #170A5A",
"M  c #595648",
"N  c #5C4F56",
"B  c #535253",
"V  c #5D5C5C",
"C  c #5C5756",
"Z  c #494D50",
"A  c #7E5C56",
"S  c #635245",
"D  c #6B664D",
"F  c #76704E",
"G  c #697259",
"H  c #635E62",
"J  c #785E6A",
"K  c #596766",
"L  c #676666",
"P  c #706F6E",
"I  c #7A7865",
"U  c #6A6D71",
"Y  c #746D72",
"T  c #7D7B7C",
"R  c #797776",
"E  c #63777D",
"W  c #841B12",
"Q  c #A6140F",
"!  c #852B2B",
"~  c #813232",
"^  c #8A2F30",
"/  c #B83E3F",
"(  c #AF3E3E",
")  c #9C5C00",
"_  c #975600",
"`  c #835812",
"'  c #88530E",
"]  c #A94E00",
"[  c #A54D16",
"{  c #856E1E",
"}  c #966D18",
"|  c #924C22",
" . c #805C2C",
".. c #8E632C",
"X. c #9B682F",
"o. c #897523",
"O. c #986B33",
"+. c #886339",
"@. c #A77434",
"#. c #AC7331",
"$. c #D56D00",
"%. c #CB7205",
"&. c #83524F",
"*. c #825952",
"=. c #834F4F",
"-. c #BB4E51",
";. c #B14649",
":. c #866E4D",
">. c #AA7E42",
",. c #837D6E",
"<. c #C0494F",
"1. c #07960B",
"2. c #0F8419",
"3. c #35981C",
"4. c #00A100",
"5. c #05B918",
"6. c #7D801E",
"7. c #70892E",
"8. c #3ADD32",
"9. c #54DA3B",
"0. c #53C938",
"q. c #2C9C5A",
"w. c #1CAA5D",
"e. c #71A447",
"r. c #7D8473",
"t. c #6B8263",
"y. c #929224",
"u. c #B1932E",
"i. c #B89B38",
"p. c #AF932F",
"a. c #E98502",
"s. c #C3AB3E",
"d. c #CCA22F",
"f. c #9F8C4D",
"g. c #B49A45",
"h. c #A79145",
"j. c #BDA643",
"k. c #91916D",
"l. c #81817F",
"z. c #DBBD5F",
"x. c #C1A743",
"c. c #C6B67D",
"v. c #98DA5D",
"b. c #83E763",
"n. c #010086",
"m. c #0A06AD",
"M. c #707A81",
"N. c #857F84",
"B. c #9D7F81",
"V. c #4F9B9C",
"C. c #7D95A7",
"Z. c #7093D7",
"A. c #759BE6",
"S. c #878687",
"D. c #948A8A",
"F. c #94938A",
"G. c #8E9192",
"H. c #8B9596",
"J. c #959695",
"K. c #9A9B99",
"L. c #989797",
"P. c #899186",
"I. c #A58C89",
"U. c #A0A09F",
"Y. c #ACAB9A",
"T. c #A8A797",
"R. c #B6AD94",
"E. c #B5B49C",
"W. c #B3A78F",
"Q. c #809BA1",
"!. c #A781A1",
"~. c #A799A3",
"^. c #9EA0A4",
"/. c #A3A3A2",
"(. c #AAA4A5",
"). c #AAABA3",
"_. c #ABADAC",
"`. c #A7AEA1",
"'. c #ABB2B2",
"]. c #B3B3B2",
"[. c #B8B7B8",
"{. c #AFACAF",
"}. c #C39797",
"|. c #C8B59D",
" X c #CCBDA3",
".X c #C8B7A1",
"XX c #C4B6B5",
"oX c #D8BFB5",
"OX c #C4C180",
"+X c #D2F08E",
"@X c #D8D1BB",
"#X c #D4C1AE",
"$X c #E1D9BD",
"%X c #8298DE",
"&X c #859EF0",
"*X c #BFC3D1",
"=X c #BFC2CB",
"-X c #CBCBCB",
";X c #C5C7CB",
":X c #CFD2CE",
">X c #CBD4D3",
",X c #D0D3D1",
"<X c #DDDDDD",
"1X c #D6D6D9",
"2X c #CCCFD3",
"3X c #E0DED3",
"4X c #DEE0DE",
"5X c #FFF2C7",
"6X c #E5E3D9",
"7X c #E1D4E5",
"8X c #E4E4E3",
"9X c #EBECEB",
"0X c #E6E8E9",
"qX c #EFF1EF",
"wX c #EFF3F4",
"eX c #F4F5F4",
"rX c #F7F9F7",
"tX c #FDFEFE",
"yX c #F7FAFB",
"uX c #F0F2EF",
/* pixels */
"> K.K.(.K.J.J.L.L.J.J.L.L.L.L.L.L.L.L.L.L.L.L.L.L.L.J.K.> ",
"U.tX8XL >XtXtXtXtXtXtXtXtXtXtXtXtXtXtXtXtXtXtXtXtXtXtXtX/.",
"/.tX9X, ,XtXrXrXrXrXrXrXrXrXrXrXrXrXrXrXrXrXrXrXyXrXrXtX/.",
"U.tXrXB 8XtXtXtXtXtXtXtXtXtXtXtXtXtXtXtXtXtXtXtXtXtXrXtXU.",
"/.tXeXB <X8X-X-X-X,X>X>X,X1X>X>X>X-X-X-X-X-X;X1XtXtXyXtX/.",
"]._.L B 4XP /.].G.9 ^ ! =.9 =.2 2 L._.{.]._._.S.eXtXyXtX/.",
"(.tXV (.tXV ].tXuX+.Q / / -.-.;.{.tXtX0X4XtXtX/.9XtXrXtX/.",
"/.tXtXtXrXC ; ;X5X' N k.D.*.d l ,XtXtX, O rXtX/.9XtXrXtXU.",
"/.tXB V tX9 1 ;X$X{ B '.H.E.x.x.3XtX/.O   J.rX/.9XtXyXtX/.",
"(.4X  O 2XS 4 >XtXf.:.C.^.Y.i.i.6X0XO .   . 2X_.9XtXrXtX/.",
"l.< . . = * 5 2X@X} XXG.7X#Xi.g.:XtXK.V V D.eX/.9XtXrXtX/.",
"P.B , , Z : 1 2Xc.u.T.G.1X Xp.g.s ;XtX]./.tXtX/.qXtXrXtX/.",
"/.tXS.G.tXj 1 '.z.u.j (.[.D g.f + o.[.tXtXyXtXJ.uXtXrXtX/.",
"/.tXeXrXrXS :.~.L B 7 7 < M.n 6 r y.OXJ.1XtX[.I rXtXyXtX/.",
"/.tXrXtXuXS.G.~.H L x O.M I I i 1.7.9.0.x @.W.T.9XtXyXtX/.",
"/.tXrXtXeXT V B.P P c ..h k. .3.t o.b.v.a _ #XY.9XtXrXtXU.",
"/.tXrXtXeXR R J r.> z O.& i b 5.q o.+X+X` )  XT.9XtXyXtX/.",
"/.tXrXtX9XF.J.o - o @.F Q.D 2.1.q 6.8.9.' }  XT.9XtXrXtX/.",
"/.tXrXtX9XE.(.n.m.m #.G A.q.4.2.w f e.7.z 5  XY.9XtXrXtX/.",
"/.tXrXtX0XY.(.Z E G @.I &XV.w.u & %.] | X.+ ).Y.9XtXyXtX/.",
"/.tXrXtX9XY.).w y p #.S Z.C.P.A $.a.| #.e 0 `.Y.9XtXrXtX/.",
"/.tXrXtX9XY.T.# $ l O.W :.r.d.r.+.2 +.z $ # (.E.9XtXyXtX/.",
"/.tXyXtX9XY.).0 e >.[ a.$.A P.C.Z.K u.p y w (.Y.9XtXyXtX/.",
"/.tXrXtX9XY.).+ X.| ] %.& u w.V.Z.t.X.M M.Z /.Y.9XtXrXtXU.",
"/.tXyXtX9XY. X5 c b e.f w t 4.q.A.G #.m m.n.(.E.9XtXyXtX/.",
"/.tXrXtX9XT. X} a 0.8.y.q 1.2.D C.F #.o - o L.D.qXtXrXtX/.",
"/.tXrXtX0XY. X) a +X+Xy.q 5.b i & X.z > T J M.R rXtXrXtX/.",
"/.tXrXtX9XY. X) ` v.b.o.t 3.+.k.h ..c U P !.H ,.eXtXrXtX/.",
"/.tXrXtX9XY.R.@.x 0.9.7.1.i ,.,.M O.x L H (.G.N.eXtXtXtX/.",
"/.tXyXtXeXI [.tX1XJ.OXy.r 3 c M.; d 7 Z L K.:.N rXrXqXtX/.",
"/.tXrXtX9XJ.tXtXtXyX[.o.X f i.D [.(.j p.z.(.1 j tXG.P.tX/.",
"/.tXrXtX9X/.tXtX/.].tX*Xs g.h.|.1XG.~.p.c.-X3 : Z , > B D.",
"/.tXrXtX9X(.eXD.C V J.tX@Xg.i.oX7XL.XXo.@X2X4 * = . . ; S.",
"/.tXrXtX9X{.:X.   . O 0X6Xi.i.W.^.N.,.f.tX:X4 v 2XO   <X(.",
"/.tXyXtX9X/.yXG.O O /.tX3Xj.s.E.H.].B o.$X;X1 j tXV B tX/.",
"/.tXrXtX9X/.tXeXO , tXtX,Xd d *.B.k.B a 5X=X; N rXtXtXtX/.",
"/.tXrXtXqX/.tXtX4X0XtXtX}.;.<.-./ / Q :.wXtX].H tX(.V tX/.",
"/.tXrXtXeXl._.).].].{.L.2 W &.~ =.! ^ 9 G.].(.P <XB L {.].",
"/.tXyXtXtX<X;X-X-X;X-X-X>X>X>X>X>X>X>X,X-X-X;X8X<XB rXtX/.",
"/.tXyXtXtXtXtXtXtXtXtXtXtXtXtXtXtXtXtXtXtXtXtXtX8XB rXtX/.",
"/.tXeXyXyXrXrXrXrXrXrXrXrXrXrXrXrXrXrXrXrXrXrXtX:X, 9XtXU.",
"/.tXtXtXtXtXtXtXtXtXtXtXtXtXtXtXtXtXtXtXtXtXtXtX-XL 8XtXU.",
"> L.J.L.L.L.L.J.L.L.L.L.L.L.L.L.J.J.J.J.L.L.L.J.K._.L.K.> "
};
